<svg xmlns="http://www.w3.org/2000/svg" xmlns:xlink="http://www.w3.org/1999/xlink" width="500" zoomAndPan="magnify" viewBox="0 0 375 374.999991" height="500" preserveAspectRatio="xMidYMid meet" version="1.0"><defs><g/><clipPath id="dd6fed1211"><path d="M 168 161 L 243 161 L 243 236.1875 L 168 236.1875 Z M 168 161 " clip-rule="nonzero"/></clipPath><clipPath id="a644cd492f"><path d="M 179 170 L 198 170 L 198 189 L 179 189 Z M 179 170 " clip-rule="nonzero"/></clipPath><clipPath id="99b8a1fe2f"><path d="M 179.515625 186.460938 L 196.007812 170.871094 L 199.640625 174.714844 L 183.148438 190.300781 Z M 179.515625 186.460938 " clip-rule="nonzero"/></clipPath><clipPath id="4a01898861"><path d="M 179.515625 186.460938 L 196.007812 170.871094 L 199.640625 174.714844 L 183.148438 190.300781 Z M 179.515625 186.460938 " clip-rule="nonzero"/></clipPath><clipPath id="a2720ecd89"><path d="M 179.515625 186.460938 L 196.007812 170.871094 L 199.640625 174.714844 L 183.148438 190.300781 Z M 179.515625 186.460938 " clip-rule="nonzero"/></clipPath><clipPath id="49cdb70355"><path d="M 179.519531 186.460938 L 196.027344 170.859375 L 199.65625 174.699219 L 183.148438 190.300781 Z M 179.519531 186.460938 " clip-rule="nonzero"/></clipPath><clipPath id="72fcae279e"><path d="M 179.519531 186.460938 L 196.011719 170.875 L 199.640625 174.710938 L 183.144531 190.300781 Z M 179.519531 186.460938 " clip-rule="nonzero"/></clipPath><clipPath id="13ad4192a5"><path d="M 183 185 L 185 185 L 185 187 L 183 187 Z M 183 185 " clip-rule="nonzero"/></clipPath><clipPath id="ecf4591d6e"><path d="M 179.515625 186.460938 L 196.007812 170.871094 L 199.640625 174.714844 L 183.148438 190.300781 Z M 179.515625 186.460938 " clip-rule="nonzero"/></clipPath><clipPath id="c878827d0c"><path d="M 179.515625 186.460938 L 196.007812 170.871094 L 199.640625 174.714844 L 183.148438 190.300781 Z M 179.515625 186.460938 " clip-rule="nonzero"/></clipPath><clipPath id="296f59dbb9"><path d="M 179.515625 186.460938 L 196.007812 170.871094 L 199.640625 174.714844 L 183.148438 190.300781 Z M 179.515625 186.460938 " clip-rule="nonzero"/></clipPath><clipPath id="9b3dd31b4b"><path d="M 184 185 L 187 185 L 187 187 L 184 187 Z M 184 185 " clip-rule="nonzero"/></clipPath><clipPath id="72ae95ef72"><path d="M 179.515625 186.460938 L 196.007812 170.871094 L 199.640625 174.714844 L 183.148438 190.300781 Z M 179.515625 186.460938 " clip-rule="nonzero"/></clipPath><clipPath id="b3d0d21c0e"><path d="M 179.515625 186.460938 L 196.007812 170.871094 L 199.640625 174.714844 L 183.148438 190.300781 Z M 179.515625 186.460938 " clip-rule="nonzero"/></clipPath><clipPath id="0240878414"><path d="M 179.515625 186.460938 L 196.007812 170.871094 L 199.640625 174.714844 L 183.148438 190.300781 Z M 179.515625 186.460938 " clip-rule="nonzero"/></clipPath><clipPath id="d43d8e1ca4"><path d="M 181 185 L 184 185 L 184 187 L 181 187 Z M 181 185 " clip-rule="nonzero"/></clipPath><clipPath id="c89f245350"><path d="M 179.515625 186.460938 L 196.007812 170.871094 L 199.640625 174.714844 L 183.148438 190.300781 Z M 179.515625 186.460938 " clip-rule="nonzero"/></clipPath><clipPath id="c0ff0e3870"><path d="M 179.515625 186.460938 L 196.007812 170.871094 L 199.640625 174.714844 L 183.148438 190.300781 Z M 179.515625 186.460938 " clip-rule="nonzero"/></clipPath><clipPath id="9f28e01535"><path d="M 179.515625 186.460938 L 196.007812 170.871094 L 199.640625 174.714844 L 183.148438 190.300781 Z M 179.515625 186.460938 " clip-rule="nonzero"/></clipPath><clipPath id="2b95b32f20"><path d="M 184 183 L 187 183 L 187 186 L 184 186 Z M 184 183 " clip-rule="nonzero"/></clipPath><clipPath id="013be9f34b"><path d="M 179.515625 186.460938 L 196.007812 170.871094 L 199.640625 174.714844 L 183.148438 190.300781 Z M 179.515625 186.460938 " clip-rule="nonzero"/></clipPath><clipPath id="f4f6dab232"><path d="M 179.515625 186.460938 L 196.007812 170.871094 L 199.640625 174.714844 L 183.148438 190.300781 Z M 179.515625 186.460938 " clip-rule="nonzero"/></clipPath><clipPath id="a51372efb8"><path d="M 179.515625 186.460938 L 196.007812 170.871094 L 199.640625 174.714844 L 183.148438 190.300781 Z M 179.515625 186.460938 " clip-rule="nonzero"/></clipPath><clipPath id="6eb4a71923"><path d="M 186 183 L 188 183 L 188 186 L 186 186 Z M 186 183 " clip-rule="nonzero"/></clipPath><clipPath id="5cf2add918"><path d="M 179.515625 186.460938 L 196.007812 170.871094 L 199.640625 174.714844 L 183.148438 190.300781 Z M 179.515625 186.460938 " clip-rule="nonzero"/></clipPath><clipPath id="971d488bc6"><path d="M 179.515625 186.460938 L 196.007812 170.871094 L 199.640625 174.714844 L 183.148438 190.300781 Z M 179.515625 186.460938 " clip-rule="nonzero"/></clipPath><clipPath id="3fe57f2a7a"><path d="M 179.515625 186.460938 L 196.007812 170.871094 L 199.640625 174.714844 L 183.148438 190.300781 Z M 179.515625 186.460938 " clip-rule="nonzero"/></clipPath><clipPath id="fca9cf1a70"><path d="M 183 183 L 185 183 L 185 186 L 183 186 Z M 183 183 " clip-rule="nonzero"/></clipPath><clipPath id="0289531b3d"><path d="M 179.515625 186.460938 L 196.007812 170.871094 L 199.640625 174.714844 L 183.148438 190.300781 Z M 179.515625 186.460938 " clip-rule="nonzero"/></clipPath><clipPath id="fac5aab170"><path d="M 179.515625 186.460938 L 196.007812 170.871094 L 199.640625 174.714844 L 183.148438 190.300781 Z M 179.515625 186.460938 " clip-rule="nonzero"/></clipPath><clipPath id="fa3a384bd2"><path d="M 179.515625 186.460938 L 196.007812 170.871094 L 199.640625 174.714844 L 183.148438 190.300781 Z M 179.515625 186.460938 " clip-rule="nonzero"/></clipPath><clipPath id="a1aed209f1"><path d="M 191 177 L 193 177 L 193 179 L 191 179 Z M 191 177 " clip-rule="nonzero"/></clipPath><clipPath id="003e165f5b"><path d="M 179.515625 186.460938 L 196.007812 170.871094 L 199.640625 174.714844 L 183.148438 190.300781 Z M 179.515625 186.460938 " clip-rule="nonzero"/></clipPath><clipPath id="31f5789dfb"><path d="M 179.515625 186.460938 L 196.007812 170.871094 L 199.640625 174.714844 L 183.148438 190.300781 Z M 179.515625 186.460938 " clip-rule="nonzero"/></clipPath><clipPath id="936a207e82"><path d="M 179.515625 186.460938 L 196.007812 170.871094 L 199.640625 174.714844 L 183.148438 190.300781 Z M 179.515625 186.460938 " clip-rule="nonzero"/></clipPath><clipPath id="dae888bc21"><path d="M 192 177 L 195 177 L 195 179 L 192 179 Z M 192 177 " clip-rule="nonzero"/></clipPath><clipPath id="cf29580747"><path d="M 179.515625 186.460938 L 196.007812 170.871094 L 199.640625 174.714844 L 183.148438 190.300781 Z M 179.515625 186.460938 " clip-rule="nonzero"/></clipPath><clipPath id="1ce9739b6d"><path d="M 179.515625 186.460938 L 196.007812 170.871094 L 199.640625 174.714844 L 183.148438 190.300781 Z M 179.515625 186.460938 " clip-rule="nonzero"/></clipPath><clipPath id="aafe78e04b"><path d="M 179.515625 186.460938 L 196.007812 170.871094 L 199.640625 174.714844 L 183.148438 190.300781 Z M 179.515625 186.460938 " clip-rule="nonzero"/></clipPath><clipPath id="0c9b836c15"><path d="M 189 177 L 192 177 L 192 179 L 189 179 Z M 189 177 " clip-rule="nonzero"/></clipPath><clipPath id="16002ccf54"><path d="M 179.515625 186.460938 L 196.007812 170.871094 L 199.640625 174.714844 L 183.148438 190.300781 Z M 179.515625 186.460938 " clip-rule="nonzero"/></clipPath><clipPath id="0570d0f673"><path d="M 179.515625 186.460938 L 196.007812 170.871094 L 199.640625 174.714844 L 183.148438 190.300781 Z M 179.515625 186.460938 " clip-rule="nonzero"/></clipPath><clipPath id="22343f7a88"><path d="M 179.515625 186.460938 L 196.007812 170.871094 L 199.640625 174.714844 L 183.148438 190.300781 Z M 179.515625 186.460938 " clip-rule="nonzero"/></clipPath><clipPath id="aba06b5312"><path d="M 192 175 L 195 175 L 195 178 L 192 178 Z M 192 175 " clip-rule="nonzero"/></clipPath><clipPath id="b3b4ee3059"><path d="M 179.515625 186.460938 L 196.007812 170.871094 L 199.640625 174.714844 L 183.148438 190.300781 Z M 179.515625 186.460938 " clip-rule="nonzero"/></clipPath><clipPath id="817128ed76"><path d="M 179.515625 186.460938 L 196.007812 170.871094 L 199.640625 174.714844 L 183.148438 190.300781 Z M 179.515625 186.460938 " clip-rule="nonzero"/></clipPath><clipPath id="1641215271"><path d="M 179.515625 186.460938 L 196.007812 170.871094 L 199.640625 174.714844 L 183.148438 190.300781 Z M 179.515625 186.460938 " clip-rule="nonzero"/></clipPath><clipPath id="cce4106be7"><path d="M 194 176 L 196 176 L 196 178 L 194 178 Z M 194 176 " clip-rule="nonzero"/></clipPath><clipPath id="6d8bfcd0f3"><path d="M 179.515625 186.460938 L 196.007812 170.871094 L 199.640625 174.714844 L 183.148438 190.300781 Z M 179.515625 186.460938 " clip-rule="nonzero"/></clipPath><clipPath id="ebb99493c5"><path d="M 179.515625 186.460938 L 196.007812 170.871094 L 199.640625 174.714844 L 183.148438 190.300781 Z M 179.515625 186.460938 " clip-rule="nonzero"/></clipPath><clipPath id="f0551286b0"><path d="M 179.515625 186.460938 L 196.007812 170.871094 L 199.640625 174.714844 L 183.148438 190.300781 Z M 179.515625 186.460938 " clip-rule="nonzero"/></clipPath><clipPath id="03717796d9"><path d="M 191 175 L 193 175 L 193 178 L 191 178 Z M 191 175 " clip-rule="nonzero"/></clipPath><clipPath id="f668ef670a"><path d="M 179.515625 186.460938 L 196.007812 170.871094 L 199.640625 174.714844 L 183.148438 190.300781 Z M 179.515625 186.460938 " clip-rule="nonzero"/></clipPath><clipPath id="2000b0166f"><path d="M 179.515625 186.460938 L 196.007812 170.871094 L 199.640625 174.714844 L 183.148438 190.300781 Z M 179.515625 186.460938 " clip-rule="nonzero"/></clipPath><clipPath id="646f06aac6"><path d="M 179.515625 186.460938 L 196.007812 170.871094 L 199.640625 174.714844 L 183.148438 190.300781 Z M 179.515625 186.460938 " clip-rule="nonzero"/></clipPath><clipPath id="ceca52815e"><path d="M 90 129.316406 L 274 129.316406 L 274 312.113281 L 90 312.113281 Z M 90 129.316406 " clip-rule="nonzero"/></clipPath></defs><rect x="-37.5" width="450" fill="#ffffff" y="-37.499999" height="449.999989" fill-opacity="1"/><rect x="-37.5" width="450" fill="#000000" y="-37.499999" height="449.999989" fill-opacity="1"/><g clip-path="url(#dd6fed1211)"><path fill="#ffffff" d="M 185.199219 195.332031 C 184.578125 195.332031 183.960938 195.949219 183.960938 196.878906 L 183.960938 200.902344 C 183.960938 202.449219 184.269531 203.6875 185.199219 204.925781 L 179.316406 204.925781 C 178.390625 204.925781 177.769531 205.546875 177.769531 206.472656 C 177.769531 207.402344 178.390625 208.019531 179.316406 208.019531 L 187.984375 208.019531 L 195.722656 215.757812 L 190.769531 220.710938 C 190.152344 221.328125 190.152344 222.257812 190.769531 222.878906 C 191.390625 223.496094 192.316406 223.496094 192.9375 222.878906 L 197.886719 217.925781 L 202.53125 222.566406 C 203.460938 223.496094 204.699219 224.117188 205.625 225.042969 C 205.625 225.042969 205.625 225.042969 205.625 225.351562 L 205.625 234.636719 C 205.625 235.566406 206.246094 236.1875 207.171875 236.1875 C 208.101562 236.1875 208.722656 235.566406 208.722656 234.636719 L 208.722656 226.28125 C 209.957031 226.589844 211.195312 226.902344 212.433594 226.902344 L 219.554688 226.902344 C 222.957031 226.902344 225.742188 225.664062 228.21875 223.804688 L 195.414062 191 C 192.625 193.164062 189.222656 194.710938 185.199219 195.332031 Z M 211.816406 172.429688 L 211.816406 178.308594 C 210.578125 177.691406 209.339844 177.070312 207.792969 177.070312 L 203.769531 177.070312 C 203.148438 177.070312 202.222656 177.691406 202.222656 178.308594 C 201.601562 182.023438 200.054688 185.738281 197.578125 188.523438 L 230.386719 221.328125 C 232.242188 218.855469 233.480469 216.070312 233.480469 212.664062 L 233.480469 205.546875 C 233.480469 204.308594 233.171875 203.070312 232.863281 201.832031 L 241.21875 201.832031 C 242.148438 201.832031 242.765625 201.210938 242.765625 200.285156 C 242.765625 199.355469 242.148438 198.734375 241.21875 198.734375 L 231.933594 198.734375 C 231.933594 198.734375 231.933594 198.734375 231.625 198.734375 C 231.003906 197.5 230.386719 196.570312 229.148438 195.640625 L 224.503906 191 L 229.457031 186.046875 C 229.765625 185.738281 229.765625 185.425781 229.765625 184.808594 C 229.765625 184.191406 229.765625 183.878906 229.457031 183.570312 C 228.839844 182.953125 227.910156 182.953125 227.292969 183.570312 L 222.339844 188.523438 L 214.601562 180.785156 L 214.601562 172.117188 C 214.601562 171.191406 213.984375 170.570312 213.054688 170.570312 C 212.125 170.570312 211.816406 171.5 211.816406 172.429688 Z M 184.269531 161.90625 C 181.792969 164.382812 183.652344 170.261719 185.199219 173.355469 L 180.554688 178 C 177.152344 176.761719 171.269531 174.90625 169.105469 177.070312 C 168.484375 177.691406 168.484375 178.617188 169.105469 179.238281 C 169.722656 179.855469 170.652344 179.855469 171.269531 179.238281 C 171.890625 178.617188 175.605469 179.238281 179.628906 180.785156 L 181.175781 190.6875 C 181.175781 191.308594 181.792969 191.925781 182.722656 191.925781 C 192.007812 191.925781 199.746094 184.191406 199.746094 174.90625 C 199.746094 174.285156 199.125 173.355469 198.507812 173.355469 L 188.601562 171.808594 C 187.054688 167.785156 186.4375 164.070312 187.054688 163.453125 C 187.675781 162.832031 187.675781 161.90625 187.054688 161.285156 C 186.4375 160.667969 184.890625 161.597656 184.269531 161.90625 Z M 184.269531 161.90625 " fill-opacity="1" fill-rule="nonzero"/></g><g clip-path="url(#a644cd492f)"><g clip-path="url(#99b8a1fe2f)"><g clip-path="url(#4a01898861)"><g clip-path="url(#a2720ecd89)"><g clip-path="url(#49cdb70355)"><g clip-path="url(#72fcae279e)"><path fill="#000000" d="M 179.519531 186.460938 L 180.96875 187.996094 L 181.71875 187.289062 L 182.445312 188.054688 L 183.195312 187.347656 L 183.917969 188.117188 L 184.667969 187.40625 L 185.394531 188.175781 L 189.144531 184.632812 L 188.417969 183.863281 L 189.167969 183.15625 L 188.441406 182.386719 L 189.191406 181.679688 L 188.464844 180.910156 L 189.964844 179.496094 L 190.691406 180.261719 L 191.441406 179.554688 L 192.167969 180.320312 L 192.914062 179.613281 L 193.640625 180.378906 L 197.390625 176.835938 L 196.664062 176.070312 L 197.414062 175.363281 L 196.6875 174.59375 L 197.4375 173.886719 L 196.710938 173.117188 L 197.460938 172.410156 L 196.011719 170.875 L 179.519531 186.460938 " fill-opacity="1" fill-rule="nonzero"/></g></g></g></g></g></g><g clip-path="url(#13ad4192a5)"><g clip-path="url(#ecf4591d6e)"><g clip-path="url(#c878827d0c)"><g clip-path="url(#296f59dbb9)"><path fill="#ffffff" d="M 184.691406 185.929688 L 183.945312 186.640625 L 183.21875 185.871094 L 183.96875 185.164062 L 184.691406 185.929688 " fill-opacity="1" fill-rule="nonzero"/></g></g></g></g><g clip-path="url(#9b3dd31b4b)"><g clip-path="url(#72ae95ef72)"><g clip-path="url(#b3d0d21c0e)"><g clip-path="url(#0240878414)"><path fill="#ffffff" d="M 186.167969 185.988281 L 185.417969 186.699219 L 184.691406 185.929688 L 185.441406 185.222656 L 186.167969 185.988281 " fill-opacity="1" fill-rule="nonzero"/></g></g></g></g><g clip-path="url(#d43d8e1ca4)"><g clip-path="url(#c89f245350)"><g clip-path="url(#c0ff0e3870)"><g clip-path="url(#9f28e01535)"><path fill="#ffffff" d="M 183.21875 185.871094 L 182.46875 186.582031 L 181.742188 185.8125 L 182.492188 185.105469 L 183.21875 185.871094 " fill-opacity="1" fill-rule="nonzero"/></g></g></g></g><g clip-path="url(#2b95b32f20)"><g clip-path="url(#013be9f34b)"><g clip-path="url(#f4f6dab232)"><g clip-path="url(#a51372efb8)"><path fill="#ffffff" d="M 186.191406 184.511719 L 185.441406 185.222656 L 184.71875 184.453125 L 185.46875 183.746094 L 186.191406 184.511719 " fill-opacity="1" fill-rule="nonzero"/></g></g></g></g><g clip-path="url(#6eb4a71923)"><g clip-path="url(#5cf2add918)"><g clip-path="url(#971d488bc6)"><g clip-path="url(#3fe57f2a7a)"><path fill="#ffffff" d="M 187.667969 184.574219 L 186.917969 185.28125 L 186.191406 184.511719 L 186.941406 183.804688 L 187.667969 184.574219 " fill-opacity="1" fill-rule="nonzero"/></g></g></g></g><g clip-path="url(#fca9cf1a70)"><g clip-path="url(#0289531b3d)"><g clip-path="url(#fac5aab170)"><g clip-path="url(#fa3a384bd2)"><path fill="#ffffff" d="M 184.71875 184.453125 L 183.96875 185.164062 L 183.242188 184.394531 L 183.992188 183.6875 L 184.71875 184.453125 " fill-opacity="1" fill-rule="nonzero"/></g></g></g></g><g clip-path="url(#a1aed209f1)"><g clip-path="url(#003e165f5b)"><g clip-path="url(#31f5789dfb)"><g clip-path="url(#936a207e82)"><path fill="#ffffff" d="M 192.941406 178.136719 L 192.191406 178.84375 L 191.464844 178.078125 L 192.214844 177.367188 L 192.941406 178.136719 " fill-opacity="1" fill-rule="nonzero"/></g></g></g></g><g clip-path="url(#dae888bc21)"><g clip-path="url(#cf29580747)"><g clip-path="url(#1ce9739b6d)"><g clip-path="url(#aafe78e04b)"><path fill="#ffffff" d="M 194.414062 178.195312 L 193.664062 178.902344 L 192.941406 178.136719 L 193.691406 177.429688 L 194.414062 178.195312 " fill-opacity="1" fill-rule="nonzero"/></g></g></g></g><g clip-path="url(#0c9b836c15)"><g clip-path="url(#16002ccf54)"><g clip-path="url(#0570d0f673)"><g clip-path="url(#22343f7a88)"><path fill="#ffffff" d="M 191.464844 178.078125 L 190.714844 178.785156 L 189.988281 178.019531 L 190.738281 177.308594 L 191.464844 178.078125 " fill-opacity="1" fill-rule="nonzero"/></g></g></g></g><g clip-path="url(#aba06b5312)"><g clip-path="url(#b3b4ee3059)"><g clip-path="url(#817128ed76)"><g clip-path="url(#1641215271)"><path fill="#ffffff" d="M 194.4375 176.71875 L 193.691406 177.429688 L 192.964844 176.660156 L 193.714844 175.953125 L 194.4375 176.71875 " fill-opacity="1" fill-rule="nonzero"/></g></g></g></g><g clip-path="url(#cce4106be7)"><g clip-path="url(#6d8bfcd0f3)"><g clip-path="url(#ebb99493c5)"><g clip-path="url(#f0551286b0)"><path fill="#ffffff" d="M 195.914062 176.777344 L 195.164062 177.488281 L 194.4375 176.71875 L 195.1875 176.011719 L 195.914062 176.777344 " fill-opacity="1" fill-rule="nonzero"/></g></g></g></g><g clip-path="url(#03717796d9)"><g clip-path="url(#f668ef670a)"><g clip-path="url(#2000b0166f)"><g clip-path="url(#646f06aac6)"><path fill="#ffffff" d="M 192.964844 176.660156 L 192.214844 177.367188 L 191.488281 176.601562 L 192.238281 175.894531 L 192.964844 176.660156 " fill-opacity="1" fill-rule="nonzero"/></g></g></g></g><path fill="#ffffff" d="M 168.28125 157.292969 C 178.605469 146.96875 192.351562 141.28125 206.988281 141.28125 C 221.628906 141.28125 235.375 146.96875 245.699219 157.292969 C 267.042969 178.636719 267.042969 213.371094 245.699219 234.71875 C 235.378906 245.042969 221.632812 250.726562 206.992188 250.726562 C 192.351562 250.726562 178.605469 245.042969 168.28125 234.71875 C 157.957031 224.390625 152.269531 210.644531 152.269531 196.003906 C 152.269531 181.367188 157.957031 167.617188 168.28125 157.292969 Z M 171.34375 231.65625 C 180.851562 241.160156 193.507812 246.398438 206.992188 246.398438 C 220.476562 246.398438 233.132812 241.164062 242.640625 231.65625 C 262.292969 211.996094 262.292969 180.011719 242.640625 160.355469 C 233.128906 150.847656 220.472656 145.613281 206.988281 145.613281 C 193.507812 145.613281 180.851562 150.847656 171.34375 160.355469 C 151.683594 180.011719 151.683594 211.996094 171.34375 231.65625 Z M 171.34375 231.65625 " fill-opacity="1" fill-rule="nonzero"/><g clip-path="url(#ceca52815e)"><path fill="#ffffff" d="M 95.074219 287.96875 L 131.515625 251.523438 L 139.054688 243.984375 C 139.867188 243.171875 141.304688 243.171875 142.117188 243.984375 L 143.265625 245.132812 C 143.371094 244.882812 143.519531 244.644531 143.726562 244.4375 L 153.003906 235.152344 C 144.78125 223.851562 140.332031 210.28125 140.332031 196.003906 C 140.332031 178.171875 147.257812 161.421875 159.835938 148.847656 C 172.410156 136.273438 189.15625 129.347656 206.988281 129.347656 C 224.820312 129.347656 241.570312 136.273438 254.144531 148.851562 C 280.144531 174.851562 280.144531 217.160156 254.144531 243.164062 C 241.566406 255.738281 224.820312 262.664062 206.988281 262.664062 C 192.710938 262.664062 179.140625 258.214844 167.839844 249.988281 L 158.558594 259.273438 C 158.351562 259.480469 158.117188 259.628906 157.863281 259.734375 L 159 260.875 C 159.847656 261.722656 159.847656 263.089844 159 263.9375 L 151.171875 271.769531 L 115.027344 307.921875 C 112.363281 310.585938 108.816406 312.054688 105.050781 312.054688 C 101.28125 312.054688 97.738281 310.585938 95.074219 307.921875 C 89.574219 302.414062 89.574219 293.464844 95.074219 287.96875 Z M 251.089844 240.097656 C 275.398438 215.78125 275.398438 176.222656 251.089844 151.910156 C 239.328125 140.152344 223.667969 133.671875 206.992188 133.671875 C 190.316406 133.671875 174.65625 140.148438 162.902344 151.90625 C 151.140625 163.664062 144.667969 179.324219 144.667969 196 C 144.667969 212.675781 151.140625 228.335938 162.902344 240.089844 C 174.660156 251.851562 190.316406 258.324219 206.992188 258.324219 C 223.664062 258.328125 239.328125 251.855469 251.089844 240.097656 Z M 155.496094 256.207031 L 164.394531 247.304688 C 162.824219 246 161.300781 244.621094 159.835938 243.15625 C 158.375 241.695312 156.992188 240.167969 155.6875 238.597656 L 146.789062 247.5 C 146.585938 247.703125 146.347656 247.855469 146.09375 247.960938 L 155.039062 256.902344 C 155.144531 256.652344 155.292969 256.414062 155.496094 256.207031 Z M 140.585938 248.578125 L 136.0625 253.101562 L 149.6875 267.125 L 154.410156 262.402344 Z M 98.136719 304.855469 C 99.984375 306.703125 102.4375 307.722656 105.050781 307.722656 C 107.660156 307.722656 110.117188 306.703125 111.964844 304.855469 L 146.625 270.1875 L 133 256.160156 L 98.132812 291.027344 C 94.324219 294.839844 94.324219 301.042969 98.136719 304.855469 Z M 98.136719 304.855469 " fill-opacity="1" fill-rule="nonzero"/></g><g fill="#fe8d41" fill-opacity="1"><g transform="translate(54.726563, 104.63472)"><g><path d="M 4.222656 -0.0585938 L 4.457031 -0.175781 C 6.332031 -0.644531 7.972656 -1.113281 9.382812 -1.582031 C 10.085938 -1.757812 10.730469 -1.992188 11.375 -2.226562 C 12.019531 -2.460938 12.605469 -2.695312 13.191406 -3.050781 C 14.367188 -3.636719 15.363281 -4.398438 16.300781 -5.335938 C 16.769531 -5.804688 17.238281 -6.332031 17.707031 -6.976562 C 18.175781 -7.621094 18.644531 -8.324219 19.171875 -9.148438 C 19.40625 -9.5 19.644531 -10.085938 19.9375 -10.90625 C 20.113281 -11.492188 20.230469 -12.253906 20.347656 -13.074219 C 20.347656 -13.71875 20.347656 -14.484375 20.230469 -15.363281 C 20.113281 -16.066406 19.878906 -16.769531 19.527344 -17.472656 C 18.878906 -18.527344 18.234375 -19.347656 17.648438 -19.9375 C 17.003906 -20.464844 16.417969 -20.875 15.890625 -21.109375 C 15.1875 -21.34375 14.660156 -21.519531 14.308594 -21.578125 C 13.835938 -21.578125 13.425781 -21.695312 13.074219 -21.929688 C 13.367188 -22.339844 13.660156 -22.75 14.015625 -23.21875 C 14.367188 -23.6875 14.71875 -24.15625 15.128906 -24.742188 C 15.832031 -25.800781 16.476562 -26.972656 17.0625 -28.261719 C 17.53125 -29.550781 17.824219 -30.960938 17.941406 -32.484375 C 18 -34.007812 17.648438 -35.648438 16.828125 -37.351562 C 16.359375 -38.289062 15.773438 -39.167969 15.070312 -39.988281 C 14.367188 -40.808594 13.425781 -41.453125 12.253906 -41.925781 C 11.082031 -42.394531 9.617188 -42.628906 7.855469 -42.628906 C 5.980469 -42.628906 3.871094 -42.277344 1.40625 -41.691406 C 1.171875 -41.628906 0.9375 -41.511719 0.703125 -41.394531 C 0.46875 -41.277344 0.351562 -41.042969 0.234375 -40.691406 C 0.117188 -40.398438 0.0585938 -39.929688 0 -39.226562 C -0.0585938 -38.875 -0.0585938 -38.523438 -0.0585938 -38.054688 L -0.0585938 -36.472656 C -0.0585938 -35.882812 -0.0585938 -35.179688 -0.0585938 -34.417969 C -0.0585938 -33.65625 0 -32.835938 0.0585938 -31.957031 C 0.0585938 -31.019531 0.117188 -30.019531 0.117188 -28.90625 C 0.117188 -27.792969 0.175781 -26.5625 0.292969 -25.273438 C 0.292969 -22.574219 0.351562 -20.289062 0.46875 -18.410156 C 0.46875 -17.414062 0.527344 -16.476562 0.527344 -15.65625 C 0.527344 -14.777344 0.585938 -13.957031 0.585938 -13.191406 L 0.585938 -9.03125 C 0.585938 -8.386719 0.527344 -7.738281 0.527344 -7.152344 C 0.527344 -6.566406 0.46875 -5.921875 0.46875 -5.335938 C 0.351562 -4.398438 0.351562 -3.578125 0.46875 -2.753906 C 0.527344 -1.875 0.761719 -1.054688 1.171875 -0.351562 C 1.640625 0 2.109375 0.175781 2.636719 0.175781 C 3.226562 0.175781 3.753906 0.117188 4.222656 -0.0585938 Z M 5.101562 -20.40625 L 5.335938 -20.289062 C 5.160156 -21.109375 5.042969 -21.988281 4.984375 -22.808594 L 4.75 -25.273438 C 4.632812 -26.09375 4.574219 -26.914062 4.574219 -27.734375 L 4.457031 -30.195312 L 4.28125 -35.121094 C 4.222656 -35.941406 4.164062 -36.707031 4.164062 -37.527344 C 4.164062 -38.347656 4.105469 -39.109375 4.105469 -39.929688 C 4.574219 -40.164062 5.101562 -40.339844 5.6875 -40.457031 C 5.921875 -40.457031 6.214844 -40.515625 6.449219 -40.515625 L 7.269531 -40.515625 C 7.972656 -40.515625 8.5625 -40.398438 9.089844 -40.164062 C 9.558594 -39.871094 10.027344 -39.460938 10.378906 -38.933594 C 10.730469 -38.347656 11.023438 -37.761719 11.257812 -37.117188 L 11.609375 -36.058594 C 11.726562 -35.707031 11.84375 -35.296875 11.960938 -34.945312 C 12.3125 -33.597656 12.371094 -32.25 12.136719 -30.84375 C 11.785156 -29.375 11.316406 -28.027344 10.671875 -26.796875 C 10.320312 -26.09375 9.910156 -25.449219 9.5 -24.859375 C 9.089844 -24.273438 8.621094 -23.6875 8.148438 -23.160156 C 7.621094 -22.574219 7.09375 -22.105469 6.625 -21.636719 C 6.15625 -21.167969 5.628906 -20.757812 5.101562 -20.40625 Z M 5.335938 -2.875 L 5.570312 -3.34375 L 5.394531 -3.695312 C 5.277344 -3.753906 5.277344 -3.871094 5.277344 -4.046875 L 5.277344 -17.179688 C 5.6875 -17.296875 6.039062 -17.472656 6.390625 -17.589844 C 6.683594 -17.707031 6.976562 -17.765625 7.269531 -17.882812 C 7.503906 -17.941406 7.796875 -18 8.03125 -18.117188 C 8.265625 -18.175781 8.445312 -18.234375 8.679688 -18.351562 C 8.855469 -18.410156 9.03125 -18.46875 9.207031 -18.527344 C 9.382812 -18.527344 9.558594 -18.585938 9.792969 -18.703125 C 10.144531 -18.820312 10.554688 -18.9375 11.023438 -19.054688 C 11.433594 -19.171875 11.902344 -19.113281 12.488281 -18.761719 C 12.957031 -18.410156 13.425781 -17.882812 13.898438 -17.179688 C 14.308594 -16.476562 14.601562 -15.597656 14.777344 -14.660156 C 14.894531 -13.71875 14.894531 -12.605469 14.660156 -11.433594 C 14.191406 -9.617188 13.542969 -8.148438 12.722656 -7.09375 C 11.785156 -5.921875 10.847656 -5.042969 9.910156 -4.457031 C 8.972656 -3.8125 8.03125 -3.402344 7.09375 -3.167969 C 6.15625 -2.933594 5.570312 -2.816406 5.335938 -2.875 Z M 5.335938 -2.875 "/></g></g></g><g fill="#fe8d41" fill-opacity="1"><g transform="translate(89.845319, 104.63472)"><g><path d="M 16.300781 -1.875 L 16.242188 -2.285156 C 16.886719 -3.050781 17.414062 -3.988281 17.824219 -5.160156 C 18 -5.746094 18.175781 -6.332031 18.351562 -6.917969 C 18.46875 -7.503906 18.644531 -8.148438 18.761719 -8.855469 C 18.996094 -10.144531 19.171875 -11.433594 19.289062 -12.605469 C 19.40625 -13.777344 19.46875 -14.894531 19.46875 -15.949219 L 19.46875 -27.03125 C 19.46875 -27.851562 19.40625 -28.613281 19.40625 -29.433594 C 19.40625 -30.195312 19.347656 -30.960938 19.347656 -31.722656 C 19.230469 -33.128906 19.171875 -34.476562 19.171875 -35.765625 C 19.054688 -36.941406 18.996094 -37.878906 18.996094 -38.582031 C 18.878906 -39.402344 18.644531 -39.871094 18.410156 -40.105469 C 18.058594 -40.339844 17.589844 -40.515625 16.945312 -40.574219 C 16.476562 -40.574219 16.066406 -40.574219 15.714844 -40.574219 C 15.246094 -40.457031 14.835938 -40.28125 14.484375 -40.046875 C 14.25 -39.578125 14.132812 -38.523438 14.191406 -36.765625 C 14.191406 -35.824219 14.25 -34.886719 14.308594 -33.832031 C 14.308594 -32.777344 14.367188 -31.664062 14.484375 -30.429688 C 14.601562 -27.96875 14.71875 -25.332031 14.835938 -22.515625 C 14.953125 -19.703125 14.953125 -17.003906 14.835938 -14.425781 C 14.71875 -11.84375 14.425781 -9.558594 13.957031 -7.5625 C 13.484375 -5.570312 12.722656 -4.222656 11.726562 -3.460938 C 10.203125 -4.164062 9.265625 -5.335938 8.914062 -6.976562 C 8.386719 -9.089844 7.914062 -10.964844 7.5625 -12.664062 C 7.210938 -14.308594 6.917969 -15.832031 6.683594 -17.238281 C 6.214844 -19.9375 5.863281 -22.222656 5.628906 -23.980469 C 5.394531 -25.742188 5.277344 -27.265625 5.277344 -28.4375 C 5.277344 -29.023438 5.277344 -29.550781 5.277344 -30.078125 C 5.277344 -30.609375 5.335938 -31.136719 5.394531 -31.664062 C 5.394531 -32.132812 5.453125 -32.660156 5.453125 -33.1875 C 5.453125 -33.714844 5.511719 -34.242188 5.511719 -34.828125 C 5.511719 -35.882812 5.394531 -37.351562 5.160156 -39.226562 C 5.042969 -39.8125 4.867188 -40.164062 4.515625 -40.398438 C 4.105469 -40.574219 3.578125 -40.691406 2.992188 -40.691406 C 2.34375 -40.691406 1.875 -40.574219 1.640625 -40.457031 C 1.289062 -40.222656 1.054688 -39.929688 0.9375 -39.578125 C 0.703125 -39.109375 0.585938 -38.582031 0.585938 -37.996094 C 0.46875 -37.292969 0.410156 -36.472656 0.410156 -35.53125 C 0.175781 -33.304688 0.0585938 -31.371094 0.0585938 -29.726562 C 0 -28.085938 0 -26.5625 0.0585938 -25.273438 C 0.0585938 -24.566406 0.117188 -23.921875 0.117188 -23.277344 C 0.117188 -22.632812 0.175781 -21.988281 0.292969 -21.402344 C 0.410156 -20.113281 0.585938 -18.820312 0.820312 -17.53125 C 1.054688 -16.066406 1.347656 -14.542969 1.699219 -13.015625 C 1.875 -12.195312 2.050781 -11.257812 2.226562 -10.261719 C 2.402344 -9.265625 2.578125 -8.207031 2.816406 -7.09375 C 3.050781 -5.453125 3.753906 -4.046875 4.925781 -2.816406 C 5.980469 -1.523438 7.210938 -0.644531 8.621094 -0.175781 C 10.027344 0.410156 11.375 0.527344 12.78125 0.292969 C 14.191406 0.0585938 15.363281 -0.644531 16.300781 -1.875 Z M 16.300781 -1.875 "/></g></g></g><g fill="#fe8d41" fill-opacity="1"><g transform="translate(123.908748, 104.63472)"><g><path d="M 11.199219 -0.117188 L 13.484375 0 C 14.425781 0 15.304688 -0.234375 16.125 -0.703125 C 16.886719 -1.054688 17.589844 -1.582031 18.292969 -2.285156 C 18.878906 -2.875 19.46875 -3.636719 19.9375 -4.457031 C 20.40625 -5.277344 20.757812 -6.097656 20.992188 -6.976562 C 21.109375 -7.679688 21.226562 -8.386719 21.34375 -9.089844 C 21.34375 -9.441406 21.402344 -9.792969 21.402344 -10.144531 C 21.402344 -10.496094 21.460938 -10.789062 21.460938 -11.140625 L 21.460938 -12.898438 C 21.460938 -13.484375 21.460938 -13.898438 21.519531 -14.132812 C 21.519531 -14.425781 21.636719 -14.777344 21.8125 -15.128906 C 21.871094 -15.246094 21.929688 -15.421875 21.988281 -15.597656 C 22.046875 -15.773438 22.105469 -15.949219 22.222656 -16.183594 C 21.636719 -16.535156 21.109375 -16.769531 20.640625 -16.886719 C 20.054688 -17.003906 19.527344 -17.0625 18.996094 -17.0625 L 18.117188 -17.0625 C 17.824219 -17.0625 17.53125 -17.003906 17.296875 -17.003906 L 15.714844 -16.828125 C 14.601562 -16.769531 13.777344 -16.59375 13.308594 -16.359375 C 12.839844 -16.125 12.371094 -15.714844 11.902344 -15.1875 C 12.136719 -14.835938 12.488281 -14.601562 12.898438 -14.484375 C 13.25 -14.367188 13.601562 -14.308594 14.015625 -14.308594 L 15.246094 -14.308594 C 15.421875 -14.308594 15.597656 -14.25 15.832031 -14.25 C 16.066406 -14.25 16.242188 -14.191406 16.476562 -14.191406 L 16.652344 -11.199219 C 16.652344 -10.144531 16.59375 -9.148438 16.476562 -8.207031 C 16.242188 -7.210938 15.949219 -6.273438 15.597656 -5.453125 C 15.128906 -4.515625 14.660156 -3.753906 14.191406 -3.226562 C 13.601562 -2.636719 13.015625 -2.285156 12.429688 -2.167969 C 11.726562 -2.050781 11.082031 -2.285156 10.378906 -2.933594 C 8.796875 -4.222656 7.679688 -5.804688 6.976562 -7.679688 C 6.273438 -9.441406 5.863281 -11.199219 5.746094 -12.957031 C 5.628906 -13.835938 5.570312 -14.71875 5.570312 -15.597656 C 5.570312 -16.417969 5.511719 -17.296875 5.511719 -18.234375 C 5.453125 -19.113281 5.453125 -19.996094 5.511719 -20.933594 C 5.570312 -21.8125 5.6875 -22.75 5.804688 -23.6875 C 6.039062 -25.566406 6.449219 -27.5 7.035156 -29.492188 C 7.621094 -31.546875 8.503906 -33.65625 9.558594 -35.824219 C 10.203125 -37.117188 10.789062 -37.9375 11.375 -38.40625 C 11.902344 -38.816406 12.722656 -39.109375 13.835938 -39.34375 C 14.777344 -39.460938 15.539062 -39.226562 16.007812 -38.757812 C 16.476562 -38.171875 16.828125 -37.527344 17.0625 -36.824219 C 17.296875 -36 17.472656 -35.179688 17.589844 -34.359375 C 17.707031 -33.421875 17.882812 -32.660156 18.117188 -31.957031 C 18.351562 -31.253906 18.703125 -30.785156 19.171875 -30.488281 C 19.644531 -30.195312 20.40625 -30.3125 21.460938 -30.785156 C 21.988281 -31.019531 22.398438 -31.546875 22.632812 -32.367188 C 22.867188 -33.1875 22.925781 -34.066406 22.808594 -35.0625 C 22.691406 -36 22.339844 -37 21.8125 -38.054688 C 21.226562 -39.050781 20.464844 -39.929688 19.527344 -40.632812 C 18.46875 -41.335938 17.238281 -41.808594 15.832031 -42.042969 C 14.308594 -42.277344 12.546875 -42.101562 10.554688 -41.511719 C 9.148438 -41.042969 7.914062 -40.28125 6.859375 -39.226562 C 5.746094 -38.054688 4.808594 -36.765625 4.105469 -35.238281 C 3.34375 -33.714844 2.695312 -32.074219 2.167969 -30.195312 C 1.640625 -28.378906 1.230469 -26.503906 0.9375 -24.625 C 0.761719 -23.6875 0.644531 -22.75 0.527344 -21.871094 C 0.410156 -20.933594 0.351562 -20.054688 0.292969 -19.171875 C 0.175781 -17.414062 0.117188 -15.832031 0.117188 -14.425781 C 0.117188 -9.558594 1.933594 -5.511719 5.511719 -2.285156 C 6.214844 -1.582031 6.800781 -1.171875 7.328125 -0.9375 C 7.914062 -0.585938 8.5625 -0.410156 9.207031 -0.292969 C 9.792969 -0.175781 10.496094 -0.117188 11.199219 -0.117188 Z M 11.199219 -0.117188 "/></g></g></g><g fill="#fe8d41" fill-opacity="1"><g transform="translate(161.43129, 104.63472)"><g/></g></g><g fill="#fe8d41" fill-opacity="1"><g transform="translate(176.088539, 104.63472)"><g><path d="M 10.964844 0.0585938 L 11.433594 0 C 12.019531 0.117188 12.488281 0.0585938 12.898438 -0.0585938 C 13.367188 -0.175781 13.835938 -0.410156 14.308594 -0.820312 C 14.308594 -3.285156 14.25 -5.628906 14.191406 -7.855469 C 14.132812 -10.085938 14.074219 -12.136719 14.015625 -14.132812 C 13.898438 -16.066406 13.835938 -17.882812 13.777344 -19.585938 C 13.660156 -21.226562 13.601562 -22.808594 13.542969 -24.332031 C 13.425781 -25.800781 13.367188 -27.148438 13.367188 -28.378906 C 13.308594 -29.609375 13.25 -30.726562 13.25 -31.78125 C 13.132812 -33.773438 13.25 -35.472656 13.601562 -36.882812 C 14.191406 -37 15.011719 -37 16.066406 -36.941406 C 16.535156 -36.882812 16.945312 -36.824219 17.414062 -36.824219 C 17.882812 -36.824219 18.292969 -36.765625 18.761719 -36.765625 C 19.585938 -36.648438 20.40625 -36.648438 21.226562 -36.765625 C 21.929688 -36.765625 22.515625 -37 23.042969 -37.410156 C 23.335938 -37.703125 23.453125 -38.054688 23.335938 -38.523438 C 23.21875 -38.992188 22.632812 -39.34375 21.636719 -39.578125 C 20.757812 -39.753906 19.9375 -39.929688 19.230469 -40.046875 C 18.527344 -40.164062 17.824219 -40.222656 17.179688 -40.339844 C 15.890625 -40.515625 14.542969 -40.574219 13.191406 -40.515625 C 11.785156 -40.398438 10.320312 -40.28125 8.679688 -40.164062 C 7.035156 -39.929688 5.042969 -39.695312 2.695312 -39.460938 C 1.699219 -39.34375 0.996094 -39.167969 0.644531 -38.933594 C 0.234375 -38.699219 0 -38.464844 -0.117188 -38.230469 C -0.234375 -37.996094 -0.234375 -37.761719 -0.117188 -37.527344 C 0 -37.292969 0.117188 -37.175781 0.234375 -37.117188 C 0.644531 -36.941406 0.996094 -36.824219 1.347656 -36.765625 C 1.640625 -36.648438 1.933594 -36.589844 2.226562 -36.53125 C 2.695312 -36.414062 3.226562 -36.355469 3.695312 -36.355469 L 7.328125 -36.355469 C 7.328125 -35.765625 7.386719 -34.886719 7.503906 -33.714844 C 7.503906 -32.425781 7.5625 -30.960938 7.679688 -29.316406 C 7.679688 -27.558594 7.738281 -25.742188 7.855469 -23.863281 C 7.855469 -22.867188 7.914062 -21.871094 7.914062 -20.933594 C 7.914062 -19.9375 7.972656 -18.9375 8.03125 -17.941406 C 8.03125 -16.886719 8.089844 -15.949219 8.089844 -15.011719 C 8.089844 -14.074219 8.148438 -13.132812 8.207031 -12.253906 C 8.265625 -10.320312 8.324219 -8.679688 8.386719 -7.386719 C 8.386719 -6.683594 8.445312 -6.039062 8.445312 -5.453125 C 8.445312 -4.867188 8.503906 -4.339844 8.503906 -3.929688 L 8.503906 -2.636719 C 8.503906 -1.699219 8.679688 -1.054688 9.03125 -0.644531 C 9.265625 -0.175781 9.910156 0.0585938 10.964844 0.0585938 Z M 10.964844 0.0585938 "/></g></g></g><g fill="#fe8d41" fill-opacity="1"><g transform="translate(214.256002, 104.63472)"><g><path d="M 16.652344 0 L 16.417969 -0.0585938 C 18.644531 0.410156 19.761719 -0.527344 19.761719 -2.875 C 19.644531 -9.089844 19.585938 -14.425781 19.585938 -18.820312 C 19.585938 -20.992188 19.527344 -22.984375 19.527344 -24.742188 C 19.527344 -26.503906 19.46875 -28.144531 19.46875 -29.550781 C 19.347656 -32.367188 19.289062 -34.59375 19.289062 -36.179688 C 19.171875 -37.703125 19.054688 -38.875 18.9375 -39.695312 C 18.703125 -40.398438 18.46875 -40.867188 18.234375 -41.101562 C 17.882812 -41.21875 17.53125 -41.335938 17.179688 -41.453125 C 16.476562 -41.453125 15.890625 -41.394531 15.421875 -41.277344 C 14.835938 -41.042969 14.542969 -40.632812 14.425781 -40.046875 C 14.367188 -39.695312 14.308594 -39.34375 14.308594 -38.992188 C 14.308594 -38.640625 14.308594 -38.171875 14.308594 -37.703125 L 14.308594 -31.078125 C 14.308594 -30.488281 14.25 -29.902344 14.25 -29.375 C 14.25 -28.847656 14.191406 -28.320312 14.191406 -27.851562 C 14.132812 -26.914062 14.074219 -26.035156 14.015625 -25.332031 C 13.957031 -24.625 13.835938 -24.214844 13.660156 -24.039062 L 10.613281 -23.863281 L 9.792969 -23.746094 C 9.5 -23.6875 9.207031 -23.628906 8.914062 -23.570312 C 8.265625 -23.453125 7.621094 -23.453125 7.035156 -23.628906 L 7.035156 -29.257812 C 7.035156 -30.902344 6.976562 -32.367188 6.976562 -33.65625 C 6.859375 -36.238281 6.683594 -38.113281 6.390625 -39.285156 C 6.039062 -40.457031 5.511719 -41.160156 4.808594 -41.394531 C 4.105469 -41.511719 3.050781 -41.394531 1.757812 -41.042969 C 1.523438 -40.222656 1.40625 -39.285156 1.40625 -38.230469 L 1.40625 -36.414062 C 1.40625 -35.765625 1.40625 -35.0625 1.464844 -34.359375 C 1.464844 -32.835938 1.523438 -31.195312 1.640625 -29.433594 C 1.640625 -28.496094 1.699219 -27.558594 1.699219 -26.5625 C 1.699219 -25.566406 1.640625 -24.507812 1.582031 -23.453125 C 0.996094 -22.984375 0.644531 -22.691406 0.410156 -22.457031 C 0.175781 -22.222656 0.0585938 -21.988281 0.0585938 -21.753906 C 0.0585938 -21.519531 0.175781 -21.285156 0.410156 -21.050781 C 0.527344 -20.933594 0.644531 -20.757812 0.820312 -20.582031 C 0.9375 -20.40625 1.113281 -20.230469 1.347656 -20.054688 L 1.523438 -19.878906 L 1.523438 -19.761719 C 1.582031 -17.648438 1.640625 -15.773438 1.699219 -14.191406 C 1.757812 -12.546875 1.816406 -11.199219 1.933594 -10.085938 C 1.992188 -8.914062 2.050781 -7.914062 2.050781 -7.09375 C 2.050781 -6.273438 2.109375 -5.570312 2.167969 -5.042969 C 2.226562 -3.871094 2.285156 -3.226562 2.402344 -2.992188 C 2.519531 -2.695312 2.695312 -2.519531 2.933594 -2.402344 C 3.402344 -2.050781 3.988281 -1.875 4.574219 -1.875 C 5.160156 -1.875 5.6875 -1.992188 6.214844 -2.285156 C 6.625 -2.402344 6.859375 -2.695312 6.976562 -3.109375 C 6.976562 -3.285156 7.035156 -3.460938 7.035156 -3.695312 L 7.035156 -4.28125 C 7.035156 -7.328125 7.035156 -9.851562 7.035156 -11.726562 C 6.976562 -12.664062 6.917969 -13.484375 6.917969 -14.25 C 6.917969 -14.953125 6.917969 -15.597656 6.917969 -16.183594 L 6.917969 -17.589844 C 6.917969 -18 6.917969 -18.351562 6.976562 -18.644531 C 7.035156 -19.171875 7.152344 -19.585938 7.386719 -19.9375 C 9.617188 -20.113281 11.902344 -20.347656 14.191406 -20.640625 C 14.308594 -20.171875 14.425781 -19.761719 14.542969 -19.40625 C 14.542969 -19.171875 14.601562 -18.9375 14.601562 -18.585938 L 14.601562 -17.296875 C 14.601562 -16.769531 14.542969 -16.125 14.542969 -15.421875 C 14.542969 -14.71875 14.484375 -13.898438 14.484375 -12.957031 C 14.425781 -11.082031 14.367188 -8.503906 14.308594 -5.101562 C 14.308594 -4.046875 14.367188 -3.167969 14.484375 -2.578125 C 14.601562 -1.875 14.71875 -1.40625 14.894531 -1.113281 C 15.011719 -0.761719 15.246094 -0.527344 15.597656 -0.351562 C 15.832031 -0.117188 16.183594 0 16.652344 0 Z M 16.652344 0 "/></g></g></g><g fill="#fe8d41" fill-opacity="1"><g transform="translate(248.671222, 104.63472)"><g><path d="M 16.300781 -1.875 L 16.242188 -2.285156 C 16.886719 -3.050781 17.414062 -3.988281 17.824219 -5.160156 C 18 -5.746094 18.175781 -6.332031 18.351562 -6.917969 C 18.46875 -7.503906 18.644531 -8.148438 18.761719 -8.855469 C 18.996094 -10.144531 19.171875 -11.433594 19.289062 -12.605469 C 19.40625 -13.777344 19.46875 -14.894531 19.46875 -15.949219 L 19.46875 -27.03125 C 19.46875 -27.851562 19.40625 -28.613281 19.40625 -29.433594 C 19.40625 -30.195312 19.347656 -30.960938 19.347656 -31.722656 C 19.230469 -33.128906 19.171875 -34.476562 19.171875 -35.765625 C 19.054688 -36.941406 18.996094 -37.878906 18.996094 -38.582031 C 18.878906 -39.402344 18.644531 -39.871094 18.410156 -40.105469 C 18.058594 -40.339844 17.589844 -40.515625 16.945312 -40.574219 C 16.476562 -40.574219 16.066406 -40.574219 15.714844 -40.574219 C 15.246094 -40.457031 14.835938 -40.28125 14.484375 -40.046875 C 14.25 -39.578125 14.132812 -38.523438 14.191406 -36.765625 C 14.191406 -35.824219 14.25 -34.886719 14.308594 -33.832031 C 14.308594 -32.777344 14.367188 -31.664062 14.484375 -30.429688 C 14.601562 -27.96875 14.71875 -25.332031 14.835938 -22.515625 C 14.953125 -19.703125 14.953125 -17.003906 14.835938 -14.425781 C 14.71875 -11.84375 14.425781 -9.558594 13.957031 -7.5625 C 13.484375 -5.570312 12.722656 -4.222656 11.726562 -3.460938 C 10.203125 -4.164062 9.265625 -5.335938 8.914062 -6.976562 C 8.386719 -9.089844 7.914062 -10.964844 7.5625 -12.664062 C 7.210938 -14.308594 6.917969 -15.832031 6.683594 -17.238281 C 6.214844 -19.9375 5.863281 -22.222656 5.628906 -23.980469 C 5.394531 -25.742188 5.277344 -27.265625 5.277344 -28.4375 C 5.277344 -29.023438 5.277344 -29.550781 5.277344 -30.078125 C 5.277344 -30.609375 5.335938 -31.136719 5.394531 -31.664062 C 5.394531 -32.132812 5.453125 -32.660156 5.453125 -33.1875 C 5.453125 -33.714844 5.511719 -34.242188 5.511719 -34.828125 C 5.511719 -35.882812 5.394531 -37.351562 5.160156 -39.226562 C 5.042969 -39.8125 4.867188 -40.164062 4.515625 -40.398438 C 4.105469 -40.574219 3.578125 -40.691406 2.992188 -40.691406 C 2.34375 -40.691406 1.875 -40.574219 1.640625 -40.457031 C 1.289062 -40.222656 1.054688 -39.929688 0.9375 -39.578125 C 0.703125 -39.109375 0.585938 -38.582031 0.585938 -37.996094 C 0.46875 -37.292969 0.410156 -36.472656 0.410156 -35.53125 C 0.175781 -33.304688 0.0585938 -31.371094 0.0585938 -29.726562 C 0 -28.085938 0 -26.5625 0.0585938 -25.273438 C 0.0585938 -24.566406 0.117188 -23.921875 0.117188 -23.277344 C 0.117188 -22.632812 0.175781 -21.988281 0.292969 -21.402344 C 0.410156 -20.113281 0.585938 -18.820312 0.820312 -17.53125 C 1.054688 -16.066406 1.347656 -14.542969 1.699219 -13.015625 C 1.875 -12.195312 2.050781 -11.257812 2.226562 -10.261719 C 2.402344 -9.265625 2.578125 -8.207031 2.816406 -7.09375 C 3.050781 -5.453125 3.753906 -4.046875 4.925781 -2.816406 C 5.980469 -1.523438 7.210938 -0.644531 8.621094 -0.175781 C 10.027344 0.410156 11.375 0.527344 12.78125 0.292969 C 14.191406 0.0585938 15.363281 -0.644531 16.300781 -1.875 Z M 16.300781 -1.875 "/></g></g></g><g fill="#fe8d41" fill-opacity="1"><g transform="translate(282.734651, 104.63472)"><g><path d="M 11.199219 -0.117188 L 13.484375 0 C 14.425781 0 15.304688 -0.234375 16.125 -0.703125 C 16.886719 -1.054688 17.589844 -1.582031 18.292969 -2.285156 C 18.878906 -2.875 19.46875 -3.636719 19.9375 -4.457031 C 20.40625 -5.277344 20.757812 -6.097656 20.992188 -6.976562 C 21.109375 -7.679688 21.226562 -8.386719 21.34375 -9.089844 C 21.34375 -9.441406 21.402344 -9.792969 21.402344 -10.144531 C 21.402344 -10.496094 21.460938 -10.789062 21.460938 -11.140625 L 21.460938 -12.898438 C 21.460938 -13.484375 21.460938 -13.898438 21.519531 -14.132812 C 21.519531 -14.425781 21.636719 -14.777344 21.8125 -15.128906 C 21.871094 -15.246094 21.929688 -15.421875 21.988281 -15.597656 C 22.046875 -15.773438 22.105469 -15.949219 22.222656 -16.183594 C 21.636719 -16.535156 21.109375 -16.769531 20.640625 -16.886719 C 20.054688 -17.003906 19.527344 -17.0625 18.996094 -17.0625 L 18.117188 -17.0625 C 17.824219 -17.0625 17.53125 -17.003906 17.296875 -17.003906 L 15.714844 -16.828125 C 14.601562 -16.769531 13.777344 -16.59375 13.308594 -16.359375 C 12.839844 -16.125 12.371094 -15.714844 11.902344 -15.1875 C 12.136719 -14.835938 12.488281 -14.601562 12.898438 -14.484375 C 13.25 -14.367188 13.601562 -14.308594 14.015625 -14.308594 L 15.246094 -14.308594 C 15.421875 -14.308594 15.597656 -14.25 15.832031 -14.25 C 16.066406 -14.25 16.242188 -14.191406 16.476562 -14.191406 L 16.652344 -11.199219 C 16.652344 -10.144531 16.59375 -9.148438 16.476562 -8.207031 C 16.242188 -7.210938 15.949219 -6.273438 15.597656 -5.453125 C 15.128906 -4.515625 14.660156 -3.753906 14.191406 -3.226562 C 13.601562 -2.636719 13.015625 -2.285156 12.429688 -2.167969 C 11.726562 -2.050781 11.082031 -2.285156 10.378906 -2.933594 C 8.796875 -4.222656 7.679688 -5.804688 6.976562 -7.679688 C 6.273438 -9.441406 5.863281 -11.199219 5.746094 -12.957031 C 5.628906 -13.835938 5.570312 -14.71875 5.570312 -15.597656 C 5.570312 -16.417969 5.511719 -17.296875 5.511719 -18.234375 C 5.453125 -19.113281 5.453125 -19.996094 5.511719 -20.933594 C 5.570312 -21.8125 5.6875 -22.75 5.804688 -23.6875 C 6.039062 -25.566406 6.449219 -27.5 7.035156 -29.492188 C 7.621094 -31.546875 8.503906 -33.65625 9.558594 -35.824219 C 10.203125 -37.117188 10.789062 -37.9375 11.375 -38.40625 C 11.902344 -38.816406 12.722656 -39.109375 13.835938 -39.34375 C 14.777344 -39.460938 15.539062 -39.226562 16.007812 -38.757812 C 16.476562 -38.171875 16.828125 -37.527344 17.0625 -36.824219 C 17.296875 -36 17.472656 -35.179688 17.589844 -34.359375 C 17.707031 -33.421875 17.882812 -32.660156 18.117188 -31.957031 C 18.351562 -31.253906 18.703125 -30.785156 19.171875 -30.488281 C 19.644531 -30.195312 20.40625 -30.3125 21.460938 -30.785156 C 21.988281 -31.019531 22.398438 -31.546875 22.632812 -32.367188 C 22.867188 -33.1875 22.925781 -34.066406 22.808594 -35.0625 C 22.691406 -36 22.339844 -37 21.8125 -38.054688 C 21.226562 -39.050781 20.464844 -39.929688 19.527344 -40.632812 C 18.46875 -41.335938 17.238281 -41.808594 15.832031 -42.042969 C 14.308594 -42.277344 12.546875 -42.101562 10.554688 -41.511719 C 9.148438 -41.042969 7.914062 -40.28125 6.859375 -39.226562 C 5.746094 -38.054688 4.808594 -36.765625 4.105469 -35.238281 C 3.34375 -33.714844 2.695312 -32.074219 2.167969 -30.195312 C 1.640625 -28.378906 1.230469 -26.503906 0.9375 -24.625 C 0.761719 -23.6875 0.644531 -22.75 0.527344 -21.871094 C 0.410156 -20.933594 0.351562 -20.054688 0.292969 -19.171875 C 0.175781 -17.414062 0.117188 -15.832031 0.117188 -14.425781 C 0.117188 -9.558594 1.933594 -5.511719 5.511719 -2.285156 C 6.214844 -1.582031 6.800781 -1.171875 7.328125 -0.9375 C 7.914062 -0.585938 8.5625 -0.410156 9.207031 -0.292969 C 9.792969 -0.175781 10.496094 -0.117188 11.199219 -0.117188 Z M 11.199219 -0.117188 "/></g></g></g></svg>