<svg xmlns="http://www.w3.org/2000/svg" xmlns:xlink="http://www.w3.org/1999/xlink" width="500" zoomAndPan="magnify" viewBox="0 0 375 374.999991" height="500" preserveAspectRatio="xMidYMid meet" version="1.0"><defs><filter x="0%" y="0%" width="100%" height="100%" id="f7d7a9cda4"><feColorMatrix values="0 0 0 0 1 0 0 0 0 1 0 0 0 0 1 0 0 0 1 0" color-interpolation-filters="sRGB"/></filter><g/><mask id="85c17a217d"><g filter="url(#f7d7a9cda4)"><rect x="-37.5" width="450" fill="#000000" y="-37.499999" height="449.999989" fill-opacity="0.79"/></g></mask><clipPath id="6926471bb9"><path d="M 162 30 L 234 30 L 234 130 L 162 130 Z M 162 30 " clip-rule="nonzero"/></clipPath><clipPath id="2755d0c744"><path d="M 123.851562 0.394531 L 277.0625 65.574219 L 153.746094 355.433594 L 0.535156 290.253906 Z M 123.851562 0.394531 " clip-rule="nonzero"/></clipPath><clipPath id="0445518610"><path d="M 123.851562 0.394531 L 277.0625 65.574219 L 153.746094 355.433594 L 0.535156 290.253906 Z M 123.851562 0.394531 " clip-rule="nonzero"/></clipPath><clipPath id="9a668028d4"><path d="M 123.851562 0.394531 L 277.0625 65.574219 L 153.746094 355.433594 L 0.535156 290.253906 Z M 123.851562 0.394531 " clip-rule="nonzero"/></clipPath><clipPath id="87866f1fbc"><path d="M 31 225 L 130 225 L 130 318 L 31 318 Z M 31 225 " clip-rule="nonzero"/></clipPath><clipPath id="5012815a8f"><path d="M 123.851562 0.394531 L 277.0625 65.574219 L 153.746094 355.433594 L 0.535156 290.253906 Z M 123.851562 0.394531 " clip-rule="nonzero"/></clipPath><clipPath id="d0dfef9556"><path d="M 123.851562 0.394531 L 277.0625 65.574219 L 153.746094 355.433594 L 0.535156 290.253906 Z M 123.851562 0.394531 " clip-rule="nonzero"/></clipPath><clipPath id="f46d33605b"><path d="M 123.851562 0.394531 L 277.0625 65.574219 L 153.746094 355.433594 L 0.535156 290.253906 Z M 123.851562 0.394531 " clip-rule="nonzero"/></clipPath><clipPath id="4ea72e886d"><path d="M 78 78 L 209 78 L 209 171 L 78 171 Z M 78 78 " clip-rule="nonzero"/></clipPath><clipPath id="2c780eb80e"><path d="M 123.851562 0.394531 L 277.0625 65.574219 L 153.746094 355.433594 L 0.535156 290.253906 Z M 123.851562 0.394531 " clip-rule="nonzero"/></clipPath><clipPath id="4e34dd06b2"><path d="M 123.851562 0.394531 L 277.0625 65.574219 L 153.746094 355.433594 L 0.535156 290.253906 Z M 123.851562 0.394531 " clip-rule="nonzero"/></clipPath><clipPath id="63aee8ed4e"><path d="M 123.851562 0.394531 L 277.0625 65.574219 L 153.746094 355.433594 L 0.535156 290.253906 Z M 123.851562 0.394531 " clip-rule="nonzero"/></clipPath><clipPath id="bb71e23d3a"><path d="M 75 145 L 226 145 L 226 253 L 75 253 Z M 75 145 " clip-rule="nonzero"/></clipPath><clipPath id="bdb272e13f"><path d="M 123.851562 0.394531 L 277.0625 65.574219 L 153.746094 355.433594 L 0.535156 290.253906 Z M 123.851562 0.394531 " clip-rule="nonzero"/></clipPath><clipPath id="92059b9c45"><path d="M 123.851562 0.394531 L 277.0625 65.574219 L 153.746094 355.433594 L 0.535156 290.253906 Z M 123.851562 0.394531 " clip-rule="nonzero"/></clipPath><clipPath id="1b2144c6ea"><path d="M 123.851562 0.394531 L 277.0625 65.574219 L 153.746094 355.433594 L 0.535156 290.253906 Z M 123.851562 0.394531 " clip-rule="nonzero"/></clipPath><clipPath id="146bb78e21"><rect x="0" width="278" y="0" height="357"/></clipPath></defs><rect x="-37.5" width="450" fill="#ffffff" y="-37.499999" height="449.999989" fill-opacity="1"/><rect x="-37.5" width="450" fill="#000000" y="-37.499999" height="449.999989" fill-opacity="1"/><g mask="url(#85c17a217d)"><g transform="matrix(1, 0, 0, 1, 41, 2)"><g clip-path="url(#146bb78e21)"><g clip-path="url(#6926471bb9)"><g clip-path="url(#2755d0c744)"><g clip-path="url(#0445518610)"><g clip-path="url(#9a668028d4)"><path fill="#808285" d="M 233.578125 92.800781 C 233.582031 92.777344 233.585938 92.75 233.585938 92.726562 C 233.585938 92.726562 233.585938 92.726562 233.585938 92.722656 C 233.585938 92.707031 233.585938 92.691406 233.585938 92.675781 L 230.410156 63.765625 C 230.40625 63.738281 230.402344 63.710938 230.390625 63.683594 C 230.375 63.632812 230.347656 63.589844 230.308594 63.550781 C 230.308594 63.550781 230.308594 63.550781 230.308594 63.546875 C 230.304688 63.546875 230.304688 63.546875 230.304688 63.546875 C 230.300781 63.542969 230.296875 63.539062 230.292969 63.535156 L 195.332031 30.832031 C 195.296875 30.800781 195.261719 30.773438 195.21875 30.753906 C 195.199219 30.746094 195.175781 30.738281 195.15625 30.734375 C 195.089844 30.71875 195.023438 30.722656 194.960938 30.742188 C 194.929688 30.753906 194.898438 30.765625 194.871094 30.785156 C 194.8125 30.824219 194.761719 30.882812 194.730469 30.953125 C 194.726562 30.964844 194.722656 30.972656 194.71875 30.984375 C 194.71875 30.984375 194.71875 30.984375 194.714844 30.988281 C 194.714844 30.988281 194.714844 30.992188 194.714844 30.996094 L 189.40625 49.582031 L 173.121094 59.269531 C 173.078125 59.292969 173.039062 59.328125 173.007812 59.367188 C 173.007812 59.367188 173.007812 59.367188 173.007812 59.371094 C 173 59.378906 172.992188 59.390625 172.988281 59.402344 C 172.988281 59.402344 172.988281 59.402344 172.984375 59.402344 C 172.980469 59.414062 172.976562 59.421875 172.972656 59.433594 L 162.78125 81.21875 C 162.765625 81.246094 162.757812 81.273438 162.75 81.300781 C 162.75 81.304688 162.75 81.304688 162.75 81.304688 C 162.75 81.308594 162.75 81.308594 162.75 81.3125 C 162.746094 81.3125 162.746094 81.3125 162.746094 81.316406 C 162.746094 81.316406 162.746094 81.316406 162.746094 81.320312 C 162.734375 81.386719 162.742188 81.453125 162.765625 81.515625 L 175.382812 114.667969 C 175.417969 114.765625 175.492188 114.839844 175.582031 114.878906 C 175.589844 114.878906 175.59375 114.882812 175.601562 114.882812 L 213.433594 129.066406 C 213.433594 129.066406 213.4375 129.066406 213.4375 129.066406 C 213.441406 129.066406 213.441406 129.066406 213.441406 129.066406 C 213.515625 129.09375 213.597656 129.09375 213.667969 129.074219 C 213.699219 129.066406 213.726562 129.050781 213.753906 129.035156 C 213.808594 129.003906 213.855469 128.953125 213.890625 128.894531 C 213.894531 128.882812 213.902344 128.871094 213.90625 128.859375 L 225.691406 101.042969 L 233.476562 92.980469 C 233.484375 92.972656 233.492188 92.964844 233.5 92.953125 C 233.539062 92.910156 233.566406 92.855469 233.578125 92.800781 Z M 185.6875 80.296875 L 206.636719 62.058594 L 207.410156 76.480469 Z M 207.050781 77.296875 L 200.476562 87.988281 L 185.660156 81.054688 Z M 194.863281 94.980469 L 164.789062 81.714844 L 184.253906 81.269531 Z M 185.667969 81.878906 L 200.085938 88.625 L 196.007812 95.253906 Z M 200.761719 88.941406 L 218.035156 97.019531 L 196.683594 95.578125 Z M 201.15625 88.304688 L 207.792969 77.511719 L 219.058594 96.679688 Z M 208.136719 76.160156 L 207.363281 61.695312 L 228.882812 64.054688 Z M 228.972656 63.316406 L 207.230469 60.933594 L 196.023438 32.496094 Z M 195.128906 32.253906 L 206.1875 60.316406 L 190.152344 49.667969 Z M 189.710938 50.265625 L 205.636719 60.839844 L 174.554688 59.277344 Z M 206.027344 61.605469 L 184.546875 80.304688 L 173.9375 59.992188 Z M 173.328125 60.425781 L 183.828125 80.535156 L 163.703125 80.996094 Z M 175.882812 113.894531 L 163.777344 82.082031 L 195.375 96.019531 Z M 176.425781 114.402344 L 195.941406 96.503906 L 212.773438 128.027344 Z M 196.679688 96.320312 L 219.535156 97.863281 L 213.410156 127.636719 Z M 220.242188 98.117188 L 224.910156 100.984375 L 214.683594 125.125 Z M 225.316406 100.363281 L 220.832031 97.609375 L 231.832031 93.617188 Z M 220.148438 97.066406 L 208.890625 77.910156 L 232.375 92.632812 Z M 208.515625 76.800781 L 229.734375 64.417969 L 232.761719 92 Z M 208.515625 76.800781 " fill-opacity="1" fill-rule="nonzero"/></g></g></g></g><g clip-path="url(#87866f1fbc)"><g clip-path="url(#5012815a8f)"><g clip-path="url(#d0dfef9556)"><g clip-path="url(#f46d33605b)"><path fill="#ffffff" d="M 129.574219 300.042969 C 129.578125 300.019531 129.582031 299.992188 129.578125 299.964844 C 129.574219 299.921875 129.566406 299.882812 129.550781 299.84375 L 106.367188 242.394531 C 106.367188 242.390625 106.363281 242.382812 106.359375 242.378906 C 106.359375 242.375 106.363281 242.375 106.359375 242.375 C 106.328125 242.300781 106.269531 242.242188 106.203125 242.207031 L 76.691406 225.691406 C 76.667969 225.679688 76.648438 225.667969 76.625 225.660156 C 76.625 225.660156 76.625 225.660156 76.621094 225.660156 C 76.59375 225.648438 76.5625 225.644531 76.53125 225.640625 C 76.476562 225.636719 76.417969 225.648438 76.363281 225.671875 C 76.363281 225.671875 76.363281 225.671875 76.363281 225.667969 L 76.363281 225.671875 C 76.347656 225.675781 76.335938 225.683594 76.324219 225.6875 L 65.273438 231.796875 L 32.050781 234.238281 C 32.042969 234.238281 32.03125 234.238281 32.023438 234.242188 C 31.949219 234.25 31.882812 234.28125 31.832031 234.328125 C 31.8125 234.34375 31.792969 234.367188 31.777344 234.386719 C 31.777344 234.390625 31.777344 234.390625 31.777344 234.390625 C 31.730469 234.453125 31.707031 234.527344 31.707031 234.609375 C 31.707031 234.609375 31.707031 234.609375 31.703125 234.609375 C 31.703125 234.617188 31.703125 234.621094 31.707031 234.628906 L 34.378906 287.554688 C 34.378906 287.554688 34.378906 287.558594 34.378906 287.558594 C 34.382812 287.566406 34.378906 287.558594 34.378906 287.558594 C 34.386719 287.644531 34.417969 287.722656 34.480469 287.789062 C 34.484375 287.792969 34.488281 287.800781 34.496094 287.804688 L 65.417969 317.832031 C 65.425781 317.839844 65.429688 317.839844 65.433594 317.847656 C 65.433594 317.847656 65.433594 317.847656 65.4375 317.847656 C 65.433594 317.847656 65.4375 317.847656 65.4375 317.847656 C 65.4375 317.847656 65.4375 317.847656 65.4375 317.851562 C 65.464844 317.875 65.5 317.894531 65.535156 317.910156 C 65.566406 317.921875 65.605469 317.933594 65.644531 317.9375 C 65.671875 317.9375 65.699219 317.9375 65.726562 317.9375 L 92.066406 314.835938 C 92.074219 314.835938 92.082031 314.835938 92.089844 314.832031 C 92.09375 314.832031 92.09375 314.832031 92.09375 314.832031 C 92.105469 314.828125 92.117188 314.828125 92.128906 314.824219 C 92.132812 314.824219 92.132812 314.820312 92.132812 314.820312 C 92.171875 314.808594 92.210938 314.789062 92.246094 314.765625 C 92.246094 314.765625 92.246094 314.765625 92.246094 314.761719 C 92.246094 314.761719 92.25 314.761719 92.25 314.761719 C 92.261719 314.75 92.273438 314.738281 92.289062 314.726562 L 107.820312 298.824219 L 129.179688 300.359375 C 129.183594 300.363281 129.1875 300.363281 129.191406 300.363281 C 129.277344 300.363281 129.363281 300.335938 129.429688 300.285156 C 129.457031 300.265625 129.480469 300.242188 129.5 300.214844 C 129.519531 300.191406 129.535156 300.164062 129.546875 300.136719 C 129.5625 300.105469 129.570312 300.078125 129.574219 300.042969 Z M 128.1875 298.453125 L 101.585938 272.011719 L 106.175781 243.902344 Z M 100.902344 271.589844 L 85.695312 264.246094 L 105.464844 243.652344 Z M 100.449219 272.199219 L 74 290.390625 L 85.253906 264.859375 Z M 105.421875 242.621094 L 85.28125 263.601562 L 77.046875 226.742188 Z M 69.992188 267.863281 L 61.527344 270.042969 L 67.03125 242.636719 Z M 67.65625 241.601562 L 84.441406 264.136719 L 70.71875 267.675781 Z M 70.078125 268.605469 L 72.554688 289.695312 L 61.609375 270.789062 Z M 70.804688 268.417969 L 84.421875 264.910156 L 73.34375 290.039062 Z M 76.332031 226.949219 L 84.328125 262.738281 L 67.582031 240.257812 Z M 75.367188 227.066406 L 67.304688 239.324219 L 65.800781 232.355469 Z M 65.085938 232.558594 L 66.652344 239.816406 L 35.265625 234.746094 Z M 66.6875 240.574219 L 60.839844 269.703125 L 32.972656 235.128906 Z M 32.503906 235.730469 L 60.5 270.460938 L 35.089844 286.871094 Z M 35.34375 287.59375 L 60.734375 271.195312 L 65.210938 316.59375 Z M 61.585938 272.222656 L 72.730469 291.484375 L 65.859375 315.585938 Z M 66.1875 317.132812 L 73.296875 292.21875 L 91.304688 314.175781 Z M 73.675781 291.511719 L 100.625 272.980469 L 91.824219 313.636719 Z M 92.660156 313.285156 L 101.210938 273.789062 L 107.269531 298.328125 Z M 107.972656 298.089844 L 101.867188 273.339844 L 128.234375 299.546875 Z M 107.972656 298.089844 " fill-opacity="1" fill-rule="nonzero"/></g></g></g></g><g clip-path="url(#4ea72e886d)"><g clip-path="url(#2c780eb80e)"><g clip-path="url(#4e34dd06b2)"><g clip-path="url(#63aee8ed4e)"><path fill="#a7a9ac" d="M 208.566406 124.808594 C 208.582031 124.746094 208.585938 124.679688 208.566406 124.613281 C 208.558594 124.59375 208.554688 124.578125 208.542969 124.558594 C 208.542969 124.558594 208.546875 124.558594 208.542969 124.558594 C 208.523438 124.515625 208.496094 124.476562 208.460938 124.445312 L 163.191406 80.871094 C 163.1875 80.863281 163.179688 80.859375 163.171875 80.851562 C 163.125 80.8125 163.074219 80.789062 163.019531 80.777344 C 163.019531 80.777344 163.015625 80.773438 163.015625 80.773438 C 163.015625 80.773438 163.011719 80.773438 163.011719 80.773438 C 163.011719 80.773438 163.007812 80.773438 163.007812 80.773438 C 163.007812 80.769531 163.003906 80.773438 163.003906 80.769531 C 163 80.769531 162.996094 80.769531 162.992188 80.769531 C 162.992188 80.769531 162.992188 80.769531 162.988281 80.769531 C 162.988281 80.769531 162.988281 80.769531 162.984375 80.765625 C 162.976562 80.765625 162.96875 80.765625 162.960938 80.765625 L 124.855469 78.605469 C 124.835938 78.601562 124.820312 78.601562 124.800781 78.605469 C 124.777344 78.605469 124.757812 78.609375 124.738281 78.613281 C 124.738281 78.613281 124.738281 78.613281 124.738281 78.617188 C 124.738281 78.617188 124.734375 78.617188 124.734375 78.617188 C 124.683594 78.628906 124.632812 78.65625 124.585938 78.695312 C 124.578125 78.703125 124.566406 78.714844 124.558594 78.722656 L 114.515625 89.503906 L 78.867188 106.882812 C 78.851562 106.886719 78.839844 106.894531 78.828125 106.902344 C 78.769531 106.9375 78.722656 106.988281 78.695312 107.046875 C 78.695312 107.050781 78.695312 107.050781 78.695312 107.050781 C 78.683594 107.074219 78.671875 107.101562 78.664062 107.128906 C 78.648438 107.199219 78.652344 107.273438 78.675781 107.347656 C 78.679688 107.355469 78.683594 107.359375 78.683594 107.367188 L 99.878906 155.980469 C 99.917969 156.066406 99.984375 156.136719 100.074219 156.175781 C 100.082031 156.179688 100.089844 156.179688 100.097656 156.183594 C 100.101562 156.183594 100.105469 156.1875 100.105469 156.1875 L 144.417969 170.429688 C 144.480469 170.453125 144.554688 170.457031 144.625 170.4375 C 144.625 170.441406 144.625 170.4375 144.625 170.4375 C 144.625 170.4375 144.625 170.4375 144.628906 170.4375 C 144.660156 170.429688 144.6875 170.417969 144.710938 170.402344 L 172.558594 155.535156 C 172.582031 155.523438 172.601562 155.511719 172.621094 155.492188 C 172.621094 155.492188 172.625 155.492188 172.625 155.492188 C 172.664062 155.460938 172.691406 155.421875 172.714844 155.378906 L 184.300781 133.324219 L 208.328125 125.066406 C 208.414062 125.035156 208.484375 124.976562 208.527344 124.90625 C 208.527344 124.90625 208.527344 124.90625 208.527344 124.902344 C 208.546875 124.875 208.558594 124.839844 208.566406 124.808594 Z M 206.761719 123.839844 L 168.171875 110.925781 L 163.480469 82.179688 Z M 162.75 82.308594 L 167.40625 110.835938 L 148.070312 110.820312 Z M 132.792969 120.867188 L 120.34375 97.53125 L 146.742188 111.238281 Z M 146.996094 111.964844 L 143.472656 140.886719 L 133.144531 121.523438 Z M 132.175781 121.289062 L 123.519531 127.265625 L 120.0625 98.578125 Z M 132.527344 121.949219 L 142.648438 140.921875 L 123.875 127.921875 Z M 143.332031 142.296875 L 144.109375 168.421875 L 124.21875 129.058594 Z M 147.792969 111.5625 L 167.082031 111.578125 L 144.230469 140.816406 Z M 162.339844 81.476562 L 147.414062 110.472656 L 125.574219 79.390625 Z M 146.285156 110.160156 L 119.898438 96.460938 L 124.964844 79.8125 Z M 124.007812 80.402344 L 119.324219 95.804688 L 115.214844 89.84375 Z M 114.617188 90.285156 L 118.851562 96.425781 L 82.550781 105.914062 Z M 119.136719 97.117188 L 122.777344 127.296875 L 80.113281 107.320312 Z M 100.316406 155.132812 L 79.757812 107.972656 L 122.636719 128.050781 Z M 100.855469 155.648438 L 123.148438 128.59375 L 143.800781 169.457031 Z M 144.886719 169.472656 L 144.089844 142.683594 L 171.546875 155.238281 Z M 144.28125 141.957031 L 167.566406 112.164062 L 171.945312 154.605469 Z M 172.625 153.949219 L 168.351562 112.515625 L 183.601562 133.054688 Z M 184.175781 132.582031 L 168.84375 111.933594 L 207.050781 124.722656 Z M 184.175781 132.582031 " fill-opacity="1" fill-rule="nonzero"/></g></g></g></g><g clip-path="url(#bb71e23d3a)"><g clip-path="url(#bdb272e13f)"><g clip-path="url(#92059b9c45)"><g clip-path="url(#1b2144c6ea)"><path fill="#d1d3d4" d="M 225.070312 187.152344 C 225.066406 187.089844 225.046875 187.03125 225.011719 186.976562 C 225.003906 186.964844 224.996094 186.953125 224.984375 186.941406 L 191.660156 145.578125 C 191.648438 145.558594 191.632812 145.542969 191.617188 145.527344 C 191.609375 145.519531 191.597656 145.511719 191.589844 145.507812 C 191.523438 145.457031 191.441406 145.429688 191.351562 145.433594 C 191.347656 145.433594 191.339844 145.433594 191.335938 145.4375 L 138.820312 150.226562 C 138.773438 150.230469 138.730469 150.242188 138.6875 150.261719 C 138.6875 150.265625 138.6875 150.265625 138.6875 150.265625 C 138.6875 150.265625 138.683594 150.265625 138.683594 150.265625 C 138.679688 150.269531 138.675781 150.273438 138.667969 150.273438 C 138.667969 150.273438 138.667969 150.273438 138.667969 150.277344 C 138.667969 150.277344 138.667969 150.277344 138.664062 150.277344 C 138.636719 150.296875 138.609375 150.316406 138.589844 150.335938 L 110.261719 178.230469 C 110.246094 178.242188 110.234375 178.253906 110.222656 178.269531 C 110.195312 178.304688 110.175781 178.34375 110.164062 178.382812 C 110.164062 178.386719 110.164062 178.386719 110.164062 178.386719 L 101.476562 206.625 L 76.082031 225.957031 C 76.082031 225.957031 76.078125 225.957031 76.078125 225.957031 L 76.078125 225.960938 C 76.027344 226 75.988281 226.050781 75.964844 226.105469 C 75.953125 226.136719 75.941406 226.171875 75.9375 226.207031 C 75.9375 226.207031 75.9375 226.207031 75.9375 226.210938 C 75.933594 226.230469 75.933594 226.246094 75.933594 226.265625 C 75.9375 226.335938 75.957031 226.402344 76 226.464844 C 76.011719 226.476562 76.019531 226.488281 76.03125 226.5 C 76.066406 226.542969 76.109375 226.578125 76.164062 226.59375 L 135.515625 252.011719 C 135.515625 252.011719 135.519531 252.015625 135.519531 252.015625 C 135.527344 252.019531 135.539062 252.019531 135.542969 252.023438 C 135.546875 252.023438 135.546875 252.023438 135.546875 252.023438 C 135.578125 252.035156 135.609375 252.042969 135.640625 252.042969 C 135.644531 252.042969 135.644531 252.042969 135.644531 252.042969 C 135.691406 252.046875 135.738281 252.039062 135.78125 252.023438 L 178.960938 237.367188 C 178.984375 237.359375 179.003906 237.351562 179.019531 237.339844 C 179.019531 237.339844 179.019531 237.34375 179.019531 237.339844 C 179.019531 237.339844 179.023438 237.339844 179.023438 237.339844 C 179.078125 237.308594 179.128906 237.261719 179.164062 237.203125 L 188.332031 221.453125 L 224.945312 187.449219 C 224.957031 187.441406 224.96875 187.429688 224.976562 187.417969 C 225.023438 187.363281 225.050781 187.300781 225.0625 187.234375 C 225.070312 187.207031 225.070312 187.179688 225.070312 187.152344 Z M 190.726562 146.234375 L 170.945312 184.539062 L 139.636719 150.898438 Z M 145.589844 179.144531 L 139.507812 151.851562 L 169.949219 184.554688 Z M 170.359375 185.402344 L 161.707031 195.617188 L 146.425781 180.089844 Z M 144.984375 180.902344 L 146.738281 213.164062 L 125.007812 221.746094 Z M 145.703125 180.414062 L 161.222656 196.1875 L 147.445312 212.460938 Z M 161.75 196.71875 L 180.445312 215.71875 L 147.875 213.101562 Z M 162.230469 196.152344 L 170.890625 185.921875 L 180.542969 214.761719 Z M 138.632812 151.332031 L 144.8125 179.070312 L 111.398438 178.144531 Z M 144.691406 179.808594 L 124.328125 221.441406 L 111.027344 178.878906 Z M 110.519531 179.746094 L 123.574219 221.519531 L 102.230469 206.695312 Z M 101.804688 207.304688 L 123.1875 222.152344 L 77.539062 225.78125 Z M 77.835938 226.503906 L 124.007812 222.835938 L 134.996094 250.980469 Z M 124.734375 222.652344 L 146.546875 214.039062 L 135.617188 250.53125 Z M 136.226562 251.089844 L 147.328125 214.027344 L 178.054688 236.890625 Z M 148.382812 213.886719 L 180.988281 216.507812 L 178.554688 236.335938 Z M 179.433594 235.265625 L 181.695312 216.855469 L 187.554688 221.316406 Z M 188.015625 220.734375 L 182.042969 216.1875 L 221.015625 190.089844 Z M 181.605469 215.585938 L 171.558594 185.570312 L 223.539062 187.503906 Z M 171.628906 184.835938 L 191.4375 146.480469 L 223.898438 186.777344 Z M 171.628906 184.835938 " fill-opacity="1" fill-rule="nonzero"/></g></g></g></g></g></g></g><g fill="#fe8d41" fill-opacity="1"><g transform="translate(38.144568, 204.260378)"><g><path d="M 17.074219 -0.355469 L 17.132812 -0.0585938 C 18.324219 -0.179688 19.394531 -0.476562 20.34375 -0.953125 C 21.179688 -1.367188 21.890625 -1.902344 22.546875 -2.558594 C 23.140625 -3.152344 23.617188 -3.808594 23.914062 -4.519531 C 24.152344 -5.234375 24.390625 -5.890625 24.628906 -6.484375 C 24.746094 -7.078125 24.867188 -7.613281 24.984375 -8.089844 C 24.984375 -8.566406 25.046875 -8.863281 25.164062 -8.984375 C 24.808594 -9.578125 24.332031 -9.933594 23.796875 -10.054688 C 23.199219 -10.054688 22.664062 -10.054688 22.191406 -10.054688 C 21.652344 -9.996094 21.238281 -9.757812 20.941406 -9.398438 C 20.582031 -8.921875 20.285156 -8.507812 20.109375 -8.148438 C 19.808594 -7.554688 19.570312 -7.078125 19.453125 -6.601562 C 19.214844 -6.007812 18.976562 -5.472656 18.738281 -5.054688 C 18.382812 -4.519531 18.023438 -4.105469 17.609375 -3.808594 C 17.074219 -3.390625 16.480469 -3.152344 15.824219 -3.152344 C 13.683594 -3.925781 12.015625 -5.175781 10.707031 -6.902344 C 9.398438 -8.566406 8.386719 -10.53125 7.675781 -12.789062 C 6.960938 -14.933594 6.542969 -17.253906 6.425781 -19.75 C 6.304688 -20.941406 6.304688 -22.191406 6.367188 -23.378906 C 6.367188 -24.570312 6.484375 -25.757812 6.664062 -26.949219 C 6.902344 -29.328125 7.375 -31.53125 8.089844 -33.550781 C 8.746094 -35.574219 9.519531 -37.179688 10.46875 -38.429688 C 11.421875 -39.679688 12.433594 -40.453125 13.5625 -40.75 C 14.695312 -41.046875 15.824219 -40.691406 17.015625 -39.621094 C 17.253906 -39.382812 17.429688 -39.203125 17.609375 -39.023438 C 17.789062 -38.789062 17.964844 -38.609375 18.144531 -38.429688 C 18.382812 -38.074219 18.679688 -37.777344 19.035156 -37.539062 C 19.273438 -37.300781 19.570312 -37.121094 19.929688 -37.003906 C 20.226562 -36.882812 20.644531 -36.824219 21.179688 -36.882812 C 22.011719 -36.882812 22.425781 -37.242188 22.425781 -37.953125 C 22.425781 -38.550781 22.128906 -39.261719 21.59375 -40.097656 C 21 -40.808594 20.226562 -41.523438 19.273438 -42.238281 C 18.203125 -42.832031 17.132812 -43.1875 16.0625 -43.308594 C 15.644531 -43.308594 15.230469 -43.367188 14.8125 -43.367188 L 13.445312 -43.367188 C 12.433594 -43.367188 11.421875 -43.25 10.46875 -43.011719 C 9.398438 -42.773438 8.449219 -42.355469 7.496094 -41.761719 C 6.542969 -41.167969 5.652344 -40.273438 4.878906 -39.144531 C 3.332031 -36.882812 2.140625 -34.324219 1.308594 -31.46875 C 0.417969 -28.496094 -0.0585938 -25.582031 -0.0585938 -22.726562 C -0.117188 -19.75 0.179688 -16.835938 0.832031 -14.097656 C 1.488281 -11.242188 2.5 -8.804688 3.925781 -6.722656 C 5.355469 -4.582031 7.140625 -2.914062 9.339844 -1.726562 C 11.539062 -0.535156 14.097656 -0.0585938 17.074219 -0.355469 Z M 17.074219 -0.355469 "/></g></g></g><g fill="#fe8d41" fill-opacity="1"><g transform="translate(78.054102, 204.260378)"><g><path d="M 7.019531 -0.59375 L 7.019531 -0.476562 C 9.28125 0.117188 11.125 0.117188 12.433594 -0.355469 C 13.742188 -0.832031 14.992188 -2.082031 16.0625 -4.105469 C 16.179688 -4.34375 16.300781 -4.582031 16.417969 -4.878906 L 16.835938 -5.949219 C 17.074219 -6.664062 17.371094 -7.554688 17.726562 -8.625 C 17.847656 -9.101562 18.023438 -9.636719 18.144531 -10.171875 C 18.261719 -10.707031 18.382812 -11.304688 18.5 -11.898438 C 18.738281 -13.085938 18.917969 -14.335938 19.035156 -15.644531 C 19.097656 -16.714844 19.214844 -17.964844 19.394531 -19.335938 C 19.453125 -19.988281 19.511719 -20.703125 19.570312 -21.417969 C 19.632812 -22.128906 19.691406 -22.902344 19.808594 -23.734375 C 19.929688 -25.28125 19.988281 -26.828125 19.988281 -28.496094 C 19.988281 -29.269531 19.929688 -30.042969 19.871094 -30.816406 C 19.75 -31.589844 19.632812 -32.363281 19.511719 -33.195312 C 19.214844 -34.683594 18.738281 -36.109375 18.085938 -37.539062 C 17.371094 -38.847656 16.480469 -40.035156 15.40625 -41.105469 C 14.753906 -41.582031 14.039062 -41.878906 13.207031 -41.878906 L 10.054688 -41.878906 C 8.507812 -41.761719 7.257812 -41.40625 6.304688 -40.808594 C 5.234375 -40.097656 4.402344 -39.203125 3.808594 -38.132812 C 3.09375 -36.941406 2.617188 -35.632812 2.261719 -34.207031 C 1.902344 -32.660156 1.605469 -31.113281 1.367188 -29.566406 C 1.128906 -27.960938 0.953125 -26.292969 0.832031 -24.628906 C 0.714844 -23.796875 0.65625 -22.964844 0.59375 -22.191406 C 0.476562 -21.417969 0.417969 -20.644531 0.355469 -19.929688 C 0.238281 -19.097656 0.179688 -18.261719 0.117188 -17.429688 C 0.0585938 -16.597656 0.0585938 -15.765625 0.0585938 -14.992188 C 0.0585938 -14.160156 0.0585938 -13.386719 0.117188 -12.550781 C 0.117188 -11.71875 0.179688 -10.886719 0.296875 -10.054688 C 0.476562 -8.566406 0.832031 -7.257812 1.429688 -6.128906 C 2.023438 -4.9375 2.738281 -3.808594 3.6875 -2.796875 C 4.164062 -2.199219 4.640625 -1.726562 5.175781 -1.429688 C 5.828125 -1.011719 6.425781 -0.714844 7.019531 -0.59375 Z M 9.160156 -3.035156 L 9.398438 -2.796875 C 8.328125 -3.6875 7.554688 -4.699219 6.960938 -5.828125 C 6.304688 -7.019531 5.890625 -8.210938 5.769531 -9.457031 C 5.414062 -11.125 5.234375 -12.96875 5.234375 -14.992188 C 5.175781 -16.003906 5.175781 -17.015625 5.175781 -18.085938 C 5.175781 -19.097656 5.175781 -20.167969 5.292969 -21.238281 C 5.355469 -22.308594 5.414062 -23.320312 5.53125 -24.390625 C 5.59375 -25.402344 5.710938 -26.414062 5.890625 -27.484375 C 6.128906 -29.507812 6.484375 -31.351562 6.960938 -33.015625 C 7.316406 -34.621094 7.792969 -35.992188 8.386719 -37.179688 C 8.863281 -38.25 9.457031 -38.964844 10.171875 -39.324219 C 10.769531 -39.085938 11.183594 -38.789062 11.539062 -38.3125 C 11.777344 -37.835938 12.015625 -37.359375 12.253906 -36.765625 C 12.492188 -35.933594 12.789062 -35.160156 13.027344 -34.324219 C 13.265625 -33.492188 13.503906 -32.71875 13.742188 -31.945312 C 14.21875 -30.398438 14.394531 -28.734375 14.335938 -26.949219 C 14.335938 -24.152344 14.277344 -21.417969 14.160156 -18.796875 C 14.039062 -16.0625 13.742188 -13.386719 13.265625 -10.648438 C 13.085938 -9.695312 12.789062 -8.746094 12.433594 -7.792969 C 12.195312 -7.316406 12.015625 -6.902344 11.839844 -6.425781 C 11.601562 -5.949219 11.421875 -5.53125 11.242188 -5.117188 C 11.003906 -4.640625 10.769531 -4.222656 10.53125 -3.925781 C 10.230469 -3.570312 9.757812 -3.273438 9.160156 -3.035156 Z M 9.160156 -3.035156 "/></g></g></g><g fill="#fe8d41" fill-opacity="1"><g transform="translate(113.026994, 204.260378)"><g><path d="M 10.410156 -0.59375 C 10.53125 -0.59375 10.886719 -0.773438 11.480469 -1.128906 C 11.957031 -1.367188 12.550781 -1.785156 13.324219 -2.378906 C 13.980469 -2.855469 14.695312 -3.570312 15.527344 -4.519531 C 16.242188 -5.355469 16.953125 -6.425781 17.667969 -7.734375 C 18.324219 -9.042969 18.859375 -10.230469 19.335938 -11.363281 C 19.808594 -12.492188 20.167969 -13.5625 20.464844 -14.574219 C 21 -16.597656 21.355469 -18.441406 21.476562 -20.109375 C 21.535156 -20.941406 21.535156 -21.832031 21.535156 -22.664062 C 21.535156 -23.5 21.476562 -24.332031 21.417969 -25.164062 C 21.296875 -25.996094 21.238281 -26.890625 21.179688 -27.839844 C 21.117188 -28.792969 21.058594 -29.746094 21 -30.816406 C 20.941406 -32.421875 20.582031 -33.910156 19.988281 -35.277344 C 19.394531 -36.527344 18.738281 -37.65625 17.90625 -38.667969 C 17.132812 -39.558594 16.300781 -40.332031 15.46875 -40.988281 C 14.632812 -41.523438 13.980469 -41.878906 13.445312 -42.117188 C 11.539062 -42.714844 9.636719 -43.070312 7.734375 -43.1875 C 5.890625 -43.308594 3.984375 -42.953125 1.964844 -42.179688 C 1.488281 -41.941406 1.128906 -41.761719 0.890625 -41.644531 C 0.65625 -41.464844 0.476562 -41.105469 0.355469 -40.632812 C 0.238281 -40.15625 0.179688 -39.441406 0.179688 -38.488281 C 0.179688 -38.015625 0.179688 -37.417969 0.179688 -36.765625 C 0.179688 -36.109375 0.238281 -35.335938 0.296875 -34.503906 C 0.296875 -33.613281 0.355469 -32.601562 0.417969 -31.53125 C 0.417969 -30.457031 0.476562 -29.269531 0.59375 -27.960938 C 0.714844 -25.28125 0.832031 -22.070312 0.953125 -18.261719 L 0.953125 -17.90625 C 0.953125 -17.667969 0.953125 -17.429688 1.011719 -17.074219 C 1.011719 -16.359375 1.070312 -15.46875 1.191406 -14.394531 C 1.191406 -13.800781 1.25 -13.265625 1.25 -12.671875 C 1.25 -12.078125 1.308594 -11.480469 1.367188 -10.886719 C 1.367188 -10.230469 1.429688 -9.578125 1.429688 -8.984375 C 1.429688 -8.386719 1.488281 -7.792969 1.546875 -7.199219 C 1.546875 -6.066406 1.605469 -5.054688 1.726562 -4.105469 C 1.726562 -3.628906 1.785156 -3.273438 1.785156 -2.972656 L 1.785156 -2.320312 C 1.84375 -1.605469 1.964844 -1.070312 2.199219 -0.773438 C 2.4375 -0.417969 2.855469 -0.179688 3.449219 -0.0585938 C 4.046875 0.0585938 4.878906 0.0585938 6.066406 -0.0585938 C 7.078125 -0.179688 8.507812 -0.355469 10.410156 -0.59375 Z M 7.375 -3.746094 L 7.4375 -3.6875 C 7.316406 -4.582031 7.257812 -5.59375 7.199219 -6.722656 C 7.140625 -7.792969 7.140625 -9.042969 7.140625 -10.46875 C 7.140625 -13.207031 7.078125 -16.179688 6.960938 -19.511719 C 6.839844 -22.726562 6.664062 -26.175781 6.425781 -29.863281 C 6.304688 -31.648438 6.128906 -33.433594 5.890625 -35.21875 C 5.652344 -37.003906 5.355469 -38.789062 5.054688 -40.570312 C 6.246094 -40.808594 7.375 -40.808594 8.507812 -40.453125 C 9.519531 -40.097656 10.410156 -39.5 11.242188 -38.667969 C 11.957031 -37.835938 12.613281 -36.882812 13.207031 -35.695312 C 13.445312 -35.097656 13.683594 -34.5625 13.859375 -33.96875 C 14.039062 -33.375 14.21875 -32.777344 14.335938 -32.183594 C 14.515625 -31.230469 14.695312 -30.339844 14.8125 -29.507812 C 14.933594 -28.675781 14.992188 -27.839844 15.109375 -27.007812 C 15.167969 -26.175781 15.230469 -25.34375 15.289062 -24.628906 C 15.289062 -23.914062 15.347656 -23.199219 15.347656 -22.546875 L 15.347656 -20.761719 C 15.347656 -20.226562 15.289062 -19.75 15.289062 -19.335938 C 15.230469 -18.859375 15.230469 -18.5625 15.230469 -18.324219 L 15.230469 -17.90625 C 15.050781 -16.835938 14.753906 -15.46875 14.335938 -13.921875 C 13.859375 -12.375 13.324219 -10.886719 12.730469 -9.457031 C 12.015625 -8.03125 11.242188 -6.78125 10.410156 -5.710938 C 9.457031 -4.640625 8.449219 -3.984375 7.375 -3.746094 Z M 7.375 -3.746094 "/></g></g></g><g fill="#fe8d41" fill-opacity="1"><g transform="translate(149.367872, 204.260378)"><g><path d="M 4.582031 0.179688 L 5.234375 -0.0585938 C 6.304688 -0.117188 7.257812 -0.179688 8.089844 -0.238281 C 8.921875 -0.296875 9.636719 -0.355469 10.292969 -0.476562 C 11.480469 -0.59375 12.433594 -0.714844 13.148438 -0.832031 C 13.859375 -0.953125 14.277344 -1.070312 14.515625 -1.25 C 14.753906 -1.429688 14.992188 -1.664062 15.167969 -1.964844 C 14.8125 -2.5 14.277344 -2.855469 13.683594 -3.035156 C 13.085938 -3.152344 12.375 -3.273438 11.539062 -3.273438 C 11.125 -3.273438 10.707031 -3.210938 10.351562 -3.210938 C 9.996094 -3.210938 9.578125 -3.152344 9.160156 -3.152344 C 8.328125 -3.035156 7.554688 -3.035156 6.902344 -3.152344 C 6.78125 -3.390625 6.722656 -3.511719 6.722656 -3.628906 C 6.601562 -3.746094 6.601562 -3.867188 6.601562 -3.984375 L 6.601562 -19.035156 C 6.601562 -19.273438 6.601562 -19.453125 6.664062 -19.511719 C 6.664062 -19.511719 6.722656 -19.691406 6.839844 -20.046875 C 7.316406 -20.167969 7.910156 -20.285156 8.625 -20.285156 L 10.410156 -20.285156 C 10.886719 -20.285156 11.480469 -20.34375 12.195312 -20.582031 C 12.730469 -20.703125 13.265625 -21.058594 13.859375 -21.652344 C 13.386719 -22.070312 12.789062 -22.367188 12.136719 -22.605469 C 11.421875 -22.785156 10.828125 -22.902344 10.351562 -22.902344 L 8.566406 -22.902344 C 7.910156 -22.902344 7.316406 -22.964844 6.839844 -23.082031 C 6.722656 -23.378906 6.601562 -23.914062 6.484375 -24.746094 C 6.367188 -25.582031 6.246094 -26.53125 6.128906 -27.601562 C 6.007812 -28.136719 5.949219 -28.675781 5.949219 -29.269531 C 5.949219 -29.863281 5.890625 -30.457031 5.890625 -31.113281 C 5.769531 -32.304688 5.710938 -33.492188 5.710938 -34.683594 C 5.652344 -35.21875 5.59375 -35.753906 5.59375 -36.230469 C 5.59375 -36.703125 5.59375 -37.121094 5.59375 -37.597656 L 5.59375 -38.667969 C 5.59375 -38.90625 5.59375 -39.144531 5.652344 -39.324219 C 6.839844 -39.558594 7.792969 -39.679688 8.566406 -39.679688 C 9.222656 -39.621094 9.875 -39.558594 10.589844 -39.5 C 11.183594 -39.382812 11.777344 -39.441406 12.253906 -39.558594 C 12.730469 -39.679688 13.386719 -40.035156 14.21875 -40.75 C 13.921875 -41.167969 13.5625 -41.464844 13.148438 -41.703125 C 12.671875 -41.878906 12.253906 -42 11.839844 -42.058594 C 11.539062 -42.058594 11.242188 -42.117188 10.886719 -42.117188 C 10.53125 -42.117188 10.113281 -42.179688 9.695312 -42.296875 C 9.222656 -42.355469 8.804688 -42.417969 8.328125 -42.417969 C 7.851562 -42.417969 7.316406 -42.476562 6.78125 -42.535156 C 6.1875 -42.535156 5.652344 -42.535156 5.117188 -42.535156 C 4.519531 -42.535156 3.984375 -42.476562 3.390625 -42.417969 C 2.199219 -42.296875 1.011719 -42.058594 -0.179688 -41.703125 C -0.296875 -41.046875 -0.355469 -40.453125 -0.417969 -39.859375 C -0.476562 -39.261719 -0.476562 -38.726562 -0.476562 -38.191406 L -0.476562 -36.46875 C -0.476562 -35.871094 -0.476562 -35.277344 -0.417969 -34.621094 C -0.417969 -33.910156 -0.355469 -33.195312 -0.355469 -32.480469 C -0.355469 -31.765625 -0.296875 -30.933594 -0.179688 -30.101562 C -0.0585938 -28.316406 0.0585938 -26.175781 0.179688 -23.796875 C 0.296875 -21.296875 0.417969 -18.324219 0.535156 -14.871094 C 0.59375 -13.085938 0.65625 -11.183594 0.714844 -9.160156 C 0.714844 -7.140625 0.773438 -4.9375 0.832031 -2.558594 C 0.832031 -2.261719 0.832031 -2.023438 0.832031 -1.785156 C 0.832031 -1.546875 0.890625 -1.367188 0.953125 -1.191406 C 0.953125 -0.832031 1.128906 -0.535156 1.488281 -0.296875 C 1.785156 0 2.140625 0.179688 2.617188 0.179688 C 3.09375 0.296875 3.746094 0.296875 4.582031 0.179688 Z M 4.582031 0.179688 "/></g></g></g><g fill="#fe8d41" fill-opacity="1"><g transform="translate(179.463589, 204.260378)"><g/></g></g><g fill="#fe8d41" fill-opacity="1"><g transform="translate(194.333014, 204.260378)"><g><path d="M 2.796875 0.59375 L 3.035156 -0.0585938 C 3.746094 -0.117188 4.164062 -0.535156 4.222656 -1.367188 C 4.285156 -2.261719 4.34375 -3.152344 4.460938 -4.046875 C 4.582031 -4.878906 4.699219 -5.769531 4.820312 -6.722656 C 5.054688 -8.507812 5.234375 -10.292969 5.355469 -12.136719 C 5.355469 -12.433594 5.414062 -12.851562 5.414062 -13.324219 L 5.414062 -21.890625 C 5.414062 -22.726562 5.414062 -23.558594 5.472656 -24.507812 C 5.472656 -25.402344 5.53125 -26.292969 5.53125 -27.128906 C 5.53125 -27.960938 5.59375 -28.734375 5.710938 -29.566406 C 5.769531 -30.339844 5.828125 -31.113281 5.890625 -31.828125 C 5.949219 -32.539062 6.007812 -33.195312 6.128906 -33.847656 C 6.246094 -35.039062 6.484375 -35.933594 6.839844 -36.527344 C 7.257812 -35.335938 7.675781 -34.027344 8.089844 -32.71875 C 8.507812 -31.230469 8.863281 -29.863281 9.160156 -28.554688 C 9.28125 -27.839844 9.457031 -27.1875 9.578125 -26.59375 C 9.695312 -25.9375 9.816406 -25.34375 9.933594 -24.808594 C 10.054688 -24.210938 10.113281 -23.734375 10.171875 -23.320312 L 10.351562 -22.308594 C 10.351562 -21.476562 10.53125 -20.644531 10.828125 -19.75 C 10.945312 -19.273438 11.066406 -18.859375 11.183594 -18.5 C 11.304688 -18.085938 11.480469 -17.667969 11.660156 -17.3125 C 11.898438 -16.417969 12.613281 -15.941406 13.742188 -15.882812 C 14.695312 -15.824219 15.527344 -16.003906 16.121094 -16.417969 C 16.65625 -16.777344 17.132812 -17.488281 17.609375 -18.5 C 18.023438 -19.394531 18.382812 -20.226562 18.679688 -21 C 18.976562 -21.773438 19.214844 -22.488281 19.453125 -23.140625 C 19.871094 -24.449219 20.226562 -25.640625 20.523438 -26.769531 C 20.644531 -27.363281 20.820312 -27.960938 20.941406 -28.554688 C 21.058594 -29.148438 21.179688 -29.804688 21.296875 -30.519531 C 21.417969 -31.171875 21.535156 -31.886719 21.714844 -32.71875 C 21.890625 -33.492188 22.128906 -34.386719 22.425781 -35.335938 C 22.425781 -35.457031 22.546875 -35.632812 22.664062 -35.753906 C 22.726562 -35.8125 22.84375 -35.992188 23.023438 -36.230469 C 23.140625 -35.933594 23.320312 -34.980469 23.4375 -33.375 C 23.5 -32.539062 23.558594 -31.648438 23.558594 -30.695312 C 23.558594 -29.746094 23.617188 -28.675781 23.675781 -27.542969 C 23.675781 -25.28125 23.734375 -22.84375 23.855469 -20.226562 C 23.855469 -18.917969 23.914062 -17.609375 23.914062 -16.359375 C 23.914062 -15.050781 23.972656 -13.800781 24.035156 -12.613281 C 24.035156 -10.113281 24.09375 -7.972656 24.210938 -6.1875 C 24.210938 -5.234375 24.273438 -4.460938 24.332031 -3.808594 C 24.332031 -3.152344 24.390625 -2.675781 24.507812 -2.320312 C 24.507812 -1.726562 24.746094 -1.308594 25.164062 -0.953125 C 25.519531 -0.59375 25.9375 -0.355469 26.414062 -0.238281 C 26.890625 -0.117188 27.363281 -0.117188 27.902344 -0.238281 C 28.375 -0.355469 28.851562 -0.59375 29.328125 -0.953125 C 29.328125 -1.070312 29.386719 -1.25 29.386719 -1.546875 L 29.386719 -11.421875 C 29.386719 -12.375 29.328125 -13.386719 29.328125 -14.457031 C 29.328125 -15.46875 29.269531 -16.539062 29.269531 -17.667969 C 29.210938 -18.738281 29.148438 -19.871094 29.148438 -20.941406 C 29.148438 -22.011719 29.089844 -23.140625 29.03125 -24.273438 C 28.910156 -25.34375 28.851562 -26.414062 28.792969 -27.484375 C 28.734375 -28.496094 28.675781 -29.507812 28.613281 -30.578125 C 28.4375 -32.539062 28.199219 -34.324219 27.902344 -35.992188 C 27.542969 -37.65625 27.246094 -38.964844 26.949219 -39.917969 C 26.59375 -40.929688 26.117188 -41.523438 25.640625 -41.703125 C 24.449219 -42.117188 23.378906 -42.179688 22.425781 -41.820312 C 21.355469 -41.464844 20.644531 -40.75 20.167969 -39.679688 C 19.75 -38.726562 19.335938 -37.835938 18.976562 -37.003906 C 18.621094 -36.109375 18.203125 -35.21875 17.847656 -34.386719 C 17.074219 -32.71875 16.597656 -30.875 16.359375 -28.851562 C 16.242188 -28.019531 16.121094 -27.246094 16.003906 -26.53125 C 15.824219 -25.820312 15.46875 -25.046875 14.992188 -24.210938 C 14.753906 -24.628906 14.515625 -25.222656 14.277344 -26.054688 C 14.160156 -26.472656 14.039062 -26.890625 13.921875 -27.246094 C 13.800781 -27.601562 13.683594 -28.019531 13.625 -28.4375 C 13.503906 -28.792969 13.445312 -29.210938 13.386719 -29.566406 C 13.265625 -29.921875 13.207031 -30.21875 13.148438 -30.578125 C 13.027344 -31.171875 12.96875 -31.53125 12.96875 -31.648438 C 12.851562 -32.066406 12.730469 -32.539062 12.613281 -33.015625 C 12.492188 -33.492188 12.3125 -33.96875 12.136719 -34.5625 C 11.898438 -35.097656 11.71875 -35.632812 11.539062 -36.109375 C 11.304688 -36.585938 11.125 -37.121094 10.945312 -37.597656 C 10.46875 -38.550781 10.054688 -39.382812 9.695312 -40.097656 C 9.28125 -40.691406 8.921875 -41.167969 8.683594 -41.40625 C 8.328125 -41.582031 7.851562 -41.703125 7.257812 -41.820312 C 6.664062 -41.820312 6.128906 -41.761719 5.652344 -41.644531 C 5.054688 -41.40625 4.582031 -41.167969 4.222656 -40.929688 C 3.746094 -40.570312 3.449219 -40.214844 3.332031 -39.859375 C 2.796875 -38.667969 2.378906 -37.476562 2.140625 -36.167969 C 1.785156 -34.742188 1.546875 -33.015625 1.429688 -30.992188 C 1.308594 -29.921875 1.25 -28.792969 1.191406 -27.542969 C 1.070312 -26.292969 1.011719 -24.925781 0.953125 -23.5 C 0.832031 -20.523438 0.714844 -16.953125 0.59375 -12.789062 C 0.476562 -10.648438 0.417969 -8.984375 0.417969 -7.851562 L 0.238281 -5.175781 C 0.117188 -4.582031 0.0585938 -4.164062 0.0585938 -3.925781 C -0.0585938 -3.570312 -0.117188 -3.390625 -0.117188 -3.273438 C -0.179688 -3.152344 -0.179688 -2.855469 -0.179688 -2.5 L -0.179688 -0.773438 C -0.179688 0 0.179688 0.417969 0.773438 0.535156 C 1.25 0.65625 1.964844 0.714844 2.796875 0.59375 Z M 2.796875 0.59375 "/></g></g></g><g fill="#fe8d41" fill-opacity="1"><g transform="translate(238.822339, 204.260378)"><g><path d="M 4.582031 0.179688 L 5.234375 -0.0585938 C 6.304688 -0.117188 7.257812 -0.179688 8.089844 -0.238281 C 8.921875 -0.296875 9.636719 -0.355469 10.292969 -0.476562 C 11.480469 -0.59375 12.433594 -0.714844 13.148438 -0.832031 C 13.859375 -0.953125 14.277344 -1.070312 14.515625 -1.25 C 14.753906 -1.429688 14.992188 -1.664062 15.167969 -1.964844 C 14.8125 -2.5 14.277344 -2.855469 13.683594 -3.035156 C 13.085938 -3.152344 12.375 -3.273438 11.539062 -3.273438 C 11.125 -3.273438 10.707031 -3.210938 10.351562 -3.210938 C 9.996094 -3.210938 9.578125 -3.152344 9.160156 -3.152344 C 8.328125 -3.035156 7.554688 -3.035156 6.902344 -3.152344 C 6.78125 -3.390625 6.722656 -3.511719 6.722656 -3.628906 C 6.601562 -3.746094 6.601562 -3.867188 6.601562 -3.984375 L 6.601562 -19.035156 C 6.601562 -19.273438 6.601562 -19.453125 6.664062 -19.511719 C 6.664062 -19.511719 6.722656 -19.691406 6.839844 -20.046875 C 7.316406 -20.167969 7.910156 -20.285156 8.625 -20.285156 L 10.410156 -20.285156 C 10.886719 -20.285156 11.480469 -20.34375 12.195312 -20.582031 C 12.730469 -20.703125 13.265625 -21.058594 13.859375 -21.652344 C 13.386719 -22.070312 12.789062 -22.367188 12.136719 -22.605469 C 11.421875 -22.785156 10.828125 -22.902344 10.351562 -22.902344 L 8.566406 -22.902344 C 7.910156 -22.902344 7.316406 -22.964844 6.839844 -23.082031 C 6.722656 -23.378906 6.601562 -23.914062 6.484375 -24.746094 C 6.367188 -25.582031 6.246094 -26.53125 6.128906 -27.601562 C 6.007812 -28.136719 5.949219 -28.675781 5.949219 -29.269531 C 5.949219 -29.863281 5.890625 -30.457031 5.890625 -31.113281 C 5.769531 -32.304688 5.710938 -33.492188 5.710938 -34.683594 C 5.652344 -35.21875 5.59375 -35.753906 5.59375 -36.230469 C 5.59375 -36.703125 5.59375 -37.121094 5.59375 -37.597656 L 5.59375 -38.667969 C 5.59375 -38.90625 5.59375 -39.144531 5.652344 -39.324219 C 6.839844 -39.558594 7.792969 -39.679688 8.566406 -39.679688 C 9.222656 -39.621094 9.875 -39.558594 10.589844 -39.5 C 11.183594 -39.382812 11.777344 -39.441406 12.253906 -39.558594 C 12.730469 -39.679688 13.386719 -40.035156 14.21875 -40.75 C 13.921875 -41.167969 13.5625 -41.464844 13.148438 -41.703125 C 12.671875 -41.878906 12.253906 -42 11.839844 -42.058594 C 11.539062 -42.058594 11.242188 -42.117188 10.886719 -42.117188 C 10.53125 -42.117188 10.113281 -42.179688 9.695312 -42.296875 C 9.222656 -42.355469 8.804688 -42.417969 8.328125 -42.417969 C 7.851562 -42.417969 7.316406 -42.476562 6.78125 -42.535156 C 6.1875 -42.535156 5.652344 -42.535156 5.117188 -42.535156 C 4.519531 -42.535156 3.984375 -42.476562 3.390625 -42.417969 C 2.199219 -42.296875 1.011719 -42.058594 -0.179688 -41.703125 C -0.296875 -41.046875 -0.355469 -40.453125 -0.417969 -39.859375 C -0.476562 -39.261719 -0.476562 -38.726562 -0.476562 -38.191406 L -0.476562 -36.46875 C -0.476562 -35.871094 -0.476562 -35.277344 -0.417969 -34.621094 C -0.417969 -33.910156 -0.355469 -33.195312 -0.355469 -32.480469 C -0.355469 -31.765625 -0.296875 -30.933594 -0.179688 -30.101562 C -0.0585938 -28.316406 0.0585938 -26.175781 0.179688 -23.796875 C 0.296875 -21.296875 0.417969 -18.324219 0.535156 -14.871094 C 0.59375 -13.085938 0.65625 -11.183594 0.714844 -9.160156 C 0.714844 -7.140625 0.773438 -4.9375 0.832031 -2.558594 C 0.832031 -2.261719 0.832031 -2.023438 0.832031 -1.785156 C 0.832031 -1.546875 0.890625 -1.367188 0.953125 -1.191406 C 0.953125 -0.832031 1.128906 -0.535156 1.488281 -0.296875 C 1.785156 0 2.140625 0.179688 2.617188 0.179688 C 3.09375 0.296875 3.746094 0.296875 4.582031 0.179688 Z M 4.582031 0.179688 "/></g></g></g><g fill="#fe8d41" fill-opacity="1"><g transform="translate(268.918056, 204.260378)"><g><path d="M 6.1875 -3.152344 L 6.425781 -3.332031 C 5.769531 -4.285156 5.414062 -5.175781 5.355469 -5.949219 C 5.234375 -6.664062 5.175781 -7.140625 5.175781 -7.316406 C 5.054688 -7.910156 4.820312 -8.386719 4.519531 -8.746094 C 4.164062 -8.984375 3.6875 -9.160156 3.09375 -9.28125 C 2.617188 -9.28125 2.082031 -9.28125 1.488281 -9.160156 C 0.953125 -9.042969 0.476562 -8.683594 0.0585938 -8.148438 C -0.0585938 -6.246094 0.296875 -4.699219 1.011719 -3.570312 C 1.726562 -2.378906 2.675781 -1.488281 3.867188 -0.890625 C 5.054688 -0.238281 6.367188 0.117188 7.792969 0.117188 C 9.222656 0.179688 10.589844 -0.0585938 11.957031 -0.59375 C 13.265625 -1.070312 14.515625 -1.84375 15.585938 -2.914062 C 16.65625 -3.925781 17.371094 -5.234375 17.847656 -6.78125 C 18.203125 -8.328125 18.203125 -10.113281 17.847656 -12.136719 C 17.371094 -14.160156 16.359375 -16.417969 14.8125 -18.917969 C 14.277344 -19.691406 13.742188 -20.464844 13.265625 -21.238281 C 12.789062 -22.011719 12.253906 -22.785156 11.777344 -23.617188 L 8.746094 -28.257812 C 8.148438 -29.148438 7.675781 -30.101562 7.375 -31.171875 C 7.019531 -32.304688 6.78125 -33.433594 6.664062 -34.621094 C 6.542969 -35.8125 6.601562 -36.882812 6.839844 -37.894531 C 7.078125 -38.847656 7.554688 -39.621094 8.269531 -40.214844 C 9.28125 -39.976562 10.054688 -39.621094 10.589844 -39.085938 C 11.066406 -38.488281 11.421875 -37.714844 11.660156 -36.824219 C 11.777344 -36.109375 11.839844 -35.515625 11.839844 -34.921875 L 11.839844 -33.3125 C 11.839844 -32.839844 11.957031 -32.480469 12.195312 -32.242188 C 12.433594 -32.003906 12.851562 -31.886719 13.445312 -31.886719 C 14.277344 -31.765625 14.992188 -32.003906 15.46875 -32.480469 C 15.941406 -32.957031 16.242188 -33.550781 16.359375 -34.265625 C 16.480469 -34.980469 16.480469 -35.753906 16.359375 -36.703125 C 16.242188 -37.121094 16.179688 -37.539062 16.0625 -37.953125 C 15.941406 -38.371094 15.824219 -38.789062 15.707031 -39.261719 C 15.585938 -39.558594 15.230469 -39.917969 14.753906 -40.332031 C 14.160156 -40.808594 13.503906 -41.167969 12.789062 -41.523438 C 12.015625 -41.878906 11.125 -42.179688 10.171875 -42.417969 C 9.101562 -42.652344 8.148438 -42.714844 7.257812 -42.714844 C 5.59375 -42.59375 4.34375 -42.058594 3.390625 -41.105469 C 2.4375 -40.035156 1.785156 -38.847656 1.429688 -37.476562 C 1.070312 -36.050781 1.011719 -34.503906 1.25 -32.898438 C 1.488281 -31.292969 1.964844 -29.804688 2.796875 -28.496094 C 3.867188 -26.472656 4.878906 -24.808594 5.828125 -23.5 C 6.664062 -22.070312 7.4375 -20.878906 8.148438 -19.929688 C 8.449219 -19.394531 8.746094 -18.917969 9.042969 -18.5 C 9.28125 -18.023438 9.578125 -17.609375 9.816406 -17.253906 C 10.230469 -16.539062 10.648438 -15.707031 11.066406 -14.8125 C 11.421875 -13.921875 11.71875 -13.027344 11.957031 -12.078125 C 12.195312 -11.003906 12.433594 -9.816406 12.671875 -8.507812 C 12.851562 -7.140625 12.730469 -6.007812 12.253906 -5.117188 C 11.777344 -4.164062 11.125 -3.449219 10.410156 -2.972656 C 9.578125 -2.5 8.804688 -2.261719 8.03125 -2.261719 C 7.199219 -2.261719 6.542969 -2.558594 6.1875 -3.152344 Z M 6.1875 -3.152344 "/></g></g></g><g fill="#fe8d41" fill-opacity="1"><g transform="translate(301.928163, 204.260378)"><g><path d="M 16.894531 0 L 16.65625 -0.0585938 C 18.917969 0.417969 20.046875 -0.535156 20.046875 -2.914062 C 19.929688 -9.222656 19.871094 -14.632812 19.871094 -19.097656 C 19.871094 -21.296875 19.808594 -23.320312 19.808594 -25.105469 C 19.808594 -26.890625 19.75 -28.554688 19.75 -29.984375 C 19.632812 -32.839844 19.570312 -35.097656 19.570312 -36.703125 C 19.453125 -38.25 19.335938 -39.441406 19.214844 -40.273438 C 18.976562 -40.988281 18.738281 -41.464844 18.5 -41.703125 C 18.144531 -41.820312 17.789062 -41.941406 17.429688 -42.058594 C 16.714844 -42.058594 16.121094 -42 15.644531 -41.878906 C 15.050781 -41.644531 14.753906 -41.226562 14.632812 -40.632812 C 14.574219 -40.273438 14.515625 -39.917969 14.515625 -39.558594 C 14.515625 -39.203125 14.515625 -38.726562 14.515625 -38.25 L 14.515625 -31.53125 C 14.515625 -30.933594 14.457031 -30.339844 14.457031 -29.804688 C 14.457031 -29.269531 14.394531 -28.734375 14.394531 -28.257812 C 14.335938 -27.304688 14.277344 -26.414062 14.21875 -25.699219 C 14.160156 -24.984375 14.039062 -24.570312 13.859375 -24.390625 L 10.769531 -24.210938 L 9.933594 -24.09375 C 9.636719 -24.035156 9.339844 -23.972656 9.042969 -23.914062 C 8.386719 -23.796875 7.734375 -23.796875 7.140625 -23.972656 L 7.140625 -29.683594 C 7.140625 -31.351562 7.078125 -32.839844 7.078125 -34.148438 C 6.960938 -36.765625 6.78125 -38.667969 6.484375 -39.859375 C 6.128906 -41.046875 5.59375 -41.761719 4.878906 -42 C 4.164062 -42.117188 3.09375 -42 1.785156 -41.644531 C 1.546875 -40.808594 1.429688 -39.859375 1.429688 -38.789062 L 1.429688 -36.941406 C 1.429688 -36.289062 1.429688 -35.574219 1.488281 -34.859375 C 1.488281 -33.3125 1.546875 -31.648438 1.664062 -29.863281 C 1.664062 -28.910156 1.726562 -27.960938 1.726562 -26.949219 C 1.726562 -25.9375 1.664062 -24.867188 1.605469 -23.796875 C 1.011719 -23.320312 0.65625 -23.023438 0.417969 -22.785156 C 0.179688 -22.546875 0.0585938 -22.308594 0.0585938 -22.070312 C 0.0585938 -21.832031 0.179688 -21.59375 0.417969 -21.355469 C 0.535156 -21.238281 0.65625 -21.058594 0.832031 -20.878906 C 0.953125 -20.703125 1.128906 -20.523438 1.367188 -20.34375 L 1.546875 -20.167969 L 1.546875 -20.046875 C 1.605469 -17.90625 1.664062 -16.003906 1.726562 -14.394531 C 1.785156 -12.730469 1.84375 -11.363281 1.964844 -10.230469 C 2.023438 -9.042969 2.082031 -8.03125 2.082031 -7.199219 C 2.082031 -6.367188 2.140625 -5.652344 2.199219 -5.117188 C 2.261719 -3.925781 2.320312 -3.273438 2.4375 -3.035156 C 2.558594 -2.738281 2.738281 -2.558594 2.972656 -2.4375 C 3.449219 -2.082031 4.046875 -1.902344 4.640625 -1.902344 C 5.234375 -1.902344 5.769531 -2.023438 6.304688 -2.320312 C 6.722656 -2.4375 6.960938 -2.738281 7.078125 -3.152344 C 7.078125 -3.332031 7.140625 -3.511719 7.140625 -3.746094 L 7.140625 -4.34375 C 7.140625 -7.4375 7.140625 -9.996094 7.140625 -11.898438 C 7.078125 -12.851562 7.019531 -13.683594 7.019531 -14.457031 C 7.019531 -15.167969 7.019531 -15.824219 7.019531 -16.417969 L 7.019531 -17.847656 C 7.019531 -18.261719 7.019531 -18.621094 7.078125 -18.917969 C 7.140625 -19.453125 7.257812 -19.871094 7.496094 -20.226562 C 9.757812 -20.40625 12.078125 -20.644531 14.394531 -20.941406 C 14.515625 -20.464844 14.632812 -20.046875 14.753906 -19.691406 C 14.753906 -19.453125 14.8125 -19.214844 14.8125 -18.859375 L 14.8125 -17.550781 C 14.8125 -17.015625 14.753906 -16.359375 14.753906 -15.644531 C 14.753906 -14.933594 14.695312 -14.097656 14.695312 -13.148438 C 14.632812 -11.242188 14.574219 -8.625 14.515625 -5.175781 C 14.515625 -4.105469 14.574219 -3.210938 14.695312 -2.617188 C 14.8125 -1.902344 14.933594 -1.429688 15.109375 -1.128906 C 15.230469 -0.773438 15.46875 -0.535156 15.824219 -0.355469 C 16.0625 -0.117188 16.417969 0 16.894531 0 Z M 16.894531 0 "/></g></g></g></svg>