<svg xmlns="http://www.w3.org/2000/svg" xmlns:xlink="http://www.w3.org/1999/xlink" width="500" zoomAndPan="magnify" viewBox="0 0 375 374.999991" height="500" preserveAspectRatio="xMidYMid meet" version="1.0"><defs><g/><clipPath id="88f7b9086a"><path d="M 269 258 L 352.339844 258 L 352.339844 294 L 269 294 Z M 269 258 " clip-rule="nonzero"/></clipPath><clipPath id="8ac2433470"><path d="M 22.339844 214 L 285 214 L 285 294 L 22.339844 294 Z M 22.339844 214 " clip-rule="nonzero"/></clipPath></defs><rect x="-37.5" width="450" fill="#ffffff" y="-37.499999" height="449.999989" fill-opacity="1"/><rect x="-37.5" width="450" fill="#000000" y="-37.499999" height="449.999989" fill-opacity="1"/><path fill="#ffffff" d="M 117.464844 262.589844 L 102.28125 278.777344 C 100.054688 281.152344 100.171875 284.878906 102.546875 287.105469 C 103.683594 288.171875 105.128906 288.699219 106.574219 288.699219 C 108.144531 288.699219 109.714844 288.074219 110.871094 286.839844 L 129.597656 266.878906 L 129.289062 266.511719 Z M 117.464844 262.589844 " fill-opacity="1" fill-rule="nonzero"/><path fill="#ffffff" d="M 94.6875 191.84375 C 95.382812 191.863281 96.070312 191.953125 96.746094 192.109375 C 97.425781 192.269531 98.082031 192.488281 98.71875 192.777344 C 99.351562 193.0625 99.953125 193.40625 100.519531 193.8125 C 101.085938 194.21875 101.605469 194.671875 102.082031 195.179688 C 102.558594 195.6875 102.984375 196.238281 103.351562 196.828125 C 103.71875 197.417969 104.027344 198.039062 104.273438 198.691406 C 104.519531 199.34375 104.699219 200.011719 104.816406 200.699219 C 104.929688 201.386719 104.976562 202.078125 104.953125 202.773438 C 104.933594 203.46875 104.84375 204.15625 104.6875 204.832031 C 104.527344 205.511719 104.308594 206.167969 104.019531 206.804688 C 103.734375 207.4375 103.390625 208.039062 102.984375 208.605469 C 102.578125 209.171875 102.125 209.691406 101.617188 210.167969 C 101.109375 210.648438 100.558594 211.070312 99.96875 211.4375 C 99.378906 211.804688 98.757812 212.113281 98.105469 212.359375 C 97.453125 212.605469 96.785156 212.785156 96.097656 212.902344 C 95.410156 213.015625 94.71875 213.0625 94.023438 213.039062 C 93.328125 213.019531 92.640625 212.929688 91.964844 212.773438 C 91.285156 212.613281 90.628906 212.394531 89.992188 212.105469 C 89.359375 211.820312 88.757812 211.476562 88.191406 211.070312 C 87.625 210.664062 87.105469 210.210938 86.628906 209.703125 C 86.148438 209.195312 85.726562 208.644531 85.359375 208.054688 C 84.992188 207.464844 84.683594 206.84375 84.4375 206.191406 C 84.191406 205.539062 84.011719 204.871094 83.894531 204.183594 C 83.78125 203.496094 83.734375 202.804688 83.757812 202.109375 C 83.777344 201.414062 83.867188 200.726562 84.023438 200.050781 C 84.183594 199.371094 84.402344 198.714844 84.691406 198.078125 C 84.976562 197.445312 85.320312 196.84375 85.726562 196.277344 C 86.132812 195.710938 86.585938 195.191406 87.09375 194.714844 C 87.601562 194.238281 88.152344 193.8125 88.742188 193.445312 C 89.332031 193.078125 89.953125 192.769531 90.605469 192.523438 C 91.257812 192.277344 91.925781 192.097656 92.613281 191.980469 C 93.300781 191.867188 93.992188 191.820312 94.6875 191.84375 Z M 94.6875 191.84375 " fill-opacity="1" fill-rule="nonzero"/><g clip-path="url(#88f7b9086a)"><path fill="#ffffff" d="M 352.578125 290.105469 C 347.207031 290.261719 344.648438 289.835938 341.410156 289.296875 C 336.644531 288.5 330.714844 287.507812 313.265625 287.691406 C 310.367188 287.722656 308.003906 287.800781 306.074219 287.910156 C 303.742188 287.867188 301.269531 287.847656 298.671875 287.847656 C 286.625 287.847656 277.15625 271.890625 271.207031 258.0625 L 269.351562 258.675781 C 275.289062 272.546875 284.835938 288.664062 297.417969 289.683594 C 297.363281 289.753906 297.332031 289.820312 297.300781 289.878906 C 297.082031 290.292969 297.113281 290.773438 297.378906 291.171875 C 298.453125 292.765625 305.683594 293.722656 314.351562 293.722656 C 318.117188 293.722656 322.160156 293.542969 326.082031 293.152344 C 327.777344 292.984375 329.507812 292.632812 329.441406 291.324219 C 329.414062 290.800781 329.191406 290.257812 327.617188 289.75 C 334.496094 290.050781 338.042969 290.644531 341.101562 291.15625 C 344.4375 291.710938 347.078125 292.152344 352.632812 291.988281 Z M 325.894531 291.277344 C 313.664062 292.492188 303.273438 291.484375 299.9375 290.515625 C 300.914062 290.285156 302.757812 289.996094 306.1875 289.796875 C 318.195312 290.015625 323.597656 290.746094 325.964844 291.269531 C 325.941406 291.273438 325.917969 291.273438 325.894531 291.277344 Z M 325.894531 291.277344 " fill-opacity="1" fill-rule="nonzero"/></g><g clip-path="url(#8ac2433470)"><path fill="#ffffff" d="M 256.550781 237.453125 L 241.664062 237.453125 L 267.777344 225.800781 C 267.328125 228.261719 266.828125 231 266.183594 233.800781 L 276.339844 232.765625 L 271.980469 226.300781 C 270.441406 224.015625 271.042969 220.90625 273.328125 219.363281 C 274.15625 218.804688 275.121094 218.511719 276.117188 218.511719 C 277.78125 218.511719 279.332031 219.332031 280.261719 220.714844 L 284.828125 227.480469 C 284.84375 227.214844 284.863281 226.953125 284.878906 226.683594 C 285.242188 219.394531 280.640625 215.195312 276.535156 214.632812 C 275.824219 214.535156 275.128906 214.589844 274.457031 214.773438 C 274.0625 214.8125 273.667969 214.910156 273.289062 215.082031 L 230.507812 234.175781 C 229.160156 234.777344 228.34375 236.074219 228.28125 237.453125 L 146.734375 237.453125 C 146.675781 236.074219 145.855469 234.777344 144.507812 234.175781 L 101.730469 215.082031 C 101.351562 214.914062 100.957031 214.8125 100.5625 214.773438 C 99.890625 214.589844 99.195312 214.535156 98.484375 214.632812 C 94.375 215.195312 89.773438 219.394531 90.140625 226.683594 C 90.15625 226.953125 90.175781 227.214844 90.191406 227.480469 L 94.753906 220.714844 C 95.6875 219.332031 97.234375 218.511719 98.902344 218.511719 C 99.898438 218.511719 100.863281 218.804688 101.691406 219.363281 C 103.972656 220.90625 104.578125 224.015625 103.039062 226.300781 L 98.675781 232.765625 L 108.835938 233.800781 C 108.191406 231 107.691406 228.261719 107.242188 225.800781 L 133.355469 237.453125 L 117.105469 237.453125 C 116.519531 236.4375 115.476562 235.707031 114.222656 235.578125 L 96.515625 233.777344 L 102.023438 225.613281 C 103.1875 223.886719 102.730469 221.542969 101.003906 220.378906 C 99.277344 219.214844 96.9375 219.671875 95.769531 221.398438 L 86.742188 234.785156 C 86.003906 235.882812 85.894531 237.289062 86.453125 238.492188 C 87.015625 239.691406 88.167969 240.507812 89.488281 240.644531 L 109.503906 242.679688 C 109.386719 243.058594 109.257812 243.457031 109.125 243.871094 L 92.925781 242.222656 C 93.9375 245.097656 95.289062 248.039062 97.082031 251.390625 C 97.1875 251.585938 97.28125 251.769531 97.386719 251.964844 C 99.421875 255.117188 101.671875 256.453125 103.910156 256.804688 L 104.292969 256.929688 C 104.136719 257.308594 103.976562 257.683594 103.8125 258.0625 C 97.863281 271.890625 88.394531 287.847656 76.347656 287.847656 C 73.75 287.847656 71.277344 287.867188 68.945312 287.910156 C 67.015625 287.800781 64.652344 287.722656 61.753906 287.691406 C 44.308594 287.507812 38.375 288.5 33.609375 289.296875 C 30.371094 289.835938 27.816406 290.261719 22.441406 290.105469 L 22.386719 291.988281 C 27.941406 292.152344 30.578125 291.710938 33.917969 291.15625 C 36.976562 290.644531 40.523438 290.050781 47.402344 289.75 C 45.828125 290.257812 45.601562 290.800781 45.578125 291.324219 C 45.511719 292.632812 47.238281 292.984375 48.9375 293.152344 C 61.882812 294.4375 76.097656 293.457031 77.640625 291.171875 C 77.90625 290.773438 77.9375 290.292969 77.71875 289.878906 C 77.6875 289.820312 77.652344 289.753906 77.601562 289.683594 C 90.179688 288.664062 99.730469 272.546875 105.664062 258.675781 C 105.828125 258.296875 105.988281 257.921875 106.144531 257.546875 L 130.007812 265.460938 L 148.027344 287.003906 C 149.191406 288.398438 150.863281 289.117188 152.546875 289.117188 C 153.882812 289.117188 155.222656 288.664062 156.324219 287.742188 C 158.820312 285.65625 159.152344 281.941406 157.0625 279.445312 L 137.972656 256.617188 C 137.269531 255.777344 136.347656 255.148438 135.304688 254.804688 L 113.871094 247.695312 C 113.75 247.417969 113.625 247.128906 113.480469 246.828125 C 113.359375 246.609375 113.242188 246.378906 113.125 246.15625 C 112.78125 245.511719 112.457031 244.855469 112.152344 244.179688 L 111.066406 244.070312 C 111.199219 243.652344 111.324219 243.253906 111.441406 242.875 L 113.457031 243.082031 C 113.585938 243.09375 113.714844 243.101562 113.84375 243.101562 C 115.753906 243.101562 117.394531 241.652344 117.589844 239.710938 C 117.601562 239.585938 117.609375 239.460938 117.609375 239.339844 L 137.578125 239.339844 L 141.4375 241.0625 C 141.933594 241.285156 142.457031 241.390625 142.96875 241.390625 C 144.347656 241.390625 145.65625 240.625 146.316406 239.339844 L 183.699219 239.339844 L 179.070312 259.125 L 182.636719 255.539062 L 183.910156 261.914062 L 187.507812 247 L 191.109375 261.914062 L 192.382812 255.539062 L 195.949219 259.125 L 191.320312 239.339844 L 228.703125 239.339844 C 229.363281 240.625 230.671875 241.390625 232.046875 241.390625 C 232.5625 241.390625 233.082031 241.285156 233.582031 241.0625 L 237.441406 239.339844 L 256.183594 239.339844 C 256.183594 238.675781 256.3125 238.039062 256.550781 237.453125 Z M 49.125 291.277344 C 49.101562 291.273438 49.074219 291.269531 49.054688 291.269531 C 51.421875 290.746094 56.824219 290.015625 68.832031 289.796875 C 72.261719 289.996094 74.105469 290.285156 75.082031 290.515625 C 71.742188 291.484375 61.355469 292.492188 49.125 291.277344 Z M 49.125 291.277344 " fill-opacity="1" fill-rule="nonzero"/></g><path fill="#ffffff" d="M 245.421875 266.878906 L 264.144531 286.839844 C 265.304688 288.074219 266.871094 288.699219 268.445312 288.699219 C 269.886719 288.699219 271.335938 288.171875 272.472656 287.105469 C 274.847656 284.878906 274.964844 281.152344 272.738281 278.777344 L 257.554688 262.589844 L 245.726562 266.511719 Z M 245.421875 266.878906 " fill-opacity="1" fill-rule="nonzero"/><path fill="#ffffff" d="M 288.75 195.585938 C 289.199219 196.117188 289.59375 196.6875 289.933594 197.296875 C 290.269531 197.902344 290.546875 198.539062 290.761719 199.203125 C 290.972656 199.863281 291.121094 200.542969 291.199219 201.234375 C 291.28125 201.925781 291.292969 202.617188 291.234375 203.3125 C 291.179688 204.003906 291.054688 204.6875 290.863281 205.355469 C 290.675781 206.027344 290.421875 206.671875 290.101562 207.289062 C 289.785156 207.910156 289.410156 208.492188 288.976562 209.039062 C 288.542969 209.585938 288.0625 210.082031 287.53125 210.53125 C 287 210.984375 286.433594 211.378906 285.824219 211.71875 C 285.214844 212.054688 284.578125 212.332031 283.917969 212.546875 C 283.253906 212.757812 282.578125 212.90625 281.886719 212.984375 C 281.195312 213.066406 280.5 213.078125 279.808594 213.019531 C 279.113281 212.964844 278.429688 212.839844 277.761719 212.648438 C 277.09375 212.457031 276.449219 212.203125 275.828125 211.886719 C 275.207031 211.570312 274.625 211.195312 274.082031 210.761719 C 273.535156 210.328125 273.035156 209.847656 272.585938 209.316406 C 272.132812 208.785156 271.738281 208.214844 271.402344 207.609375 C 271.0625 207 270.785156 206.363281 270.574219 205.703125 C 270.359375 205.039062 270.214844 204.363281 270.132812 203.671875 C 270.054688 202.976562 270.042969 202.285156 270.097656 201.589844 C 270.15625 200.898438 270.277344 200.214844 270.46875 199.546875 C 270.660156 198.875 270.914062 198.230469 271.230469 197.613281 C 271.550781 196.992188 271.925781 196.410156 272.355469 195.863281 C 272.789062 195.320312 273.269531 194.820312 273.800781 194.371094 C 274.332031 193.917969 274.902344 193.523438 275.511719 193.1875 C 276.117188 192.847656 276.753906 192.570312 277.417969 192.359375 C 278.078125 192.144531 278.757812 192 279.449219 191.917969 C 280.140625 191.839844 280.832031 191.828125 281.527344 191.882812 C 282.222656 191.9375 282.902344 192.0625 283.574219 192.253906 C 284.242188 192.445312 284.886719 192.699219 285.507812 193.015625 C 286.125 193.335938 286.707031 193.710938 287.253906 194.140625 C 287.800781 194.574219 288.296875 195.054688 288.75 195.585938 Z M 288.75 195.585938 " fill-opacity="1" fill-rule="nonzero"/><path fill="#ffffff" d="M 261.148438 247.695312 L 239.710938 254.804688 C 238.671875 255.148438 237.75 255.777344 237.046875 256.617188 L 217.953125 279.445312 C 215.867188 281.941406 216.199219 285.65625 218.695312 287.742188 C 219.796875 288.664062 221.136719 289.117188 222.46875 289.117188 C 224.15625 289.117188 225.828125 288.398438 226.992188 287.003906 L 245.011719 265.460938 L 271.109375 256.804688 C 273.34375 256.453125 275.597656 255.117188 277.628906 251.964844 C 277.738281 251.769531 277.832031 251.585938 277.9375 251.390625 C 279.730469 248.039062 281.082031 245.097656 282.089844 242.222656 L 262.867188 244.179688 C 262.5625 244.855469 262.234375 245.511719 261.894531 246.15625 C 261.773438 246.378906 261.660156 246.609375 261.535156 246.828125 C 261.394531 247.128906 261.265625 247.417969 261.148438 247.695312 Z M 261.148438 247.695312 " fill-opacity="1" fill-rule="nonzero"/><path fill="#ffffff" d="M 285.53125 240.644531 C 286.851562 240.507812 288 239.691406 288.5625 238.492188 C 289.125 237.289062 289.015625 235.882812 288.277344 234.785156 L 279.246094 221.398438 C 278.082031 219.671875 275.738281 219.214844 274.011719 220.378906 C 272.285156 221.542969 271.832031 223.886719 272.996094 225.613281 L 278.503906 233.777344 L 260.796875 235.578125 C 258.726562 235.789062 257.21875 237.640625 257.429688 239.710938 C 257.625 241.652344 259.265625 243.101562 261.175781 243.101562 C 261.300781 243.101562 261.429688 243.09375 261.5625 243.082031 Z M 285.53125 240.644531 " fill-opacity="1" fill-rule="nonzero"/><g fill="#fe8d41" fill-opacity="1"><g transform="translate(81.238817, 118.961025)"><g><path d="M 11.53125 -0.242188 L 11.574219 -0.0390625 C 12.375 -0.121094 13.097656 -0.320312 13.742188 -0.644531 C 14.304688 -0.925781 14.785156 -1.285156 15.230469 -1.726562 C 15.628906 -2.128906 15.953125 -2.570312 16.152344 -3.054688 C 16.3125 -3.535156 16.476562 -3.976562 16.636719 -4.378906 C 16.714844 -4.78125 16.796875 -5.144531 16.875 -5.464844 C 16.875 -5.785156 16.917969 -5.988281 16.996094 -6.066406 C 16.757812 -6.46875 16.433594 -6.710938 16.074219 -6.789062 C 15.671875 -6.789062 15.308594 -6.789062 14.988281 -6.789062 C 14.625 -6.75 14.34375 -6.589844 14.144531 -6.347656 C 13.902344 -6.027344 13.703125 -5.746094 13.582031 -5.503906 C 13.378906 -5.101562 13.21875 -4.78125 13.140625 -4.460938 C 12.980469 -4.058594 12.816406 -3.695312 12.65625 -3.414062 C 12.417969 -3.054688 12.175781 -2.773438 11.894531 -2.570312 C 11.53125 -2.289062 11.128906 -2.128906 10.6875 -2.128906 C 9.242188 -2.652344 8.117188 -3.496094 7.234375 -4.660156 C 6.347656 -5.785156 5.664062 -7.113281 5.183594 -8.640625 C 4.703125 -10.085938 4.421875 -11.652344 4.339844 -13.339844 C 4.257812 -14.144531 4.257812 -14.988281 4.300781 -15.792969 C 4.300781 -16.59375 4.378906 -17.398438 4.5 -18.203125 C 4.660156 -19.808594 4.984375 -21.296875 5.464844 -22.664062 C 5.90625 -24.027344 6.429688 -25.113281 7.070312 -25.957031 C 7.714844 -26.800781 8.398438 -27.324219 9.160156 -27.523438 C 9.925781 -27.726562 10.6875 -27.484375 11.492188 -26.761719 C 11.652344 -26.601562 11.773438 -26.480469 11.894531 -26.359375 C 12.015625 -26.199219 12.136719 -26.078125 12.253906 -25.957031 C 12.417969 -25.714844 12.617188 -25.515625 12.859375 -25.355469 C 13.019531 -25.195312 13.21875 -25.074219 13.460938 -24.992188 C 13.660156 -24.914062 13.941406 -24.871094 14.304688 -24.914062 C 14.867188 -24.914062 15.148438 -25.152344 15.148438 -25.636719 C 15.148438 -26.039062 14.949219 -26.519531 14.585938 -27.082031 C 14.183594 -27.566406 13.660156 -28.046875 13.019531 -28.527344 C 12.296875 -28.929688 11.574219 -29.171875 10.847656 -29.253906 C 10.566406 -29.253906 10.285156 -29.292969 10.003906 -29.292969 L 9.082031 -29.292969 C 8.398438 -29.292969 7.714844 -29.210938 7.070312 -29.050781 C 6.347656 -28.890625 5.707031 -28.609375 5.0625 -28.207031 C 4.421875 -27.804688 3.816406 -27.203125 3.296875 -26.441406 C 2.25 -24.914062 1.445312 -23.183594 0.882812 -21.257812 C 0.28125 -19.246094 -0.0390625 -17.277344 -0.0390625 -15.347656 C -0.0820312 -13.339844 0.121094 -11.371094 0.5625 -9.523438 C 1.003906 -7.59375 1.6875 -5.945312 2.652344 -4.539062 C 3.617188 -3.09375 4.820312 -1.96875 6.308594 -1.164062 C 7.796875 -0.363281 9.523438 -0.0390625 11.53125 -0.242188 Z M 11.53125 -0.242188 "/></g></g></g><g fill="#fe8d41" fill-opacity="1"><g transform="translate(108.194501, 118.961025)"><g><path d="M 4.984375 -2.652344 L 4.902344 -2.8125 C 6.027344 -2.570312 7.03125 -2.652344 7.835938 -2.972656 C 8.679688 -3.296875 9.402344 -3.777344 10.003906 -4.460938 C 10.566406 -5.101562 11.050781 -5.945312 11.453125 -6.992188 C 11.8125 -7.996094 12.09375 -9.039062 12.296875 -10.167969 C 12.457031 -11.292969 12.578125 -12.457031 12.65625 -13.660156 C 12.65625 -14.867188 12.65625 -16.03125 12.65625 -17.199219 C 12.617188 -17.558594 12.578125 -17.960938 12.535156 -18.363281 C 12.496094 -18.765625 12.457031 -19.167969 12.375 -19.609375 C 12.214844 -20.414062 11.972656 -21.175781 11.652344 -21.898438 C 11.332031 -22.542969 10.929688 -23.105469 10.367188 -23.628906 C 9.84375 -24.070312 9.203125 -24.308594 8.4375 -24.390625 C 8.078125 -24.390625 7.753906 -24.472656 7.515625 -24.632812 C 7.191406 -24.792969 6.871094 -24.914062 6.550781 -24.992188 C 6.1875 -25.074219 5.785156 -25.074219 5.304688 -24.992188 C 4.820312 -24.914062 4.257812 -24.671875 3.578125 -24.269531 C 2.492188 -23.546875 1.769531 -22.582031 1.445312 -21.375 C 0.761719 -19.085938 0.320312 -16.917969 0.160156 -14.867188 C -0.0820312 -12.699219 -0.0390625 -10.769531 0.28125 -9.082031 C 0.523438 -7.3125 1.042969 -5.867188 1.847656 -4.742188 C 2.570312 -3.578125 3.617188 -2.894531 4.984375 -2.652344 Z M 6.148438 -4.300781 L 6.269531 -4.460938 C 5.464844 -5.144531 4.902344 -6.066406 4.5 -7.234375 C 4.058594 -8.4375 3.777344 -9.683594 3.695312 -10.96875 C 3.617188 -11.613281 3.578125 -12.296875 3.578125 -12.9375 C 3.535156 -13.582031 3.535156 -14.265625 3.617188 -14.988281 C 3.65625 -15.671875 3.695312 -16.3125 3.777344 -16.957031 C 3.816406 -17.558594 3.898438 -18.164062 4.019531 -18.726562 C 4.179688 -19.769531 4.421875 -20.734375 4.703125 -21.578125 C 4.941406 -22.300781 5.144531 -22.742188 5.382812 -22.902344 C 6.347656 -22.863281 7.113281 -22.382812 7.675781 -21.496094 C 8.238281 -20.613281 8.640625 -19.488281 8.878906 -18.164062 C 9.121094 -16.875 9.203125 -15.429688 9.160156 -13.824219 C 9.121094 -13.019531 9.082031 -12.296875 9 -11.574219 C 8.921875 -10.847656 8.839844 -10.125 8.71875 -9.441406 C 8.476562 -8.117188 8.117188 -6.953125 7.675781 -5.945312 C 7.191406 -4.984375 6.710938 -4.421875 6.148438 -4.300781 Z M 6.148438 -4.300781 "/></g></g></g><g fill="#fe8d41" fill-opacity="1"><g transform="translate(130.932085, 118.961025)"><g><path d="M 14.105469 -2.332031 L 14.386719 -2.570312 C 14.625 -2.613281 14.828125 -2.652344 14.949219 -2.691406 C 15.066406 -2.691406 15.1875 -2.851562 15.347656 -3.175781 C 15.429688 -3.414062 15.511719 -3.859375 15.589844 -4.5 C 15.589844 -5.0625 15.589844 -5.945312 15.589844 -7.070312 C 15.550781 -8.15625 15.46875 -9.5625 15.347656 -11.332031 C 15.269531 -12.175781 15.230469 -13.140625 15.148438 -14.222656 C 15.066406 -15.269531 14.949219 -16.476562 14.867188 -17.761719 C 14.785156 -18.242188 14.746094 -18.683594 14.746094 -19.085938 C 14.707031 -19.488281 14.667969 -19.808594 14.667969 -20.132812 C 14.625 -20.414062 14.585938 -20.652344 14.585938 -20.894531 C 14.585938 -21.136719 14.546875 -21.335938 14.503906 -21.578125 C 14.425781 -21.777344 14.386719 -21.980469 14.34375 -22.179688 C 14.265625 -22.339844 14.222656 -22.542969 14.183594 -22.78125 C 14.023438 -23.183594 13.824219 -23.707031 13.582031 -24.351562 C 13.421875 -24.671875 13.21875 -24.914062 12.980469 -25.074219 C 12.65625 -25.234375 12.335938 -25.316406 12.015625 -25.316406 C 11.652344 -25.316406 11.292969 -25.195312 10.96875 -24.992188 C 10.609375 -24.753906 10.328125 -24.429688 10.167969 -24.027344 C 10.003906 -23.789062 9.925781 -23.546875 9.84375 -23.347656 L 9.484375 -22.261719 C 9.320312 -21.777344 9.082031 -21.136719 8.757812 -20.332031 C 8.597656 -19.929688 8.398438 -19.449219 8.195312 -18.925781 C 7.996094 -18.363281 7.753906 -17.761719 7.515625 -17.078125 L 7.234375 -17.117188 L 6.992188 -18 C 6.789062 -18.726562 6.550781 -19.449219 6.269531 -20.210938 C 5.945312 -20.933594 5.625 -21.65625 5.265625 -22.300781 C 4.820312 -23.023438 4.378906 -23.546875 3.898438 -23.910156 C 3.414062 -24.269531 2.933594 -24.472656 2.53125 -24.511719 C 2.050781 -24.550781 1.6875 -24.429688 1.367188 -24.148438 C 1.003906 -23.828125 0.761719 -23.425781 0.683594 -22.945312 C 0.523438 -22.140625 0.441406 -21.214844 0.441406 -20.171875 C 0.441406 -19.609375 0.402344 -19.046875 0.363281 -18.484375 C 0.320312 -17.921875 0.28125 -17.320312 0.242188 -16.714844 C 0.121094 -15.589844 0.0390625 -14.304688 0 -12.898438 C -0.0390625 -12.175781 -0.0390625 -11.492188 -0.0390625 -10.808594 L -0.0390625 -7.03125 C -0.0390625 -6.46875 -0.0390625 -5.945312 0 -5.464844 C 0 -4.5 0.0390625 -3.898438 0.121094 -3.65625 C 0.199219 -3.253906 0.363281 -2.972656 0.601562 -2.8125 C 0.84375 -2.570312 1.40625 -2.53125 2.289062 -2.613281 C 2.613281 -2.613281 2.894531 -2.730469 3.054688 -2.894531 C 3.214844 -3.054688 3.296875 -3.296875 3.296875 -3.65625 L 3.296875 -4.300781 C 3.296875 -4.539062 3.253906 -4.820312 3.253906 -5.144531 C 3.214844 -5.464844 3.175781 -5.828125 3.175781 -6.226562 C 3.175781 -6.628906 3.175781 -7.113281 3.175781 -7.675781 L 3.175781 -13.941406 C 3.175781 -14.34375 3.175781 -14.667969 3.214844 -14.90625 C 3.214844 -15.347656 3.253906 -15.589844 3.335938 -15.671875 C 3.335938 -15.671875 3.414062 -15.710938 3.578125 -15.792969 C 3.898438 -14.867188 4.140625 -14.144531 4.300781 -13.582031 C 4.460938 -12.9375 4.621094 -12.457031 4.78125 -12.136719 C 4.941406 -11.734375 5.144531 -11.453125 5.304688 -11.332031 C 5.503906 -11.128906 5.828125 -11.011719 6.269531 -11.011719 C 6.75 -10.929688 7.191406 -11.011719 7.59375 -11.25 C 7.957031 -11.453125 8.277344 -11.933594 8.519531 -12.699219 C 9 -14.222656 9.363281 -15.429688 9.601562 -16.3125 C 9.722656 -16.714844 9.84375 -17.078125 9.925781 -17.398438 C 10.003906 -17.679688 10.085938 -17.921875 10.167969 -18.121094 C 10.246094 -18.445312 10.367188 -18.644531 10.488281 -18.765625 C 10.527344 -18.804688 10.648438 -18.84375 10.808594 -18.925781 C 10.808594 -18.644531 10.847656 -18.402344 10.847656 -18.203125 L 10.847656 -15.792969 C 10.847656 -15.628906 10.847656 -15.46875 10.890625 -15.269531 C 10.890625 -14.667969 10.929688 -13.824219 11.011719 -12.777344 C 11.011719 -12.214844 11.050781 -11.691406 11.050781 -11.171875 C 11.050781 -10.609375 11.089844 -10.085938 11.171875 -9.523438 C 11.25 -8.398438 11.332031 -7.3125 11.410156 -6.269531 C 11.453125 -5.707031 11.492188 -5.222656 11.53125 -4.820312 C 11.53125 -4.421875 11.574219 -4.058594 11.613281 -3.777344 C 11.613281 -3.09375 11.894531 -2.652344 12.417969 -2.449219 C 12.898438 -2.210938 13.460938 -2.167969 14.105469 -2.332031 Z M 14.105469 -2.332031 "/></g></g></g><g fill="#fe8d41" fill-opacity="1"><g transform="translate(156.562078, 118.961025)"><g><path d="M 1.605469 -2.773438 L 1.769531 -2.851562 C 2.25 -2.773438 2.730469 -2.773438 3.214844 -2.851562 C 3.535156 -2.851562 3.816406 -2.972656 4.019531 -3.175781 C 4.140625 -3.296875 4.21875 -3.617188 4.300781 -4.097656 C 4.300781 -4.5 4.300781 -5.183594 4.300781 -6.066406 C 4.257812 -6.507812 4.21875 -7.03125 4.21875 -7.59375 C 4.21875 -8.15625 4.21875 -8.839844 4.21875 -9.601562 C 4.300781 -9.601562 4.378906 -9.644531 4.5 -9.722656 C 4.582031 -9.765625 4.703125 -9.804688 4.78125 -9.84375 C 6.226562 -10.488281 7.472656 -11.371094 8.4375 -12.496094 C 9.402344 -13.582031 10.085938 -14.707031 10.488281 -15.910156 C 10.890625 -17.117188 11.011719 -18.28125 10.847656 -19.488281 C 10.6875 -20.652344 10.285156 -21.699219 9.644531 -22.582031 C 9 -23.425781 8.117188 -24.070312 6.992188 -24.550781 C 5.867188 -24.992188 4.5 -25.074219 2.933594 -24.792969 C 2.570312 -24.710938 2.25 -24.671875 2.007812 -24.632812 C 1.769531 -24.550781 1.527344 -24.511719 1.324219 -24.472656 C 0.925781 -24.390625 0.644531 -24.269531 0.441406 -24.109375 C 0.199219 -23.949219 0.0820312 -23.707031 0.0820312 -23.386719 C 0.0390625 -23.226562 0 -23.023438 0 -22.78125 C 0 -22.542969 0 -22.261719 0 -21.980469 L 0 -19.730469 C 0 -19.246094 -0.0390625 -18.765625 -0.0390625 -18.203125 C -0.0390625 -17.640625 -0.0820312 -17.039062 -0.0820312 -16.394531 C -0.242188 -12.296875 -0.121094 -8.277344 0.28125 -4.257812 C 0.320312 -3.738281 0.441406 -3.375 0.644531 -3.214844 C 0.84375 -2.972656 1.164062 -2.851562 1.605469 -2.773438 Z M 4.058594 -12.136719 L 4.140625 -12.296875 C 3.976562 -12.375 3.898438 -12.496094 3.898438 -12.65625 C 3.816406 -12.816406 3.816406 -12.980469 3.816406 -13.179688 L 3.816406 -15.910156 C 3.816406 -16.273438 3.777344 -16.675781 3.777344 -17.15625 C 3.777344 -17.601562 3.738281 -18.121094 3.738281 -18.683594 C 3.65625 -19.808594 3.578125 -21.214844 3.496094 -22.863281 C 3.457031 -23.183594 3.535156 -23.386719 3.777344 -23.507812 C 4.019531 -23.585938 4.300781 -23.585938 4.621094 -23.507812 C 4.902344 -23.386719 5.222656 -23.144531 5.585938 -22.824219 C 5.867188 -22.5 6.109375 -22.058594 6.347656 -21.417969 C 6.871094 -19.609375 6.992188 -17.921875 6.671875 -16.355469 C 6.347656 -14.746094 5.464844 -13.339844 4.058594 -12.136719 Z M 4.058594 -12.136719 "/></g></g></g><g fill="#fe8d41" fill-opacity="1"><g transform="translate(177.612426, 118.961025)"><g><path d="M 6.832031 -2.652344 L 6.992188 -2.730469 C 7.070312 -2.730469 7.191406 -2.8125 7.351562 -2.972656 C 7.433594 -3.054688 7.554688 -3.132812 7.714844 -3.253906 C 7.515625 -3.535156 7.273438 -3.738281 6.992188 -3.898438 C 6.671875 -4.019531 6.390625 -4.097656 6.109375 -4.140625 C 5.945312 -4.140625 5.785156 -4.179688 5.625 -4.179688 L 5.144531 -4.179688 C 4.820312 -4.179688 4.5 -4.21875 4.179688 -4.378906 L 4.140625 -13.421875 C 4.582031 -13.460938 4.984375 -13.5 5.34375 -13.542969 C 5.664062 -13.542969 5.988281 -13.582031 6.308594 -13.621094 C 6.589844 -13.621094 6.832031 -13.660156 7.070312 -13.703125 C 7.273438 -13.703125 7.472656 -13.742188 7.632812 -13.824219 C 7.914062 -13.902344 8.117188 -13.984375 8.277344 -14.144531 C 8.359375 -14.222656 8.4375 -14.386719 8.4375 -14.625 C 8.277344 -14.785156 8.078125 -14.949219 7.835938 -15.027344 C 7.632812 -15.066406 7.351562 -15.109375 6.992188 -15.1875 C 6.832031 -15.1875 6.628906 -15.230469 6.429688 -15.230469 L 5.828125 -15.230469 C 5.585938 -15.230469 5.34375 -15.230469 5.0625 -15.269531 C 4.78125 -15.269531 4.5 -15.308594 4.179688 -15.390625 C 4.097656 -15.710938 4.058594 -16.074219 4.058594 -16.476562 C 4.019531 -16.835938 3.976562 -17.238281 3.976562 -17.640625 C 3.9375 -18.042969 3.898438 -18.402344 3.898438 -18.804688 C 3.898438 -19.207031 3.898438 -19.570312 3.898438 -19.96875 L 3.898438 -22.019531 C 3.898438 -22.300781 3.898438 -22.582031 3.898438 -22.824219 C 3.898438 -23.066406 3.9375 -23.265625 3.976562 -23.425781 L 5.023438 -23.425781 C 5.101562 -23.425781 5.222656 -23.425781 5.382812 -23.464844 C 6.109375 -23.546875 6.628906 -23.667969 6.871094 -23.828125 C 7.113281 -23.988281 7.191406 -24.148438 7.113281 -24.308594 C 7.03125 -24.472656 6.832031 -24.632812 6.550781 -24.792969 C 6.308594 -24.914062 6.027344 -24.992188 5.707031 -25.074219 C 4.984375 -25.152344 4.378906 -25.234375 3.816406 -25.273438 C 3.253906 -25.316406 2.8125 -25.355469 2.449219 -25.355469 C 1.6875 -25.355469 1.125 -25.234375 0.761719 -25.035156 C 0.363281 -24.792969 0.160156 -24.429688 0.0820312 -23.949219 C 0 -23.386719 -0.0390625 -22.703125 -0.0390625 -21.898438 C -0.121094 -18.84375 -0.0820312 -15.871094 0.0820312 -12.980469 C 0.160156 -10.003906 0.363281 -7.03125 0.683594 -4.058594 C 0.761719 -3.253906 1.125 -2.8125 1.769531 -2.730469 C 2.167969 -2.652344 2.613281 -2.613281 3.011719 -2.570312 C 3.414062 -2.492188 3.859375 -2.449219 4.300781 -2.410156 C 5.101562 -2.332031 5.945312 -2.410156 6.832031 -2.652344 Z M 6.832031 -2.652344 "/></g></g></g><g fill="#fe8d41" fill-opacity="1"><g transform="translate(196.131909, 118.961025)"><g><path d="M 7.03125 -2.570312 L 7.152344 -2.613281 C 7.554688 -2.691406 7.796875 -2.972656 7.796875 -3.457031 L 7.796875 -4.058594 C 7.796875 -4.257812 7.753906 -4.460938 7.753906 -4.703125 C 7.675781 -5.625 7.632812 -6.46875 7.632812 -7.273438 C 7.59375 -8.078125 7.554688 -8.800781 7.554688 -9.523438 C 7.515625 -10.808594 7.472656 -12.015625 7.433594 -13.058594 C 7.351562 -14.023438 7.3125 -14.90625 7.3125 -15.710938 C 7.234375 -16.433594 7.191406 -17.15625 7.191406 -17.882812 C 7.152344 -18.203125 7.113281 -18.5625 7.113281 -18.886719 C 7.070312 -19.207031 7.03125 -19.570312 6.992188 -19.96875 C 6.910156 -20.332031 6.871094 -20.695312 6.832031 -21.09375 C 6.789062 -21.496094 6.75 -21.898438 6.710938 -22.382812 L 6.589844 -22.984375 C 6.507812 -23.183594 6.628906 -23.425781 6.871094 -23.667969 C 8.398438 -23.667969 9.402344 -23.789062 9.925781 -24.070312 C 10.449219 -24.351562 10.449219 -24.632812 9.925781 -24.871094 C 9.402344 -25.113281 8.359375 -25.273438 6.832031 -25.355469 C 5.34375 -25.433594 3.296875 -25.273438 0.722656 -24.914062 C 0.5625 -24.914062 0.480469 -24.871094 0.402344 -24.792969 C 0.28125 -24.671875 0.160156 -24.589844 0.0820312 -24.589844 C -0.0820312 -24.511719 -0.121094 -24.351562 -0.121094 -24.191406 C -0.121094 -23.988281 -0.0820312 -23.867188 0.0820312 -23.828125 C 0.363281 -23.667969 0.5625 -23.585938 0.722656 -23.585938 C 0.925781 -23.507812 1.085938 -23.507812 1.246094 -23.507812 L 3.175781 -23.507812 C 3.175781 -23.023438 3.214844 -22.582031 3.214844 -22.179688 C 3.214844 -21.777344 3.253906 -21.375 3.335938 -21.015625 C 3.375 -20.613281 3.414062 -20.25 3.414062 -19.851562 C 3.414062 -19.449219 3.457031 -19.085938 3.496094 -18.726562 C 3.535156 -18.324219 3.578125 -17.800781 3.617188 -17.117188 C 3.617188 -16.714844 3.65625 -16.355469 3.65625 -15.953125 C 3.65625 -15.550781 3.695312 -15.148438 3.777344 -14.707031 C 3.816406 -14.222656 3.859375 -13.78125 3.898438 -13.300781 C 3.898438 -12.816406 3.9375 -12.335938 4.019531 -11.855469 C 4.058594 -11.332031 4.097656 -10.808594 4.140625 -10.328125 C 4.140625 -9.84375 4.179688 -9.363281 4.257812 -8.878906 C 4.300781 -8.398438 4.339844 -7.914062 4.339844 -7.472656 C 4.339844 -7.03125 4.378906 -6.628906 4.421875 -6.226562 C 4.460938 -5.382812 4.5 -4.742188 4.539062 -4.339844 C 4.582031 -3.859375 4.660156 -3.496094 4.820312 -3.253906 C 4.984375 -2.933594 5.183594 -2.730469 5.425781 -2.652344 C 5.664062 -2.492188 5.945312 -2.449219 6.1875 -2.449219 C 6.429688 -2.449219 6.710938 -2.492188 7.03125 -2.570312 Z M 7.03125 -2.570312 "/></g></g></g><g fill="#fe8d41" fill-opacity="1"><g transform="translate(216.579665, 118.961025)"><g><path d="M 3.578125 -2.691406 L 3.65625 -2.652344 C 3.976562 -2.652344 4.257812 -2.773438 4.421875 -2.933594 C 4.582031 -3.09375 4.703125 -3.335938 4.78125 -3.65625 C 4.863281 -3.976562 4.902344 -4.378906 4.902344 -4.902344 L 4.902344 -6.832031 L 4.863281 -6.832031 L 4.5 -13.460938 L 4.140625 -20.089844 C 4.097656 -20.414062 4.058594 -20.773438 4.058594 -21.09375 C 4.019531 -21.417969 3.976562 -21.777344 3.9375 -22.101562 L 3.777344 -23.066406 C 3.695312 -23.386719 3.65625 -23.707031 3.617188 -24.070312 C 3.578125 -24.191406 3.496094 -24.390625 3.414062 -24.671875 C 3.335938 -24.832031 3.214844 -24.992188 3.054688 -25.152344 C 2.894531 -25.234375 2.652344 -25.316406 2.332031 -25.394531 C 2.050781 -25.394531 1.648438 -25.394531 1.125 -25.316406 C 0.882812 -25.234375 0.683594 -25.152344 0.523438 -25.074219 C 0.363281 -24.953125 0.242188 -24.753906 0.160156 -24.511719 C 0.0820312 -24.308594 0.0390625 -23.949219 0 -23.464844 C -0.0820312 -22.984375 -0.0820312 -22.421875 0 -21.777344 C 0 -21.09375 0.0390625 -20.210938 0.121094 -19.167969 C 0.121094 -18.605469 0.160156 -18.082031 0.160156 -17.519531 C 0.160156 -16.957031 0.199219 -16.394531 0.242188 -15.832031 C 0.242188 -15.230469 0.28125 -14.625 0.28125 -14.0625 C 0.28125 -13.460938 0.320312 -12.859375 0.363281 -12.253906 C 0.363281 -11.050781 0.402344 -9.925781 0.480469 -8.878906 C 0.480469 -7.835938 0.523438 -6.910156 0.601562 -6.109375 C 0.601562 -5.304688 0.644531 -4.742188 0.722656 -4.421875 C 0.761719 -4.019531 0.804688 -3.738281 0.882812 -3.578125 C 0.964844 -3.335938 1.085938 -3.132812 1.324219 -2.972656 C 1.527344 -2.773438 1.808594 -2.652344 2.167969 -2.652344 C 2.570312 -2.570312 3.054688 -2.613281 3.578125 -2.691406 Z M 3.578125 -2.691406 "/></g></g></g><g fill="#fe8d41" fill-opacity="1"><g transform="translate(231.483628, 118.961025)"><g><path d="M 7.03125 -2.570312 L 7.152344 -2.613281 C 7.554688 -2.691406 7.796875 -2.972656 7.796875 -3.457031 L 7.796875 -4.058594 C 7.796875 -4.257812 7.753906 -4.460938 7.753906 -4.703125 C 7.675781 -5.625 7.632812 -6.46875 7.632812 -7.273438 C 7.59375 -8.078125 7.554688 -8.800781 7.554688 -9.523438 C 7.515625 -10.808594 7.472656 -12.015625 7.433594 -13.058594 C 7.351562 -14.023438 7.3125 -14.90625 7.3125 -15.710938 C 7.234375 -16.433594 7.191406 -17.15625 7.191406 -17.882812 C 7.152344 -18.203125 7.113281 -18.5625 7.113281 -18.886719 C 7.070312 -19.207031 7.03125 -19.570312 6.992188 -19.96875 C 6.910156 -20.332031 6.871094 -20.695312 6.832031 -21.09375 C 6.789062 -21.496094 6.75 -21.898438 6.710938 -22.382812 L 6.589844 -22.984375 C 6.507812 -23.183594 6.628906 -23.425781 6.871094 -23.667969 C 8.398438 -23.667969 9.402344 -23.789062 9.925781 -24.070312 C 10.449219 -24.351562 10.449219 -24.632812 9.925781 -24.871094 C 9.402344 -25.113281 8.359375 -25.273438 6.832031 -25.355469 C 5.34375 -25.433594 3.296875 -25.273438 0.722656 -24.914062 C 0.5625 -24.914062 0.480469 -24.871094 0.402344 -24.792969 C 0.28125 -24.671875 0.160156 -24.589844 0.0820312 -24.589844 C -0.0820312 -24.511719 -0.121094 -24.351562 -0.121094 -24.191406 C -0.121094 -23.988281 -0.0820312 -23.867188 0.0820312 -23.828125 C 0.363281 -23.667969 0.5625 -23.585938 0.722656 -23.585938 C 0.925781 -23.507812 1.085938 -23.507812 1.246094 -23.507812 L 3.175781 -23.507812 C 3.175781 -23.023438 3.214844 -22.582031 3.214844 -22.179688 C 3.214844 -21.777344 3.253906 -21.375 3.335938 -21.015625 C 3.375 -20.613281 3.414062 -20.25 3.414062 -19.851562 C 3.414062 -19.449219 3.457031 -19.085938 3.496094 -18.726562 C 3.535156 -18.324219 3.578125 -17.800781 3.617188 -17.117188 C 3.617188 -16.714844 3.65625 -16.355469 3.65625 -15.953125 C 3.65625 -15.550781 3.695312 -15.148438 3.777344 -14.707031 C 3.816406 -14.222656 3.859375 -13.78125 3.898438 -13.300781 C 3.898438 -12.816406 3.9375 -12.335938 4.019531 -11.855469 C 4.058594 -11.332031 4.097656 -10.808594 4.140625 -10.328125 C 4.140625 -9.84375 4.179688 -9.363281 4.257812 -8.878906 C 4.300781 -8.398438 4.339844 -7.914062 4.339844 -7.472656 C 4.339844 -7.03125 4.378906 -6.628906 4.421875 -6.226562 C 4.460938 -5.382812 4.5 -4.742188 4.539062 -4.339844 C 4.582031 -3.859375 4.660156 -3.496094 4.820312 -3.253906 C 4.984375 -2.933594 5.183594 -2.730469 5.425781 -2.652344 C 5.664062 -2.492188 5.945312 -2.449219 6.1875 -2.449219 C 6.429688 -2.449219 6.710938 -2.492188 7.03125 -2.570312 Z M 7.03125 -2.570312 "/></g></g></g><g fill="#fe8d41" fill-opacity="1"><g transform="translate(251.931383, 118.961025)"><g><path d="M 3.578125 -2.691406 L 3.65625 -2.652344 C 3.976562 -2.652344 4.257812 -2.773438 4.421875 -2.933594 C 4.582031 -3.09375 4.703125 -3.335938 4.78125 -3.65625 C 4.863281 -3.976562 4.902344 -4.378906 4.902344 -4.902344 L 4.902344 -6.832031 L 4.863281 -6.832031 L 4.5 -13.460938 L 4.140625 -20.089844 C 4.097656 -20.414062 4.058594 -20.773438 4.058594 -21.09375 C 4.019531 -21.417969 3.976562 -21.777344 3.9375 -22.101562 L 3.777344 -23.066406 C 3.695312 -23.386719 3.65625 -23.707031 3.617188 -24.070312 C 3.578125 -24.191406 3.496094 -24.390625 3.414062 -24.671875 C 3.335938 -24.832031 3.214844 -24.992188 3.054688 -25.152344 C 2.894531 -25.234375 2.652344 -25.316406 2.332031 -25.394531 C 2.050781 -25.394531 1.648438 -25.394531 1.125 -25.316406 C 0.882812 -25.234375 0.683594 -25.152344 0.523438 -25.074219 C 0.363281 -24.953125 0.242188 -24.753906 0.160156 -24.511719 C 0.0820312 -24.308594 0.0390625 -23.949219 0 -23.464844 C -0.0820312 -22.984375 -0.0820312 -22.421875 0 -21.777344 C 0 -21.09375 0.0390625 -20.210938 0.121094 -19.167969 C 0.121094 -18.605469 0.160156 -18.082031 0.160156 -17.519531 C 0.160156 -16.957031 0.199219 -16.394531 0.242188 -15.832031 C 0.242188 -15.230469 0.28125 -14.625 0.28125 -14.0625 C 0.28125 -13.460938 0.320312 -12.859375 0.363281 -12.253906 C 0.363281 -11.050781 0.402344 -9.925781 0.480469 -8.878906 C 0.480469 -7.835938 0.523438 -6.910156 0.601562 -6.109375 C 0.601562 -5.304688 0.644531 -4.742188 0.722656 -4.421875 C 0.761719 -4.019531 0.804688 -3.738281 0.882812 -3.578125 C 0.964844 -3.335938 1.085938 -3.132812 1.324219 -2.972656 C 1.527344 -2.773438 1.808594 -2.652344 2.167969 -2.652344 C 2.570312 -2.570312 3.054688 -2.613281 3.578125 -2.691406 Z M 3.578125 -2.691406 "/></g></g></g><g fill="#fe8d41" fill-opacity="1"><g transform="translate(266.835346, 118.961025)"><g><path d="M 4.621094 -3.253906 L 4.863281 -3.414062 C 5.101562 -3.011719 5.503906 -2.730469 6.066406 -2.53125 C 6.550781 -2.289062 7.070312 -2.210938 7.632812 -2.289062 C 8.117188 -2.289062 8.597656 -2.492188 9.082031 -2.851562 C 9.484375 -3.175781 9.765625 -3.617188 9.925781 -4.179688 C 10.085938 -4.941406 10.207031 -5.746094 10.367188 -6.589844 C 10.488281 -7.394531 10.609375 -8.277344 10.730469 -9.242188 C 10.929688 -11.089844 11.089844 -12.980469 11.210938 -14.828125 C 11.25 -15.75 11.292969 -16.675781 11.332031 -17.601562 C 11.371094 -18.484375 11.410156 -19.40625 11.492188 -20.292969 C 11.53125 -21.175781 11.574219 -21.980469 11.574219 -22.78125 C 11.574219 -23.546875 11.613281 -24.269531 11.652344 -24.992188 C 11.371094 -25.195312 11.089844 -25.355469 10.808594 -25.433594 C 10.449219 -25.515625 10.125 -25.515625 9.84375 -25.515625 C 9.523438 -25.476562 9.242188 -25.355469 9 -25.195312 C 8.757812 -25.035156 8.640625 -24.792969 8.597656 -24.511719 C 8.519531 -24.148438 8.476562 -23.746094 8.4375 -23.347656 C 8.398438 -22.945312 8.359375 -22.460938 8.316406 -21.9375 C 8.238281 -20.894531 8.15625 -19.769531 8.078125 -18.5625 C 7.996094 -17.359375 7.914062 -16.113281 7.835938 -14.828125 C 7.753906 -14.183594 7.714844 -13.542969 7.714844 -12.9375 C 7.675781 -12.335938 7.632812 -11.773438 7.632812 -11.210938 C 7.554688 -10.085938 7.515625 -9.082031 7.515625 -8.195312 C 7.433594 -7.273438 7.394531 -6.628906 7.394531 -6.308594 C 7.152344 -6.308594 7.03125 -6.269531 6.992188 -6.269531 C 6.832031 -6.75 6.710938 -7.234375 6.628906 -7.714844 C 6.507812 -8.15625 6.390625 -8.597656 6.269531 -9.082031 C 6.109375 -9.523438 5.988281 -9.964844 5.90625 -10.367188 C 5.828125 -10.769531 5.707031 -11.210938 5.625 -11.613281 C 5.503906 -12.015625 5.382812 -12.417969 5.304688 -12.816406 C 5.222656 -13.21875 5.144531 -13.582031 5.0625 -13.984375 C 4.902344 -14.707031 4.78125 -15.511719 4.703125 -16.394531 C 4.621094 -17.117188 4.5 -17.761719 4.421875 -18.402344 C 4.339844 -19.046875 4.21875 -19.609375 4.140625 -20.171875 C 3.898438 -21.214844 3.65625 -22.101562 3.414062 -22.824219 C 3.132812 -23.464844 2.773438 -23.949219 2.371094 -24.269531 C 1.96875 -24.550781 1.445312 -24.632812 0.84375 -24.511719 C 0.441406 -24.429688 0.160156 -24.269531 0 -24.070312 C -0.160156 -23.828125 -0.242188 -23.464844 -0.199219 -22.984375 C -0.199219 -22.421875 -0.0820312 -21.699219 0.160156 -20.8125 C 0.242188 -20.332031 0.363281 -19.808594 0.480469 -19.207031 C 0.601562 -18.605469 0.722656 -17.921875 0.882812 -17.15625 C 1.125 -15.953125 1.324219 -14.867188 1.527344 -13.902344 C 1.6875 -12.9375 1.847656 -12.09375 2.007812 -11.371094 C 2.128906 -10.609375 2.25 -9.925781 2.371094 -9.320312 C 2.492188 -8.679688 2.613281 -8.117188 2.773438 -7.632812 C 3.011719 -6.589844 3.253906 -5.746094 3.535156 -5.183594 C 3.777344 -4.539062 4.140625 -3.898438 4.621094 -3.253906 Z M 4.621094 -3.253906 "/></g></g></g><g fill="#fe8d41" fill-opacity="1"><g transform="translate(288.608793, 118.961025)"><g><path d="M 6.832031 -2.652344 L 6.992188 -2.730469 C 7.070312 -2.730469 7.191406 -2.8125 7.351562 -2.972656 C 7.433594 -3.054688 7.554688 -3.132812 7.714844 -3.253906 C 7.515625 -3.535156 7.273438 -3.738281 6.992188 -3.898438 C 6.671875 -4.019531 6.390625 -4.097656 6.109375 -4.140625 C 5.945312 -4.140625 5.785156 -4.179688 5.625 -4.179688 L 5.144531 -4.179688 C 4.820312 -4.179688 4.5 -4.21875 4.179688 -4.378906 L 4.140625 -13.421875 C 4.582031 -13.460938 4.984375 -13.5 5.34375 -13.542969 C 5.664062 -13.542969 5.988281 -13.582031 6.308594 -13.621094 C 6.589844 -13.621094 6.832031 -13.660156 7.070312 -13.703125 C 7.273438 -13.703125 7.472656 -13.742188 7.632812 -13.824219 C 7.914062 -13.902344 8.117188 -13.984375 8.277344 -14.144531 C 8.359375 -14.222656 8.4375 -14.386719 8.4375 -14.625 C 8.277344 -14.785156 8.078125 -14.949219 7.835938 -15.027344 C 7.632812 -15.066406 7.351562 -15.109375 6.992188 -15.1875 C 6.832031 -15.1875 6.628906 -15.230469 6.429688 -15.230469 L 5.828125 -15.230469 C 5.585938 -15.230469 5.34375 -15.230469 5.0625 -15.269531 C 4.78125 -15.269531 4.5 -15.308594 4.179688 -15.390625 C 4.097656 -15.710938 4.058594 -16.074219 4.058594 -16.476562 C 4.019531 -16.835938 3.976562 -17.238281 3.976562 -17.640625 C 3.9375 -18.042969 3.898438 -18.402344 3.898438 -18.804688 C 3.898438 -19.207031 3.898438 -19.570312 3.898438 -19.96875 L 3.898438 -22.019531 C 3.898438 -22.300781 3.898438 -22.582031 3.898438 -22.824219 C 3.898438 -23.066406 3.9375 -23.265625 3.976562 -23.425781 L 5.023438 -23.425781 C 5.101562 -23.425781 5.222656 -23.425781 5.382812 -23.464844 C 6.109375 -23.546875 6.628906 -23.667969 6.871094 -23.828125 C 7.113281 -23.988281 7.191406 -24.148438 7.113281 -24.308594 C 7.03125 -24.472656 6.832031 -24.632812 6.550781 -24.792969 C 6.308594 -24.914062 6.027344 -24.992188 5.707031 -25.074219 C 4.984375 -25.152344 4.378906 -25.234375 3.816406 -25.273438 C 3.253906 -25.316406 2.8125 -25.355469 2.449219 -25.355469 C 1.6875 -25.355469 1.125 -25.234375 0.761719 -25.035156 C 0.363281 -24.792969 0.160156 -24.429688 0.0820312 -23.949219 C 0 -23.386719 -0.0390625 -22.703125 -0.0390625 -21.898438 C -0.121094 -18.84375 -0.0820312 -15.871094 0.0820312 -12.980469 C 0.160156 -10.003906 0.363281 -7.03125 0.683594 -4.058594 C 0.761719 -3.253906 1.125 -2.8125 1.769531 -2.730469 C 2.167969 -2.652344 2.613281 -2.613281 3.011719 -2.570312 C 3.414062 -2.492188 3.859375 -2.449219 4.300781 -2.410156 C 5.101562 -2.332031 5.945312 -2.410156 6.832031 -2.652344 Z M 6.832031 -2.652344 "/></g></g></g><g fill="#fe8d41" fill-opacity="1"><g transform="translate(72.520848, 154.082339)"><g><path d="M 2.972656 0 L 3.011719 -0.121094 C 3.335938 -0.199219 3.578125 -0.363281 3.738281 -0.601562 C 3.859375 -0.84375 3.9375 -1.324219 3.9375 -1.96875 L 3.9375 -3.214844 C 3.9375 -3.695312 3.898438 -4.257812 3.898438 -4.902344 C 3.859375 -5.546875 3.859375 -6.269531 3.859375 -7.152344 C 3.859375 -7.996094 3.898438 -8.960938 3.976562 -10.085938 C 4.058594 -10.125 4.179688 -10.167969 4.257812 -10.246094 C 4.339844 -10.328125 4.421875 -10.367188 4.5 -10.449219 C 4.582031 -10.527344 4.742188 -10.609375 4.984375 -10.730469 C 6.46875 -11.613281 7.714844 -12.65625 8.71875 -13.902344 C 9.683594 -15.109375 10.40625 -16.394531 10.890625 -17.761719 C 11.292969 -19.046875 11.492188 -20.332031 11.410156 -21.699219 C 11.332031 -22.945312 10.929688 -24.070312 10.246094 -25.113281 C 9.5625 -26.078125 8.597656 -26.882812 7.351562 -27.445312 C 6.109375 -28.007812 4.539062 -28.207031 2.691406 -28.085938 C 2.449219 -28.046875 2.210938 -28.007812 2.007812 -28.007812 C 1.808594 -28.007812 1.648438 -28.007812 1.527344 -28.007812 C 1.207031 -28.007812 1.003906 -27.886719 0.84375 -27.683594 C 0.683594 -27.445312 0.5625 -27.082031 0.480469 -26.601562 C 0.402344 -26.320312 0.363281 -25.996094 0.363281 -25.597656 C 0.320312 -25.195312 0.28125 -24.753906 0.28125 -24.230469 C 0.242188 -23.667969 0.199219 -23.066406 0.199219 -22.421875 C 0.199219 -21.738281 0.199219 -20.976562 0.199219 -20.171875 C 0.199219 -18.484375 0.160156 -16.433594 0.0820312 -13.941406 C 0.0390625 -12.09375 0 -10.609375 -0.0390625 -9.441406 C -0.0820312 -8.839844 -0.0820312 -8.277344 -0.0820312 -7.796875 L -0.0820312 -5.183594 C -0.0820312 -4.78125 -0.0820312 -4.421875 -0.0390625 -4.058594 C -0.0390625 -3.65625 0 -3.253906 0 -2.851562 C 0 -2.449219 0.0390625 -2.007812 0.121094 -1.566406 C 0.160156 -1.246094 0.199219 -0.964844 0.28125 -0.804688 C 0.363281 -0.523438 0.480469 -0.320312 0.683594 -0.199219 C 0.882812 0 1.164062 0.121094 1.527344 0.121094 C 1.847656 0.199219 2.332031 0.160156 2.972656 0 Z M 4.257812 -13.339844 L 4.339844 -13.5 C 4.257812 -13.5 4.140625 -13.542969 4.058594 -13.621094 C 3.976562 -13.621094 3.9375 -13.742188 3.898438 -13.984375 C 3.816406 -14.222656 3.816406 -14.585938 3.816406 -15.027344 L 3.816406 -26.761719 C 4.742188 -26.601562 5.464844 -26.320312 6.027344 -25.878906 C 6.550781 -25.394531 6.953125 -24.832031 7.273438 -24.109375 C 7.515625 -23.464844 7.714844 -22.664062 7.796875 -21.738281 C 7.835938 -21.257812 7.875 -20.8125 7.875 -20.371094 C 7.875 -19.890625 7.835938 -19.449219 7.835938 -19.007812 C 7.835938 -18.804688 7.714844 -18.445312 7.515625 -17.960938 C 7.3125 -17.480469 7.03125 -16.996094 6.710938 -16.433594 C 6.550781 -16.152344 6.347656 -15.871094 6.1875 -15.628906 C 5.988281 -15.347656 5.785156 -15.066406 5.585938 -14.785156 C 5.101562 -14.222656 4.660156 -13.742188 4.257812 -13.339844 Z M 4.257812 -13.339844 "/></g></g></g><g fill="#fe8d41" fill-opacity="1"><g transform="translate(94.053259, 154.082339)"><g><path d="M 3.738281 -2.449219 L 3.898438 -2.410156 C 4.339844 -2.449219 4.660156 -2.53125 4.863281 -2.691406 C 5.0625 -2.851562 5.183594 -3.09375 5.222656 -3.457031 C 5.222656 -3.777344 5.222656 -4.257812 5.222656 -4.902344 C 5.183594 -5.464844 5.144531 -6.269531 5.101562 -7.273438 L 5.101562 -7.675781 C 5.101562 -7.796875 5.222656 -7.914062 5.464844 -8.078125 L 5.828125 -7.714844 C 5.867188 -7.632812 5.945312 -7.554688 6.027344 -7.472656 C 6.109375 -7.351562 6.226562 -7.191406 6.390625 -7.03125 C 6.550781 -6.871094 6.710938 -6.628906 6.953125 -6.390625 C 7.152344 -6.109375 7.433594 -5.746094 7.753906 -5.34375 C 8.078125 -4.941406 8.4375 -4.460938 8.921875 -3.898438 C 9.242188 -3.414062 9.683594 -3.09375 10.246094 -2.933594 C 10.808594 -2.773438 11.25 -2.691406 11.613281 -2.730469 C 12.015625 -2.773438 12.296875 -2.933594 12.535156 -3.175781 C 12.699219 -3.414062 12.699219 -3.695312 12.535156 -4.058594 C 12.457031 -4.179688 12.375 -4.300781 12.296875 -4.421875 C 12.214844 -4.539062 12.136719 -4.660156 12.09375 -4.78125 C 11.972656 -4.941406 11.691406 -5.265625 11.292969 -5.746094 C 10.890625 -6.148438 10.328125 -6.789062 9.5625 -7.714844 C 8.757812 -8.597656 7.675781 -9.84375 6.308594 -11.453125 C 7.191406 -12.578125 7.957031 -13.582031 8.597656 -14.464844 C 9.203125 -15.347656 9.683594 -16.113281 10.003906 -16.835938 C 10.328125 -17.558594 10.527344 -18.28125 10.609375 -19.007812 C 10.6875 -19.730469 10.6875 -20.53125 10.609375 -21.417969 C 10.449219 -23.183594 9.523438 -24.351562 7.835938 -24.914062 C 7.515625 -24.992188 7.191406 -25.113281 6.871094 -25.195312 C 6.507812 -25.273438 6.109375 -25.355469 5.707031 -25.433594 C 4.820312 -25.597656 4.019531 -25.675781 3.253906 -25.675781 C 2.449219 -25.675781 1.726562 -25.554688 1.164062 -25.316406 C 0.5625 -25.074219 0.242188 -24.632812 0.160156 -24.070312 C 0.0390625 -23.304688 -0.0390625 -22.703125 -0.0820312 -22.300781 C -0.121094 -22.058594 -0.160156 -21.859375 -0.160156 -21.65625 C -0.160156 -21.417969 -0.160156 -21.214844 -0.160156 -20.976562 C -0.160156 -20.734375 -0.160156 -20.453125 -0.160156 -20.171875 C -0.160156 -19.851562 -0.121094 -19.527344 -0.0820312 -19.207031 C -0.0820312 -18.484375 0 -17.480469 0.160156 -16.191406 C 0.242188 -15.066406 0.28125 -14.0625 0.363281 -13.179688 C 0.441406 -12.296875 0.480469 -11.492188 0.5625 -10.808594 C 0.601562 -10.085938 0.644531 -9.484375 0.683594 -8.921875 C 0.722656 -8.359375 0.761719 -7.835938 0.84375 -7.394531 C 0.882812 -6.910156 0.925781 -6.550781 0.925781 -6.226562 C 0.925781 -5.90625 0.964844 -5.625 1.003906 -5.425781 C 1.003906 -4.941406 1.042969 -4.621094 1.125 -4.460938 C 1.125 -4.339844 1.164062 -4.257812 1.164062 -4.179688 L 1.164062 -4.019531 L 1.207031 -3.65625 C 1.324219 -3.011719 1.605469 -2.652344 2.089844 -2.570312 C 2.570312 -2.410156 3.09375 -2.371094 3.738281 -2.449219 Z M 4.5 -13.824219 L 4.5 -13.742188 C 4.378906 -14.667969 4.300781 -15.511719 4.21875 -16.234375 C 4.140625 -16.957031 4.058594 -17.640625 4.019531 -18.242188 C 3.9375 -18.804688 3.898438 -19.328125 3.859375 -19.808594 C 3.777344 -20.25 3.738281 -20.652344 3.695312 -21.015625 C 3.617188 -21.335938 3.578125 -21.65625 3.578125 -21.898438 C 3.578125 -22.140625 3.535156 -22.339844 3.535156 -22.5 C 3.496094 -22.664062 3.457031 -22.78125 3.457031 -22.902344 C 3.457031 -23.023438 3.457031 -23.144531 3.457031 -23.226562 L 3.457031 -23.867188 C 3.457031 -23.949219 3.457031 -24.070312 3.496094 -24.230469 C 3.738281 -24.148438 3.9375 -24.109375 4.179688 -24.070312 C 4.378906 -24.027344 4.582031 -23.988281 4.78125 -23.949219 C 4.941406 -23.867188 5.144531 -23.828125 5.304688 -23.789062 C 5.464844 -23.707031 5.585938 -23.667969 5.746094 -23.628906 C 5.988281 -23.464844 6.226562 -23.265625 6.46875 -23.023438 C 6.671875 -22.703125 6.832031 -22.339844 6.953125 -21.898438 C 7.113281 -21.175781 7.152344 -20.453125 7.070312 -19.730469 C 6.992188 -18.964844 6.832031 -18.242188 6.589844 -17.519531 C 6.347656 -16.835938 6.066406 -16.152344 5.664062 -15.46875 C 5.304688 -14.828125 4.902344 -14.265625 4.5 -13.824219 Z M 4.5 -13.824219 "/></g></g></g><g fill="#fe8d41" fill-opacity="1"><g transform="translate(116.790843, 154.082339)"><g><path d="M 4.984375 -2.652344 L 4.902344 -2.8125 C 6.027344 -2.570312 7.03125 -2.652344 7.835938 -2.972656 C 8.679688 -3.296875 9.402344 -3.777344 10.003906 -4.460938 C 10.566406 -5.101562 11.050781 -5.945312 11.453125 -6.992188 C 11.8125 -7.996094 12.09375 -9.039062 12.296875 -10.167969 C 12.457031 -11.292969 12.578125 -12.457031 12.65625 -13.660156 C 12.65625 -14.867188 12.65625 -16.03125 12.65625 -17.199219 C 12.617188 -17.558594 12.578125 -17.960938 12.535156 -18.363281 C 12.496094 -18.765625 12.457031 -19.167969 12.375 -19.609375 C 12.214844 -20.414062 11.972656 -21.175781 11.652344 -21.898438 C 11.332031 -22.542969 10.929688 -23.105469 10.367188 -23.628906 C 9.84375 -24.070312 9.203125 -24.308594 8.4375 -24.390625 C 8.078125 -24.390625 7.753906 -24.472656 7.515625 -24.632812 C 7.191406 -24.792969 6.871094 -24.914062 6.550781 -24.992188 C 6.1875 -25.074219 5.785156 -25.074219 5.304688 -24.992188 C 4.820312 -24.914062 4.257812 -24.671875 3.578125 -24.269531 C 2.492188 -23.546875 1.769531 -22.582031 1.445312 -21.375 C 0.761719 -19.085938 0.320312 -16.917969 0.160156 -14.867188 C -0.0820312 -12.699219 -0.0390625 -10.769531 0.28125 -9.082031 C 0.523438 -7.3125 1.042969 -5.867188 1.847656 -4.742188 C 2.570312 -3.578125 3.617188 -2.894531 4.984375 -2.652344 Z M 6.148438 -4.300781 L 6.269531 -4.460938 C 5.464844 -5.144531 4.902344 -6.066406 4.5 -7.234375 C 4.058594 -8.4375 3.777344 -9.683594 3.695312 -10.96875 C 3.617188 -11.613281 3.578125 -12.296875 3.578125 -12.9375 C 3.535156 -13.582031 3.535156 -14.265625 3.617188 -14.988281 C 3.65625 -15.671875 3.695312 -16.3125 3.777344 -16.957031 C 3.816406 -17.558594 3.898438 -18.164062 4.019531 -18.726562 C 4.179688 -19.769531 4.421875 -20.734375 4.703125 -21.578125 C 4.941406 -22.300781 5.144531 -22.742188 5.382812 -22.902344 C 6.347656 -22.863281 7.113281 -22.382812 7.675781 -21.496094 C 8.238281 -20.613281 8.640625 -19.488281 8.878906 -18.164062 C 9.121094 -16.875 9.203125 -15.429688 9.160156 -13.824219 C 9.121094 -13.019531 9.082031 -12.296875 9 -11.574219 C 8.921875 -10.847656 8.839844 -10.125 8.71875 -9.441406 C 8.476562 -8.117188 8.117188 -6.953125 7.675781 -5.945312 C 7.191406 -4.984375 6.710938 -4.421875 6.148438 -4.300781 Z M 6.148438 -4.300781 "/></g></g></g><g fill="#fe8d41" fill-opacity="1"><g transform="translate(139.528427, 154.082339)"><g><path d="M 7.796875 -2.167969 L 8.035156 -2.449219 C 8.757812 -2.53125 9.320312 -2.691406 9.765625 -2.972656 C 10.167969 -3.214844 10.527344 -3.578125 10.769531 -4.058594 C 10.96875 -4.460938 11.128906 -4.941406 11.292969 -5.585938 C 11.371094 -6.148438 11.453125 -6.75 11.53125 -7.394531 C 11.574219 -8.117188 11.574219 -8.800781 11.492188 -9.441406 C 11.410156 -10.085938 11.292969 -10.769531 11.128906 -11.492188 C 10.328125 -11.691406 9.5625 -11.773438 8.878906 -11.691406 C 8.15625 -11.613281 7.472656 -11.410156 6.75 -11.128906 C 6.589844 -11.050781 6.550781 -10.96875 6.550781 -10.808594 C 6.550781 -10.609375 6.589844 -10.488281 6.710938 -10.488281 C 6.871094 -10.367188 7.152344 -10.285156 7.472656 -10.207031 C 7.59375 -10.125 7.714844 -10.085938 7.875 -10.046875 C 8.035156 -10.003906 8.15625 -9.964844 8.316406 -9.925781 C 8.316406 -9.601562 8.359375 -9.160156 8.4375 -8.640625 C 8.4375 -8.15625 8.4375 -7.675781 8.4375 -7.191406 L 8.359375 -6.46875 C 8.316406 -6.226562 8.277344 -5.988281 8.238281 -5.746094 C 8.15625 -5.265625 8.035156 -4.863281 7.875 -4.539062 C 7.554688 -3.976562 7.191406 -3.777344 6.789062 -3.9375 C 6.308594 -4.058594 5.867188 -4.378906 5.464844 -4.941406 C 5.023438 -5.503906 4.621094 -6.226562 4.257812 -7.191406 C 3.859375 -8.078125 3.65625 -9.121094 3.65625 -10.328125 C 3.578125 -11.128906 3.578125 -12.136719 3.65625 -13.339844 C 3.65625 -13.941406 3.695312 -14.546875 3.738281 -15.1875 C 3.777344 -15.792969 3.859375 -16.433594 3.9375 -17.078125 C 4.097656 -18.363281 4.339844 -19.570312 4.660156 -20.695312 C 4.984375 -21.820312 5.382812 -22.703125 5.90625 -23.347656 C 6.390625 -23.023438 6.789062 -22.664062 7.113281 -22.300781 C 7.351562 -21.9375 7.515625 -21.457031 7.59375 -20.894531 C 7.632812 -20.371094 7.753906 -20.011719 7.996094 -19.808594 C 8.238281 -19.570312 8.476562 -19.40625 8.800781 -19.328125 C 9.039062 -19.246094 9.320312 -19.246094 9.644531 -19.328125 C 9.886719 -19.40625 10.085938 -19.527344 10.246094 -19.769531 C 10.890625 -20.8125 10.929688 -21.859375 10.367188 -22.902344 C 9.964844 -23.507812 9.402344 -24.027344 8.640625 -24.472656 C 7.835938 -24.914062 6.953125 -25.152344 6.066406 -25.195312 C 5.101562 -25.234375 4.21875 -25.035156 3.414062 -24.550781 C 2.53125 -24.070312 1.886719 -23.183594 1.488281 -21.980469 C 1.246094 -21.257812 0.964844 -20.25 0.644531 -19.046875 C 0.320312 -17.761719 0.0820312 -16.355469 -0.0820312 -14.828125 C -0.242188 -13.300781 -0.28125 -11.734375 -0.199219 -10.167969 C -0.121094 -8.558594 0.199219 -7.152344 0.761719 -5.945312 C 1.324219 -4.660156 2.167969 -3.695312 3.296875 -2.972656 C 4.421875 -2.25 5.945312 -1.96875 7.796875 -2.167969 Z M 7.796875 -2.167969 "/></g></g></g><g fill="#fe8d41" fill-opacity="1"><g transform="translate(161.141187, 154.082339)"><g><path d="M 3.738281 -2.449219 L 3.898438 -2.410156 C 4.339844 -2.449219 4.660156 -2.53125 4.863281 -2.691406 C 5.0625 -2.851562 5.183594 -3.09375 5.222656 -3.457031 C 5.222656 -3.777344 5.222656 -4.257812 5.222656 -4.902344 C 5.183594 -5.464844 5.144531 -6.269531 5.101562 -7.273438 L 5.101562 -7.675781 C 5.101562 -7.796875 5.222656 -7.914062 5.464844 -8.078125 L 5.828125 -7.714844 C 5.867188 -7.632812 5.945312 -7.554688 6.027344 -7.472656 C 6.109375 -7.351562 6.226562 -7.191406 6.390625 -7.03125 C 6.550781 -6.871094 6.710938 -6.628906 6.953125 -6.390625 C 7.152344 -6.109375 7.433594 -5.746094 7.753906 -5.34375 C 8.078125 -4.941406 8.4375 -4.460938 8.921875 -3.898438 C 9.242188 -3.414062 9.683594 -3.09375 10.246094 -2.933594 C 10.808594 -2.773438 11.25 -2.691406 11.613281 -2.730469 C 12.015625 -2.773438 12.296875 -2.933594 12.535156 -3.175781 C 12.699219 -3.414062 12.699219 -3.695312 12.535156 -4.058594 C 12.457031 -4.179688 12.375 -4.300781 12.296875 -4.421875 C 12.214844 -4.539062 12.136719 -4.660156 12.09375 -4.78125 C 11.972656 -4.941406 11.691406 -5.265625 11.292969 -5.746094 C 10.890625 -6.148438 10.328125 -6.789062 9.5625 -7.714844 C 8.757812 -8.597656 7.675781 -9.84375 6.308594 -11.453125 C 7.191406 -12.578125 7.957031 -13.582031 8.597656 -14.464844 C 9.203125 -15.347656 9.683594 -16.113281 10.003906 -16.835938 C 10.328125 -17.558594 10.527344 -18.28125 10.609375 -19.007812 C 10.6875 -19.730469 10.6875 -20.53125 10.609375 -21.417969 C 10.449219 -23.183594 9.523438 -24.351562 7.835938 -24.914062 C 7.515625 -24.992188 7.191406 -25.113281 6.871094 -25.195312 C 6.507812 -25.273438 6.109375 -25.355469 5.707031 -25.433594 C 4.820312 -25.597656 4.019531 -25.675781 3.253906 -25.675781 C 2.449219 -25.675781 1.726562 -25.554688 1.164062 -25.316406 C 0.5625 -25.074219 0.242188 -24.632812 0.160156 -24.070312 C 0.0390625 -23.304688 -0.0390625 -22.703125 -0.0820312 -22.300781 C -0.121094 -22.058594 -0.160156 -21.859375 -0.160156 -21.65625 C -0.160156 -21.417969 -0.160156 -21.214844 -0.160156 -20.976562 C -0.160156 -20.734375 -0.160156 -20.453125 -0.160156 -20.171875 C -0.160156 -19.851562 -0.121094 -19.527344 -0.0820312 -19.207031 C -0.0820312 -18.484375 0 -17.480469 0.160156 -16.191406 C 0.242188 -15.066406 0.28125 -14.0625 0.363281 -13.179688 C 0.441406 -12.296875 0.480469 -11.492188 0.5625 -10.808594 C 0.601562 -10.085938 0.644531 -9.484375 0.683594 -8.921875 C 0.722656 -8.359375 0.761719 -7.835938 0.84375 -7.394531 C 0.882812 -6.910156 0.925781 -6.550781 0.925781 -6.226562 C 0.925781 -5.90625 0.964844 -5.625 1.003906 -5.425781 C 1.003906 -4.941406 1.042969 -4.621094 1.125 -4.460938 C 1.125 -4.339844 1.164062 -4.257812 1.164062 -4.179688 L 1.164062 -4.019531 L 1.207031 -3.65625 C 1.324219 -3.011719 1.605469 -2.652344 2.089844 -2.570312 C 2.570312 -2.410156 3.09375 -2.371094 3.738281 -2.449219 Z M 4.5 -13.824219 L 4.5 -13.742188 C 4.378906 -14.667969 4.300781 -15.511719 4.21875 -16.234375 C 4.140625 -16.957031 4.058594 -17.640625 4.019531 -18.242188 C 3.9375 -18.804688 3.898438 -19.328125 3.859375 -19.808594 C 3.777344 -20.25 3.738281 -20.652344 3.695312 -21.015625 C 3.617188 -21.335938 3.578125 -21.65625 3.578125 -21.898438 C 3.578125 -22.140625 3.535156 -22.339844 3.535156 -22.5 C 3.496094 -22.664062 3.457031 -22.78125 3.457031 -22.902344 C 3.457031 -23.023438 3.457031 -23.144531 3.457031 -23.226562 L 3.457031 -23.867188 C 3.457031 -23.949219 3.457031 -24.070312 3.496094 -24.230469 C 3.738281 -24.148438 3.9375 -24.109375 4.179688 -24.070312 C 4.378906 -24.027344 4.582031 -23.988281 4.78125 -23.949219 C 4.941406 -23.867188 5.144531 -23.828125 5.304688 -23.789062 C 5.464844 -23.707031 5.585938 -23.667969 5.746094 -23.628906 C 5.988281 -23.464844 6.226562 -23.265625 6.46875 -23.023438 C 6.671875 -22.703125 6.832031 -22.339844 6.953125 -21.898438 C 7.113281 -21.175781 7.152344 -20.453125 7.070312 -19.730469 C 6.992188 -18.964844 6.832031 -18.242188 6.589844 -17.519531 C 6.347656 -16.835938 6.066406 -16.152344 5.664062 -15.46875 C 5.304688 -14.828125 4.902344 -14.265625 4.5 -13.824219 Z M 4.5 -13.824219 "/></g></g></g><g fill="#fe8d41" fill-opacity="1"><g transform="translate(183.878771, 154.082339)"><g><path d="M 1.042969 -2.652344 L 1.324219 -2.730469 C 1.96875 -2.652344 2.449219 -2.691406 2.773438 -2.851562 C 3.09375 -2.933594 3.335938 -3.175781 3.496094 -3.578125 C 3.65625 -3.976562 3.777344 -4.460938 3.816406 -5.101562 C 3.816406 -5.746094 3.898438 -6.589844 4.058594 -7.632812 L 7.273438 -7.632812 C 7.433594 -7.03125 7.554688 -6.429688 7.632812 -5.867188 C 7.632812 -5.546875 7.675781 -5.265625 7.675781 -5.023438 C 7.675781 -4.78125 7.714844 -4.5 7.796875 -4.257812 C 7.875 -3.695312 8.035156 -3.296875 8.359375 -3.011719 C 8.597656 -2.691406 8.921875 -2.53125 9.320312 -2.53125 C 9.644531 -2.449219 10.003906 -2.492188 10.40625 -2.652344 C 10.730469 -2.730469 11.011719 -2.894531 11.25 -3.132812 C 11.25 -3.214844 11.210938 -3.457031 11.171875 -3.777344 C 11.128906 -4.097656 11.089844 -4.5 11.050781 -5.0625 C 10.890625 -6.109375 10.730469 -7.433594 10.566406 -9.039062 C 10.328125 -10.566406 10.085938 -12.214844 9.84375 -13.984375 C 9.683594 -14.828125 9.5625 -15.671875 9.402344 -16.476562 C 9.242188 -17.277344 9.082031 -18.082031 8.921875 -18.886719 C 8.597656 -20.414062 8.277344 -21.699219 7.957031 -22.742188 C 7.632812 -23.789062 7.3125 -24.390625 7.070312 -24.511719 C 6.027344 -24.992188 5.183594 -25.273438 4.582031 -25.355469 C 3.9375 -25.394531 3.496094 -25.273438 3.175781 -24.992188 C 2.851562 -24.671875 2.613281 -24.308594 2.492188 -23.828125 C 2.410156 -23.585938 2.371094 -23.304688 2.332031 -23.066406 C 2.25 -22.824219 2.210938 -22.542969 2.167969 -22.300781 C 2.007812 -21.257812 1.886719 -20.332031 1.769531 -19.449219 C 1.648438 -18.5625 1.566406 -17.761719 1.488281 -17.039062 C 1.40625 -16.3125 1.324219 -15.628906 1.246094 -15.027344 C 1.164062 -14.386719 1.085938 -13.824219 1.042969 -13.339844 C 0.964844 -12.816406 0.925781 -12.335938 0.882812 -11.933594 C 0.84375 -11.492188 0.804688 -11.089844 0.761719 -10.730469 C 0.683594 -10.003906 0.601562 -9.320312 0.523438 -8.679688 L 0.28125 -6.75 L 0.0820312 -5.664062 C 0 -5.265625 -0.0820312 -4.820312 -0.160156 -4.378906 C -0.320312 -3.738281 -0.28125 -3.335938 -0.121094 -3.09375 C 0.0390625 -2.851562 0.402344 -2.691406 1.042969 -2.652344 Z M 4.339844 -10.125 L 4.421875 -10.167969 C 4.378906 -10.285156 4.378906 -10.449219 4.378906 -10.6875 L 4.378906 -11.492188 C 4.378906 -12.09375 4.421875 -12.777344 4.5 -13.5 C 4.539062 -13.863281 4.582031 -14.222656 4.660156 -14.585938 C 4.703125 -14.90625 4.742188 -15.269531 4.820312 -15.671875 C 4.902344 -16.3125 5.101562 -16.917969 5.382812 -17.398438 C 5.425781 -17.15625 5.464844 -16.917969 5.503906 -16.757812 C 5.503906 -16.59375 5.546875 -16.433594 5.585938 -16.3125 C 5.585938 -16.074219 5.625 -15.871094 5.707031 -15.710938 C 5.707031 -15.589844 5.746094 -15.390625 5.828125 -15.148438 C 5.828125 -15.027344 5.867188 -14.90625 5.867188 -14.785156 C 5.867188 -14.625 5.90625 -14.464844 5.988281 -14.304688 C 6.027344 -14.105469 6.066406 -13.902344 6.109375 -13.660156 L 6.269531 -12.816406 C 6.347656 -12.175781 6.507812 -11.332031 6.75 -10.285156 C 6.269531 -10.125 5.867188 -10.046875 5.503906 -10.046875 C 5.265625 -10.046875 5.0625 -10.046875 4.902344 -10.046875 C 4.703125 -10.046875 4.5 -10.085938 4.339844 -10.125 Z M 4.339844 -10.125 "/></g></g></g><g fill="#fe8d41" fill-opacity="1"><g transform="translate(206.053943, 154.082339)"><g><path d="M 14.105469 -2.332031 L 14.386719 -2.570312 C 14.625 -2.613281 14.828125 -2.652344 14.949219 -2.691406 C 15.066406 -2.691406 15.1875 -2.851562 15.347656 -3.175781 C 15.429688 -3.414062 15.511719 -3.859375 15.589844 -4.5 C 15.589844 -5.0625 15.589844 -5.945312 15.589844 -7.070312 C 15.550781 -8.15625 15.46875 -9.5625 15.347656 -11.332031 C 15.269531 -12.175781 15.230469 -13.140625 15.148438 -14.222656 C 15.066406 -15.269531 14.949219 -16.476562 14.867188 -17.761719 C 14.785156 -18.242188 14.746094 -18.683594 14.746094 -19.085938 C 14.707031 -19.488281 14.667969 -19.808594 14.667969 -20.132812 C 14.625 -20.414062 14.585938 -20.652344 14.585938 -20.894531 C 14.585938 -21.136719 14.546875 -21.335938 14.503906 -21.578125 C 14.425781 -21.777344 14.386719 -21.980469 14.34375 -22.179688 C 14.265625 -22.339844 14.222656 -22.542969 14.183594 -22.78125 C 14.023438 -23.183594 13.824219 -23.707031 13.582031 -24.351562 C 13.421875 -24.671875 13.21875 -24.914062 12.980469 -25.074219 C 12.65625 -25.234375 12.335938 -25.316406 12.015625 -25.316406 C 11.652344 -25.316406 11.292969 -25.195312 10.96875 -24.992188 C 10.609375 -24.753906 10.328125 -24.429688 10.167969 -24.027344 C 10.003906 -23.789062 9.925781 -23.546875 9.84375 -23.347656 L 9.484375 -22.261719 C 9.320312 -21.777344 9.082031 -21.136719 8.757812 -20.332031 C 8.597656 -19.929688 8.398438 -19.449219 8.195312 -18.925781 C 7.996094 -18.363281 7.753906 -17.761719 7.515625 -17.078125 L 7.234375 -17.117188 L 6.992188 -18 C 6.789062 -18.726562 6.550781 -19.449219 6.269531 -20.210938 C 5.945312 -20.933594 5.625 -21.65625 5.265625 -22.300781 C 4.820312 -23.023438 4.378906 -23.546875 3.898438 -23.910156 C 3.414062 -24.269531 2.933594 -24.472656 2.53125 -24.511719 C 2.050781 -24.550781 1.6875 -24.429688 1.367188 -24.148438 C 1.003906 -23.828125 0.761719 -23.425781 0.683594 -22.945312 C 0.523438 -22.140625 0.441406 -21.214844 0.441406 -20.171875 C 0.441406 -19.609375 0.402344 -19.046875 0.363281 -18.484375 C 0.320312 -17.921875 0.28125 -17.320312 0.242188 -16.714844 C 0.121094 -15.589844 0.0390625 -14.304688 0 -12.898438 C -0.0390625 -12.175781 -0.0390625 -11.492188 -0.0390625 -10.808594 L -0.0390625 -7.03125 C -0.0390625 -6.46875 -0.0390625 -5.945312 0 -5.464844 C 0 -4.5 0.0390625 -3.898438 0.121094 -3.65625 C 0.199219 -3.253906 0.363281 -2.972656 0.601562 -2.8125 C 0.84375 -2.570312 1.40625 -2.53125 2.289062 -2.613281 C 2.613281 -2.613281 2.894531 -2.730469 3.054688 -2.894531 C 3.214844 -3.054688 3.296875 -3.296875 3.296875 -3.65625 L 3.296875 -4.300781 C 3.296875 -4.539062 3.253906 -4.820312 3.253906 -5.144531 C 3.214844 -5.464844 3.175781 -5.828125 3.175781 -6.226562 C 3.175781 -6.628906 3.175781 -7.113281 3.175781 -7.675781 L 3.175781 -13.941406 C 3.175781 -14.34375 3.175781 -14.667969 3.214844 -14.90625 C 3.214844 -15.347656 3.253906 -15.589844 3.335938 -15.671875 C 3.335938 -15.671875 3.414062 -15.710938 3.578125 -15.792969 C 3.898438 -14.867188 4.140625 -14.144531 4.300781 -13.582031 C 4.460938 -12.9375 4.621094 -12.457031 4.78125 -12.136719 C 4.941406 -11.734375 5.144531 -11.453125 5.304688 -11.332031 C 5.503906 -11.128906 5.828125 -11.011719 6.269531 -11.011719 C 6.75 -10.929688 7.191406 -11.011719 7.59375 -11.25 C 7.957031 -11.453125 8.277344 -11.933594 8.519531 -12.699219 C 9 -14.222656 9.363281 -15.429688 9.601562 -16.3125 C 9.722656 -16.714844 9.84375 -17.078125 9.925781 -17.398438 C 10.003906 -17.679688 10.085938 -17.921875 10.167969 -18.121094 C 10.246094 -18.445312 10.367188 -18.644531 10.488281 -18.765625 C 10.527344 -18.804688 10.648438 -18.84375 10.808594 -18.925781 C 10.808594 -18.644531 10.847656 -18.402344 10.847656 -18.203125 L 10.847656 -15.792969 C 10.847656 -15.628906 10.847656 -15.46875 10.890625 -15.269531 C 10.890625 -14.667969 10.929688 -13.824219 11.011719 -12.777344 C 11.011719 -12.214844 11.050781 -11.691406 11.050781 -11.171875 C 11.050781 -10.609375 11.089844 -10.085938 11.171875 -9.523438 C 11.25 -8.398438 11.332031 -7.3125 11.410156 -6.269531 C 11.453125 -5.707031 11.492188 -5.222656 11.53125 -4.820312 C 11.53125 -4.421875 11.574219 -4.058594 11.613281 -3.777344 C 11.613281 -3.09375 11.894531 -2.652344 12.417969 -2.449219 C 12.898438 -2.210938 13.460938 -2.167969 14.105469 -2.332031 Z M 14.105469 -2.332031 "/></g></g></g><g fill="#fe8d41" fill-opacity="1"><g transform="translate(231.683936, 154.082339)"><g><path d="M 14.105469 -2.332031 L 14.386719 -2.570312 C 14.625 -2.613281 14.828125 -2.652344 14.949219 -2.691406 C 15.066406 -2.691406 15.1875 -2.851562 15.347656 -3.175781 C 15.429688 -3.414062 15.511719 -3.859375 15.589844 -4.5 C 15.589844 -5.0625 15.589844 -5.945312 15.589844 -7.070312 C 15.550781 -8.15625 15.46875 -9.5625 15.347656 -11.332031 C 15.269531 -12.175781 15.230469 -13.140625 15.148438 -14.222656 C 15.066406 -15.269531 14.949219 -16.476562 14.867188 -17.761719 C 14.785156 -18.242188 14.746094 -18.683594 14.746094 -19.085938 C 14.707031 -19.488281 14.667969 -19.808594 14.667969 -20.132812 C 14.625 -20.414062 14.585938 -20.652344 14.585938 -20.894531 C 14.585938 -21.136719 14.546875 -21.335938 14.503906 -21.578125 C 14.425781 -21.777344 14.386719 -21.980469 14.34375 -22.179688 C 14.265625 -22.339844 14.222656 -22.542969 14.183594 -22.78125 C 14.023438 -23.183594 13.824219 -23.707031 13.582031 -24.351562 C 13.421875 -24.671875 13.21875 -24.914062 12.980469 -25.074219 C 12.65625 -25.234375 12.335938 -25.316406 12.015625 -25.316406 C 11.652344 -25.316406 11.292969 -25.195312 10.96875 -24.992188 C 10.609375 -24.753906 10.328125 -24.429688 10.167969 -24.027344 C 10.003906 -23.789062 9.925781 -23.546875 9.84375 -23.347656 L 9.484375 -22.261719 C 9.320312 -21.777344 9.082031 -21.136719 8.757812 -20.332031 C 8.597656 -19.929688 8.398438 -19.449219 8.195312 -18.925781 C 7.996094 -18.363281 7.753906 -17.761719 7.515625 -17.078125 L 7.234375 -17.117188 L 6.992188 -18 C 6.789062 -18.726562 6.550781 -19.449219 6.269531 -20.210938 C 5.945312 -20.933594 5.625 -21.65625 5.265625 -22.300781 C 4.820312 -23.023438 4.378906 -23.546875 3.898438 -23.910156 C 3.414062 -24.269531 2.933594 -24.472656 2.53125 -24.511719 C 2.050781 -24.550781 1.6875 -24.429688 1.367188 -24.148438 C 1.003906 -23.828125 0.761719 -23.425781 0.683594 -22.945312 C 0.523438 -22.140625 0.441406 -21.214844 0.441406 -20.171875 C 0.441406 -19.609375 0.402344 -19.046875 0.363281 -18.484375 C 0.320312 -17.921875 0.28125 -17.320312 0.242188 -16.714844 C 0.121094 -15.589844 0.0390625 -14.304688 0 -12.898438 C -0.0390625 -12.175781 -0.0390625 -11.492188 -0.0390625 -10.808594 L -0.0390625 -7.03125 C -0.0390625 -6.46875 -0.0390625 -5.945312 0 -5.464844 C 0 -4.5 0.0390625 -3.898438 0.121094 -3.65625 C 0.199219 -3.253906 0.363281 -2.972656 0.601562 -2.8125 C 0.84375 -2.570312 1.40625 -2.53125 2.289062 -2.613281 C 2.613281 -2.613281 2.894531 -2.730469 3.054688 -2.894531 C 3.214844 -3.054688 3.296875 -3.296875 3.296875 -3.65625 L 3.296875 -4.300781 C 3.296875 -4.539062 3.253906 -4.820312 3.253906 -5.144531 C 3.214844 -5.464844 3.175781 -5.828125 3.175781 -6.226562 C 3.175781 -6.628906 3.175781 -7.113281 3.175781 -7.675781 L 3.175781 -13.941406 C 3.175781 -14.34375 3.175781 -14.667969 3.214844 -14.90625 C 3.214844 -15.347656 3.253906 -15.589844 3.335938 -15.671875 C 3.335938 -15.671875 3.414062 -15.710938 3.578125 -15.792969 C 3.898438 -14.867188 4.140625 -14.144531 4.300781 -13.582031 C 4.460938 -12.9375 4.621094 -12.457031 4.78125 -12.136719 C 4.941406 -11.734375 5.144531 -11.453125 5.304688 -11.332031 C 5.503906 -11.128906 5.828125 -11.011719 6.269531 -11.011719 C 6.75 -10.929688 7.191406 -11.011719 7.59375 -11.25 C 7.957031 -11.453125 8.277344 -11.933594 8.519531 -12.699219 C 9 -14.222656 9.363281 -15.429688 9.601562 -16.3125 C 9.722656 -16.714844 9.84375 -17.078125 9.925781 -17.398438 C 10.003906 -17.679688 10.085938 -17.921875 10.167969 -18.121094 C 10.246094 -18.445312 10.367188 -18.644531 10.488281 -18.765625 C 10.527344 -18.804688 10.648438 -18.84375 10.808594 -18.925781 C 10.808594 -18.644531 10.847656 -18.402344 10.847656 -18.203125 L 10.847656 -15.792969 C 10.847656 -15.628906 10.847656 -15.46875 10.890625 -15.269531 C 10.890625 -14.667969 10.929688 -13.824219 11.011719 -12.777344 C 11.011719 -12.214844 11.050781 -11.691406 11.050781 -11.171875 C 11.050781 -10.609375 11.089844 -10.085938 11.171875 -9.523438 C 11.25 -8.398438 11.332031 -7.3125 11.410156 -6.269531 C 11.453125 -5.707031 11.492188 -5.222656 11.53125 -4.820312 C 11.53125 -4.421875 11.574219 -4.058594 11.613281 -3.777344 C 11.613281 -3.09375 11.894531 -2.652344 12.417969 -2.449219 C 12.898438 -2.210938 13.460938 -2.167969 14.105469 -2.332031 Z M 14.105469 -2.332031 "/></g></g></g><g fill="#fe8d41" fill-opacity="1"><g transform="translate(257.313928, 154.082339)"><g><path d="M 3.578125 -2.691406 L 3.65625 -2.652344 C 3.976562 -2.652344 4.257812 -2.773438 4.421875 -2.933594 C 4.582031 -3.09375 4.703125 -3.335938 4.78125 -3.65625 C 4.863281 -3.976562 4.902344 -4.378906 4.902344 -4.902344 L 4.902344 -6.832031 L 4.863281 -6.832031 L 4.5 -13.460938 L 4.140625 -20.089844 C 4.097656 -20.414062 4.058594 -20.773438 4.058594 -21.09375 C 4.019531 -21.417969 3.976562 -21.777344 3.9375 -22.101562 L 3.777344 -23.066406 C 3.695312 -23.386719 3.65625 -23.707031 3.617188 -24.070312 C 3.578125 -24.191406 3.496094 -24.390625 3.414062 -24.671875 C 3.335938 -24.832031 3.214844 -24.992188 3.054688 -25.152344 C 2.894531 -25.234375 2.652344 -25.316406 2.332031 -25.394531 C 2.050781 -25.394531 1.648438 -25.394531 1.125 -25.316406 C 0.882812 -25.234375 0.683594 -25.152344 0.523438 -25.074219 C 0.363281 -24.953125 0.242188 -24.753906 0.160156 -24.511719 C 0.0820312 -24.308594 0.0390625 -23.949219 0 -23.464844 C -0.0820312 -22.984375 -0.0820312 -22.421875 0 -21.777344 C 0 -21.09375 0.0390625 -20.210938 0.121094 -19.167969 C 0.121094 -18.605469 0.160156 -18.082031 0.160156 -17.519531 C 0.160156 -16.957031 0.199219 -16.394531 0.242188 -15.832031 C 0.242188 -15.230469 0.28125 -14.625 0.28125 -14.0625 C 0.28125 -13.460938 0.320312 -12.859375 0.363281 -12.253906 C 0.363281 -11.050781 0.402344 -9.925781 0.480469 -8.878906 C 0.480469 -7.835938 0.523438 -6.910156 0.601562 -6.109375 C 0.601562 -5.304688 0.644531 -4.742188 0.722656 -4.421875 C 0.761719 -4.019531 0.804688 -3.738281 0.882812 -3.578125 C 0.964844 -3.335938 1.085938 -3.132812 1.324219 -2.972656 C 1.527344 -2.773438 1.808594 -2.652344 2.167969 -2.652344 C 2.570312 -2.570312 3.054688 -2.613281 3.578125 -2.691406 Z M 3.578125 -2.691406 "/></g></g></g><g fill="#fe8d41" fill-opacity="1"><g transform="translate(272.217891, 154.082339)"><g><path d="M 9.804688 -2.371094 L 9.84375 -2.371094 C 10.328125 -2.492188 10.6875 -2.691406 10.929688 -3.011719 C 11.171875 -3.335938 11.332031 -3.738281 11.371094 -4.179688 C 11.492188 -5.304688 11.613281 -6.347656 11.691406 -7.351562 C 11.773438 -8.316406 11.8125 -9.28125 11.894531 -10.167969 C 11.933594 -11.050781 11.972656 -11.894531 11.972656 -12.738281 C 11.972656 -13.582031 11.933594 -14.386719 11.933594 -15.1875 C 11.855469 -16.714844 11.773438 -18.242188 11.691406 -19.769531 C 11.613281 -20.492188 11.574219 -21.257812 11.53125 -22.019531 C 11.492188 -22.78125 11.453125 -23.585938 11.410156 -24.390625 C 11.371094 -24.792969 11.292969 -25.113281 11.171875 -25.273438 C 11.050781 -25.394531 10.769531 -25.476562 10.367188 -25.554688 C 10.046875 -25.554688 9.765625 -25.554688 9.523438 -25.554688 C 9.242188 -25.515625 8.960938 -25.355469 8.679688 -25.113281 C 8.597656 -24.832031 8.597656 -24.632812 8.597656 -24.511719 L 8.597656 -23.910156 C 8.640625 -22.460938 8.679688 -21.136719 8.71875 -19.96875 C 8.71875 -18.765625 8.757812 -17.71875 8.800781 -16.796875 C 8.800781 -14.867188 8.839844 -13.339844 8.921875 -12.214844 C 8.921875 -11.613281 8.960938 -11.089844 8.960938 -10.648438 L 8.960938 -9.5625 C 8.960938 -9.242188 8.921875 -9 8.921875 -8.800781 C 8.921875 -8.558594 8.878906 -8.398438 8.878906 -8.277344 C 8.800781 -7.996094 8.757812 -7.835938 8.71875 -7.835938 C 8.597656 -7.753906 8.519531 -7.714844 8.4375 -7.714844 C 7.957031 -9.160156 7.554688 -10.6875 7.234375 -12.296875 C 7.03125 -13.058594 6.832031 -13.824219 6.671875 -14.585938 C 6.507812 -15.308594 6.347656 -16.074219 6.1875 -16.796875 C 5.867188 -18.242188 5.546875 -19.570312 5.222656 -20.773438 C 4.902344 -21.980469 4.539062 -22.984375 4.140625 -23.746094 C 3.738281 -24.472656 3.296875 -24.992188 2.730469 -25.234375 C 2.167969 -25.476562 1.566406 -25.316406 0.84375 -24.753906 L 0.722656 -24.148438 C 0.683594 -24.027344 0.644531 -23.910156 0.644531 -23.789062 C 0.644531 -23.628906 0.601562 -23.464844 0.5625 -23.265625 C 0.480469 -23.023438 0.441406 -22.78125 0.441406 -22.542969 C 0.402344 -22.300781 0.363281 -21.980469 0.363281 -21.65625 C 0.28125 -20.933594 0.242188 -20.011719 0.242188 -18.886719 C 0.199219 -18.242188 0.160156 -17.640625 0.160156 -17.078125 C 0.160156 -16.515625 0.121094 -15.953125 0.121094 -15.429688 C 0.0820312 -14.867188 0.0390625 -14.34375 0.0390625 -13.78125 C 0.0390625 -13.21875 0.0390625 -12.617188 0.0390625 -12.054688 L 0.0390625 -8.359375 C 0.0390625 -7.714844 0.0390625 -7.03125 0.0390625 -6.308594 C 0.0390625 -5.585938 0.0820312 -4.820312 0.121094 -4.019531 C 0.121094 -3.457031 0.28125 -3.09375 0.601562 -2.933594 C 0.882812 -2.691406 1.164062 -2.613281 1.488281 -2.613281 C 1.808594 -2.613281 2.089844 -2.691406 2.371094 -2.894531 C 2.613281 -3.054688 2.773438 -3.296875 2.851562 -3.617188 C 2.851562 -4.140625 2.894531 -4.703125 2.894531 -5.265625 C 2.894531 -5.828125 2.933594 -6.390625 2.933594 -6.992188 L 2.933594 -8.679688 C 2.933594 -9.203125 2.933594 -9.722656 2.972656 -10.246094 C 2.972656 -10.730469 3.011719 -11.210938 3.011719 -11.652344 C 3.011719 -12.054688 3.054688 -12.457031 3.132812 -12.859375 C 3.214844 -13.542969 3.335938 -14.023438 3.496094 -14.34375 C 3.496094 -14.183594 3.535156 -14.023438 3.617188 -13.824219 C 3.65625 -13.582031 3.695312 -13.460938 3.738281 -13.378906 C 3.976562 -12.417969 4.179688 -11.53125 4.378906 -10.730469 C 4.582031 -9.925781 4.78125 -9.160156 4.984375 -8.4375 C 5.144531 -7.714844 5.34375 -7.03125 5.546875 -6.429688 C 5.707031 -5.828125 5.90625 -5.304688 6.148438 -4.820312 C 6.550781 -3.859375 7.03125 -3.175781 7.59375 -2.730469 C 8.15625 -2.289062 8.878906 -2.167969 9.804688 -2.371094 Z M 9.804688 -2.371094 "/></g></g></g><g fill="#fe8d41" fill-opacity="1"><g transform="translate(294.232376, 154.082339)"><g><path d="M 7.796875 -2.167969 L 8.035156 -2.449219 C 8.757812 -2.53125 9.320312 -2.691406 9.765625 -2.972656 C 10.167969 -3.214844 10.527344 -3.578125 10.769531 -4.058594 C 10.96875 -4.460938 11.128906 -4.941406 11.292969 -5.585938 C 11.371094 -6.148438 11.453125 -6.75 11.53125 -7.394531 C 11.574219 -8.117188 11.574219 -8.800781 11.492188 -9.441406 C 11.410156 -10.085938 11.292969 -10.769531 11.128906 -11.492188 C 10.328125 -11.691406 9.5625 -11.773438 8.878906 -11.691406 C 8.15625 -11.613281 7.472656 -11.410156 6.75 -11.128906 C 6.589844 -11.050781 6.550781 -10.96875 6.550781 -10.808594 C 6.550781 -10.609375 6.589844 -10.488281 6.710938 -10.488281 C 6.871094 -10.367188 7.152344 -10.285156 7.472656 -10.207031 C 7.59375 -10.125 7.714844 -10.085938 7.875 -10.046875 C 8.035156 -10.003906 8.15625 -9.964844 8.316406 -9.925781 C 8.316406 -9.601562 8.359375 -9.160156 8.4375 -8.640625 C 8.4375 -8.15625 8.4375 -7.675781 8.4375 -7.191406 L 8.359375 -6.46875 C 8.316406 -6.226562 8.277344 -5.988281 8.238281 -5.746094 C 8.15625 -5.265625 8.035156 -4.863281 7.875 -4.539062 C 7.554688 -3.976562 7.191406 -3.777344 6.789062 -3.9375 C 6.308594 -4.058594 5.867188 -4.378906 5.464844 -4.941406 C 5.023438 -5.503906 4.621094 -6.226562 4.257812 -7.191406 C 3.859375 -8.078125 3.65625 -9.121094 3.65625 -10.328125 C 3.578125 -11.128906 3.578125 -12.136719 3.65625 -13.339844 C 3.65625 -13.941406 3.695312 -14.546875 3.738281 -15.1875 C 3.777344 -15.792969 3.859375 -16.433594 3.9375 -17.078125 C 4.097656 -18.363281 4.339844 -19.570312 4.660156 -20.695312 C 4.984375 -21.820312 5.382812 -22.703125 5.90625 -23.347656 C 6.390625 -23.023438 6.789062 -22.664062 7.113281 -22.300781 C 7.351562 -21.9375 7.515625 -21.457031 7.59375 -20.894531 C 7.632812 -20.371094 7.753906 -20.011719 7.996094 -19.808594 C 8.238281 -19.570312 8.476562 -19.40625 8.800781 -19.328125 C 9.039062 -19.246094 9.320312 -19.246094 9.644531 -19.328125 C 9.886719 -19.40625 10.085938 -19.527344 10.246094 -19.769531 C 10.890625 -20.8125 10.929688 -21.859375 10.367188 -22.902344 C 9.964844 -23.507812 9.402344 -24.027344 8.640625 -24.472656 C 7.835938 -24.914062 6.953125 -25.152344 6.066406 -25.195312 C 5.101562 -25.234375 4.21875 -25.035156 3.414062 -24.550781 C 2.53125 -24.070312 1.886719 -23.183594 1.488281 -21.980469 C 1.246094 -21.257812 0.964844 -20.25 0.644531 -19.046875 C 0.320312 -17.761719 0.0820312 -16.355469 -0.0820312 -14.828125 C -0.242188 -13.300781 -0.28125 -11.734375 -0.199219 -10.167969 C -0.121094 -8.558594 0.199219 -7.152344 0.761719 -5.945312 C 1.324219 -4.660156 2.167969 -3.695312 3.296875 -2.972656 C 4.421875 -2.25 5.945312 -1.96875 7.796875 -2.167969 Z M 7.796875 -2.167969 "/></g></g></g><g fill="#ffffff" fill-opacity="1"><g transform="translate(44.238489, 153.035742)"><g><path d="M 22.28125 12.25 C 19.3125 12.25 17.113281 11.070312 15.6875 8.71875 C 14.269531 6.375 13.5625 3.21875 13.5625 -0.75 L 13.5625 -17.171875 C 13.5625 -20.578125 12.925781 -23.316406 11.65625 -25.390625 C 10.382812 -27.460938 8.140625 -28.59375 4.921875 -28.78125 L 4.921875 -29.71875 C 7.273438 -29.84375 9.300781 -30.769531 11 -32.5 C 12.707031 -34.226562 13.5625 -37.171875 13.5625 -41.328125 L 13.5625 -57.671875 C 13.5625 -61.816406 14.269531 -65.003906 15.6875 -67.234375 C 17.113281 -69.460938 19.25 -70.578125 22.09375 -70.578125 L 24.234375 -70.578125 L 24.234375 -69.640625 L 22.75 -69.640625 C 20.332031 -69.640625 18.628906 -68.632812 17.640625 -66.625 C 16.648438 -64.613281 16.15625 -61.410156 16.15625 -57.015625 L 16.15625 -41.140625 C 16.15625 -37.859375 15.566406 -35.253906 14.390625 -33.328125 C 13.210938 -31.410156 11.171875 -30.113281 8.265625 -29.4375 L 8.265625 -29.25 C 10.921875 -28.695312 12.898438 -27.394531 14.203125 -25.34375 C 15.503906 -23.300781 16.15625 -20.671875 16.15625 -17.453125 L 16.15625 -1.203125 C 16.15625 3.316406 16.679688 6.535156 17.734375 8.453125 C 18.785156 10.367188 20.457031 11.328125 22.75 11.328125 L 24.234375 11.328125 L 24.234375 12.25 Z M 22.28125 12.25 "/></g></g></g><g fill="#ffffff" fill-opacity="1"><g transform="translate(301.600384, 153.911826)"><g><path d="M 4.921875 12.25 L 4.921875 11.328125 L 6.40625 11.328125 C 8.695312 11.328125 10.367188 10.367188 11.421875 8.453125 C 12.472656 6.535156 13 3.316406 13 -1.203125 L 13 -17.453125 C 13 -20.671875 13.648438 -23.300781 14.953125 -25.34375 C 16.253906 -27.394531 18.234375 -28.695312 20.890625 -29.25 L 20.890625 -29.4375 C 17.984375 -30.113281 15.941406 -31.410156 14.765625 -33.328125 C 13.585938 -35.253906 13 -37.859375 13 -41.140625 L 13 -57.015625 C 13 -61.410156 12.503906 -64.613281 11.515625 -66.625 C 10.523438 -68.632812 8.820312 -69.640625 6.40625 -69.640625 L 4.921875 -69.640625 L 4.921875 -70.578125 L 7.0625 -70.578125 C 9.90625 -70.578125 12.035156 -69.460938 13.453125 -67.234375 C 14.878906 -65.003906 15.59375 -61.816406 15.59375 -57.671875 L 15.59375 -41.328125 C 15.59375 -37.171875 16.441406 -34.226562 18.140625 -32.5 C 19.847656 -30.769531 21.878906 -29.84375 24.234375 -29.71875 L 24.234375 -28.78125 C 21.015625 -28.59375 18.769531 -27.460938 17.5 -25.390625 C 16.226562 -23.316406 15.59375 -20.578125 15.59375 -17.171875 L 15.59375 -0.75 C 15.59375 3.21875 14.878906 6.375 13.453125 8.71875 C 12.035156 11.070312 9.84375 12.25 6.875 12.25 Z M 4.921875 12.25 "/></g></g></g></svg>