<svg xmlns="http://www.w3.org/2000/svg" xmlns:xlink="http://www.w3.org/1999/xlink" width="500" zoomAndPan="magnify" viewBox="0 0 375 374.999991" height="500" preserveAspectRatio="xMidYMid meet" version="1.0"><defs><g/><clipPath id="8b1af3f961"><path d="M 194 234 L 262 234 L 262 302.488281 L 194 302.488281 Z M 194 234 " clip-rule="nonzero"/></clipPath><clipPath id="a122413fe3"><path d="M 113.03125 139.738281 L 243 139.738281 L 243 270 L 113.03125 270 Z M 113.03125 139.738281 " clip-rule="nonzero"/></clipPath></defs><rect x="-37.5" width="450" fill="#ffffff" y="-37.499999" height="449.999989" fill-opacity="1"/><rect x="-37.5" width="450" fill="#000000" y="-37.499999" height="449.999989" fill-opacity="1"/><g clip-path="url(#8b1af3f961)"><path fill="#ffffff" d="M 194.046875 234.839844 L 213.503906 292.171875 L 224.933594 275.070312 C 225.226562 274.628906 225.710938 274.355469 226.242188 274.328125 C 226.269531 274.328125 226.296875 274.328125 226.320312 274.328125 C 226.820312 274.328125 227.296875 274.550781 227.617188 274.941406 L 250.292969 302.734375 L 261.941406 291.089844 L 234.148438 268.410156 C 233.738281 268.074219 233.511719 267.5625 233.535156 267.035156 C 233.5625 266.503906 233.835938 266.019531 234.277344 265.722656 L 251.378906 254.296875 L 230.132812 247.085938 L 230.128906 247.085938 L 194.046875 234.839844 " fill-opacity="1" fill-rule="nonzero"/></g><g clip-path="url(#a122413fe3)"><path fill="#ffffff" d="M 180.398438 205.664062 L 180.398438 192.015625 C 180.398438 191.09375 181.144531 190.34375 182.070312 190.34375 L 188.914062 190.34375 C 189.835938 190.34375 190.585938 191.09375 190.585938 192.015625 L 190.585938 205.527344 C 190.585938 206.800781 190.839844 207.722656 191.339844 208.265625 C 191.644531 208.597656 192.183594 209.03125 193.394531 209.03125 C 194.621094 209.03125 195.167969 208.609375 195.46875 208.292969 C 195.957031 207.789062 196.203125 206.914062 196.203125 205.703125 L 196.203125 192.015625 C 196.203125 191.09375 196.949219 190.34375 197.875 190.34375 L 204.71875 190.34375 C 205.640625 190.34375 206.390625 191.09375 206.390625 192.015625 L 206.390625 205.492188 C 206.390625 209.753906 205.199219 213.023438 202.851562 215.207031 C 200.539062 217.363281 197.332031 218.453125 193.324219 218.453125 C 189.335938 218.453125 186.15625 217.367188 183.875 215.21875 C 181.566406 213.046875 180.398438 209.832031 180.398438 205.664062 Z M 178.601562 188.152344 L 169.9375 221.871094 C 169.757812 222.585938 169.121094 223.097656 168.382812 223.125 L 163.363281 223.316406 C 163.339844 223.316406 163.320312 223.316406 163.296875 223.316406 C 162.796875 223.316406 162.320312 223.089844 162 222.699219 C 161.667969 222.289062 161.546875 221.746094 161.675781 221.238281 L 170.117188 187.527344 C 170.300781 186.804688 170.933594 186.289062 171.679688 186.261719 L 176.917969 186.066406 C 177.441406 186.023438 177.953125 186.277344 178.285156 186.6875 C 178.613281 187.097656 178.734375 187.640625 178.601562 188.152344 Z M 160.015625 216.328125 C 160.015625 217.253906 159.269531 218 158.34375 218 L 151.574219 218 C 150.648438 218 149.902344 217.253906 149.902344 216.328125 L 149.902344 192.015625 C 149.902344 191.09375 150.648438 190.34375 151.574219 190.34375 L 158.34375 190.34375 C 159.269531 190.34375 160.015625 191.09375 160.015625 192.015625 Z M 147.65625 205.492188 C 147.65625 209.753906 146.464844 213.023438 144.117188 215.207031 C 141.804688 217.363281 138.597656 218.453125 134.589844 218.453125 C 130.601562 218.453125 127.421875 217.367188 125.144531 215.21875 C 122.835938 213.046875 121.664062 209.832031 121.664062 205.664062 L 121.664062 192.015625 C 121.664062 191.09375 122.410156 190.34375 123.335938 190.34375 L 130.179688 190.34375 C 131.101562 190.34375 131.847656 191.09375 131.847656 192.015625 L 131.847656 205.527344 C 131.847656 206.800781 132.105469 207.722656 132.605469 208.265625 C 132.910156 208.59375 133.449219 209.03125 134.660156 209.03125 C 135.582031 209.03125 136.261719 208.789062 136.734375 208.296875 C 137.222656 207.789062 137.46875 206.914062 137.46875 205.703125 L 137.46875 192.015625 C 137.46875 191.09375 138.214844 190.34375 139.140625 190.34375 L 145.984375 190.34375 C 146.90625 190.34375 147.65625 191.09375 147.65625 192.015625 Z M 207.410156 215.394531 L 215.117188 203.960938 L 207.753906 192.945312 C 207.410156 192.433594 207.375 191.773438 207.667969 191.226562 C 207.957031 190.683594 208.523438 190.34375 209.140625 190.34375 L 216.886719 190.34375 C 217.460938 190.34375 217.996094 190.640625 218.300781 191.125 L 221.199219 195.730469 L 224.125 191.121094 C 224.433594 190.636719 224.964844 190.34375 225.535156 190.34375 L 233.109375 190.34375 C 233.726562 190.34375 234.292969 190.683594 234.582031 191.230469 C 234.875 191.777344 234.839844 192.433594 234.496094 192.949219 L 227.132812 203.894531 L 234.84375 215.398438 C 235.1875 215.914062 235.222656 216.574219 234.929688 217.117188 C 234.640625 217.660156 234.074219 218 233.457031 218 L 225.710938 218 C 225.136719 218 224.605469 217.710938 224.300781 217.226562 L 221.050781 212.109375 L 217.773438 217.230469 C 217.46875 217.710938 216.9375 218 216.367188 218 L 208.792969 218 C 208.175781 218 207.609375 217.660156 207.316406 217.113281 C 207.027344 216.570312 207.0625 215.90625 207.410156 215.394531 Z M 190.195312 230.988281 C 190.644531 230.535156 191.3125 230.382812 191.914062 230.585938 L 230.066406 243.53125 C 238.519531 232.242188 242.976562 218.835938 242.976562 204.691406 C 242.976562 168.875 213.839844 139.738281 178.027344 139.738281 C 142.214844 139.738281 113.078125 168.875 113.078125 204.691406 C 113.078125 240.503906 142.214844 269.640625 178.027344 269.640625 C 185.894531 269.640625 193.585938 268.238281 200.914062 265.476562 L 189.792969 232.707031 C 189.589844 232.105469 189.742188 231.4375 190.195312 230.988281 " fill-opacity="1" fill-rule="nonzero"/></g><g fill="#fe8d41" fill-opacity="1"><g transform="translate(46.827859, 107.184757)"><g><path d="M 8.03125 -0.460938 C 8.125 -0.460938 8.398438 -0.597656 8.859375 -0.871094 C 9.226562 -1.054688 9.683594 -1.378906 10.28125 -1.835938 C 10.785156 -2.203125 11.339844 -2.753906 11.980469 -3.488281 C 12.53125 -4.132812 13.082031 -4.957031 13.632812 -5.96875 C 14.136719 -6.976562 14.550781 -7.894531 14.917969 -8.765625 C 15.285156 -9.640625 15.5625 -10.464844 15.789062 -11.246094 C 16.203125 -12.808594 16.480469 -14.230469 16.570312 -15.515625 C 16.617188 -16.15625 16.617188 -16.847656 16.617188 -17.488281 C 16.617188 -18.132812 16.570312 -18.773438 16.523438 -19.417969 C 16.433594 -20.058594 16.386719 -20.746094 16.339844 -21.480469 C 16.296875 -22.21875 16.25 -22.953125 16.203125 -23.777344 C 16.15625 -25.015625 15.882812 -26.164062 15.421875 -27.21875 C 14.964844 -28.183594 14.460938 -29.054688 13.816406 -29.835938 C 13.21875 -30.523438 12.578125 -31.121094 11.933594 -31.625 C 11.292969 -32.039062 10.785156 -32.316406 10.375 -32.5 C 8.90625 -32.957031 7.4375 -33.234375 5.96875 -33.324219 C 4.542969 -33.417969 3.074219 -33.140625 1.515625 -32.542969 C 1.148438 -32.359375 0.871094 -32.222656 0.6875 -32.132812 C 0.503906 -31.992188 0.367188 -31.71875 0.277344 -31.351562 C 0.183594 -30.984375 0.136719 -30.433594 0.136719 -29.699219 C 0.136719 -29.332031 0.136719 -28.871094 0.136719 -28.367188 C 0.136719 -27.863281 0.183594 -27.265625 0.230469 -26.625 C 0.230469 -25.933594 0.277344 -25.15625 0.320312 -24.328125 C 0.320312 -23.503906 0.367188 -22.585938 0.460938 -21.574219 C 0.550781 -19.507812 0.644531 -17.03125 0.734375 -14.09375 L 0.734375 -13.816406 C 0.734375 -13.632812 0.734375 -13.449219 0.78125 -13.175781 C 0.78125 -12.625 0.828125 -11.933594 0.917969 -11.109375 C 0.917969 -10.648438 0.964844 -10.234375 0.964844 -9.777344 C 0.964844 -9.316406 1.011719 -8.859375 1.054688 -8.398438 C 1.054688 -7.894531 1.101562 -7.390625 1.101562 -6.929688 C 1.101562 -6.472656 1.148438 -6.011719 1.195312 -5.554688 C 1.195312 -4.683594 1.238281 -3.902344 1.332031 -3.167969 C 1.332031 -2.800781 1.378906 -2.523438 1.378906 -2.296875 L 1.378906 -1.789062 C 1.421875 -1.238281 1.515625 -0.828125 1.699219 -0.597656 C 1.882812 -0.320312 2.203125 -0.136719 2.664062 -0.046875 C 3.121094 0.046875 3.765625 0.046875 4.683594 -0.046875 C 5.460938 -0.136719 6.5625 -0.277344 8.03125 -0.460938 Z M 5.691406 -2.890625 L 5.738281 -2.847656 C 5.644531 -3.535156 5.601562 -4.316406 5.554688 -5.1875 C 5.507812 -6.011719 5.507812 -6.976562 5.507812 -8.078125 C 5.507812 -10.191406 5.460938 -12.484375 5.371094 -15.054688 C 5.277344 -17.535156 5.140625 -20.195312 4.957031 -23.042969 C 4.867188 -24.421875 4.726562 -25.796875 4.542969 -27.175781 C 4.359375 -28.550781 4.132812 -29.929688 3.902344 -31.304688 C 4.820312 -31.488281 5.691406 -31.488281 6.5625 -31.214844 C 7.34375 -30.9375 8.03125 -30.480469 8.675781 -29.835938 C 9.226562 -29.195312 9.730469 -28.460938 10.191406 -27.542969 C 10.375 -27.082031 10.558594 -26.667969 10.695312 -26.210938 C 10.832031 -25.75 10.96875 -25.292969 11.0625 -24.832031 C 11.199219 -24.097656 11.339844 -23.410156 11.429688 -22.769531 C 11.523438 -22.125 11.566406 -21.480469 11.660156 -20.839844 C 11.707031 -20.195312 11.75 -19.554688 11.796875 -19.003906 C 11.796875 -18.453125 11.84375 -17.902344 11.84375 -17.398438 L 11.84375 -16.019531 C 11.84375 -15.605469 11.796875 -15.238281 11.796875 -14.917969 C 11.75 -14.550781 11.75 -14.320312 11.75 -14.136719 L 11.75 -13.816406 C 11.613281 -12.992188 11.382812 -11.933594 11.0625 -10.742188 C 10.695312 -9.546875 10.28125 -8.398438 9.824219 -7.296875 C 9.273438 -6.195312 8.675781 -5.234375 8.03125 -4.40625 C 7.296875 -3.582031 6.519531 -3.074219 5.691406 -2.890625 Z M 5.691406 -2.890625 "/></g></g></g><g fill="#fe8d41" fill-opacity="1"><g transform="translate(71.381738, 107.184757)"><g><path d="M 7.804688 -3.03125 L 7.988281 -3.121094 C 8.078125 -3.121094 8.214844 -3.214844 8.398438 -3.398438 C 8.492188 -3.488281 8.628906 -3.582031 8.8125 -3.71875 C 8.582031 -4.039062 8.308594 -4.269531 7.988281 -4.453125 C 7.621094 -4.589844 7.296875 -4.683594 6.976562 -4.726562 C 6.792969 -4.726562 6.609375 -4.773438 6.425781 -4.773438 L 5.875 -4.773438 C 5.507812 -4.773438 5.140625 -4.820312 4.773438 -5.003906 L 4.726562 -15.332031 C 5.234375 -15.378906 5.691406 -15.421875 6.105469 -15.46875 C 6.472656 -15.46875 6.839844 -15.515625 7.207031 -15.5625 C 7.527344 -15.5625 7.804688 -15.605469 8.078125 -15.652344 C 8.308594 -15.652344 8.539062 -15.699219 8.722656 -15.789062 C 9.042969 -15.882812 9.273438 -15.972656 9.457031 -16.15625 C 9.546875 -16.25 9.640625 -16.433594 9.640625 -16.707031 C 9.457031 -16.890625 9.226562 -17.074219 8.949219 -17.167969 C 8.722656 -17.214844 8.398438 -17.257812 7.988281 -17.351562 C 7.804688 -17.351562 7.574219 -17.398438 7.34375 -17.398438 L 6.65625 -17.398438 C 6.378906 -17.398438 6.105469 -17.398438 5.785156 -17.441406 C 5.460938 -17.441406 5.140625 -17.488281 4.773438 -17.582031 C 4.683594 -17.949219 4.636719 -18.359375 4.636719 -18.820312 C 4.589844 -19.234375 4.542969 -19.691406 4.542969 -20.152344 C 4.5 -20.609375 4.453125 -21.023438 4.453125 -21.480469 C 4.453125 -21.941406 4.453125 -22.355469 4.453125 -22.8125 L 4.453125 -25.15625 C 4.453125 -25.476562 4.453125 -25.796875 4.453125 -26.074219 C 4.453125 -26.347656 4.5 -26.578125 4.542969 -26.761719 L 5.738281 -26.761719 C 5.828125 -26.761719 5.96875 -26.761719 6.152344 -26.808594 C 6.976562 -26.898438 7.574219 -27.035156 7.847656 -27.21875 C 8.125 -27.402344 8.214844 -27.585938 8.125 -27.769531 C 8.03125 -27.953125 7.804688 -28.136719 7.480469 -28.320312 C 7.207031 -28.460938 6.886719 -28.550781 6.519531 -28.644531 C 5.691406 -28.734375 5.003906 -28.828125 4.359375 -28.871094 C 3.71875 -28.917969 3.214844 -28.964844 2.800781 -28.964844 C 1.929688 -28.964844 1.285156 -28.828125 0.871094 -28.597656 C 0.414062 -28.320312 0.183594 -27.910156 0.09375 -27.359375 C 0 -26.714844 -0.046875 -25.933594 -0.046875 -25.015625 C -0.136719 -21.527344 -0.09375 -18.132812 0.09375 -14.828125 C 0.183594 -11.429688 0.414062 -8.03125 0.78125 -4.636719 C 0.871094 -3.71875 1.285156 -3.214844 2.019531 -3.121094 C 2.480469 -3.03125 2.984375 -2.984375 3.441406 -2.9375 C 3.902344 -2.847656 4.40625 -2.800781 4.910156 -2.753906 C 5.828125 -2.664062 6.792969 -2.753906 7.804688 -3.03125 Z M 7.804688 -3.03125 "/></g></g></g><g fill="#fe8d41" fill-opacity="1"><g transform="translate(89.05116, 107.184757)"><g><path d="M 3.671875 -2.753906 L 3.949219 -2.847656 C 4.40625 -2.753906 5.050781 -2.707031 5.875 -2.707031 C 6.609375 -2.707031 7.390625 -2.800781 8.214844 -3.074219 C 8.996094 -3.304688 9.683594 -3.671875 10.28125 -4.222656 C 10.832031 -4.773438 11.199219 -5.507812 11.382812 -6.425781 C 11.476562 -7.160156 11.523438 -7.847656 11.429688 -8.492188 C 11.339844 -9.042969 11.109375 -9.640625 10.785156 -10.28125 C 10.417969 -10.832031 10.007812 -11.476562 9.546875 -12.210938 C 9.273438 -12.53125 8.996094 -12.898438 8.675781 -13.3125 C 8.355469 -13.726562 8.03125 -14.183594 7.664062 -14.734375 C 6.929688 -15.746094 6.289062 -16.617188 5.738281 -17.351562 C 5.09375 -18.085938 4.636719 -18.867188 4.359375 -19.601562 C 3.992188 -20.425781 3.808594 -21.253906 3.71875 -22.125 C 3.625 -23.042969 3.71875 -24.191406 4.039062 -25.566406 C 4.175781 -26.164062 4.359375 -26.53125 4.636719 -26.667969 C 4.910156 -26.808594 5.1875 -26.851562 5.460938 -26.761719 C 5.738281 -26.667969 5.96875 -26.484375 6.242188 -26.257812 C 6.425781 -25.980469 6.5625 -25.75 6.65625 -25.566406 C 6.703125 -25.382812 6.746094 -25.199219 6.746094 -25.015625 L 6.746094 -24.464844 C 6.746094 -24.238281 6.746094 -23.960938 6.792969 -23.640625 C 7.4375 -23.226562 7.988281 -23.089844 8.492188 -23.226562 C 8.949219 -23.320312 9.363281 -23.59375 9.640625 -24.054688 C 9.914062 -24.421875 10.050781 -24.925781 10.050781 -25.523438 C 10.050781 -26.074219 9.867188 -26.53125 9.5 -26.992188 C 8.675781 -27.816406 7.710938 -28.414062 6.609375 -28.78125 C 5.507812 -29.054688 4.359375 -29.195312 3.167969 -29.101562 C 2.339844 -29.011719 1.746094 -28.78125 1.285156 -28.320312 C 0.78125 -27.816406 0.414062 -27.21875 0.230469 -26.578125 C -0.046875 -25.84375 -0.183594 -25.109375 -0.183594 -24.328125 C -0.277344 -23.503906 -0.277344 -22.722656 -0.183594 -21.988281 C -0.183594 -21.253906 -0.09375 -20.609375 0.09375 -20.058594 C 0.230469 -19.460938 0.367188 -19.050781 0.503906 -18.867188 C 0.828125 -18.359375 1.148438 -17.855469 1.421875 -17.398438 C 1.699219 -16.890625 2.019531 -16.386719 2.296875 -15.882812 C 2.847656 -14.871094 3.488281 -13.910156 4.316406 -13.035156 C 5.324219 -11.933594 6.105469 -10.832031 6.703125 -9.730469 C 7.253906 -8.675781 7.480469 -7.621094 7.390625 -6.519531 C 7.296875 -5.785156 7.113281 -5.324219 6.839844 -5.050781 C 6.519531 -4.773438 5.921875 -4.636719 5.050781 -4.589844 C 4.683594 -4.773438 4.453125 -5.050781 4.359375 -5.417969 L 3.949219 -6.378906 C 3.488281 -7.160156 2.890625 -7.574219 2.15625 -7.664062 C 1.421875 -7.664062 0.78125 -7.480469 0.277344 -7.023438 C 0.320312 -6.746094 0.367188 -6.519531 0.414062 -6.289062 C 0.414062 -6.058594 0.460938 -5.828125 0.550781 -5.601562 C 0.644531 -5.09375 0.78125 -4.683594 1.011719 -4.359375 C 1.195312 -3.992188 1.515625 -3.671875 1.972656 -3.398438 C 2.433594 -3.074219 2.984375 -2.847656 3.671875 -2.753906 Z M 3.671875 -2.753906 "/></g></g></g><g fill="#fe8d41" fill-opacity="1"><g transform="translate(108.556442, 107.184757)"><g><path d="M 4.085938 -3.074219 L 4.175781 -3.03125 C 4.542969 -3.03125 4.867188 -3.167969 5.050781 -3.351562 C 5.234375 -3.535156 5.371094 -3.808594 5.460938 -4.175781 C 5.554688 -4.542969 5.601562 -5.003906 5.601562 -5.601562 L 5.601562 -7.804688 L 5.554688 -7.804688 L 4.726562 -22.953125 C 4.683594 -23.320312 4.636719 -23.730469 4.636719 -24.097656 C 4.589844 -24.464844 4.542969 -24.878906 4.5 -25.246094 L 4.316406 -26.347656 C 4.222656 -26.714844 4.175781 -27.082031 4.132812 -27.496094 C 4.085938 -27.632812 3.992188 -27.863281 3.902344 -28.183594 C 3.808594 -28.367188 3.671875 -28.550781 3.488281 -28.734375 C 3.304688 -28.828125 3.03125 -28.917969 2.664062 -29.011719 C 2.339844 -29.011719 1.882812 -29.011719 1.285156 -28.917969 C 1.011719 -28.828125 0.78125 -28.734375 0.597656 -28.644531 C 0.414062 -28.503906 0.277344 -28.277344 0.183594 -28 C 0.09375 -27.769531 0.046875 -27.359375 0 -26.808594 C -0.09375 -26.257812 -0.09375 -25.613281 0 -24.878906 C 0 -24.097656 0.046875 -23.089844 0.136719 -21.894531 C 0.136719 -21.253906 0.183594 -20.65625 0.183594 -20.011719 C 0.183594 -19.371094 0.230469 -18.726562 0.277344 -18.085938 C 0.277344 -17.398438 0.320312 -16.707031 0.320312 -16.066406 C 0.320312 -15.378906 0.367188 -14.6875 0.414062 -14 C 0.414062 -12.625 0.460938 -11.339844 0.550781 -10.144531 C 0.550781 -8.949219 0.597656 -7.894531 0.6875 -6.976562 C 0.6875 -6.058594 0.734375 -5.417969 0.828125 -5.050781 C 0.871094 -4.589844 0.917969 -4.269531 1.011719 -4.085938 C 1.101562 -3.808594 1.238281 -3.582031 1.515625 -3.398438 C 1.746094 -3.167969 2.066406 -3.03125 2.480469 -3.03125 C 2.9375 -2.9375 3.488281 -2.984375 4.085938 -3.074219 Z M 4.085938 -3.074219 "/></g></g></g><g fill="#fe8d41" fill-opacity="1"><g transform="translate(122.095197, 107.184757)"><g><path d="M 8.90625 -2.480469 L 9.179688 -2.800781 C 10.007812 -2.890625 10.648438 -3.074219 11.15625 -3.398438 C 11.613281 -3.671875 12.027344 -4.085938 12.300781 -4.636719 C 12.53125 -5.09375 12.714844 -5.644531 12.898438 -6.378906 C 12.992188 -7.023438 13.082031 -7.710938 13.175781 -8.445312 C 13.21875 -9.273438 13.21875 -10.050781 13.128906 -10.785156 C 13.035156 -11.523438 12.898438 -12.300781 12.714844 -13.128906 C 11.796875 -13.359375 10.925781 -13.449219 10.144531 -13.359375 C 9.316406 -13.265625 8.539062 -13.035156 7.710938 -12.714844 C 7.527344 -12.625 7.480469 -12.53125 7.480469 -12.347656 C 7.480469 -12.117188 7.527344 -11.980469 7.664062 -11.980469 C 7.847656 -11.84375 8.171875 -11.75 8.539062 -11.660156 C 8.675781 -11.566406 8.8125 -11.523438 8.996094 -11.476562 C 9.179688 -11.429688 9.316406 -11.382812 9.5 -11.339844 C 9.5 -10.96875 9.546875 -10.464844 9.640625 -9.867188 C 9.640625 -9.316406 9.640625 -8.765625 9.640625 -8.214844 L 9.546875 -7.390625 C 9.5 -7.113281 9.457031 -6.839844 9.410156 -6.5625 C 9.316406 -6.011719 9.179688 -5.554688 8.996094 -5.1875 C 8.628906 -4.542969 8.214844 -4.316406 7.757812 -4.5 C 7.207031 -4.636719 6.703125 -5.003906 6.242188 -5.644531 C 5.738281 -6.289062 5.277344 -7.113281 4.867188 -8.214844 C 4.40625 -9.226562 4.175781 -10.417969 4.175781 -11.796875 C 4.085938 -12.714844 4.085938 -13.863281 4.175781 -15.238281 C 4.175781 -15.929688 4.222656 -16.617188 4.269531 -17.351562 C 4.316406 -18.039062 4.40625 -18.773438 4.5 -19.507812 C 4.683594 -20.976562 4.957031 -22.355469 5.324219 -23.640625 C 5.691406 -24.925781 6.152344 -25.933594 6.746094 -26.667969 C 7.296875 -26.300781 7.757812 -25.890625 8.125 -25.476562 C 8.398438 -25.0625 8.582031 -24.511719 8.675781 -23.871094 C 8.722656 -23.273438 8.859375 -22.859375 9.132812 -22.628906 C 9.410156 -22.355469 9.683594 -22.171875 10.050781 -22.078125 C 10.328125 -21.988281 10.648438 -21.988281 11.015625 -22.078125 C 11.292969 -22.171875 11.523438 -22.308594 11.707031 -22.585938 C 12.441406 -23.777344 12.484375 -24.972656 11.84375 -26.164062 C 11.382812 -26.851562 10.742188 -27.449219 9.867188 -27.953125 C 8.949219 -28.460938 7.941406 -28.734375 6.929688 -28.78125 C 5.828125 -28.828125 4.820312 -28.597656 3.902344 -28.046875 C 2.890625 -27.496094 2.15625 -26.484375 1.699219 -25.109375 C 1.421875 -24.28125 1.101562 -23.136719 0.734375 -21.757812 C 0.367188 -20.289062 0.09375 -18.683594 -0.09375 -16.9375 C -0.277344 -15.195312 -0.320312 -13.402344 -0.230469 -11.613281 C -0.136719 -9.777344 0.230469 -8.171875 0.871094 -6.792969 C 1.515625 -5.324219 2.480469 -4.222656 3.765625 -3.398438 C 5.050781 -2.570312 6.792969 -2.25 8.90625 -2.480469 Z M 8.90625 -2.480469 "/></g></g></g><g fill="#fe8d41" fill-opacity="1"><g transform="translate(143.298649, 107.184757)"><g><path d="M 11.199219 -2.707031 L 11.246094 -2.707031 C 11.796875 -2.847656 12.210938 -3.074219 12.484375 -3.441406 C 12.761719 -3.808594 12.945312 -4.269531 12.992188 -4.773438 C 13.128906 -6.058594 13.265625 -7.253906 13.359375 -8.398438 C 13.449219 -9.5 13.496094 -10.601562 13.585938 -11.613281 C 13.632812 -12.625 13.679688 -13.585938 13.679688 -14.550781 C 13.679688 -15.515625 13.632812 -16.433594 13.632812 -17.351562 C 13.542969 -19.09375 13.449219 -20.839844 13.359375 -22.585938 C 13.265625 -23.410156 13.21875 -24.28125 13.175781 -25.15625 C 13.128906 -26.027344 13.082031 -26.945312 13.035156 -27.863281 C 12.992188 -28.320312 12.898438 -28.6875 12.761719 -28.871094 C 12.625 -29.011719 12.300781 -29.101562 11.84375 -29.195312 C 11.476562 -29.195312 11.15625 -29.195312 10.878906 -29.195312 C 10.558594 -29.148438 10.234375 -28.964844 9.914062 -28.6875 C 9.824219 -28.367188 9.824219 -28.136719 9.824219 -28 L 9.824219 -27.3125 C 9.867188 -25.660156 9.914062 -24.144531 9.960938 -22.8125 C 9.960938 -21.4375 10.007812 -20.242188 10.050781 -19.1875 C 10.050781 -16.984375 10.097656 -15.238281 10.191406 -13.953125 C 10.191406 -13.265625 10.234375 -12.667969 10.234375 -12.164062 L 10.234375 -10.925781 C 10.234375 -10.558594 10.191406 -10.28125 10.191406 -10.050781 C 10.191406 -9.777344 10.144531 -9.59375 10.144531 -9.457031 C 10.050781 -9.132812 10.007812 -8.949219 9.960938 -8.949219 C 9.824219 -8.859375 9.730469 -8.8125 9.640625 -8.8125 C 9.089844 -10.464844 8.628906 -12.210938 8.261719 -14.046875 C 8.03125 -14.917969 7.804688 -15.789062 7.621094 -16.664062 C 7.4375 -17.488281 7.253906 -18.359375 7.070312 -19.1875 C 6.703125 -20.839844 6.335938 -22.355469 5.96875 -23.730469 C 5.601562 -25.109375 5.1875 -26.257812 4.726562 -27.128906 C 4.269531 -27.953125 3.765625 -28.550781 3.121094 -28.828125 C 2.480469 -29.101562 1.789062 -28.917969 0.964844 -28.277344 L 0.828125 -27.585938 C 0.78125 -27.449219 0.734375 -27.3125 0.734375 -27.175781 C 0.734375 -26.992188 0.6875 -26.808594 0.644531 -26.578125 C 0.550781 -26.300781 0.503906 -26.027344 0.503906 -25.75 C 0.460938 -25.476562 0.414062 -25.109375 0.414062 -24.742188 C 0.320312 -23.914062 0.277344 -22.859375 0.277344 -21.574219 C 0.230469 -20.839844 0.183594 -20.152344 0.183594 -19.507812 C 0.183594 -18.867188 0.136719 -18.222656 0.136719 -17.625 C 0.09375 -16.984375 0.046875 -16.386719 0.046875 -15.746094 C 0.046875 -15.101562 0.046875 -14.414062 0.046875 -13.769531 L 0.046875 -9.546875 C 0.046875 -8.8125 0.046875 -8.03125 0.046875 -7.207031 C 0.046875 -6.378906 0.09375 -5.507812 0.136719 -4.589844 C 0.136719 -3.949219 0.320312 -3.535156 0.6875 -3.351562 C 1.011719 -3.074219 1.332031 -2.984375 1.699219 -2.984375 C 2.066406 -2.984375 2.386719 -3.074219 2.707031 -3.304688 C 2.984375 -3.488281 3.167969 -3.765625 3.257812 -4.132812 C 3.257812 -4.726562 3.304688 -5.371094 3.304688 -6.011719 C 3.304688 -6.65625 3.351562 -7.296875 3.351562 -7.988281 L 3.351562 -9.914062 C 3.351562 -10.511719 3.351562 -11.109375 3.398438 -11.707031 C 3.398438 -12.257812 3.441406 -12.808594 3.441406 -13.3125 C 3.441406 -13.769531 3.488281 -14.230469 3.582031 -14.6875 C 3.671875 -15.46875 3.808594 -16.019531 3.992188 -16.386719 C 3.992188 -16.203125 4.039062 -16.019531 4.132812 -15.789062 C 4.175781 -15.515625 4.222656 -15.378906 4.269531 -15.285156 C 4.542969 -14.183594 4.773438 -13.175781 5.003906 -12.257812 C 5.234375 -11.339844 5.460938 -10.464844 5.691406 -9.640625 C 5.875 -8.8125 6.105469 -8.03125 6.335938 -7.34375 C 6.519531 -6.65625 6.746094 -6.058594 7.023438 -5.507812 C 7.480469 -4.40625 8.03125 -3.625 8.675781 -3.121094 C 9.316406 -2.617188 10.144531 -2.480469 11.199219 -2.707031 Z M 11.199219 -2.707031 "/></g></g></g><g fill="#fe8d41" fill-opacity="1"><g transform="translate(164.96106, 107.184757)"><g/></g></g><g fill="#fe8d41" fill-opacity="1"><g transform="translate(172.946351, 107.184757)"><g><path d="M 2.15625 0.460938 L 2.339844 -0.046875 C 2.890625 -0.09375 3.214844 -0.414062 3.257812 -1.054688 C 3.304688 -1.746094 3.351562 -2.433594 3.441406 -3.121094 C 3.535156 -3.765625 3.625 -4.453125 3.71875 -5.1875 C 3.902344 -6.5625 4.039062 -7.941406 4.132812 -9.363281 C 4.132812 -9.59375 4.175781 -9.914062 4.175781 -10.28125 L 4.175781 -16.890625 C 4.175781 -17.535156 4.175781 -18.175781 4.222656 -18.910156 C 4.222656 -19.601562 4.269531 -20.289062 4.269531 -20.929688 C 4.269531 -21.574219 4.316406 -22.171875 4.40625 -22.8125 C 4.453125 -23.410156 4.5 -24.007812 4.542969 -24.558594 C 4.589844 -25.109375 4.636719 -25.613281 4.726562 -26.117188 C 4.820312 -27.035156 5.003906 -27.726562 5.277344 -28.183594 C 5.601562 -27.265625 5.921875 -26.257812 6.242188 -25.246094 C 6.5625 -24.097656 6.839844 -23.042969 7.070312 -22.035156 C 7.160156 -21.480469 7.296875 -20.976562 7.390625 -20.519531 C 7.480469 -20.011719 7.574219 -19.554688 7.664062 -19.140625 C 7.757812 -18.683594 7.804688 -18.316406 7.847656 -17.992188 L 7.988281 -17.214844 C 7.988281 -16.570312 8.125 -15.929688 8.355469 -15.238281 C 8.445312 -14.871094 8.539062 -14.550781 8.628906 -14.277344 C 8.722656 -13.953125 8.859375 -13.632812 8.996094 -13.359375 C 9.179688 -12.667969 9.730469 -12.300781 10.601562 -12.257812 C 11.339844 -12.210938 11.980469 -12.347656 12.441406 -12.667969 C 12.851562 -12.945312 13.21875 -13.496094 13.585938 -14.277344 C 13.910156 -14.964844 14.183594 -15.605469 14.414062 -16.203125 C 14.644531 -16.800781 14.828125 -17.351562 15.011719 -17.855469 C 15.332031 -18.867188 15.605469 -19.785156 15.835938 -20.65625 C 15.929688 -21.113281 16.066406 -21.574219 16.15625 -22.035156 C 16.25 -22.492188 16.339844 -22.996094 16.433594 -23.546875 C 16.523438 -24.054688 16.617188 -24.605469 16.753906 -25.246094 C 16.890625 -25.84375 17.074219 -26.53125 17.304688 -27.265625 C 17.304688 -27.359375 17.398438 -27.496094 17.488281 -27.585938 C 17.535156 -27.632812 17.625 -27.769531 17.765625 -27.953125 C 17.855469 -27.726562 17.992188 -26.992188 18.085938 -25.75 C 18.132812 -25.109375 18.175781 -24.421875 18.175781 -23.6875 C 18.175781 -22.953125 18.222656 -22.125 18.269531 -21.253906 C 18.269531 -19.507812 18.316406 -17.625 18.40625 -15.605469 C 18.40625 -14.597656 18.453125 -13.585938 18.453125 -12.625 C 18.453125 -11.613281 18.5 -10.648438 18.542969 -9.730469 C 18.542969 -7.804688 18.589844 -6.152344 18.683594 -4.773438 C 18.683594 -4.039062 18.726562 -3.441406 18.773438 -2.9375 C 18.773438 -2.433594 18.820312 -2.066406 18.910156 -1.789062 C 18.910156 -1.332031 19.09375 -1.011719 19.417969 -0.734375 C 19.691406 -0.460938 20.011719 -0.277344 20.378906 -0.183594 C 20.746094 -0.09375 21.113281 -0.09375 21.527344 -0.183594 C 21.894531 -0.277344 22.261719 -0.460938 22.628906 -0.734375 C 22.628906 -0.828125 22.675781 -0.964844 22.675781 -1.195312 L 22.675781 -8.8125 C 22.675781 -9.546875 22.628906 -10.328125 22.628906 -11.15625 C 22.628906 -11.933594 22.585938 -12.761719 22.585938 -13.632812 C 22.539062 -14.460938 22.492188 -15.332031 22.492188 -16.15625 C 22.492188 -16.984375 22.445312 -17.855469 22.402344 -18.726562 C 22.308594 -19.554688 22.261719 -20.378906 22.21875 -21.207031 C 22.171875 -21.988281 22.125 -22.769531 22.078125 -23.59375 C 21.941406 -25.109375 21.757812 -26.484375 21.527344 -27.769531 C 21.253906 -29.054688 21.023438 -30.066406 20.792969 -30.800781 C 20.519531 -31.582031 20.152344 -32.039062 19.785156 -32.175781 C 18.867188 -32.5 18.039062 -32.542969 17.304688 -32.269531 C 16.480469 -31.992188 15.929688 -31.441406 15.5625 -30.617188 C 15.238281 -29.882812 14.917969 -29.195312 14.644531 -28.550781 C 14.367188 -27.863281 14.046875 -27.175781 13.769531 -26.53125 C 13.175781 -25.246094 12.808594 -23.824219 12.625 -22.261719 C 12.53125 -21.621094 12.441406 -21.023438 12.347656 -20.472656 C 12.210938 -19.921875 11.933594 -19.324219 11.566406 -18.683594 C 11.382812 -19.003906 11.199219 -19.460938 11.015625 -20.105469 C 10.925781 -20.425781 10.832031 -20.746094 10.742188 -21.023438 C 10.648438 -21.296875 10.558594 -21.621094 10.511719 -21.941406 C 10.417969 -22.21875 10.375 -22.539062 10.328125 -22.8125 C 10.234375 -23.089844 10.191406 -23.320312 10.144531 -23.59375 C 10.050781 -24.054688 10.007812 -24.328125 10.007812 -24.421875 C 9.914062 -24.742188 9.824219 -25.109375 9.730469 -25.476562 C 9.640625 -25.84375 9.5 -26.210938 9.363281 -26.667969 C 9.179688 -27.082031 9.042969 -27.496094 8.90625 -27.863281 C 8.722656 -28.230469 8.582031 -28.644531 8.445312 -29.011719 C 8.078125 -29.746094 7.757812 -30.386719 7.480469 -30.9375 C 7.160156 -31.398438 6.886719 -31.765625 6.703125 -31.949219 C 6.425781 -32.085938 6.058594 -32.175781 5.601562 -32.269531 C 5.140625 -32.269531 4.726562 -32.222656 4.359375 -32.132812 C 3.902344 -31.949219 3.535156 -31.765625 3.257812 -31.582031 C 2.890625 -31.304688 2.664062 -31.03125 2.570312 -30.753906 C 2.15625 -29.835938 1.835938 -28.917969 1.652344 -27.910156 C 1.378906 -26.808594 1.195312 -25.476562 1.101562 -23.914062 C 1.011719 -23.089844 0.964844 -22.21875 0.917969 -21.253906 C 0.828125 -20.289062 0.78125 -19.234375 0.734375 -18.132812 C 0.644531 -15.835938 0.550781 -13.082031 0.460938 -9.867188 C 0.367188 -8.214844 0.320312 -6.929688 0.320312 -6.058594 L 0.183594 -3.992188 C 0.09375 -3.535156 0.046875 -3.214844 0.046875 -3.03125 C -0.046875 -2.753906 -0.09375 -2.617188 -0.09375 -2.523438 C -0.136719 -2.433594 -0.136719 -2.203125 -0.136719 -1.929688 L -0.136719 -0.597656 C -0.136719 0 0.136719 0.320312 0.597656 0.414062 C 0.964844 0.503906 1.515625 0.550781 2.15625 0.460938 Z M 2.15625 0.460938 "/></g></g></g><g fill="#fe8d41" fill-opacity="1"><g transform="translate(203.788032, 107.184757)"><g><path d="M 1.195312 -3.03125 L 1.515625 -3.121094 C 2.25 -3.03125 2.800781 -3.074219 3.167969 -3.257812 C 3.535156 -3.351562 3.808594 -3.625 3.992188 -4.085938 C 4.175781 -4.542969 4.316406 -5.09375 4.359375 -5.828125 C 4.359375 -6.5625 4.453125 -7.527344 4.636719 -8.722656 L 8.308594 -8.722656 C 8.492188 -8.03125 8.628906 -7.34375 8.722656 -6.703125 C 8.722656 -6.335938 8.765625 -6.011719 8.765625 -5.738281 C 8.765625 -5.460938 8.8125 -5.140625 8.90625 -4.867188 C 8.996094 -4.222656 9.179688 -3.765625 9.546875 -3.441406 C 9.824219 -3.074219 10.191406 -2.890625 10.648438 -2.890625 C 11.015625 -2.800781 11.429688 -2.847656 11.890625 -3.03125 C 12.257812 -3.121094 12.578125 -3.304688 12.851562 -3.582031 C 12.851562 -3.671875 12.808594 -3.949219 12.761719 -4.316406 C 12.714844 -4.683594 12.667969 -5.140625 12.625 -5.785156 C 12.441406 -6.976562 12.257812 -8.492188 12.074219 -10.328125 C 11.796875 -12.074219 11.523438 -13.953125 11.246094 -15.972656 C 11.0625 -16.9375 10.925781 -17.902344 10.742188 -18.820312 C 10.558594 -19.738281 10.375 -20.65625 10.191406 -21.574219 C 9.824219 -23.320312 9.457031 -24.789062 9.089844 -25.980469 C 8.722656 -27.175781 8.355469 -27.863281 8.078125 -28 C 6.886719 -28.550781 5.921875 -28.871094 5.234375 -28.964844 C 4.5 -29.011719 3.992188 -28.871094 3.625 -28.550781 C 3.257812 -28.183594 2.984375 -27.769531 2.847656 -27.21875 C 2.753906 -26.945312 2.707031 -26.625 2.664062 -26.347656 C 2.570312 -26.074219 2.523438 -25.75 2.480469 -25.476562 C 2.296875 -24.28125 2.15625 -23.226562 2.019531 -22.21875 C 1.882812 -21.207031 1.789062 -20.289062 1.699219 -19.460938 C 1.605469 -18.636719 1.515625 -17.855469 1.421875 -17.167969 C 1.332031 -16.433594 1.238281 -15.789062 1.195312 -15.238281 C 1.101562 -14.644531 1.054688 -14.09375 1.011719 -13.632812 C 0.964844 -13.128906 0.917969 -12.667969 0.871094 -12.257812 C 0.78125 -11.429688 0.6875 -10.648438 0.597656 -9.914062 L 0.320312 -7.710938 L 0.09375 -6.472656 C 0 -6.011719 -0.09375 -5.507812 -0.183594 -5.003906 C -0.367188 -4.269531 -0.320312 -3.808594 -0.136719 -3.535156 C 0.046875 -3.257812 0.460938 -3.074219 1.195312 -3.03125 Z M 4.957031 -11.566406 L 5.050781 -11.613281 C 5.003906 -11.75 5.003906 -11.933594 5.003906 -12.210938 L 5.003906 -13.128906 C 5.003906 -13.816406 5.050781 -14.597656 5.140625 -15.421875 C 5.1875 -15.835938 5.234375 -16.25 5.324219 -16.664062 C 5.371094 -17.03125 5.417969 -17.441406 5.507812 -17.902344 C 5.601562 -18.636719 5.828125 -19.324219 6.152344 -19.875 C 6.195312 -19.601562 6.242188 -19.324219 6.289062 -19.140625 C 6.289062 -18.957031 6.335938 -18.773438 6.378906 -18.636719 C 6.378906 -18.359375 6.425781 -18.132812 6.519531 -17.949219 C 6.519531 -17.808594 6.5625 -17.582031 6.65625 -17.304688 C 6.65625 -17.167969 6.703125 -17.03125 6.703125 -16.890625 C 6.703125 -16.707031 6.746094 -16.523438 6.839844 -16.339844 C 6.886719 -16.113281 6.929688 -15.882812 6.976562 -15.605469 L 7.160156 -14.644531 C 7.253906 -13.910156 7.4375 -12.945312 7.710938 -11.75 C 7.160156 -11.566406 6.703125 -11.476562 6.289062 -11.476562 C 6.011719 -11.476562 5.785156 -11.476562 5.601562 -11.476562 C 5.371094 -11.476562 5.140625 -11.523438 4.957031 -11.566406 Z M 4.957031 -11.566406 "/></g></g></g><g fill="#fe8d41" fill-opacity="1"><g transform="translate(225.63404, 107.184757)"><g><path d="M 3.671875 -2.753906 L 3.949219 -2.847656 C 4.40625 -2.753906 5.050781 -2.707031 5.875 -2.707031 C 6.609375 -2.707031 7.390625 -2.800781 8.214844 -3.074219 C 8.996094 -3.304688 9.683594 -3.671875 10.28125 -4.222656 C 10.832031 -4.773438 11.199219 -5.507812 11.382812 -6.425781 C 11.476562 -7.160156 11.523438 -7.847656 11.429688 -8.492188 C 11.339844 -9.042969 11.109375 -9.640625 10.785156 -10.28125 C 10.417969 -10.832031 10.007812 -11.476562 9.546875 -12.210938 C 9.273438 -12.53125 8.996094 -12.898438 8.675781 -13.3125 C 8.355469 -13.726562 8.03125 -14.183594 7.664062 -14.734375 C 6.929688 -15.746094 6.289062 -16.617188 5.738281 -17.351562 C 5.09375 -18.085938 4.636719 -18.867188 4.359375 -19.601562 C 3.992188 -20.425781 3.808594 -21.253906 3.71875 -22.125 C 3.625 -23.042969 3.71875 -24.191406 4.039062 -25.566406 C 4.175781 -26.164062 4.359375 -26.53125 4.636719 -26.667969 C 4.910156 -26.808594 5.1875 -26.851562 5.460938 -26.761719 C 5.738281 -26.667969 5.96875 -26.484375 6.242188 -26.257812 C 6.425781 -25.980469 6.5625 -25.75 6.65625 -25.566406 C 6.703125 -25.382812 6.746094 -25.199219 6.746094 -25.015625 L 6.746094 -24.464844 C 6.746094 -24.238281 6.746094 -23.960938 6.792969 -23.640625 C 7.4375 -23.226562 7.988281 -23.089844 8.492188 -23.226562 C 8.949219 -23.320312 9.363281 -23.59375 9.640625 -24.054688 C 9.914062 -24.421875 10.050781 -24.925781 10.050781 -25.523438 C 10.050781 -26.074219 9.867188 -26.53125 9.5 -26.992188 C 8.675781 -27.816406 7.710938 -28.414062 6.609375 -28.78125 C 5.507812 -29.054688 4.359375 -29.195312 3.167969 -29.101562 C 2.339844 -29.011719 1.746094 -28.78125 1.285156 -28.320312 C 0.78125 -27.816406 0.414062 -27.21875 0.230469 -26.578125 C -0.046875 -25.84375 -0.183594 -25.109375 -0.183594 -24.328125 C -0.277344 -23.503906 -0.277344 -22.722656 -0.183594 -21.988281 C -0.183594 -21.253906 -0.09375 -20.609375 0.09375 -20.058594 C 0.230469 -19.460938 0.367188 -19.050781 0.503906 -18.867188 C 0.828125 -18.359375 1.148438 -17.855469 1.421875 -17.398438 C 1.699219 -16.890625 2.019531 -16.386719 2.296875 -15.882812 C 2.847656 -14.871094 3.488281 -13.910156 4.316406 -13.035156 C 5.324219 -11.933594 6.105469 -10.832031 6.703125 -9.730469 C 7.253906 -8.675781 7.480469 -7.621094 7.390625 -6.519531 C 7.296875 -5.785156 7.113281 -5.324219 6.839844 -5.050781 C 6.519531 -4.773438 5.921875 -4.636719 5.050781 -4.589844 C 4.683594 -4.773438 4.453125 -5.050781 4.359375 -5.417969 L 3.949219 -6.378906 C 3.488281 -7.160156 2.890625 -7.574219 2.15625 -7.664062 C 1.421875 -7.664062 0.78125 -7.480469 0.277344 -7.023438 C 0.320312 -6.746094 0.367188 -6.519531 0.414062 -6.289062 C 0.414062 -6.058594 0.460938 -5.828125 0.550781 -5.601562 C 0.644531 -5.09375 0.78125 -4.683594 1.011719 -4.359375 C 1.195312 -3.992188 1.515625 -3.671875 1.972656 -3.398438 C 2.433594 -3.074219 2.984375 -2.847656 3.671875 -2.753906 Z M 3.671875 -2.753906 "/></g></g></g><g fill="#fe8d41" fill-opacity="1"><g transform="translate(245.139328, 107.184757)"><g><path d="M 8.03125 -2.9375 L 8.171875 -2.984375 C 8.628906 -3.074219 8.90625 -3.398438 8.90625 -3.949219 L 8.90625 -4.636719 C 8.90625 -4.867188 8.859375 -5.09375 8.859375 -5.371094 C 8.765625 -6.425781 8.722656 -7.390625 8.722656 -8.308594 C 8.675781 -9.226562 8.628906 -10.050781 8.628906 -10.878906 C 8.582031 -12.347656 8.539062 -13.726562 8.492188 -14.917969 C 8.398438 -16.019531 8.355469 -17.03125 8.355469 -17.949219 C 8.261719 -18.773438 8.214844 -19.601562 8.214844 -20.425781 C 8.171875 -20.792969 8.125 -21.207031 8.125 -21.574219 C 8.078125 -21.941406 8.03125 -22.355469 7.988281 -22.8125 C 7.894531 -23.226562 7.847656 -23.640625 7.804688 -24.097656 C 7.757812 -24.558594 7.710938 -25.015625 7.664062 -25.566406 L 7.527344 -26.257812 C 7.4375 -26.484375 7.574219 -26.761719 7.847656 -27.035156 C 9.59375 -27.035156 10.742188 -27.175781 11.339844 -27.496094 C 11.933594 -27.816406 11.933594 -28.136719 11.339844 -28.414062 C 10.742188 -28.6875 9.546875 -28.871094 7.804688 -28.964844 C 6.105469 -29.054688 3.765625 -28.871094 0.828125 -28.460938 C 0.644531 -28.460938 0.550781 -28.414062 0.460938 -28.320312 C 0.320312 -28.183594 0.183594 -28.09375 0.09375 -28.09375 C -0.09375 -28 -0.136719 -27.816406 -0.136719 -27.632812 C -0.136719 -27.402344 -0.09375 -27.265625 0.09375 -27.21875 C 0.414062 -27.035156 0.644531 -26.945312 0.828125 -26.945312 C 1.054688 -26.851562 1.238281 -26.851562 1.421875 -26.851562 L 3.625 -26.851562 C 3.625 -26.300781 3.671875 -25.796875 3.671875 -25.339844 C 3.671875 -24.878906 3.71875 -24.421875 3.808594 -24.007812 C 3.855469 -23.546875 3.902344 -23.136719 3.902344 -22.675781 C 3.902344 -22.21875 3.949219 -21.804688 3.992188 -21.390625 C 4.039062 -20.929688 4.085938 -20.335938 4.132812 -19.554688 C 4.132812 -19.09375 4.175781 -18.683594 4.175781 -18.222656 C 4.175781 -17.765625 4.222656 -17.304688 4.316406 -16.800781 C 4.359375 -16.25 4.40625 -15.746094 4.453125 -15.195312 C 4.453125 -14.644531 4.5 -14.09375 4.589844 -13.542969 C 4.636719 -12.945312 4.683594 -12.347656 4.726562 -11.796875 C 4.726562 -11.246094 4.773438 -10.695312 4.867188 -10.144531 C 4.910156 -9.59375 4.957031 -9.042969 4.957031 -8.539062 C 4.957031 -8.03125 5.003906 -7.574219 5.050781 -7.113281 C 5.09375 -6.152344 5.140625 -5.417969 5.1875 -4.957031 C 5.234375 -4.40625 5.324219 -3.992188 5.507812 -3.71875 C 5.691406 -3.351562 5.921875 -3.121094 6.195312 -3.03125 C 6.472656 -2.847656 6.792969 -2.800781 7.070312 -2.800781 C 7.34375 -2.800781 7.664062 -2.847656 8.03125 -2.9375 Z M 8.03125 -2.9375 "/></g></g></g><g fill="#fe8d41" fill-opacity="1"><g transform="translate(265.011773, 107.184757)"><g><path d="M 7.804688 -3.03125 L 7.988281 -3.121094 C 8.078125 -3.121094 8.214844 -3.214844 8.398438 -3.398438 C 8.492188 -3.488281 8.628906 -3.582031 8.8125 -3.71875 C 8.582031 -4.039062 8.308594 -4.269531 7.988281 -4.453125 C 7.621094 -4.589844 7.296875 -4.683594 6.976562 -4.726562 C 6.792969 -4.726562 6.609375 -4.773438 6.425781 -4.773438 L 5.875 -4.773438 C 5.507812 -4.773438 5.140625 -4.820312 4.773438 -5.003906 L 4.726562 -15.332031 C 5.234375 -15.378906 5.691406 -15.421875 6.105469 -15.46875 C 6.472656 -15.46875 6.839844 -15.515625 7.207031 -15.5625 C 7.527344 -15.5625 7.804688 -15.605469 8.078125 -15.652344 C 8.308594 -15.652344 8.539062 -15.699219 8.722656 -15.789062 C 9.042969 -15.882812 9.273438 -15.972656 9.457031 -16.15625 C 9.546875 -16.25 9.640625 -16.433594 9.640625 -16.707031 C 9.457031 -16.890625 9.226562 -17.074219 8.949219 -17.167969 C 8.722656 -17.214844 8.398438 -17.257812 7.988281 -17.351562 C 7.804688 -17.351562 7.574219 -17.398438 7.34375 -17.398438 L 6.65625 -17.398438 C 6.378906 -17.398438 6.105469 -17.398438 5.785156 -17.441406 C 5.460938 -17.441406 5.140625 -17.488281 4.773438 -17.582031 C 4.683594 -17.949219 4.636719 -18.359375 4.636719 -18.820312 C 4.589844 -19.234375 4.542969 -19.691406 4.542969 -20.152344 C 4.5 -20.609375 4.453125 -21.023438 4.453125 -21.480469 C 4.453125 -21.941406 4.453125 -22.355469 4.453125 -22.8125 L 4.453125 -25.15625 C 4.453125 -25.476562 4.453125 -25.796875 4.453125 -26.074219 C 4.453125 -26.347656 4.5 -26.578125 4.542969 -26.761719 L 5.738281 -26.761719 C 5.828125 -26.761719 5.96875 -26.761719 6.152344 -26.808594 C 6.976562 -26.898438 7.574219 -27.035156 7.847656 -27.21875 C 8.125 -27.402344 8.214844 -27.585938 8.125 -27.769531 C 8.03125 -27.953125 7.804688 -28.136719 7.480469 -28.320312 C 7.207031 -28.460938 6.886719 -28.550781 6.519531 -28.644531 C 5.691406 -28.734375 5.003906 -28.828125 4.359375 -28.871094 C 3.71875 -28.917969 3.214844 -28.964844 2.800781 -28.964844 C 1.929688 -28.964844 1.285156 -28.828125 0.871094 -28.597656 C 0.414062 -28.320312 0.183594 -27.910156 0.09375 -27.359375 C 0 -26.714844 -0.046875 -25.933594 -0.046875 -25.015625 C -0.136719 -21.527344 -0.09375 -18.132812 0.09375 -14.828125 C 0.183594 -11.429688 0.414062 -8.03125 0.78125 -4.636719 C 0.871094 -3.71875 1.285156 -3.214844 2.019531 -3.121094 C 2.480469 -3.03125 2.984375 -2.984375 3.441406 -2.9375 C 3.902344 -2.847656 4.40625 -2.800781 4.910156 -2.753906 C 5.828125 -2.664062 6.792969 -2.753906 7.804688 -3.03125 Z M 7.804688 -3.03125 "/></g></g></g><g fill="#fe8d41" fill-opacity="1"><g transform="translate(282.681201, 107.184757)"><g><path d="M 4.269531 -2.800781 L 4.453125 -2.753906 C 4.957031 -2.800781 5.324219 -2.890625 5.554688 -3.074219 C 5.785156 -3.257812 5.921875 -3.535156 5.96875 -3.949219 C 5.96875 -4.316406 5.96875 -4.867188 5.96875 -5.601562 C 5.921875 -6.242188 5.875 -7.160156 5.828125 -8.308594 L 5.828125 -8.765625 C 5.828125 -8.90625 5.96875 -9.042969 6.242188 -9.226562 L 6.65625 -8.8125 C 6.703125 -8.722656 6.792969 -8.628906 6.886719 -8.539062 C 6.976562 -8.398438 7.113281 -8.214844 7.296875 -8.03125 C 7.480469 -7.847656 7.664062 -7.574219 7.941406 -7.296875 C 8.171875 -6.976562 8.492188 -6.5625 8.859375 -6.105469 C 9.226562 -5.644531 9.640625 -5.09375 10.191406 -4.453125 C 10.558594 -3.902344 11.0625 -3.535156 11.707031 -3.351562 C 12.347656 -3.167969 12.851562 -3.074219 13.265625 -3.121094 C 13.726562 -3.167969 14.046875 -3.351562 14.320312 -3.625 C 14.503906 -3.902344 14.503906 -4.222656 14.320312 -4.636719 C 14.230469 -4.773438 14.136719 -4.910156 14.046875 -5.050781 C 13.953125 -5.1875 13.863281 -5.324219 13.816406 -5.460938 C 13.679688 -5.644531 13.359375 -6.011719 12.898438 -6.5625 C 12.441406 -7.023438 11.796875 -7.757812 10.925781 -8.8125 C 10.007812 -9.824219 8.765625 -11.246094 7.207031 -13.082031 C 8.214844 -14.367188 9.089844 -15.515625 9.824219 -16.523438 C 10.511719 -17.535156 11.0625 -18.40625 11.429688 -19.234375 C 11.796875 -20.058594 12.027344 -20.886719 12.117188 -21.710938 C 12.210938 -22.539062 12.210938 -23.457031 12.117188 -24.464844 C 11.933594 -26.484375 10.878906 -27.816406 8.949219 -28.460938 C 8.582031 -28.550781 8.214844 -28.6875 7.847656 -28.78125 C 7.4375 -28.871094 6.976562 -28.964844 6.519531 -29.054688 C 5.507812 -29.238281 4.589844 -29.332031 3.71875 -29.332031 C 2.800781 -29.332031 1.972656 -29.195312 1.332031 -28.917969 C 0.644531 -28.644531 0.277344 -28.136719 0.183594 -27.496094 C 0.046875 -26.625 -0.046875 -25.933594 -0.09375 -25.476562 C -0.136719 -25.199219 -0.183594 -24.972656 -0.183594 -24.742188 C -0.183594 -24.464844 -0.183594 -24.238281 -0.183594 -23.960938 C -0.183594 -23.6875 -0.183594 -23.363281 -0.183594 -23.042969 C -0.183594 -22.675781 -0.136719 -22.308594 -0.09375 -21.941406 C -0.09375 -21.113281 0 -19.96875 0.183594 -18.5 C 0.277344 -17.214844 0.320312 -16.066406 0.414062 -15.054688 C 0.503906 -14.046875 0.550781 -13.128906 0.644531 -12.347656 C 0.6875 -11.523438 0.734375 -10.832031 0.78125 -10.191406 C 0.828125 -9.546875 0.871094 -8.949219 0.964844 -8.445312 C 1.011719 -7.894531 1.054688 -7.480469 1.054688 -7.113281 C 1.054688 -6.746094 1.101562 -6.425781 1.148438 -6.195312 C 1.148438 -5.644531 1.195312 -5.277344 1.285156 -5.09375 C 1.285156 -4.957031 1.332031 -4.867188 1.332031 -4.773438 L 1.332031 -4.589844 L 1.378906 -4.175781 C 1.515625 -3.441406 1.835938 -3.03125 2.386719 -2.9375 C 2.9375 -2.753906 3.535156 -2.707031 4.269531 -2.800781 Z M 5.140625 -15.789062 L 5.140625 -15.699219 C 5.003906 -16.753906 4.910156 -17.71875 4.820312 -18.542969 C 4.726562 -19.371094 4.636719 -20.152344 4.589844 -20.839844 C 4.5 -21.480469 4.453125 -22.078125 4.40625 -22.628906 C 4.316406 -23.136719 4.269531 -23.59375 4.222656 -24.007812 C 4.132812 -24.375 4.085938 -24.742188 4.085938 -25.015625 C 4.085938 -25.292969 4.039062 -25.523438 4.039062 -25.707031 C 3.992188 -25.890625 3.949219 -26.027344 3.949219 -26.164062 C 3.949219 -26.300781 3.949219 -26.441406 3.949219 -26.53125 L 3.949219 -27.265625 C 3.949219 -27.359375 3.949219 -27.496094 3.992188 -27.679688 C 4.269531 -27.585938 4.5 -27.542969 4.773438 -27.496094 C 5.003906 -27.449219 5.234375 -27.402344 5.460938 -27.359375 C 5.644531 -27.265625 5.875 -27.21875 6.058594 -27.175781 C 6.242188 -27.082031 6.378906 -27.035156 6.5625 -26.992188 C 6.839844 -26.808594 7.113281 -26.578125 7.390625 -26.300781 C 7.621094 -25.933594 7.804688 -25.523438 7.941406 -25.015625 C 8.125 -24.191406 8.171875 -23.363281 8.078125 -22.539062 C 7.988281 -21.664062 7.804688 -20.839844 7.527344 -20.011719 C 7.253906 -19.234375 6.929688 -18.453125 6.472656 -17.671875 C 6.058594 -16.9375 5.601562 -16.296875 5.140625 -15.789062 Z M 5.140625 -15.789062 "/></g></g></g><g fill="#fe8d41" fill-opacity="1"><g transform="translate(305.169747, 107.184757)"><g><path d="M 3.671875 -2.753906 L 3.949219 -2.847656 C 4.40625 -2.753906 5.050781 -2.707031 5.875 -2.707031 C 6.609375 -2.707031 7.390625 -2.800781 8.214844 -3.074219 C 8.996094 -3.304688 9.683594 -3.671875 10.28125 -4.222656 C 10.832031 -4.773438 11.199219 -5.507812 11.382812 -6.425781 C 11.476562 -7.160156 11.523438 -7.847656 11.429688 -8.492188 C 11.339844 -9.042969 11.109375 -9.640625 10.785156 -10.28125 C 10.417969 -10.832031 10.007812 -11.476562 9.546875 -12.210938 C 9.273438 -12.53125 8.996094 -12.898438 8.675781 -13.3125 C 8.355469 -13.726562 8.03125 -14.183594 7.664062 -14.734375 C 6.929688 -15.746094 6.289062 -16.617188 5.738281 -17.351562 C 5.09375 -18.085938 4.636719 -18.867188 4.359375 -19.601562 C 3.992188 -20.425781 3.808594 -21.253906 3.71875 -22.125 C 3.625 -23.042969 3.71875 -24.191406 4.039062 -25.566406 C 4.175781 -26.164062 4.359375 -26.53125 4.636719 -26.667969 C 4.910156 -26.808594 5.1875 -26.851562 5.460938 -26.761719 C 5.738281 -26.667969 5.96875 -26.484375 6.242188 -26.257812 C 6.425781 -25.980469 6.5625 -25.75 6.65625 -25.566406 C 6.703125 -25.382812 6.746094 -25.199219 6.746094 -25.015625 L 6.746094 -24.464844 C 6.746094 -24.238281 6.746094 -23.960938 6.792969 -23.640625 C 7.4375 -23.226562 7.988281 -23.089844 8.492188 -23.226562 C 8.949219 -23.320312 9.363281 -23.59375 9.640625 -24.054688 C 9.914062 -24.421875 10.050781 -24.925781 10.050781 -25.523438 C 10.050781 -26.074219 9.867188 -26.53125 9.5 -26.992188 C 8.675781 -27.816406 7.710938 -28.414062 6.609375 -28.78125 C 5.507812 -29.054688 4.359375 -29.195312 3.167969 -29.101562 C 2.339844 -29.011719 1.746094 -28.78125 1.285156 -28.320312 C 0.78125 -27.816406 0.414062 -27.21875 0.230469 -26.578125 C -0.046875 -25.84375 -0.183594 -25.109375 -0.183594 -24.328125 C -0.277344 -23.503906 -0.277344 -22.722656 -0.183594 -21.988281 C -0.183594 -21.253906 -0.09375 -20.609375 0.09375 -20.058594 C 0.230469 -19.460938 0.367188 -19.050781 0.503906 -18.867188 C 0.828125 -18.359375 1.148438 -17.855469 1.421875 -17.398438 C 1.699219 -16.890625 2.019531 -16.386719 2.296875 -15.882812 C 2.847656 -14.871094 3.488281 -13.910156 4.316406 -13.035156 C 5.324219 -11.933594 6.105469 -10.832031 6.703125 -9.730469 C 7.253906 -8.675781 7.480469 -7.621094 7.390625 -6.519531 C 7.296875 -5.785156 7.113281 -5.324219 6.839844 -5.050781 C 6.519531 -4.773438 5.921875 -4.636719 5.050781 -4.589844 C 4.683594 -4.773438 4.453125 -5.050781 4.359375 -5.417969 L 3.949219 -6.378906 C 3.488281 -7.160156 2.890625 -7.574219 2.15625 -7.664062 C 1.421875 -7.664062 0.78125 -7.480469 0.277344 -7.023438 C 0.320312 -6.746094 0.367188 -6.519531 0.414062 -6.289062 C 0.414062 -6.058594 0.460938 -5.828125 0.550781 -5.601562 C 0.644531 -5.09375 0.78125 -4.683594 1.011719 -4.359375 C 1.195312 -3.992188 1.515625 -3.671875 1.972656 -3.398438 C 2.433594 -3.074219 2.984375 -2.847656 3.671875 -2.753906 Z M 3.671875 -2.753906 "/></g></g></g></svg>