<svg xmlns="http://www.w3.org/2000/svg" xmlns:xlink="http://www.w3.org/1999/xlink" width="500" zoomAndPan="magnify" viewBox="0 0 375 374.999991" height="500" preserveAspectRatio="xMidYMid meet" version="1.0"><defs><g/><clipPath id="e753a8d383"><path d="M 116 52 L 259 52 L 259 255.660156 L 116 255.660156 Z M 116 52 " clip-rule="nonzero"/></clipPath></defs><rect x="-37.5" width="450" fill="#ffffff" y="-37.499999" height="449.999989" fill-opacity="1"/><rect x="-37.5" width="450" fill="#000000" y="-37.499999" height="449.999989" fill-opacity="1"/><g clip-path="url(#e753a8d383)"><path fill="#ffffff" d="M 206.980469 129.042969 L 206.980469 62.6875 C 206.980469 60.757812 208.019531 59.367188 210.238281 58.539062 C 212.460938 57.707031 213.488281 58.289062 213.488281 60.210938 L 213.488281 61.652344 C 216.859375 62.066406 225.65625 59.214844 233.203125 56.164062 C 240.839844 52.800781 253.808594 51.660156 258.863281 53.808594 L 258.863281 88.847656 C 253.558594 86.65625 240.597656 87.914062 233.253906 91.203125 C 225.90625 94.191406 217.097656 97.023438 213.539062 96.691406 L 213.539062 126.5625 C 213.507812 127.050781 213.40625 127.527344 213.242188 127.984375 C 213.074219 128.445312 212.847656 128.871094 212.558594 129.269531 C 212.273438 129.664062 211.9375 130.011719 211.550781 130.3125 C 211.164062 130.613281 210.746094 130.855469 210.292969 131.035156 C 208.445312 131.722656 206.980469 130.839844 206.980469 129.042969 Z M 233.035156 81.066406 C 235.339844 81.699219 237.652344 82.394531 239.957031 83.140625 C 239.519531 80.648438 239.074219 78.171875 238.636719 75.691406 C 240.507812 73.492188 242.375 71.320312 244.242188 69.214844 C 241.65625 69.214844 239.054688 69.359375 236.5 69.566406 L 233.035156 63.34375 L 229.570312 71.375 C 226.996094 72.464844 224.417969 73.621094 221.828125 74.839844 C 223.695312 76.042969 225.566406 77.285156 227.433594 78.5625 C 226.996094 81.261719 226.550781 83.960938 226.113281 86.667969 C 228.417969 84.730469 230.726562 82.863281 233.035156 81.066406 Z M 140.574219 252.832031 C 144.039062 252 147.496094 251.023438 150.949219 249.945312 C 151.3125 249.820312 151.648438 249.644531 151.957031 249.421875 C 152.265625 249.195312 152.535156 248.929688 152.765625 248.625 C 152.996094 248.320312 153.179688 247.992188 153.3125 247.632812 C 153.445312 247.273438 153.523438 246.902344 153.542969 246.523438 C 153.550781 246.363281 153.539062 246.207031 153.507812 246.054688 C 153.476562 245.898438 153.425781 245.753906 153.355469 245.613281 C 153.285156 245.46875 153.199219 245.339844 153.09375 245.222656 C 152.988281 245.101562 152.875 245 152.742188 244.910156 C 152.613281 244.824219 152.472656 244.75 152.324219 244.699219 C 152.175781 244.644531 152.023438 244.613281 151.867188 244.601562 C 151.710938 244.585938 151.554688 244.59375 151.398438 244.621094 C 151.242188 244.648438 151.09375 244.691406 150.949219 244.757812 C 147.496094 245.796875 144.039062 246.832031 140.574219 247.640625 C 140.210938 247.734375 139.871094 247.882812 139.554688 248.085938 C 139.238281 248.285156 138.960938 248.535156 138.726562 248.824219 C 138.488281 249.117188 138.304688 249.4375 138.171875 249.789062 C 138.039062 250.140625 137.964844 250.503906 137.949219 250.878906 C 137.945312 251.039062 137.957031 251.199219 137.992188 251.355469 C 138.023438 251.511719 138.078125 251.664062 138.148438 251.808594 C 138.214844 251.953125 138.304688 252.085938 138.40625 252.210938 C 138.507812 252.335938 138.625 252.445312 138.753906 252.539062 C 138.882812 252.636719 139.019531 252.714844 139.167969 252.777344 C 139.316406 252.839844 139.46875 252.882812 139.628906 252.910156 C 139.785156 252.933594 139.945312 252.941406 140.105469 252.925781 C 140.265625 252.914062 140.421875 252.882812 140.574219 252.832031 Z M 161.328125 246.40625 C 164.792969 245.132812 168.246094 243.78125 171.703125 242.390625 C 172.433594 242.066406 173.03125 241.574219 173.488281 240.921875 C 173.949219 240.265625 174.207031 239.539062 174.265625 238.738281 C 174.265625 237.308594 173.101562 236.664062 171.671875 237.203125 C 168.214844 238.59375 164.761719 239.941406 161.296875 241.21875 C 160.558594 241.507812 159.953125 241.96875 159.484375 242.605469 C 159.015625 243.246094 158.753906 243.957031 158.703125 244.746094 C 158.679688 245.070312 158.742188 245.378906 158.886719 245.667969 C 159.035156 245.957031 159.242188 246.1875 159.519531 246.363281 C 159.792969 246.535156 160.089844 246.625 160.414062 246.632812 C 160.742188 246.640625 161.042969 246.566406 161.328125 246.40625 Z M 182.617188 237.195312 C 186.535156 234.625 189.992188 231.542969 192.996094 227.949219 C 194.125 226.597656 194.34375 224.835938 193.460938 224.109375 C 192.578125 223.382812 190.960938 223.820312 189.828125 225.148438 C 187.429688 228.039062 184.660156 230.519531 181.527344 232.597656 C 180.847656 233.003906 180.332031 233.5625 179.976562 234.273438 C 179.625 234.980469 179.488281 235.730469 179.566406 236.519531 C 179.835938 237.816406 181.226562 238.105469 182.617188 237.195312 Z M 200.339844 216.121094 C 202.082031 212.214844 203.089844 208.132812 203.371094 203.867188 C 203.421875 203.550781 203.386719 203.242188 203.265625 202.945312 C 203.140625 202.648438 202.949219 202.40625 202.6875 202.222656 C 202.425781 202.035156 202.136719 201.933594 201.816406 201.914062 C 201.496094 201.890625 201.195312 201.960938 200.910156 202.113281 C 200.164062 202.414062 199.546875 202.886719 199.058594 203.527344 C 198.570312 204.167969 198.28125 204.890625 198.191406 205.691406 C 197.96875 209.140625 197.15625 212.441406 195.753906 215.601562 C 195.078125 217.148438 195.566406 218.515625 196.792969 218.652344 C 197.179688 218.636719 197.554688 218.570312 197.921875 218.445312 C 198.289062 218.320312 198.632812 218.144531 198.945312 217.917969 C 199.261719 217.695312 199.539062 217.429688 199.777344 217.121094 C 200.011719 216.816406 200.203125 216.480469 200.339844 216.121094 Z M 201.460938 193.179688 C 200.777344 191.734375 199.886719 190.4375 198.78125 189.28125 C 197.679688 188.128906 196.417969 187.179688 195.007812 186.433594 C 193.96875 185.882812 192.320312 186.621094 191.335938 188.082031 C 190.347656 189.546875 190.398438 191.195312 191.449219 191.703125 C 192.585938 192.300781 193.597656 193.058594 194.484375 193.984375 C 195.371094 194.910156 196.089844 195.953125 196.636719 197.109375 C 197.175781 198.222656 198.710938 198.230469 200.019531 197.109375 C 201.328125 195.988281 202 194.289062 201.460938 193.179688 Z M 185.179688 184.691406 C 182.265625 184.984375 179.460938 185.703125 176.765625 186.847656 L 173.996094 187.992188 C 173.257812 188.308594 172.65625 188.796875 172.191406 189.449219 C 171.726562 190.105469 171.460938 190.832031 171.402344 191.632812 C 171.402344 193.0625 172.5625 193.707031 173.996094 193.179688 L 176.753906 192.035156 C 178.925781 191.121094 181.183594 190.546875 183.53125 190.316406 C 184.320312 190.15625 185.007812 189.804688 185.601562 189.261719 C 186.191406 188.714844 186.597656 188.058594 186.820312 187.285156 C 187.277344 185.726562 186.539062 184.578125 185.179688 184.691406 Z M 163.691406 192.046875 C 160.804688 193.121094 157.835938 193.433594 154.789062 192.980469 C 154.417969 192.964844 154.050781 193.007812 153.6875 193.105469 C 153.328125 193.207031 152.992188 193.359375 152.679688 193.5625 C 152.367188 193.769531 152.09375 194.015625 151.859375 194.304688 C 151.625 194.597656 151.4375 194.914062 151.304688 195.265625 C 150.660156 196.746094 151.167969 198.148438 152.445312 198.375 C 156.242188 198.992188 159.941406 198.628906 163.546875 197.289062 C 164.289062 196.996094 164.902344 196.535156 165.382812 195.898438 C 165.863281 195.257812 166.140625 194.542969 166.214844 193.75 C 166.246094 193.433594 166.195312 193.128906 166.0625 192.839844 C 165.925781 192.550781 165.726562 192.320312 165.464844 192.140625 C 165.199219 191.960938 164.910156 191.863281 164.589844 191.847656 C 164.273438 191.832031 163.972656 191.898438 163.691406 192.046875 Z M 147.671875 189.390625 C 145.664062 187.378906 144.34375 184.988281 143.707031 182.222656 C 143.386719 180.902344 141.996094 180.40625 140.59375 181.058594 C 140.261719 181.207031 139.960938 181.40625 139.691406 181.65625 C 139.421875 181.902344 139.199219 182.1875 139.023438 182.511719 C 138.847656 182.832031 138.730469 183.171875 138.664062 183.535156 C 138.601562 183.894531 138.597656 184.257812 138.65625 184.617188 C 139.457031 188.113281 141.101562 191.148438 143.59375 193.726562 C 144.484375 194.632812 146.113281 194.371094 147.234375 193.15625 C 148.355469 191.945312 148.5625 190.253906 147.671875 189.390625 Z M 143.667969 172.894531 C 144.410156 169.550781 145.707031 166.4375 147.558594 163.554688 C 148.4375 162.164062 148.222656 160.597656 147.089844 160.046875 C 146.75 159.941406 146.398438 159.898438 146.042969 159.914062 C 145.683594 159.929688 145.339844 160.003906 145.007812 160.136719 C 144.675781 160.269531 144.375 160.457031 144.109375 160.695312 C 143.839844 160.933594 143.621094 161.207031 143.449219 161.519531 C 141.125 165.070312 139.507812 168.914062 138.601562 173.058594 C 138.554688 173.210938 138.523438 173.371094 138.507812 173.53125 C 138.496094 173.691406 138.503906 173.851562 138.53125 174.011719 C 138.558594 174.167969 138.601562 174.324219 138.664062 174.472656 C 138.726562 174.621094 138.808594 174.757812 138.90625 174.886719 C 139 175.015625 139.113281 175.132812 139.238281 175.234375 C 139.359375 175.339844 139.496094 175.425781 139.640625 175.496094 C 139.785156 175.566406 139.9375 175.617188 140.097656 175.652344 C 140.253906 175.683594 140.414062 175.699219 140.574219 175.695312 C 140.949219 175.65625 141.304688 175.5625 141.648438 175.410156 C 141.992188 175.257812 142.304688 175.054688 142.582031 174.804688 C 142.859375 174.550781 143.09375 174.261719 143.277344 173.933594 C 143.464844 173.609375 143.59375 173.261719 143.667969 172.894531 Z M 154.644531 155.417969 C 157.320312 153.132812 160.28125 151.304688 163.527344 149.941406 C 164.257812 149.625 164.847656 149.140625 165.296875 148.484375 C 165.75 147.828125 165.992188 147.105469 166.027344 146.308594 C 165.976562 144.898438 164.769531 144.234375 163.339844 144.824219 C 159.304688 146.503906 155.617188 148.742188 152.269531 151.550781 C 150.992188 152.585938 150.492188 154.332031 151.148438 155.398438 C 151.800781 156.46875 153.367188 156.457031 154.644531 155.417969 Z M 173.945312 145.820312 C 177.410156 144.410156 180.863281 142.957031 184.320312 141.496094 C 185.058594 141.160156 185.660156 140.660156 186.125 139.992188 C 186.589844 139.328125 186.855469 138.589844 186.914062 137.78125 C 186.914062 136.339844 185.75 135.707031 184.320312 136.285156 C 180.863281 137.75 177.410156 139.203125 173.945312 140.613281 C 173.207031 140.933594 172.605469 141.425781 172.140625 142.078125 C 171.675781 142.734375 171.410156 143.464844 171.351562 144.265625 C 171.351562 145.675781 172.511719 146.371094 173.945312 145.78125 Z M 194.695312 137.09375 C 196.769531 136.246094 198.773438 135.394531 200.816406 134.5625 C 201.554688 134.242188 202.15625 133.753906 202.621094 133.097656 C 203.085938 132.441406 203.351562 131.714844 203.410156 130.910156 C 203.410156 129.480469 202.25 128.835938 200.816406 129.375 C 198.742188 130.207031 196.738281 131.058594 194.695312 131.90625 C 193.957031 132.242188 193.359375 132.738281 192.894531 133.398438 C 192.429688 134.0625 192.164062 134.796875 192.101562 135.601562 C 192.101562 136.992188 193.265625 137.65625 194.695312 137.054688 Z M 134.660156 234.683594 C 134.882812 235.15625 135.25 235.453125 135.761719 235.574219 C 136.449219 235.699219 137.058594 235.53125 137.585938 235.066406 C 137.945312 234.808594 138.226562 234.488281 138.433594 234.097656 C 138.640625 233.710938 138.753906 233.296875 138.769531 232.855469 L 138.769531 221.234375 C 138.78125 220.925781 138.757812 220.621094 138.699219 220.316406 C 138.640625 220.011719 138.542969 219.71875 138.414062 219.4375 C 138.289062 219.15625 138.128906 218.894531 137.9375 218.652344 C 137.746094 218.40625 137.53125 218.1875 137.289062 217.996094 C 137.046875 217.804688 136.785156 217.640625 136.503906 217.511719 C 136.222656 217.378906 135.933594 217.285156 135.628906 217.222656 C 135.324219 217.160156 135.019531 217.132812 134.710938 217.144531 C 134.402344 217.152344 134.097656 217.199219 133.796875 217.28125 C 132.148438 217.582031 130.507812 217.851562 128.859375 218.082031 L 128.113281 220.664062 C 127.914062 221.339844 127.71875 222.003906 127.53125 222.675781 L 127.429688 223.019531 L 127.335938 222.699219 C 127.167969 222.066406 127.003906 221.433594 126.824219 220.800781 C 126.617188 220 126.402344 219.210938 126.191406 218.414062 C 124.480469 218.601562 122.769531 218.746094 121.003906 218.839844 C 120.683594 218.859375 120.363281 218.910156 120.050781 218.992188 C 119.738281 219.074219 119.433594 219.183594 119.140625 219.320312 C 118.847656 219.457031 118.570312 219.621094 118.308594 219.808594 C 118.046875 220 117.804688 220.210938 117.582031 220.445312 C 117.359375 220.683594 117.160156 220.9375 116.984375 221.207031 C 116.808594 221.480469 116.660156 221.765625 116.539062 222.066406 C 116.417969 222.367188 116.324219 222.675781 116.261719 222.992188 C 116.195312 223.308594 116.164062 223.628906 116.160156 223.953125 L 116.160156 235.480469 C 116.15625 235.785156 116.210938 236.078125 116.324219 236.359375 C 116.441406 236.644531 116.605469 236.890625 116.824219 237.105469 C 117.039062 237.320312 117.289062 237.484375 117.570312 237.59375 C 117.855469 237.707031 118.148438 237.761719 118.453125 237.753906 C 118.777344 237.773438 119.089844 237.714844 119.386719 237.585938 C 119.917969 237.363281 120.277344 236.976562 120.476562 236.4375 L 120.476562 253.222656 C 120.46875 253.601562 120.535156 253.964844 120.679688 254.308594 C 120.824219 254.65625 121.035156 254.960938 121.308594 255.21875 C 121.582031 255.476562 121.898438 255.667969 122.253906 255.792969 C 122.609375 255.917969 122.976562 255.964844 123.351562 255.933594 C 123.742188 255.890625 124.117188 255.78125 124.46875 255.601562 C 124.820312 255.421875 125.128906 255.1875 125.394531 254.894531 C 125.664062 254.601562 125.867188 254.269531 126.011719 253.902344 C 126.15625 253.535156 126.230469 253.152344 126.234375 252.757812 L 126.234375 239.269531 C 127.128906 239.164062 128.019531 239.0625 128.902344 238.9375 L 128.902344 252.425781 C 128.894531 252.609375 128.910156 252.789062 128.941406 252.96875 C 128.976562 253.144531 129.03125 253.320312 129.105469 253.484375 C 129.175781 253.652344 129.269531 253.808594 129.378906 253.957031 C 129.488281 254.101562 129.609375 254.234375 129.75 254.351562 C 129.886719 254.472656 130.039062 254.574219 130.199219 254.65625 C 130.359375 254.742188 130.53125 254.804688 130.707031 254.851562 C 130.882812 254.898438 131.0625 254.925781 131.246094 254.929688 C 131.425781 254.933594 131.605469 254.921875 131.785156 254.882812 C 132.183594 254.804688 132.554688 254.660156 132.90625 254.457031 C 133.253906 254.25 133.558594 253.992188 133.820312 253.679688 C 134.082031 253.371094 134.285156 253.027344 134.425781 252.648438 C 134.570312 252.269531 134.648438 251.875 134.660156 251.472656 Z M 128.132812 216.847656 C 128.589844 216.769531 129.039062 216.65625 129.472656 216.5 C 129.910156 216.347656 130.332031 216.15625 130.734375 215.929688 C 131.140625 215.703125 131.523438 215.445312 131.882812 215.152344 C 132.242188 214.859375 132.570312 214.535156 132.875 214.1875 C 133.179688 213.835938 133.449219 213.464844 133.6875 213.066406 C 133.929688 212.667969 134.128906 212.253906 134.296875 211.824219 C 134.464844 211.390625 134.59375 210.945312 134.683594 210.492188 C 134.773438 210.039062 134.824219 209.578125 134.835938 209.117188 C 134.835938 205.441406 131.859375 203.066406 128.183594 203.542969 C 127.742188 203.597656 127.304688 203.691406 126.878906 203.824219 C 126.449219 203.957031 126.039062 204.128906 125.640625 204.332031 C 125.242188 204.539062 124.867188 204.777344 124.511719 205.046875 C 124.152344 205.320312 123.824219 205.621094 123.523438 205.953125 C 123.222656 206.28125 122.949219 206.636719 122.710938 207.015625 C 122.46875 207.390625 122.265625 207.789062 122.097656 208.203125 C 121.925781 208.617188 121.792969 209.042969 121.699219 209.480469 C 121.605469 209.917969 121.550781 210.359375 121.535156 210.808594 C 121.519531 211.234375 121.546875 211.65625 121.625 212.074219 C 121.699219 212.492188 121.820312 212.898438 121.984375 213.289062 C 122.148438 213.683594 122.351562 214.054688 122.597656 214.402344 C 122.839844 214.75 123.121094 215.066406 123.433594 215.355469 C 123.75 215.644531 124.089844 215.894531 124.457031 216.105469 C 124.828125 216.320312 125.214844 216.488281 125.621094 216.617188 C 126.027344 216.746094 126.441406 216.832031 126.863281 216.871094 C 127.289062 216.90625 127.710938 216.898438 128.132812 216.847656 Z M 128.132812 216.847656 " fill-opacity="1" fill-rule="nonzero"/></g><g fill="#fe8d41" fill-opacity="1"><g transform="translate(18.962355, 304.546622)"><g><path d="M 13.835938 -0.289062 L 13.882812 -0.046875 C 14.847656 -0.144531 15.714844 -0.386719 16.484375 -0.769531 C 17.160156 -1.109375 17.738281 -1.542969 18.269531 -2.074219 C 18.75 -2.554688 19.136719 -3.085938 19.378906 -3.664062 C 19.570312 -4.242188 19.761719 -4.773438 19.957031 -5.253906 C 20.050781 -5.734375 20.148438 -6.167969 20.246094 -6.554688 C 20.246094 -6.941406 20.292969 -7.183594 20.390625 -7.277344 C 20.101562 -7.761719 19.714844 -8.050781 19.28125 -8.144531 C 18.800781 -8.144531 18.363281 -8.144531 17.980469 -8.144531 C 17.546875 -8.097656 17.207031 -7.90625 16.96875 -7.617188 C 16.679688 -7.230469 16.4375 -6.894531 16.292969 -6.605469 C 16.050781 -6.121094 15.859375 -5.734375 15.761719 -5.351562 C 15.570312 -4.867188 15.375 -4.433594 15.183594 -4.097656 C 14.894531 -3.664062 14.605469 -3.324219 14.269531 -3.085938 C 13.835938 -2.746094 13.351562 -2.554688 12.820312 -2.554688 C 11.085938 -3.179688 9.738281 -4.195312 8.675781 -5.589844 C 7.617188 -6.941406 6.796875 -8.53125 6.21875 -10.363281 C 5.640625 -12.097656 5.300781 -13.980469 5.207031 -16.003906 C 5.109375 -16.96875 5.109375 -17.980469 5.15625 -18.945312 C 5.15625 -19.90625 5.253906 -20.871094 5.398438 -21.835938 C 5.589844 -23.765625 5.976562 -25.546875 6.554688 -27.1875 C 7.085938 -28.824219 7.710938 -30.125 8.484375 -31.140625 C 9.253906 -32.152344 10.074219 -32.777344 10.988281 -33.019531 C 11.90625 -33.257812 12.820312 -32.96875 13.785156 -32.101562 C 13.980469 -31.910156 14.125 -31.765625 14.269531 -31.621094 C 14.414062 -31.429688 14.558594 -31.285156 14.703125 -31.140625 C 14.894531 -30.847656 15.136719 -30.609375 15.425781 -30.414062 C 15.617188 -30.222656 15.859375 -30.078125 16.148438 -29.980469 C 16.390625 -29.886719 16.726562 -29.835938 17.160156 -29.886719 C 17.835938 -29.886719 18.171875 -30.175781 18.171875 -30.753906 C 18.171875 -31.234375 17.929688 -31.8125 17.496094 -32.488281 C 17.015625 -33.066406 16.390625 -33.644531 15.617188 -34.222656 C 14.75 -34.707031 13.882812 -34.996094 13.015625 -35.089844 C 12.675781 -35.089844 12.339844 -35.140625 12.003906 -35.140625 L 10.894531 -35.140625 C 10.074219 -35.140625 9.253906 -35.042969 8.484375 -34.851562 C 7.617188 -34.65625 6.84375 -34.320312 6.074219 -33.839844 C 5.300781 -33.355469 4.578125 -32.632812 3.953125 -31.71875 C 2.699219 -29.886719 1.734375 -27.8125 1.058594 -25.5 C 0.335938 -23.089844 -0.046875 -20.726562 -0.046875 -18.414062 C -0.0976562 -16.003906 0.144531 -13.640625 0.675781 -11.425781 C 1.203125 -9.109375 2.023438 -7.132812 3.179688 -5.445312 C 4.339844 -3.710938 5.785156 -2.363281 7.566406 -1.398438 C 9.351562 -0.433594 11.425781 -0.046875 13.835938 -0.289062 Z M 13.835938 -0.289062 "/></g></g></g><g fill="#fe8d41" fill-opacity="1"><g transform="translate(48.31509, 304.546622)"><g><path d="M 1.253906 -3.179688 L 1.589844 -3.277344 C 2.363281 -3.179688 2.941406 -3.230469 3.324219 -3.421875 C 3.710938 -3.519531 4 -3.808594 4.195312 -4.289062 C 4.386719 -4.773438 4.53125 -5.351562 4.578125 -6.121094 C 4.578125 -6.894531 4.675781 -7.90625 4.867188 -9.160156 L 8.726562 -9.160156 C 8.917969 -8.433594 9.0625 -7.710938 9.160156 -7.039062 C 9.160156 -6.652344 9.207031 -6.316406 9.207031 -6.023438 C 9.207031 -5.734375 9.253906 -5.398438 9.351562 -5.109375 C 9.449219 -4.433594 9.640625 -3.953125 10.027344 -3.613281 C 10.316406 -3.230469 10.699219 -3.035156 11.183594 -3.035156 C 11.570312 -2.941406 12.003906 -2.988281 12.484375 -3.179688 C 12.871094 -3.277344 13.207031 -3.46875 13.496094 -3.761719 C 13.496094 -3.855469 13.449219 -4.144531 13.398438 -4.53125 C 13.351562 -4.917969 13.304688 -5.398438 13.253906 -6.074219 C 13.0625 -7.328125 12.871094 -8.917969 12.675781 -10.84375 C 12.386719 -12.675781 12.097656 -14.652344 11.808594 -16.773438 C 11.617188 -17.785156 11.472656 -18.800781 11.28125 -19.761719 C 11.085938 -20.726562 10.894531 -21.691406 10.699219 -22.65625 C 10.316406 -24.488281 9.929688 -26.03125 9.542969 -27.28125 C 9.160156 -28.535156 8.773438 -29.257812 8.484375 -29.402344 C 7.230469 -29.980469 6.21875 -30.320312 5.496094 -30.414062 C 4.722656 -30.464844 4.195312 -30.320312 3.808594 -29.980469 C 3.421875 -29.597656 3.132812 -29.164062 2.988281 -28.585938 C 2.890625 -28.292969 2.84375 -27.957031 2.796875 -27.667969 C 2.699219 -27.378906 2.652344 -27.042969 2.601562 -26.753906 C 2.410156 -25.5 2.265625 -24.390625 2.121094 -23.328125 C 1.976562 -22.269531 1.878906 -21.304688 1.785156 -20.4375 C 1.6875 -19.570312 1.589844 -18.75 1.496094 -18.027344 C 1.398438 -17.257812 1.300781 -16.582031 1.253906 -16.003906 C 1.15625 -15.375 1.109375 -14.796875 1.058594 -14.316406 C 1.011719 -13.785156 0.964844 -13.304688 0.914062 -12.871094 C 0.820312 -12.003906 0.722656 -11.183594 0.625 -10.410156 L 0.335938 -8.097656 L 0.0976562 -6.796875 C 0 -6.316406 -0.0976562 -5.785156 -0.191406 -5.253906 C -0.386719 -4.484375 -0.335938 -4 -0.144531 -3.710938 C 0.046875 -3.421875 0.480469 -3.230469 1.253906 -3.179688 Z M 5.207031 -12.148438 L 5.300781 -12.195312 C 5.253906 -12.339844 5.253906 -12.53125 5.253906 -12.820312 L 5.253906 -13.785156 C 5.253906 -14.507812 5.300781 -15.328125 5.398438 -16.195312 C 5.445312 -16.628906 5.496094 -17.0625 5.589844 -17.496094 C 5.640625 -17.882812 5.6875 -18.316406 5.785156 -18.800781 C 5.878906 -19.570312 6.121094 -20.292969 6.460938 -20.871094 C 6.507812 -20.582031 6.554688 -20.292969 6.605469 -20.101562 C 6.605469 -19.90625 6.652344 -19.714844 6.699219 -19.570312 C 6.699219 -19.28125 6.75 -19.039062 6.84375 -18.847656 C 6.84375 -18.703125 6.894531 -18.460938 6.988281 -18.171875 C 6.988281 -18.027344 7.039062 -17.882812 7.039062 -17.738281 C 7.039062 -17.546875 7.085938 -17.351562 7.183594 -17.160156 C 7.230469 -16.917969 7.277344 -16.679688 7.328125 -16.390625 L 7.519531 -15.375 C 7.617188 -14.605469 7.808594 -13.59375 8.097656 -12.339844 C 7.519531 -12.148438 7.039062 -12.050781 6.605469 -12.050781 C 6.316406 -12.050781 6.074219 -12.050781 5.878906 -12.050781 C 5.640625 -12.050781 5.398438 -12.097656 5.207031 -12.148438 Z M 5.207031 -12.148438 "/></g></g></g><g fill="#fe8d41" fill-opacity="1"><g transform="translate(71.932114, 304.546622)"><g><path d="M 1.929688 -3.324219 L 2.121094 -3.421875 C 2.699219 -3.324219 3.277344 -3.324219 3.855469 -3.421875 C 4.242188 -3.421875 4.578125 -3.566406 4.820312 -3.808594 C 4.964844 -3.953125 5.0625 -4.339844 5.15625 -4.917969 C 5.15625 -5.398438 5.15625 -6.21875 5.15625 -7.277344 C 5.109375 -7.808594 5.0625 -8.433594 5.0625 -9.109375 C 5.0625 -9.785156 5.0625 -10.605469 5.0625 -11.519531 C 5.15625 -11.519531 5.253906 -11.570312 5.398438 -11.664062 C 5.496094 -11.714844 5.640625 -11.761719 5.734375 -11.808594 C 7.472656 -12.582031 8.964844 -13.640625 10.121094 -14.992188 C 11.28125 -16.292969 12.097656 -17.640625 12.582031 -19.089844 C 13.0625 -20.535156 13.207031 -21.933594 13.015625 -23.378906 C 12.820312 -24.777344 12.339844 -26.03125 11.570312 -27.089844 C 10.796875 -28.101562 9.738281 -28.875 8.386719 -29.453125 C 7.039062 -29.980469 5.398438 -30.078125 3.519531 -29.742188 C 3.085938 -29.644531 2.699219 -29.597656 2.410156 -29.546875 C 2.121094 -29.453125 1.832031 -29.402344 1.589844 -29.355469 C 1.109375 -29.257812 0.769531 -29.113281 0.53125 -28.921875 C 0.242188 -28.730469 0.0976562 -28.441406 0.0976562 -28.054688 C 0.046875 -27.859375 0 -27.621094 0 -27.332031 C 0 -27.042969 0 -26.703125 0 -26.367188 L 0 -23.667969 C 0 -23.089844 -0.046875 -22.511719 -0.046875 -21.835938 C -0.046875 -21.160156 -0.0976562 -20.4375 -0.0976562 -19.667969 C -0.289062 -14.75 -0.144531 -9.929688 0.335938 -5.109375 C 0.386719 -4.484375 0.53125 -4.050781 0.769531 -3.855469 C 1.011719 -3.566406 1.398438 -3.421875 1.929688 -3.324219 Z M 4.867188 -14.558594 L 4.964844 -14.75 C 4.773438 -14.847656 4.675781 -14.992188 4.675781 -15.183594 C 4.578125 -15.375 4.578125 -15.570312 4.578125 -15.808594 L 4.578125 -19.089844 C 4.578125 -19.523438 4.53125 -20.003906 4.53125 -20.582031 C 4.53125 -21.113281 4.484375 -21.738281 4.484375 -22.414062 C 4.386719 -23.765625 4.289062 -25.449219 4.195312 -27.425781 C 4.144531 -27.8125 4.242188 -28.054688 4.53125 -28.199219 C 4.820312 -28.292969 5.15625 -28.292969 5.542969 -28.199219 C 5.878906 -28.054688 6.265625 -27.765625 6.699219 -27.378906 C 7.039062 -26.992188 7.328125 -26.464844 7.617188 -25.691406 C 8.242188 -23.523438 8.386719 -21.5 8 -19.617188 C 7.617188 -17.691406 6.554688 -16.003906 4.867188 -14.558594 Z M 4.867188 -14.558594 "/></g></g></g><g fill="#fe8d41" fill-opacity="1"><g transform="translate(94.199563, 304.546622)"><g><path d="M 8.433594 -3.085938 L 8.578125 -3.132812 C 9.0625 -3.230469 9.351562 -3.566406 9.351562 -4.144531 L 9.351562 -4.867188 C 9.351562 -5.109375 9.304688 -5.351562 9.304688 -5.640625 C 9.207031 -6.75 9.160156 -7.761719 9.160156 -8.726562 C 9.109375 -9.6875 9.0625 -10.554688 9.0625 -11.425781 C 9.015625 -12.964844 8.964844 -14.414062 8.917969 -15.664062 C 8.820312 -16.824219 8.773438 -17.882812 8.773438 -18.847656 C 8.675781 -19.714844 8.628906 -20.582031 8.628906 -21.449219 C 8.578125 -21.835938 8.53125 -22.269531 8.53125 -22.65625 C 8.484375 -23.039062 8.433594 -23.476562 8.386719 -23.957031 C 8.289062 -24.390625 8.242188 -24.824219 8.195312 -25.304688 C 8.144531 -25.789062 8.097656 -26.269531 8.050781 -26.847656 L 7.90625 -27.570312 C 7.808594 -27.8125 7.953125 -28.101562 8.242188 -28.390625 C 10.074219 -28.390625 11.28125 -28.535156 11.90625 -28.875 C 12.53125 -29.210938 12.53125 -29.546875 11.90625 -29.835938 C 11.28125 -30.125 10.027344 -30.320312 8.195312 -30.414062 C 6.410156 -30.511719 3.953125 -30.320312 0.867188 -29.886719 C 0.675781 -29.886719 0.578125 -29.835938 0.480469 -29.742188 C 0.335938 -29.597656 0.191406 -29.5 0.0976562 -29.5 C -0.0976562 -29.402344 -0.144531 -29.210938 -0.144531 -29.019531 C -0.144531 -28.777344 -0.0976562 -28.632812 0.0976562 -28.585938 C 0.433594 -28.390625 0.675781 -28.292969 0.867188 -28.292969 C 1.109375 -28.199219 1.300781 -28.199219 1.496094 -28.199219 L 3.808594 -28.199219 C 3.808594 -27.621094 3.855469 -27.089844 3.855469 -26.609375 C 3.855469 -26.125 3.90625 -25.644531 4 -25.210938 C 4.050781 -24.726562 4.097656 -24.292969 4.097656 -23.8125 C 4.097656 -23.328125 4.144531 -22.894531 4.195312 -22.460938 C 4.242188 -21.980469 4.289062 -21.355469 4.339844 -20.535156 C 4.339844 -20.050781 4.386719 -19.617188 4.386719 -19.136719 C 4.386719 -18.65625 4.433594 -18.171875 4.53125 -17.640625 C 4.578125 -17.0625 4.628906 -16.535156 4.675781 -15.953125 C 4.675781 -15.375 4.722656 -14.796875 4.820312 -14.21875 C 4.867188 -13.59375 4.917969 -12.964844 4.964844 -12.386719 C 4.964844 -11.808594 5.011719 -11.230469 5.109375 -10.652344 C 5.15625 -10.074219 5.207031 -9.496094 5.207031 -8.964844 C 5.207031 -8.433594 5.253906 -7.953125 5.300781 -7.472656 C 5.351562 -6.460938 5.398438 -5.6875 5.445312 -5.207031 C 5.496094 -4.628906 5.589844 -4.195312 5.785156 -3.90625 C 5.976562 -3.519531 6.21875 -3.277344 6.507812 -3.179688 C 6.796875 -2.988281 7.132812 -2.941406 7.421875 -2.941406 C 7.710938 -2.941406 8.050781 -2.988281 8.433594 -3.085938 Z M 8.433594 -3.085938 "/></g></g></g><g fill="#fe8d41" fill-opacity="1"><g transform="translate(115.744015, 304.546622)"><g><path d="M 6.699219 -3.132812 L 6.84375 -3.324219 C 8.289062 -3.035156 9.449219 -3.035156 10.316406 -3.324219 C 11.183594 -3.613281 11.859375 -4.144531 12.386719 -4.964844 C 12.871094 -5.734375 13.253906 -6.796875 13.449219 -8.144531 C 13.640625 -9.449219 13.785156 -10.941406 13.882812 -12.675781 C 13.882812 -14.027344 13.882812 -15.664062 13.882812 -17.59375 C 13.785156 -19.472656 13.691406 -21.304688 13.59375 -23.039062 C 13.449219 -24.679688 13.304688 -26.222656 13.160156 -27.570312 C 13.015625 -28.824219 12.871094 -29.546875 12.773438 -29.742188 C 12.003906 -30.222656 11.183594 -30.367188 10.316406 -30.175781 C 9.785156 -29.980469 9.449219 -29.789062 9.351562 -29.597656 C 9.207031 -29.355469 9.160156 -29.019531 9.207031 -28.535156 C 9.207031 -27.859375 9.304688 -26.898438 9.496094 -25.644531 C 9.542969 -24.96875 9.59375 -24.292969 9.640625 -23.570312 C 9.6875 -22.800781 9.738281 -22.027344 9.832031 -21.210938 C 9.882812 -20.339844 9.929688 -19.523438 9.976562 -18.65625 C 9.976562 -17.785156 10.027344 -16.917969 10.074219 -16.050781 C 10.074219 -15.136719 10.121094 -14.269531 10.121094 -13.449219 C 10.121094 -12.582031 10.074219 -11.808594 10.027344 -11.039062 C 9.929688 -10.265625 9.882812 -9.542969 9.785156 -8.871094 C 9.6875 -8.195312 9.59375 -7.566406 9.496094 -7.039062 C 9.207031 -5.878906 8.820312 -5.15625 8.339844 -4.867188 C 7.710938 -5.445312 7.230469 -6.023438 6.894531 -6.699219 C 6.507812 -7.375 6.21875 -8.097656 6.074219 -8.917969 C 5.878906 -9.785156 5.734375 -10.796875 5.640625 -11.953125 C 5.542969 -12.53125 5.496094 -13.160156 5.445312 -13.835938 C 5.351562 -14.507812 5.300781 -15.28125 5.253906 -16.101562 C 5.0625 -17.738281 4.867188 -19.617188 4.675781 -21.691406 C 4.386719 -23.859375 4.050781 -26.320312 3.664062 -29.019531 C 3.613281 -29.402344 3.375 -29.742188 2.988281 -30.03125 C 2.601562 -30.222656 2.21875 -30.367188 1.832031 -30.367188 C 1.398438 -30.367188 1.011719 -30.222656 0.675781 -30.03125 C 0.242188 -29.742188 0 -29.402344 0 -29.019531 C -0.0976562 -28.679688 -0.144531 -28.441406 -0.144531 -28.34375 C -0.191406 -28.199219 -0.191406 -27.910156 -0.191406 -27.523438 L -0.191406 -26.898438 C -0.191406 -26.609375 -0.191406 -26.320312 -0.144531 -25.980469 C -0.144531 -25.59375 -0.0976562 -25.210938 -0.0976562 -24.726562 C -0.0976562 -24.246094 -0.046875 -23.714844 0.046875 -23.136719 C 0.0976562 -22.511719 0.144531 -21.789062 0.242188 -21.015625 C 0.289062 -20.246094 0.335938 -19.378906 0.433594 -18.414062 C 0.480469 -17.449219 0.578125 -16.339844 0.675781 -15.183594 C 0.769531 -14.027344 0.867188 -12.726562 1.011719 -11.28125 C 1.058594 -10.363281 1.203125 -9.496094 1.496094 -8.628906 C 1.785156 -7.761719 2.167969 -6.894531 2.652344 -6.121094 C 3.132812 -5.300781 3.710938 -4.628906 4.386719 -4.144531 C 5.0625 -3.566406 5.832031 -3.230469 6.699219 -3.132812 Z M 6.699219 -3.132812 "/></g></g></g><g fill="#fe8d41" fill-opacity="1"><g transform="translate(138.734438, 304.546622)"><g><path d="M 4.484375 -2.941406 L 4.675781 -2.890625 C 5.207031 -2.941406 5.589844 -3.035156 5.832031 -3.230469 C 6.074219 -3.421875 6.21875 -3.710938 6.265625 -4.144531 C 6.265625 -4.53125 6.265625 -5.109375 6.265625 -5.878906 C 6.21875 -6.554688 6.167969 -7.519531 6.121094 -8.726562 L 6.121094 -9.207031 C 6.121094 -9.351562 6.265625 -9.496094 6.554688 -9.6875 L 6.988281 -9.253906 C 7.039062 -9.160156 7.132812 -9.0625 7.230469 -8.964844 C 7.328125 -8.820312 7.472656 -8.628906 7.664062 -8.433594 C 7.855469 -8.242188 8.050781 -7.953125 8.339844 -7.664062 C 8.578125 -7.328125 8.917969 -6.894531 9.304688 -6.410156 C 9.6875 -5.929688 10.121094 -5.351562 10.699219 -4.675781 C 11.085938 -4.097656 11.617188 -3.710938 12.292969 -3.519531 C 12.964844 -3.324219 13.496094 -3.230469 13.929688 -3.277344 C 14.414062 -3.324219 14.75 -3.519531 15.039062 -3.808594 C 15.230469 -4.097656 15.230469 -4.433594 15.039062 -4.867188 C 14.941406 -5.011719 14.847656 -5.15625 14.75 -5.300781 C 14.652344 -5.445312 14.558594 -5.589844 14.507812 -5.734375 C 14.363281 -5.929688 14.027344 -6.316406 13.542969 -6.894531 C 13.0625 -7.375 12.386719 -8.144531 11.472656 -9.253906 C 10.507812 -10.316406 9.207031 -11.808594 7.566406 -13.738281 C 8.628906 -15.085938 9.542969 -16.292969 10.316406 -17.351562 C 11.039062 -18.414062 11.617188 -19.328125 12.003906 -20.195312 C 12.386719 -21.066406 12.628906 -21.933594 12.726562 -22.800781 C 12.820312 -23.667969 12.820312 -24.632812 12.726562 -25.691406 C 12.53125 -27.8125 11.425781 -29.210938 9.398438 -29.886719 C 9.015625 -29.980469 8.628906 -30.125 8.242188 -30.222656 C 7.808594 -30.320312 7.328125 -30.414062 6.84375 -30.511719 C 5.785156 -30.703125 4.820312 -30.800781 3.90625 -30.800781 C 2.941406 -30.800781 2.074219 -30.65625 1.398438 -30.367188 C 0.675781 -30.078125 0.289062 -29.546875 0.191406 -28.875 C 0.046875 -27.957031 -0.046875 -27.234375 -0.0976562 -26.753906 C -0.144531 -26.464844 -0.191406 -26.222656 -0.191406 -25.980469 C -0.191406 -25.691406 -0.191406 -25.449219 -0.191406 -25.160156 C -0.191406 -24.871094 -0.191406 -24.535156 -0.191406 -24.199219 C -0.191406 -23.8125 -0.144531 -23.425781 -0.0976562 -23.039062 C -0.0976562 -22.171875 0 -20.96875 0.191406 -19.425781 C 0.289062 -18.074219 0.335938 -16.871094 0.433594 -15.808594 C 0.53125 -14.75 0.578125 -13.785156 0.675781 -12.964844 C 0.722656 -12.097656 0.769531 -11.375 0.820312 -10.699219 C 0.867188 -10.027344 0.914062 -9.398438 1.011719 -8.871094 C 1.058594 -8.289062 1.109375 -7.855469 1.109375 -7.472656 C 1.109375 -7.085938 1.15625 -6.75 1.203125 -6.507812 C 1.203125 -5.929688 1.253906 -5.542969 1.351562 -5.351562 C 1.351562 -5.207031 1.398438 -5.109375 1.398438 -5.011719 L 1.398438 -4.820312 L 1.445312 -4.386719 C 1.589844 -3.613281 1.929688 -3.179688 2.507812 -3.085938 C 3.085938 -2.890625 3.710938 -2.84375 4.484375 -2.941406 Z M 5.398438 -16.582031 L 5.398438 -16.484375 C 5.253906 -17.59375 5.15625 -18.605469 5.0625 -19.472656 C 4.964844 -20.339844 4.867188 -21.160156 4.820312 -21.882812 C 4.722656 -22.558594 4.675781 -23.183594 4.628906 -23.765625 C 4.53125 -24.292969 4.484375 -24.777344 4.433594 -25.210938 C 4.339844 -25.59375 4.289062 -25.980469 4.289062 -26.269531 C 4.289062 -26.558594 4.242188 -26.800781 4.242188 -26.992188 C 4.195312 -27.1875 4.144531 -27.332031 4.144531 -27.476562 C 4.144531 -27.621094 4.144531 -27.765625 4.144531 -27.859375 L 4.144531 -28.632812 C 4.144531 -28.730469 4.144531 -28.875 4.195312 -29.066406 C 4.484375 -28.96875 4.722656 -28.921875 5.011719 -28.875 C 5.253906 -28.824219 5.496094 -28.777344 5.734375 -28.730469 C 5.929688 -28.632812 6.167969 -28.585938 6.363281 -28.535156 C 6.554688 -28.441406 6.699219 -28.390625 6.894531 -28.34375 C 7.183594 -28.148438 7.472656 -27.910156 7.761719 -27.621094 C 8 -27.234375 8.195312 -26.800781 8.339844 -26.269531 C 8.53125 -25.402344 8.578125 -24.535156 8.484375 -23.667969 C 8.386719 -22.75 8.195312 -21.882812 7.90625 -21.015625 C 7.617188 -20.195312 7.277344 -19.378906 6.796875 -18.558594 C 6.363281 -17.785156 5.878906 -17.113281 5.398438 -16.582031 Z M 5.398438 -16.582031 "/></g></g></g><g fill="#fe8d41" fill-opacity="1"><g transform="translate(163.02625, 304.546622)"><g><path d="M 8.195312 -3.179688 L 8.386719 -3.277344 C 8.484375 -3.277344 8.628906 -3.375 8.820312 -3.566406 C 8.917969 -3.664062 9.0625 -3.761719 9.253906 -3.90625 C 9.015625 -4.242188 8.726562 -4.484375 8.386719 -4.675781 C 8 -4.820312 7.664062 -4.917969 7.328125 -4.964844 C 7.132812 -4.964844 6.941406 -5.011719 6.75 -5.011719 L 6.167969 -5.011719 C 5.785156 -5.011719 5.398438 -5.0625 5.011719 -5.253906 L 4.964844 -16.101562 C 5.496094 -16.148438 5.976562 -16.195312 6.410156 -16.246094 C 6.796875 -16.246094 7.183594 -16.292969 7.566406 -16.339844 C 7.90625 -16.339844 8.195312 -16.390625 8.484375 -16.4375 C 8.726562 -16.4375 8.964844 -16.484375 9.160156 -16.582031 C 9.496094 -16.679688 9.738281 -16.773438 9.929688 -16.96875 C 10.027344 -17.0625 10.121094 -17.257812 10.121094 -17.546875 C 9.929688 -17.738281 9.6875 -17.929688 9.398438 -18.027344 C 9.160156 -18.074219 8.820312 -18.125 8.386719 -18.21875 C 8.195312 -18.21875 7.953125 -18.269531 7.710938 -18.269531 L 6.988281 -18.269531 C 6.699219 -18.269531 6.410156 -18.269531 6.074219 -18.316406 C 5.734375 -18.316406 5.398438 -18.363281 5.011719 -18.460938 C 4.917969 -18.847656 4.867188 -19.28125 4.867188 -19.761719 C 4.820312 -20.195312 4.773438 -20.679688 4.773438 -21.160156 C 4.722656 -21.644531 4.675781 -22.078125 4.675781 -22.558594 C 4.675781 -23.039062 4.675781 -23.476562 4.675781 -23.957031 L 4.675781 -26.414062 C 4.675781 -26.753906 4.675781 -27.089844 4.675781 -27.378906 C 4.675781 -27.667969 4.722656 -27.910156 4.773438 -28.101562 L 6.023438 -28.101562 C 6.121094 -28.101562 6.265625 -28.101562 6.460938 -28.148438 C 7.328125 -28.246094 7.953125 -28.390625 8.242188 -28.585938 C 8.53125 -28.777344 8.628906 -28.96875 8.53125 -29.164062 C 8.433594 -29.355469 8.195312 -29.546875 7.855469 -29.742188 C 7.566406 -29.886719 7.230469 -29.980469 6.84375 -30.078125 C 5.976562 -30.175781 5.253906 -30.269531 4.578125 -30.320312 C 3.90625 -30.367188 3.375 -30.414062 2.941406 -30.414062 C 2.023438 -30.414062 1.351562 -30.269531 0.914062 -30.03125 C 0.433594 -29.742188 0.191406 -29.308594 0.0976562 -28.730469 C 0 -28.054688 -0.046875 -27.234375 -0.046875 -26.269531 C -0.144531 -22.605469 -0.0976562 -19.039062 0.0976562 -15.570312 C 0.191406 -12.003906 0.433594 -8.433594 0.820312 -4.867188 C 0.914062 -3.90625 1.351562 -3.375 2.121094 -3.277344 C 2.601562 -3.179688 3.132812 -3.132812 3.613281 -3.085938 C 4.097656 -2.988281 4.628906 -2.941406 5.15625 -2.890625 C 6.121094 -2.796875 7.132812 -2.890625 8.195312 -3.179688 Z M 8.195312 -3.179688 "/></g></g></g><g fill="#fe8d41" fill-opacity="1"><g transform="translate(182.257129, 304.546622)"><g/></g></g><g fill="#fe8d41" fill-opacity="1"><g transform="translate(191.317965, 304.546622)"><g><path d="M 8.433594 -3.085938 L 8.578125 -3.132812 C 9.0625 -3.230469 9.351562 -3.566406 9.351562 -4.144531 L 9.351562 -4.867188 C 9.351562 -5.109375 9.304688 -5.351562 9.304688 -5.640625 C 9.207031 -6.75 9.160156 -7.761719 9.160156 -8.726562 C 9.109375 -9.6875 9.0625 -10.554688 9.0625 -11.425781 C 9.015625 -12.964844 8.964844 -14.414062 8.917969 -15.664062 C 8.820312 -16.824219 8.773438 -17.882812 8.773438 -18.847656 C 8.675781 -19.714844 8.628906 -20.582031 8.628906 -21.449219 C 8.578125 -21.835938 8.53125 -22.269531 8.53125 -22.65625 C 8.484375 -23.039062 8.433594 -23.476562 8.386719 -23.957031 C 8.289062 -24.390625 8.242188 -24.824219 8.195312 -25.304688 C 8.144531 -25.789062 8.097656 -26.269531 8.050781 -26.847656 L 7.90625 -27.570312 C 7.808594 -27.8125 7.953125 -28.101562 8.242188 -28.390625 C 10.074219 -28.390625 11.28125 -28.535156 11.90625 -28.875 C 12.53125 -29.210938 12.53125 -29.546875 11.90625 -29.835938 C 11.28125 -30.125 10.027344 -30.320312 8.195312 -30.414062 C 6.410156 -30.511719 3.953125 -30.320312 0.867188 -29.886719 C 0.675781 -29.886719 0.578125 -29.835938 0.480469 -29.742188 C 0.335938 -29.597656 0.191406 -29.5 0.0976562 -29.5 C -0.0976562 -29.402344 -0.144531 -29.210938 -0.144531 -29.019531 C -0.144531 -28.777344 -0.0976562 -28.632812 0.0976562 -28.585938 C 0.433594 -28.390625 0.675781 -28.292969 0.867188 -28.292969 C 1.109375 -28.199219 1.300781 -28.199219 1.496094 -28.199219 L 3.808594 -28.199219 C 3.808594 -27.621094 3.855469 -27.089844 3.855469 -26.609375 C 3.855469 -26.125 3.90625 -25.644531 4 -25.210938 C 4.050781 -24.726562 4.097656 -24.292969 4.097656 -23.8125 C 4.097656 -23.328125 4.144531 -22.894531 4.195312 -22.460938 C 4.242188 -21.980469 4.289062 -21.355469 4.339844 -20.535156 C 4.339844 -20.050781 4.386719 -19.617188 4.386719 -19.136719 C 4.386719 -18.65625 4.433594 -18.171875 4.53125 -17.640625 C 4.578125 -17.0625 4.628906 -16.535156 4.675781 -15.953125 C 4.675781 -15.375 4.722656 -14.796875 4.820312 -14.21875 C 4.867188 -13.59375 4.917969 -12.964844 4.964844 -12.386719 C 4.964844 -11.808594 5.011719 -11.230469 5.109375 -10.652344 C 5.15625 -10.074219 5.207031 -9.496094 5.207031 -8.964844 C 5.207031 -8.433594 5.253906 -7.953125 5.300781 -7.472656 C 5.351562 -6.460938 5.398438 -5.6875 5.445312 -5.207031 C 5.496094 -4.628906 5.589844 -4.195312 5.785156 -3.90625 C 5.976562 -3.519531 6.21875 -3.277344 6.507812 -3.179688 C 6.796875 -2.988281 7.132812 -2.941406 7.421875 -2.941406 C 7.710938 -2.941406 8.050781 -2.988281 8.433594 -3.085938 Z M 8.433594 -3.085938 "/></g></g></g><g fill="#fe8d41" fill-opacity="1"><g transform="translate(212.862428, 304.546622)"><g><path d="M 13.015625 -2.652344 L 13.253906 -2.84375 C 13.929688 -2.84375 14.414062 -3.035156 14.703125 -3.375 C 14.941406 -3.664062 15.039062 -4.097656 14.992188 -4.773438 C 14.894531 -6.941406 14.847656 -8.917969 14.796875 -10.75 C 14.703125 -12.53125 14.652344 -14.171875 14.605469 -15.664062 C 14.507812 -17.113281 14.460938 -18.460938 14.460938 -19.667969 C 14.414062 -20.871094 14.363281 -21.980469 14.363281 -22.945312 C 14.316406 -24.824219 14.269531 -26.269531 14.21875 -27.332031 C 14.171875 -28.292969 14.074219 -29.066406 13.929688 -29.546875 C 13.738281 -30.03125 13.542969 -30.320312 13.351562 -30.414062 C 13.160156 -30.464844 12.871094 -30.511719 12.484375 -30.609375 C 12.050781 -30.609375 11.664062 -30.609375 11.28125 -30.609375 C 10.84375 -30.511719 10.460938 -30.320312 10.171875 -30.03125 C 9.976562 -29.644531 9.882812 -29.113281 9.882812 -28.441406 C 9.832031 -28.054688 9.832031 -27.667969 9.832031 -27.28125 L 9.832031 -25.980469 C 9.832031 -25.5 9.832031 -25.066406 9.832031 -24.582031 C 9.832031 -24.101562 9.882812 -23.570312 9.929688 -23.089844 C 9.929688 -22.558594 9.976562 -22.078125 9.976562 -21.644531 C 9.976562 -21.160156 10.027344 -20.726562 10.027344 -20.292969 L 10.027344 -19.089844 C 10.027344 -18.703125 9.976562 -18.363281 9.976562 -18.074219 C 9.882812 -17.402344 9.785156 -17.015625 9.6875 -16.917969 C 8.917969 -16.871094 8.144531 -16.773438 7.328125 -16.628906 C 6.507812 -16.484375 5.6875 -16.484375 4.820312 -16.628906 C 4.722656 -17.257812 4.675781 -17.882812 4.675781 -18.507812 C 4.675781 -19.089844 4.628906 -19.714844 4.628906 -20.292969 C 4.578125 -20.871094 4.578125 -21.402344 4.578125 -21.980469 L 4.578125 -23.621094 C 4.578125 -24.148438 4.53125 -24.679688 4.53125 -25.160156 C 4.53125 -25.644531 4.484375 -26.175781 4.484375 -26.65625 C 4.386719 -27.621094 4.289062 -28.585938 4.195312 -29.5 C 4.144531 -29.886719 3.90625 -30.175781 3.519531 -30.367188 C 3.085938 -30.558594 2.652344 -30.609375 2.21875 -30.609375 C 1.6875 -30.511719 1.253906 -30.367188 0.914062 -30.125 C 0.53125 -29.835938 0.289062 -29.402344 0.191406 -28.824219 C 0.191406 -28.777344 0.144531 -28.148438 0.046875 -26.898438 C -0.046875 -26.222656 -0.0976562 -25.5 -0.0976562 -24.679688 C -0.0976562 -23.8125 -0.144531 -22.894531 -0.144531 -21.835938 C -0.191406 -20.773438 -0.191406 -19.617188 -0.191406 -18.414062 C -0.191406 -17.207031 -0.144531 -15.90625 -0.046875 -14.558594 C 0.046875 -11.761719 0.242188 -8.871094 0.53125 -5.785156 C 0.53125 -5.300781 0.675781 -4.964844 0.914062 -4.773438 C 1.109375 -4.53125 1.398438 -4.386719 1.878906 -4.386719 C 2.796875 -4.195312 3.46875 -4.242188 3.90625 -4.433594 C 4.289062 -4.628906 4.578125 -4.917969 4.773438 -5.398438 C 4.867188 -5.785156 4.917969 -6.316406 4.917969 -6.988281 C 4.867188 -7.277344 4.820312 -7.617188 4.820312 -7.953125 C 4.820312 -8.289062 4.773438 -8.628906 4.722656 -9.015625 C 4.628906 -9.6875 4.578125 -10.410156 4.578125 -11.183594 C 4.578125 -11.953125 4.675781 -12.628906 4.917969 -13.207031 L 10.027344 -13.207031 L 10.21875 -12.4375 C 10.21875 -11.328125 10.265625 -10.363281 10.265625 -9.496094 L 10.265625 -7.277344 C 10.265625 -6.605469 10.265625 -6.074219 10.265625 -5.589844 C 10.265625 -5.109375 10.316406 -4.722656 10.363281 -4.433594 C 10.363281 -3.761719 10.507812 -3.375 10.75 -3.179688 C 10.941406 -2.988281 11.230469 -2.84375 11.664062 -2.746094 C 12.148438 -2.652344 12.628906 -2.601562 13.015625 -2.652344 Z M 13.015625 -2.652344 "/></g></g></g><g fill="#fe8d41" fill-opacity="1"><g transform="translate(236.913238, 304.546622)"><g><path d="M 8.195312 -3.179688 L 8.386719 -3.277344 C 8.484375 -3.277344 8.628906 -3.375 8.820312 -3.566406 C 8.917969 -3.664062 9.0625 -3.761719 9.253906 -3.90625 C 9.015625 -4.242188 8.726562 -4.484375 8.386719 -4.675781 C 8 -4.820312 7.664062 -4.917969 7.328125 -4.964844 C 7.132812 -4.964844 6.941406 -5.011719 6.75 -5.011719 L 6.167969 -5.011719 C 5.785156 -5.011719 5.398438 -5.0625 5.011719 -5.253906 L 4.964844 -16.101562 C 5.496094 -16.148438 5.976562 -16.195312 6.410156 -16.246094 C 6.796875 -16.246094 7.183594 -16.292969 7.566406 -16.339844 C 7.90625 -16.339844 8.195312 -16.390625 8.484375 -16.4375 C 8.726562 -16.4375 8.964844 -16.484375 9.160156 -16.582031 C 9.496094 -16.679688 9.738281 -16.773438 9.929688 -16.96875 C 10.027344 -17.0625 10.121094 -17.257812 10.121094 -17.546875 C 9.929688 -17.738281 9.6875 -17.929688 9.398438 -18.027344 C 9.160156 -18.074219 8.820312 -18.125 8.386719 -18.21875 C 8.195312 -18.21875 7.953125 -18.269531 7.710938 -18.269531 L 6.988281 -18.269531 C 6.699219 -18.269531 6.410156 -18.269531 6.074219 -18.316406 C 5.734375 -18.316406 5.398438 -18.363281 5.011719 -18.460938 C 4.917969 -18.847656 4.867188 -19.28125 4.867188 -19.761719 C 4.820312 -20.195312 4.773438 -20.679688 4.773438 -21.160156 C 4.722656 -21.644531 4.675781 -22.078125 4.675781 -22.558594 C 4.675781 -23.039062 4.675781 -23.476562 4.675781 -23.957031 L 4.675781 -26.414062 C 4.675781 -26.753906 4.675781 -27.089844 4.675781 -27.378906 C 4.675781 -27.667969 4.722656 -27.910156 4.773438 -28.101562 L 6.023438 -28.101562 C 6.121094 -28.101562 6.265625 -28.101562 6.460938 -28.148438 C 7.328125 -28.246094 7.953125 -28.390625 8.242188 -28.585938 C 8.53125 -28.777344 8.628906 -28.96875 8.53125 -29.164062 C 8.433594 -29.355469 8.195312 -29.546875 7.855469 -29.742188 C 7.566406 -29.886719 7.230469 -29.980469 6.84375 -30.078125 C 5.976562 -30.175781 5.253906 -30.269531 4.578125 -30.320312 C 3.90625 -30.367188 3.375 -30.414062 2.941406 -30.414062 C 2.023438 -30.414062 1.351562 -30.269531 0.914062 -30.03125 C 0.433594 -29.742188 0.191406 -29.308594 0.0976562 -28.730469 C 0 -28.054688 -0.046875 -27.234375 -0.046875 -26.269531 C -0.144531 -22.605469 -0.0976562 -19.039062 0.0976562 -15.570312 C 0.191406 -12.003906 0.433594 -8.433594 0.820312 -4.867188 C 0.914062 -3.90625 1.351562 -3.375 2.121094 -3.277344 C 2.601562 -3.179688 3.132812 -3.132812 3.613281 -3.085938 C 4.097656 -2.988281 4.628906 -2.941406 5.15625 -2.890625 C 6.121094 -2.796875 7.132812 -2.890625 8.195312 -3.179688 Z M 8.195312 -3.179688 "/></g></g></g><g fill="#fe8d41" fill-opacity="1"><g transform="translate(256.144117, 304.546622)"><g/></g></g><g fill="#fe8d41" fill-opacity="1"><g transform="translate(265.204953, 304.546622)"><g><path d="M 2.699219 0.480469 L 2.941406 -0.0976562 C 3.664062 0.0976562 4.195312 0.0976562 4.578125 0 C 4.964844 -0.0976562 5.253906 -0.242188 5.496094 -0.480469 C 5.734375 -0.722656 5.878906 -0.964844 5.929688 -1.253906 C 5.976562 -1.542969 5.976562 -1.832031 5.929688 -2.21875 C 5.929688 -2.265625 5.878906 -2.410156 5.878906 -2.601562 C 5.878906 -2.796875 5.832031 -3.035156 5.832031 -3.375 C 5.785156 -3.953125 5.734375 -4.675781 5.6875 -5.640625 C 5.640625 -6.074219 5.589844 -6.507812 5.589844 -6.988281 C 5.589844 -7.472656 5.542969 -7.953125 5.542969 -8.484375 C 5.496094 -8.964844 5.445312 -9.496094 5.445312 -9.976562 C 5.445312 -10.460938 5.445312 -10.988281 5.445312 -11.472656 L 5.445312 -14.074219 C 5.445312 -14.847656 5.496094 -15.425781 5.589844 -15.808594 C 5.929688 -15.953125 6.363281 -16.050781 6.894531 -16.148438 C 7.132812 -16.148438 7.375 -16.195312 7.566406 -16.195312 L 8.242188 -16.195312 C 8.726562 -16.195312 9.160156 -16.246094 9.542969 -16.390625 C 9.929688 -16.484375 10.316406 -16.773438 10.699219 -17.257812 C 10.605469 -17.640625 10.410156 -17.882812 10.171875 -18.074219 C 9.882812 -18.171875 9.542969 -18.269531 9.160156 -18.363281 C 8.917969 -18.363281 8.675781 -18.414062 8.433594 -18.414062 L 6.410156 -18.414062 C 6.023438 -18.414062 5.589844 -18.414062 5.15625 -18.460938 L 4.289062 -30.703125 C 4.964844 -30.753906 5.589844 -30.800781 6.167969 -30.847656 C 6.699219 -30.898438 7.183594 -30.945312 7.617188 -31.042969 C 8.484375 -31.140625 9.109375 -31.234375 9.59375 -31.332031 C 10.027344 -31.429688 10.363281 -31.523438 10.605469 -31.71875 C 10.796875 -31.863281 10.988281 -32.101562 11.136719 -32.441406 C 10.988281 -32.535156 10.894531 -32.632812 10.796875 -32.730469 C 10.605469 -32.824219 10.410156 -32.921875 10.316406 -33.019531 C 10.027344 -33.113281 9.785156 -33.210938 9.59375 -33.257812 C 9.304688 -33.257812 8.917969 -33.257812 8.433594 -33.257812 C 7.328125 -33.164062 6.363281 -33.113281 5.589844 -33.066406 C 4.820312 -33.019531 4.144531 -32.96875 3.613281 -32.921875 C 3.035156 -32.824219 2.601562 -32.777344 2.21875 -32.777344 C 1.832031 -32.730469 1.542969 -32.679688 1.351562 -32.679688 C 0.914062 -32.632812 0.625 -32.535156 0.480469 -32.441406 C 0.386719 -32.34375 0.144531 -32.246094 -0.242188 -32.101562 C -0.242188 -31.910156 -0.191406 -31.765625 -0.191406 -31.621094 C -0.191406 -31.429688 -0.144531 -31.285156 -0.0976562 -31.140625 C -0.0976562 -30.945312 -0.046875 -30.800781 -0.046875 -30.703125 L -0.046875 -30.320312 C 0.046875 -27.714844 0.144531 -25.304688 0.242188 -23.136719 C 0.289062 -20.917969 0.335938 -18.945312 0.433594 -17.207031 C 0.480469 -15.425781 0.53125 -13.835938 0.578125 -12.386719 C 0.578125 -10.941406 0.625 -9.640625 0.675781 -8.53125 C 0.675781 -6.21875 0.722656 -4.484375 0.820312 -3.324219 C 0.820312 -2.074219 0.914062 -1.203125 1.109375 -0.722656 C 1.253906 -0.144531 1.445312 0.144531 1.6875 0.242188 C 1.976562 0.386719 2.3125 0.480469 2.699219 0.480469 Z M 2.699219 0.480469 "/></g></g></g><g fill="#fe8d41" fill-opacity="1"><g transform="translate(285.640827, 304.546622)"><g><path d="M 10.410156 -3.324219 L 10.554688 -3.421875 C 10.75 -3.421875 10.988281 -3.519531 11.183594 -3.710938 L 11.761719 -4.144531 C 11.617188 -4.675781 11.28125 -4.964844 10.796875 -5.0625 C 10.316406 -5.0625 9.785156 -5.0625 9.207031 -5.0625 C 8.628906 -4.964844 8.050781 -4.964844 7.472656 -5.0625 C 6.894531 -5.0625 6.460938 -5.398438 6.121094 -6.074219 C 5.734375 -6.84375 5.496094 -7.90625 5.398438 -9.253906 C 5.300781 -9.929688 5.253906 -10.652344 5.253906 -11.472656 C 5.207031 -12.242188 5.15625 -13.109375 5.15625 -14.074219 C 5.109375 -14.992188 5.0625 -16.003906 5.0625 -17.113281 C 5.0625 -18.21875 5.011719 -19.425781 4.964844 -20.679688 C 4.867188 -21.933594 4.820312 -23.234375 4.722656 -24.632812 C 4.628906 -26.03125 4.484375 -27.523438 4.339844 -29.066406 C 4.242188 -29.597656 3.953125 -29.980469 3.46875 -30.269531 C 2.601562 -30.65625 1.832031 -30.703125 1.15625 -30.414062 C 0.433594 -30.078125 0.046875 -29.210938 0 -27.859375 C -0.046875 -27.523438 -0.0976562 -27.234375 -0.0976562 -26.992188 C -0.0976562 -26.703125 -0.0976562 -26.464844 -0.0976562 -26.269531 L -0.0976562 -20.339844 C -0.0976562 -19.761719 -0.0976562 -19.089844 -0.0976562 -18.363281 C -0.0976562 -17.640625 -0.046875 -16.871094 0 -16.050781 C 0 -15.183594 0.046875 -14.269531 0.0976562 -13.207031 C 0.0976562 -12.148438 0.144531 -10.988281 0.242188 -9.738281 C 0.335938 -6.554688 1.300781 -4.53125 3.132812 -3.566406 C 4.964844 -2.601562 7.375 -2.507812 10.410156 -3.324219 Z M 10.410156 -3.324219 "/></g></g></g><g fill="#fe8d41" fill-opacity="1"><g transform="translate(306.462297, 304.546622)"><g><path d="M 1.253906 -3.179688 L 1.589844 -3.277344 C 2.363281 -3.179688 2.941406 -3.230469 3.324219 -3.421875 C 3.710938 -3.519531 4 -3.808594 4.195312 -4.289062 C 4.386719 -4.773438 4.53125 -5.351562 4.578125 -6.121094 C 4.578125 -6.894531 4.675781 -7.90625 4.867188 -9.160156 L 8.726562 -9.160156 C 8.917969 -8.433594 9.0625 -7.710938 9.160156 -7.039062 C 9.160156 -6.652344 9.207031 -6.316406 9.207031 -6.023438 C 9.207031 -5.734375 9.253906 -5.398438 9.351562 -5.109375 C 9.449219 -4.433594 9.640625 -3.953125 10.027344 -3.613281 C 10.316406 -3.230469 10.699219 -3.035156 11.183594 -3.035156 C 11.570312 -2.941406 12.003906 -2.988281 12.484375 -3.179688 C 12.871094 -3.277344 13.207031 -3.46875 13.496094 -3.761719 C 13.496094 -3.855469 13.449219 -4.144531 13.398438 -4.53125 C 13.351562 -4.917969 13.304688 -5.398438 13.253906 -6.074219 C 13.0625 -7.328125 12.871094 -8.917969 12.675781 -10.84375 C 12.386719 -12.675781 12.097656 -14.652344 11.808594 -16.773438 C 11.617188 -17.785156 11.472656 -18.800781 11.28125 -19.761719 C 11.085938 -20.726562 10.894531 -21.691406 10.699219 -22.65625 C 10.316406 -24.488281 9.929688 -26.03125 9.542969 -27.28125 C 9.160156 -28.535156 8.773438 -29.257812 8.484375 -29.402344 C 7.230469 -29.980469 6.21875 -30.320312 5.496094 -30.414062 C 4.722656 -30.464844 4.195312 -30.320312 3.808594 -29.980469 C 3.421875 -29.597656 3.132812 -29.164062 2.988281 -28.585938 C 2.890625 -28.292969 2.84375 -27.957031 2.796875 -27.667969 C 2.699219 -27.378906 2.652344 -27.042969 2.601562 -26.753906 C 2.410156 -25.5 2.265625 -24.390625 2.121094 -23.328125 C 1.976562 -22.269531 1.878906 -21.304688 1.785156 -20.4375 C 1.6875 -19.570312 1.589844 -18.75 1.496094 -18.027344 C 1.398438 -17.257812 1.300781 -16.582031 1.253906 -16.003906 C 1.15625 -15.375 1.109375 -14.796875 1.058594 -14.316406 C 1.011719 -13.785156 0.964844 -13.304688 0.914062 -12.871094 C 0.820312 -12.003906 0.722656 -11.183594 0.625 -10.410156 L 0.335938 -8.097656 L 0.0976562 -6.796875 C 0 -6.316406 -0.0976562 -5.785156 -0.191406 -5.253906 C -0.386719 -4.484375 -0.335938 -4 -0.144531 -3.710938 C 0.046875 -3.421875 0.480469 -3.230469 1.253906 -3.179688 Z M 5.207031 -12.148438 L 5.300781 -12.195312 C 5.253906 -12.339844 5.253906 -12.53125 5.253906 -12.820312 L 5.253906 -13.785156 C 5.253906 -14.507812 5.300781 -15.328125 5.398438 -16.195312 C 5.445312 -16.628906 5.496094 -17.0625 5.589844 -17.496094 C 5.640625 -17.882812 5.6875 -18.316406 5.785156 -18.800781 C 5.878906 -19.570312 6.121094 -20.292969 6.460938 -20.871094 C 6.507812 -20.582031 6.554688 -20.292969 6.605469 -20.101562 C 6.605469 -19.90625 6.652344 -19.714844 6.699219 -19.570312 C 6.699219 -19.28125 6.75 -19.039062 6.84375 -18.847656 C 6.84375 -18.703125 6.894531 -18.460938 6.988281 -18.171875 C 6.988281 -18.027344 7.039062 -17.882812 7.039062 -17.738281 C 7.039062 -17.546875 7.085938 -17.351562 7.183594 -17.160156 C 7.230469 -16.917969 7.277344 -16.679688 7.328125 -16.390625 L 7.519531 -15.375 C 7.617188 -14.605469 7.808594 -13.59375 8.097656 -12.339844 C 7.519531 -12.148438 7.039062 -12.050781 6.605469 -12.050781 C 6.316406 -12.050781 6.074219 -12.050781 5.878906 -12.050781 C 5.640625 -12.050781 5.398438 -12.097656 5.207031 -12.148438 Z M 5.207031 -12.148438 "/></g></g></g><g fill="#fe8d41" fill-opacity="1"><g transform="translate(330.079331, 304.546622)"><g><path d="M 9.351562 -2.601562 L 9.640625 -2.941406 C 10.507812 -3.035156 11.183594 -3.230469 11.714844 -3.566406 C 12.195312 -3.855469 12.628906 -4.289062 12.917969 -4.867188 C 13.160156 -5.351562 13.351562 -5.929688 13.542969 -6.699219 C 13.640625 -7.375 13.738281 -8.097656 13.835938 -8.871094 C 13.882812 -9.738281 13.882812 -10.554688 13.785156 -11.328125 C 13.691406 -12.097656 13.542969 -12.917969 13.351562 -13.785156 C 12.386719 -14.027344 11.472656 -14.125 10.652344 -14.027344 C 9.785156 -13.929688 8.964844 -13.691406 8.097656 -13.351562 C 7.90625 -13.253906 7.855469 -13.160156 7.855469 -12.964844 C 7.855469 -12.726562 7.90625 -12.582031 8.050781 -12.582031 C 8.242188 -12.4375 8.578125 -12.339844 8.964844 -12.242188 C 9.109375 -12.148438 9.253906 -12.097656 9.449219 -12.050781 C 9.640625 -12.003906 9.785156 -11.953125 9.976562 -11.90625 C 9.976562 -11.519531 10.027344 -10.988281 10.121094 -10.363281 C 10.121094 -9.785156 10.121094 -9.207031 10.121094 -8.628906 L 10.027344 -7.761719 C 9.976562 -7.472656 9.929688 -7.183594 9.882812 -6.894531 C 9.785156 -6.316406 9.640625 -5.832031 9.449219 -5.445312 C 9.0625 -4.773438 8.628906 -4.53125 8.144531 -4.722656 C 7.566406 -4.867188 7.039062 -5.253906 6.554688 -5.929688 C 6.023438 -6.605469 5.542969 -7.472656 5.109375 -8.628906 C 4.628906 -9.6875 4.386719 -10.941406 4.386719 -12.386719 C 4.289062 -13.351562 4.289062 -14.558594 4.386719 -16.003906 C 4.386719 -16.726562 4.433594 -17.449219 4.484375 -18.21875 C 4.53125 -18.945312 4.628906 -19.714844 4.722656 -20.484375 C 4.917969 -22.027344 5.207031 -23.476562 5.589844 -24.824219 C 5.976562 -26.175781 6.460938 -27.234375 7.085938 -28.003906 C 7.664062 -27.621094 8.144531 -27.1875 8.53125 -26.753906 C 8.820312 -26.320312 9.015625 -25.738281 9.109375 -25.066406 C 9.160156 -24.4375 9.304688 -24.003906 9.59375 -23.765625 C 9.882812 -23.476562 10.171875 -23.28125 10.554688 -23.183594 C 10.84375 -23.089844 11.183594 -23.089844 11.570312 -23.183594 C 11.859375 -23.28125 12.097656 -23.425781 12.292969 -23.714844 C 13.0625 -24.96875 13.109375 -26.222656 12.4375 -27.476562 C 11.953125 -28.199219 11.28125 -28.824219 10.363281 -29.355469 C 9.398438 -29.886719 8.339844 -30.175781 7.277344 -30.222656 C 6.121094 -30.269531 5.0625 -30.03125 4.097656 -29.453125 C 3.035156 -28.875 2.265625 -27.8125 1.785156 -26.367188 C 1.496094 -25.5 1.15625 -24.292969 0.769531 -22.847656 C 0.386719 -21.304688 0.0976562 -19.617188 -0.0976562 -17.785156 C -0.289062 -15.953125 -0.335938 -14.074219 -0.242188 -12.195312 C -0.144531 -10.265625 0.242188 -8.578125 0.914062 -7.132812 C 1.589844 -5.589844 2.601562 -4.433594 3.953125 -3.566406 C 5.300781 -2.699219 7.132812 -2.363281 9.351562 -2.601562 Z M 9.351562 -2.601562 "/></g></g></g></svg>