<svg xmlns="http://www.w3.org/2000/svg" xmlns:xlink="http://www.w3.org/1999/xlink" width="500" zoomAndPan="magnify" viewBox="0 0 375 374.999991" height="500" preserveAspectRatio="xMidYMid meet" version="1.0"><defs><g/><clipPath id="7b0e52a58b"><path d="M 161 108 L 283.394531 108 L 283.394531 230.484375 L 161 230.484375 Z M 161 108 " clip-rule="nonzero"/></clipPath></defs><rect x="-37.5" width="450" fill="#ffffff" y="-37.499999" height="449.999989" fill-opacity="1"/><rect x="-37.5" width="450" fill="#000000" y="-37.499999" height="449.999989" fill-opacity="1"/><path fill="#ffffff" d="M 174.128906 87.9375 C 176.140625 87.921875 177.96875 89.15625 178.730469 91.03125 L 186.914062 111.578125 L 149.742188 191.316406 L 132.664062 198.113281 C 130.144531 199.128906 127.269531 197.894531 126.269531 195.375 L 97.589844 123.367188 C 96.574219 120.847656 97.808594 117.988281 100.328125 116.972656 L 172.335938 88.292969 C 172.910156 88.054688 173.503906 87.9375 174.128906 87.9375 Z M 174.078125 83.609375 C 172.929688 83.625 171.796875 83.84375 170.746094 84.265625 L 98.738281 112.949219 C 93.988281 114.84375 91.667969 120.222656 93.5625 124.957031 C 93.5625 124.957031 93.5625 124.972656 93.5625 124.972656 L 122.246094 196.980469 C 124.140625 201.71875 129.515625 204.035156 134.253906 202.140625 L 152.921875 194.699219 L 191.617188 111.714844 L 182.753906 89.441406 C 181.332031 85.890625 177.902344 83.574219 174.078125 83.609375 " fill-opacity="1" fill-rule="nonzero"/><path fill="#ffffff" d="M 266.585938 157.882812 C 266.585938 151.589844 261.476562 146.484375 255.167969 146.46875 C 248.878906 146.46875 243.769531 151.574219 243.753906 157.867188 C 243.753906 157.882812 243.753906 157.882812 243.753906 157.882812 C 243.753906 164.191406 248.859375 169.296875 255.152344 169.316406 C 261.460938 169.316406 266.566406 164.207031 266.585938 157.898438 C 266.585938 157.898438 266.585938 157.898438 266.585938 157.882812 " fill-opacity="1" fill-rule="nonzero"/><g clip-path="url(#7b0e52a58b)"><path fill="#ffffff" d="M 204.0625 113.304688 C 204.738281 113.339844 205.382812 113.492188 205.972656 113.761719 L 276.222656 146.519531 C 278.675781 147.667969 279.742188 150.59375 278.609375 153.0625 L 245.851562 223.3125 C 244.699219 225.765625 241.773438 226.832031 239.324219 225.679688 L 169.054688 192.921875 C 166.605469 191.773438 165.539062 188.863281 166.6875 186.394531 L 199.429688 116.144531 C 200.273438 114.351562 202.101562 113.238281 204.0625 113.304688 Z M 204.230469 108.992188 C 200.511719 108.855469 197.09375 110.953125 195.523438 114.320312 L 162.765625 184.570312 C 160.601562 189.1875 162.597656 194.699219 167.230469 196.847656 L 237.480469 229.621094 C 242.113281 231.769531 247.609375 229.773438 249.757812 225.140625 L 282.515625 154.890625 C 284.679688 150.253906 282.683594 144.757812 278.066406 142.59375 L 207.800781 109.835938 C 206.683594 109.3125 205.464844 109.027344 204.230469 108.992188 " fill-opacity="1" fill-rule="nonzero"/></g><path fill="#ffffff" d="M 222.207031 137.199219 C 222.207031 130.890625 217.101562 125.785156 210.792969 125.785156 C 204.503906 125.785156 199.394531 130.890625 199.394531 137.199219 C 199.394531 143.507812 204.503906 148.617188 210.792969 148.617188 C 217.101562 148.617188 222.207031 143.507812 222.207031 137.199219 " fill-opacity="1" fill-rule="nonzero"/><path fill="#ffffff" d="M 245.902344 202.257812 C 245.902344 195.949219 240.792969 190.84375 234.503906 190.84375 C 228.195312 190.84375 223.089844 195.933594 223.070312 202.242188 C 223.070312 202.242188 223.070312 202.257812 223.070312 202.257812 C 223.070312 208.550781 228.179688 213.671875 234.488281 213.671875 C 240.777344 213.671875 245.882812 208.566406 245.902344 202.273438 C 245.902344 202.273438 245.902344 202.257812 245.902344 202.257812 " fill-opacity="1" fill-rule="nonzero"/><path fill="#ffffff" d="M 234.046875 169.738281 C 234.046875 163.429688 228.941406 158.324219 222.648438 158.324219 C 216.339844 158.324219 211.234375 163.429688 211.234375 169.738281 C 211.234375 176.027344 216.339844 181.136719 222.648438 181.136719 C 228.941406 181.136719 234.046875 176.027344 234.046875 169.738281 " fill-opacity="1" fill-rule="nonzero"/><path fill="#ffffff" d="M 201.527344 181.574219 C 201.527344 175.269531 196.417969 170.160156 190.109375 170.160156 C 183.820312 170.160156 178.710938 175.269531 178.710938 181.574219 C 178.710938 187.867188 183.820312 192.972656 190.109375 192.972656 C 196.417969 192.972656 201.527344 187.867188 201.527344 181.574219 " fill-opacity="1" fill-rule="nonzero"/><path fill="#ffffff" d="M 132.105469 129.523438 C 132.1875 123.230469 127.132812 118.054688 120.839844 117.988281 C 114.535156 117.902344 109.359375 122.960938 109.292969 129.25 C 109.292969 129.351562 109.292969 129.4375 109.292969 129.523438 C 109.222656 135.832031 114.261719 140.988281 120.570312 141.074219 C 126.863281 141.140625 132.035156 136.101562 132.105469 129.792969 C 132.105469 129.707031 132.105469 129.605469 132.105469 129.523438 " fill-opacity="1" fill-rule="nonzero"/><path fill="#ffffff" d="M 150.234375 174.996094 C 150.234375 168.707031 145.125 163.597656 138.820312 163.597656 C 132.511719 163.597656 127.402344 168.707031 127.402344 174.996094 C 127.402344 181.304688 132.511719 186.414062 138.820312 186.414062 C 145.125 186.414062 150.234375 181.304688 150.234375 174.996094 " fill-opacity="1" fill-rule="nonzero"/><path fill="#ffffff" d="M 177.578125 111.410156 C 177.578125 105.101562 172.472656 99.996094 166.179688 99.996094 C 159.875 99.996094 154.765625 105.101562 154.765625 111.410156 C 154.765625 117.703125 159.875 122.808594 166.179688 122.808594 C 172.472656 122.808594 177.578125 117.703125 177.578125 111.410156 " fill-opacity="1" fill-rule="nonzero"/><g fill="#fe8d41" fill-opacity="1"><g transform="translate(44.287012, 288.226738)"><g><path d="M 2.792969 0.59375 L 3.03125 -0.0585938 C 3.746094 -0.117188 4.160156 -0.535156 4.21875 -1.367188 C 4.28125 -2.257812 4.339844 -3.148438 4.457031 -4.042969 C 4.578125 -4.875 4.695312 -5.765625 4.8125 -6.714844 C 5.050781 -8.5 5.230469 -10.28125 5.347656 -12.125 C 5.347656 -12.421875 5.410156 -12.839844 5.410156 -13.3125 L 5.410156 -21.871094 C 5.410156 -22.707031 5.410156 -23.539062 5.46875 -24.488281 C 5.46875 -25.378906 5.527344 -26.269531 5.527344 -27.101562 C 5.527344 -27.9375 5.585938 -28.707031 5.707031 -29.539062 C 5.765625 -30.3125 5.824219 -31.085938 5.882812 -31.800781 C 5.945312 -32.511719 6.003906 -33.167969 6.121094 -33.820312 C 6.242188 -35.007812 6.480469 -35.898438 6.835938 -36.496094 C 7.25 -35.304688 7.667969 -34 8.082031 -32.691406 C 8.5 -31.203125 8.855469 -29.835938 9.152344 -28.53125 C 9.273438 -27.816406 9.449219 -27.164062 9.570312 -26.570312 C 9.6875 -25.914062 9.808594 -25.320312 9.925781 -24.785156 C 10.046875 -24.191406 10.105469 -23.714844 10.164062 -23.300781 L 10.34375 -22.289062 C 10.34375 -21.457031 10.519531 -20.625 10.816406 -19.734375 C 10.9375 -19.257812 11.054688 -18.839844 11.175781 -18.484375 C 11.292969 -18.070312 11.472656 -17.652344 11.648438 -17.296875 C 11.886719 -16.40625 12.601562 -15.929688 13.730469 -15.871094 C 14.679688 -15.808594 15.511719 -15.988281 16.109375 -16.40625 C 16.640625 -16.761719 17.117188 -17.476562 17.59375 -18.484375 C 18.007812 -19.375 18.367188 -20.207031 18.664062 -20.980469 C 18.960938 -21.753906 19.199219 -22.46875 19.4375 -23.121094 C 19.851562 -24.429688 20.207031 -25.617188 20.507812 -26.746094 C 20.625 -27.339844 20.804688 -27.9375 20.921875 -28.53125 C 21.039062 -29.125 21.160156 -29.777344 21.277344 -30.492188 C 21.398438 -31.144531 21.515625 -31.859375 21.695312 -32.691406 C 21.871094 -33.464844 22.109375 -34.355469 22.40625 -35.304688 C 22.40625 -35.425781 22.527344 -35.601562 22.644531 -35.722656 C 22.707031 -35.78125 22.824219 -35.960938 23.003906 -36.199219 C 23.121094 -35.898438 23.300781 -34.949219 23.417969 -33.34375 C 23.476562 -32.511719 23.539062 -31.621094 23.539062 -30.667969 C 23.539062 -29.71875 23.597656 -28.648438 23.65625 -27.519531 C 23.65625 -25.261719 23.714844 -22.824219 23.835938 -20.207031 C 23.835938 -18.902344 23.894531 -17.59375 23.894531 -16.34375 C 23.894531 -15.039062 23.953125 -13.789062 24.011719 -12.601562 C 24.011719 -10.105469 24.070312 -7.964844 24.191406 -6.179688 C 24.191406 -5.230469 24.25 -4.457031 24.308594 -3.804688 C 24.308594 -3.148438 24.371094 -2.675781 24.488281 -2.316406 C 24.488281 -1.722656 24.726562 -1.308594 25.140625 -0.949219 C 25.5 -0.59375 25.914062 -0.355469 26.390625 -0.238281 C 26.867188 -0.117188 27.339844 -0.117188 27.875 -0.238281 C 28.351562 -0.355469 28.828125 -0.59375 29.300781 -0.949219 C 29.300781 -1.070312 29.363281 -1.25 29.363281 -1.546875 L 29.363281 -11.410156 C 29.363281 -12.363281 29.300781 -13.375 29.300781 -14.441406 C 29.300781 -15.453125 29.242188 -16.523438 29.242188 -17.652344 C 29.183594 -18.722656 29.125 -19.851562 29.125 -20.921875 C 29.125 -21.992188 29.066406 -23.121094 29.003906 -24.25 C 28.886719 -25.320312 28.828125 -26.390625 28.769531 -27.460938 C 28.707031 -28.46875 28.648438 -29.480469 28.589844 -30.550781 C 28.410156 -32.511719 28.171875 -34.296875 27.875 -35.960938 C 27.519531 -37.625 27.222656 -38.929688 26.925781 -39.882812 C 26.570312 -40.894531 26.09375 -41.488281 25.617188 -41.664062 C 24.429688 -42.082031 23.359375 -42.140625 22.40625 -41.785156 C 21.339844 -41.429688 20.625 -40.714844 20.148438 -39.644531 C 19.734375 -38.695312 19.316406 -37.800781 18.960938 -36.96875 C 18.605469 -36.078125 18.1875 -35.1875 17.832031 -34.355469 C 17.058594 -32.691406 16.582031 -30.847656 16.34375 -28.828125 C 16.226562 -27.996094 16.109375 -27.222656 15.988281 -26.507812 C 15.808594 -25.796875 15.453125 -25.023438 14.976562 -24.191406 C 14.742188 -24.605469 14.503906 -25.203125 14.265625 -26.035156 C 14.144531 -26.449219 14.027344 -26.867188 13.910156 -27.222656 C 13.789062 -27.578125 13.671875 -27.996094 13.609375 -28.410156 C 13.492188 -28.769531 13.433594 -29.183594 13.375 -29.539062 C 13.253906 -29.898438 13.195312 -30.195312 13.136719 -30.550781 C 13.015625 -31.144531 12.957031 -31.5 12.957031 -31.621094 C 12.839844 -32.035156 12.71875 -32.511719 12.601562 -32.988281 C 12.480469 -33.464844 12.304688 -33.9375 12.125 -34.53125 C 11.886719 -35.066406 11.710938 -35.601562 11.53125 -36.078125 C 11.292969 -36.554688 11.113281 -37.089844 10.9375 -37.566406 C 10.460938 -38.515625 10.046875 -39.347656 9.6875 -40.0625 C 9.273438 -40.65625 8.914062 -41.128906 8.679688 -41.367188 C 8.320312 -41.546875 7.847656 -41.664062 7.25 -41.785156 C 6.65625 -41.785156 6.121094 -41.726562 5.648438 -41.605469 C 5.050781 -41.367188 4.578125 -41.128906 4.21875 -40.894531 C 3.746094 -40.535156 3.449219 -40.179688 3.328125 -39.824219 C 2.792969 -38.632812 2.378906 -37.445312 2.140625 -36.136719 C 1.78125 -34.710938 1.546875 -32.988281 1.425781 -30.96875 C 1.308594 -29.898438 1.25 -28.769531 1.1875 -27.519531 C 1.070312 -26.269531 1.011719 -24.90625 0.949219 -23.476562 C 0.832031 -20.507812 0.714844 -16.941406 0.59375 -12.777344 C 0.476562 -10.640625 0.417969 -8.976562 0.417969 -7.847656 L 0.238281 -5.171875 C 0.117188 -4.578125 0.0585938 -4.160156 0.0585938 -3.921875 C -0.0585938 -3.566406 -0.117188 -3.386719 -0.117188 -3.269531 C -0.179688 -3.148438 -0.179688 -2.851562 -0.179688 -2.496094 L -0.179688 -0.773438 C -0.179688 0 0.179688 0.417969 0.773438 0.535156 C 1.25 0.652344 1.960938 0.714844 2.792969 0.59375 Z M 2.792969 0.59375 "/></g></g></g><g fill="#fe8d41" fill-opacity="1"><g transform="translate(85.060972, 288.226738)"><g><path d="M 10.105469 -3.921875 L 10.34375 -4.042969 C 10.460938 -4.042969 10.640625 -4.160156 10.878906 -4.398438 C 10.996094 -4.515625 11.175781 -4.636719 11.410156 -4.8125 C 11.113281 -5.230469 10.757812 -5.527344 10.34375 -5.765625 C 9.867188 -5.945312 9.449219 -6.0625 9.035156 -6.121094 C 8.796875 -6.121094 8.558594 -6.179688 8.320312 -6.179688 L 7.609375 -6.179688 C 7.132812 -6.179688 6.65625 -6.242188 6.179688 -6.480469 L 6.121094 -19.851562 C 6.777344 -19.910156 7.371094 -19.972656 7.90625 -20.03125 C 8.378906 -20.03125 8.855469 -20.089844 9.332031 -20.148438 C 9.746094 -20.148438 10.105469 -20.207031 10.460938 -20.269531 C 10.757812 -20.269531 11.054688 -20.328125 11.292969 -20.445312 C 11.710938 -20.566406 12.007812 -20.683594 12.242188 -20.921875 C 12.363281 -21.039062 12.480469 -21.277344 12.480469 -21.636719 C 12.242188 -21.871094 11.945312 -22.109375 11.589844 -22.230469 C 11.292969 -22.289062 10.878906 -22.347656 10.34375 -22.46875 C 10.105469 -22.46875 9.808594 -22.527344 9.511719 -22.527344 L 8.617188 -22.527344 C 8.261719 -22.527344 7.90625 -22.527344 7.488281 -22.585938 C 7.074219 -22.585938 6.65625 -22.644531 6.179688 -22.765625 C 6.0625 -23.238281 6.003906 -23.773438 6.003906 -24.371094 C 5.945312 -24.90625 5.882812 -25.5 5.882812 -26.09375 C 5.824219 -26.6875 5.765625 -27.222656 5.765625 -27.816406 C 5.765625 -28.410156 5.765625 -28.945312 5.765625 -29.539062 L 5.765625 -32.570312 C 5.765625 -32.988281 5.765625 -33.402344 5.765625 -33.761719 C 5.765625 -34.117188 5.824219 -34.414062 5.882812 -34.652344 L 7.429688 -34.652344 C 7.546875 -34.652344 7.726562 -34.652344 7.964844 -34.710938 C 9.035156 -34.832031 9.808594 -35.007812 10.164062 -35.246094 C 10.519531 -35.484375 10.640625 -35.722656 10.519531 -35.960938 C 10.402344 -36.199219 10.105469 -36.433594 9.6875 -36.671875 C 9.332031 -36.851562 8.914062 -36.96875 8.441406 -37.089844 C 7.371094 -37.207031 6.480469 -37.328125 5.648438 -37.386719 C 4.8125 -37.445312 4.160156 -37.503906 3.625 -37.503906 C 2.496094 -37.503906 1.664062 -37.328125 1.128906 -37.03125 C 0.535156 -36.671875 0.238281 -36.136719 0.117188 -35.425781 C 0 -34.59375 -0.0585938 -33.582031 -0.0585938 -32.394531 C -0.179688 -27.875 -0.117188 -23.476562 0.117188 -19.199219 C 0.238281 -14.800781 0.535156 -10.402344 1.011719 -6.003906 C 1.128906 -4.8125 1.664062 -4.160156 2.617188 -4.042969 C 3.210938 -3.921875 3.863281 -3.863281 4.457031 -3.804688 C 5.050781 -3.683594 5.707031 -3.625 6.359375 -3.566406 C 7.546875 -3.449219 8.796875 -3.566406 10.105469 -3.921875 Z M 10.105469 -3.921875 "/></g></g></g><g fill="#fe8d41" fill-opacity="1"><g transform="translate(108.776359, 288.226738)"><g><path d="M 10.105469 -3.921875 L 10.34375 -4.042969 C 10.460938 -4.042969 10.640625 -4.160156 10.878906 -4.398438 C 10.996094 -4.515625 11.175781 -4.636719 11.410156 -4.8125 C 11.113281 -5.230469 10.757812 -5.527344 10.34375 -5.765625 C 9.867188 -5.945312 9.449219 -6.0625 9.035156 -6.121094 C 8.796875 -6.121094 8.558594 -6.179688 8.320312 -6.179688 L 7.609375 -6.179688 C 7.132812 -6.179688 6.65625 -6.242188 6.179688 -6.480469 L 6.121094 -19.851562 C 6.777344 -19.910156 7.371094 -19.972656 7.90625 -20.03125 C 8.378906 -20.03125 8.855469 -20.089844 9.332031 -20.148438 C 9.746094 -20.148438 10.105469 -20.207031 10.460938 -20.269531 C 10.757812 -20.269531 11.054688 -20.328125 11.292969 -20.445312 C 11.710938 -20.566406 12.007812 -20.683594 12.242188 -20.921875 C 12.363281 -21.039062 12.480469 -21.277344 12.480469 -21.636719 C 12.242188 -21.871094 11.945312 -22.109375 11.589844 -22.230469 C 11.292969 -22.289062 10.878906 -22.347656 10.34375 -22.46875 C 10.105469 -22.46875 9.808594 -22.527344 9.511719 -22.527344 L 8.617188 -22.527344 C 8.261719 -22.527344 7.90625 -22.527344 7.488281 -22.585938 C 7.074219 -22.585938 6.65625 -22.644531 6.179688 -22.765625 C 6.0625 -23.238281 6.003906 -23.773438 6.003906 -24.371094 C 5.945312 -24.90625 5.882812 -25.5 5.882812 -26.09375 C 5.824219 -26.6875 5.765625 -27.222656 5.765625 -27.816406 C 5.765625 -28.410156 5.765625 -28.945312 5.765625 -29.539062 L 5.765625 -32.570312 C 5.765625 -32.988281 5.765625 -33.402344 5.765625 -33.761719 C 5.765625 -34.117188 5.824219 -34.414062 5.882812 -34.652344 L 7.429688 -34.652344 C 7.546875 -34.652344 7.726562 -34.652344 7.964844 -34.710938 C 9.035156 -34.832031 9.808594 -35.007812 10.164062 -35.246094 C 10.519531 -35.484375 10.640625 -35.722656 10.519531 -35.960938 C 10.402344 -36.199219 10.105469 -36.433594 9.6875 -36.671875 C 9.332031 -36.851562 8.914062 -36.96875 8.441406 -37.089844 C 7.371094 -37.207031 6.480469 -37.328125 5.648438 -37.386719 C 4.8125 -37.445312 4.160156 -37.503906 3.625 -37.503906 C 2.496094 -37.503906 1.664062 -37.328125 1.128906 -37.03125 C 0.535156 -36.671875 0.238281 -36.136719 0.117188 -35.425781 C 0 -34.59375 -0.0585938 -33.582031 -0.0585938 -32.394531 C -0.179688 -27.875 -0.117188 -23.476562 0.117188 -19.199219 C 0.238281 -14.800781 0.535156 -10.402344 1.011719 -6.003906 C 1.128906 -4.8125 1.664062 -4.160156 2.617188 -4.042969 C 3.210938 -3.921875 3.863281 -3.863281 4.457031 -3.804688 C 5.050781 -3.683594 5.707031 -3.625 6.359375 -3.566406 C 7.546875 -3.449219 8.796875 -3.566406 10.105469 -3.921875 Z M 10.105469 -3.921875 "/></g></g></g><g fill="#fe8d41" fill-opacity="1"><g transform="translate(132.491743, 288.226738)"><g><path d="M 20.863281 -3.449219 L 21.277344 -3.804688 C 21.636719 -3.863281 21.933594 -3.921875 22.109375 -3.980469 C 22.289062 -3.980469 22.46875 -4.21875 22.707031 -4.695312 C 22.824219 -5.050781 22.941406 -5.707031 23.0625 -6.65625 C 23.0625 -7.488281 23.0625 -8.796875 23.0625 -10.460938 C 23.003906 -12.066406 22.882812 -14.144531 22.707031 -16.761719 C 22.585938 -18.007812 22.527344 -19.4375 22.40625 -21.039062 C 22.289062 -22.585938 22.109375 -24.371094 21.992188 -26.269531 C 21.871094 -26.984375 21.8125 -27.636719 21.8125 -28.234375 C 21.753906 -28.828125 21.695312 -29.300781 21.695312 -29.777344 C 21.636719 -30.195312 21.574219 -30.550781 21.574219 -30.90625 C 21.574219 -31.265625 21.515625 -31.5625 21.457031 -31.917969 C 21.339844 -32.214844 21.277344 -32.511719 21.21875 -32.808594 C 21.101562 -33.046875 21.039062 -33.34375 20.980469 -33.699219 C 20.742188 -34.296875 20.445312 -35.066406 20.089844 -36.019531 C 19.851562 -36.496094 19.554688 -36.851562 19.199219 -37.089844 C 18.722656 -37.328125 18.246094 -37.445312 17.773438 -37.445312 C 17.238281 -37.445312 16.703125 -37.265625 16.226562 -36.96875 C 15.691406 -36.613281 15.277344 -36.136719 15.039062 -35.542969 C 14.800781 -35.1875 14.679688 -34.832031 14.5625 -34.53125 L 14.027344 -32.929688 C 13.789062 -32.214844 13.433594 -31.265625 12.957031 -30.074219 C 12.71875 -29.480469 12.421875 -28.769531 12.125 -27.996094 C 11.828125 -27.164062 11.472656 -26.269531 11.113281 -25.261719 L 10.699219 -25.320312 L 10.34375 -26.628906 C 10.046875 -27.699219 9.6875 -28.769531 9.273438 -29.898438 C 8.796875 -30.96875 8.320312 -32.035156 7.785156 -32.988281 C 7.132812 -34.058594 6.480469 -34.832031 5.765625 -35.367188 C 5.050781 -35.898438 4.339844 -36.199219 3.746094 -36.257812 C 3.03125 -36.316406 2.496094 -36.136719 2.019531 -35.722656 C 1.484375 -35.246094 1.128906 -34.652344 1.011719 -33.9375 C 0.773438 -32.75 0.652344 -31.382812 0.652344 -29.835938 C 0.652344 -29.003906 0.59375 -28.171875 0.535156 -27.339844 C 0.476562 -26.507812 0.417969 -25.617188 0.355469 -24.726562 C 0.179688 -23.0625 0.0585938 -21.160156 0 -19.078125 C -0.0585938 -18.007812 -0.0585938 -17 -0.0585938 -15.988281 L -0.0585938 -10.402344 C -0.0585938 -9.570312 -0.0585938 -8.796875 0 -8.082031 C 0 -6.65625 0.0585938 -5.765625 0.179688 -5.410156 C 0.296875 -4.8125 0.535156 -4.398438 0.890625 -4.160156 C 1.25 -3.804688 2.082031 -3.746094 3.386719 -3.863281 C 3.863281 -3.863281 4.28125 -4.042969 4.515625 -4.28125 C 4.753906 -4.515625 4.875 -4.875 4.875 -5.410156 L 4.875 -6.359375 C 4.875 -6.714844 4.8125 -7.132812 4.8125 -7.609375 C 4.753906 -8.082031 4.695312 -8.617188 4.695312 -9.210938 C 4.695312 -9.808594 4.695312 -10.519531 4.695312 -11.351562 L 4.695312 -20.625 C 4.695312 -21.21875 4.695312 -21.695312 4.753906 -22.050781 C 4.753906 -22.707031 4.8125 -23.0625 4.933594 -23.179688 C 4.933594 -23.179688 5.050781 -23.238281 5.289062 -23.359375 C 5.765625 -21.992188 6.121094 -20.921875 6.359375 -20.089844 C 6.597656 -19.140625 6.835938 -18.425781 7.074219 -17.949219 C 7.3125 -17.355469 7.609375 -16.941406 7.847656 -16.761719 C 8.144531 -16.464844 8.617188 -16.285156 9.273438 -16.285156 C 9.984375 -16.167969 10.640625 -16.285156 11.234375 -16.640625 C 11.769531 -16.941406 12.242188 -17.652344 12.601562 -18.78125 C 13.3125 -21.039062 13.847656 -22.824219 14.207031 -24.132812 C 14.382812 -24.726562 14.5625 -25.261719 14.679688 -25.738281 C 14.800781 -26.152344 14.917969 -26.507812 15.039062 -26.804688 C 15.15625 -27.28125 15.335938 -27.578125 15.511719 -27.757812 C 15.574219 -27.816406 15.75 -27.875 15.988281 -27.996094 C 15.988281 -27.578125 16.046875 -27.222656 16.046875 -26.925781 L 16.046875 -23.359375 C 16.046875 -23.121094 16.046875 -22.882812 16.109375 -22.585938 C 16.109375 -21.695312 16.167969 -20.445312 16.285156 -18.902344 C 16.285156 -18.070312 16.34375 -17.296875 16.34375 -16.523438 C 16.34375 -15.691406 16.40625 -14.917969 16.523438 -14.085938 C 16.640625 -12.421875 16.761719 -10.816406 16.878906 -9.273438 C 16.941406 -8.441406 17 -7.726562 17.058594 -7.132812 C 17.058594 -6.539062 17.117188 -6.003906 17.175781 -5.585938 C 17.175781 -4.578125 17.59375 -3.921875 18.367188 -3.625 C 19.078125 -3.269531 19.910156 -3.210938 20.863281 -3.449219 Z M 20.863281 -3.449219 "/></g></g></g><g fill="#fe8d41" fill-opacity="1"><g transform="translate(166.727583, 288.226738)"><g><path d="M 10.105469 -3.921875 L 10.34375 -4.042969 C 10.460938 -4.042969 10.640625 -4.160156 10.878906 -4.398438 C 10.996094 -4.515625 11.175781 -4.636719 11.410156 -4.8125 C 11.113281 -5.230469 10.757812 -5.527344 10.34375 -5.765625 C 9.867188 -5.945312 9.449219 -6.0625 9.035156 -6.121094 C 8.796875 -6.121094 8.558594 -6.179688 8.320312 -6.179688 L 7.609375 -6.179688 C 7.132812 -6.179688 6.65625 -6.242188 6.179688 -6.480469 L 6.121094 -19.851562 C 6.777344 -19.910156 7.371094 -19.972656 7.90625 -20.03125 C 8.378906 -20.03125 8.855469 -20.089844 9.332031 -20.148438 C 9.746094 -20.148438 10.105469 -20.207031 10.460938 -20.269531 C 10.757812 -20.269531 11.054688 -20.328125 11.292969 -20.445312 C 11.710938 -20.566406 12.007812 -20.683594 12.242188 -20.921875 C 12.363281 -21.039062 12.480469 -21.277344 12.480469 -21.636719 C 12.242188 -21.871094 11.945312 -22.109375 11.589844 -22.230469 C 11.292969 -22.289062 10.878906 -22.347656 10.34375 -22.46875 C 10.105469 -22.46875 9.808594 -22.527344 9.511719 -22.527344 L 8.617188 -22.527344 C 8.261719 -22.527344 7.90625 -22.527344 7.488281 -22.585938 C 7.074219 -22.585938 6.65625 -22.644531 6.179688 -22.765625 C 6.0625 -23.238281 6.003906 -23.773438 6.003906 -24.371094 C 5.945312 -24.90625 5.882812 -25.5 5.882812 -26.09375 C 5.824219 -26.6875 5.765625 -27.222656 5.765625 -27.816406 C 5.765625 -28.410156 5.765625 -28.945312 5.765625 -29.539062 L 5.765625 -32.570312 C 5.765625 -32.988281 5.765625 -33.402344 5.765625 -33.761719 C 5.765625 -34.117188 5.824219 -34.414062 5.882812 -34.652344 L 7.429688 -34.652344 C 7.546875 -34.652344 7.726562 -34.652344 7.964844 -34.710938 C 9.035156 -34.832031 9.808594 -35.007812 10.164062 -35.246094 C 10.519531 -35.484375 10.640625 -35.722656 10.519531 -35.960938 C 10.402344 -36.199219 10.105469 -36.433594 9.6875 -36.671875 C 9.332031 -36.851562 8.914062 -36.96875 8.441406 -37.089844 C 7.371094 -37.207031 6.480469 -37.328125 5.648438 -37.386719 C 4.8125 -37.445312 4.160156 -37.503906 3.625 -37.503906 C 2.496094 -37.503906 1.664062 -37.328125 1.128906 -37.03125 C 0.535156 -36.671875 0.238281 -36.136719 0.117188 -35.425781 C 0 -34.59375 -0.0585938 -33.582031 -0.0585938 -32.394531 C -0.179688 -27.875 -0.117188 -23.476562 0.117188 -19.199219 C 0.238281 -14.800781 0.535156 -10.402344 1.011719 -6.003906 C 1.128906 -4.8125 1.664062 -4.160156 2.617188 -4.042969 C 3.210938 -3.921875 3.863281 -3.863281 4.457031 -3.804688 C 5.050781 -3.683594 5.707031 -3.625 6.359375 -3.566406 C 7.546875 -3.449219 8.796875 -3.566406 10.105469 -3.921875 Z M 10.105469 -3.921875 "/></g></g></g><g fill="#fe8d41" fill-opacity="1"><g transform="translate(190.442967, 288.226738)"><g/></g></g><g fill="#fe8d41" fill-opacity="1"><g transform="translate(201.617023, 288.226738)"><g><path d="M 16.640625 -0.179688 L 17.238281 0 C 18.070312 0 18.664062 -0.117188 19.078125 -0.417969 C 19.4375 -0.652344 19.734375 -1.1875 19.972656 -2.019531 C 20.207031 -3.210938 20.445312 -4.8125 20.683594 -6.835938 L 20.921875 -9.925781 C 20.980469 -10.9375 21.039062 -12.007812 21.160156 -13.078125 C 21.277344 -15.214844 21.398438 -17.238281 21.515625 -19.140625 C 21.574219 -20.089844 21.636719 -20.863281 21.636719 -21.574219 C 21.636719 -22.230469 21.695312 -22.765625 21.753906 -23.238281 C 21.8125 -24.605469 21.871094 -25.855469 21.871094 -27.042969 C 21.871094 -28.234375 21.8125 -29.300781 21.8125 -30.253906 C 21.753906 -31.203125 21.695312 -32.035156 21.695312 -32.867188 C 21.636719 -33.640625 21.574219 -34.355469 21.515625 -35.066406 C 21.398438 -35.722656 21.339844 -36.316406 21.339844 -36.910156 C 21.277344 -37.445312 21.21875 -37.980469 21.21875 -38.515625 C 21.101562 -39.464844 21.160156 -40.476562 21.398438 -41.546875 C 21.457031 -42.082031 21.277344 -42.496094 20.804688 -42.796875 C 20.328125 -43.03125 19.792969 -43.210938 19.199219 -43.210938 C 18.542969 -43.210938 17.949219 -43.03125 17.476562 -42.675781 C 16.878906 -42.320312 16.640625 -41.726562 16.761719 -40.894531 C 16.761719 -39.109375 16.820312 -37.863281 16.941406 -37.148438 C 17 -36.257812 17.058594 -35.542969 17.117188 -35.066406 C 17.117188 -34.53125 17.175781 -33.820312 17.296875 -32.988281 C 17.296875 -32.15625 17.296875 -30.90625 17.296875 -29.242188 C 17.175781 -26.152344 17.117188 -23.539062 17.117188 -21.398438 C 17.058594 -19.257812 17 -17.535156 16.941406 -16.167969 C 16.878906 -15.453125 16.820312 -14.859375 16.820312 -14.324219 C 16.820312 -13.789062 16.820312 -13.3125 16.820312 -12.957031 C 16.820312 -12.542969 16.761719 -12.183594 16.761719 -11.886719 C 16.761719 -11.53125 16.703125 -11.292969 16.703125 -11.054688 L 16.523438 -9.984375 L 16.285156 -9.152344 C 15.453125 -11.175781 14.859375 -13.433594 14.382812 -15.929688 C 14.144531 -17.175781 13.910156 -18.484375 13.671875 -19.792969 C 13.433594 -21.101562 13.195312 -22.46875 12.957031 -23.894531 C 12.480469 -26.628906 11.945312 -29.363281 11.351562 -32.097656 C 10.757812 -34.769531 9.984375 -37.207031 9.035156 -39.464844 C 8.5 -40.65625 7.90625 -41.429688 7.3125 -41.785156 C 6.714844 -42.140625 5.824219 -42.261719 4.515625 -42.199219 C 3.683594 -42.082031 3.03125 -41.84375 2.554688 -41.488281 C 1.960938 -41.011719 1.546875 -40.296875 1.1875 -39.230469 C 0.832031 -38.160156 0.535156 -36.671875 0.296875 -34.769531 C 0.0585938 -32.867188 -0.117188 -30.433594 -0.238281 -27.460938 C -0.355469 -24.488281 -0.417969 -20.863281 -0.417969 -16.640625 L -0.417969 -1.664062 L 0.652344 -1.128906 C 0.890625 -1.011719 1.128906 -0.949219 1.367188 -0.949219 C 1.605469 -0.949219 1.84375 -1.011719 2.082031 -1.128906 C 2.199219 -1.1875 2.316406 -1.25 2.496094 -1.308594 C 2.617188 -1.367188 2.792969 -1.425781 3.03125 -1.546875 C 3.269531 -3.566406 3.507812 -5.707031 3.746094 -7.964844 C 3.804688 -9.09375 3.863281 -10.222656 3.921875 -11.351562 C 3.980469 -12.421875 4.042969 -13.550781 4.160156 -14.742188 C 4.21875 -15.871094 4.28125 -17 4.28125 -18.070312 C 4.28125 -19.140625 4.339844 -20.269531 4.398438 -21.339844 C 4.398438 -22.40625 4.457031 -23.417969 4.457031 -24.429688 C 4.457031 -25.4375 4.515625 -26.390625 4.578125 -27.339844 C 4.578125 -29.125 4.636719 -30.789062 4.753906 -32.335938 C 4.753906 -33.761719 4.875 -34.949219 5.113281 -35.898438 C 5.648438 -35.007812 6.0625 -33.582031 6.417969 -31.621094 C 6.539062 -30.609375 6.714844 -29.539062 6.835938 -28.351562 C 6.953125 -27.164062 7.132812 -25.914062 7.371094 -24.546875 C 7.726562 -21.695312 8.203125 -18.664062 8.796875 -15.335938 C 9.09375 -13.609375 9.449219 -11.886719 9.925781 -10.105469 C 10.34375 -8.320312 10.878906 -6.539062 11.53125 -4.636719 C 11.53125 -4.398438 11.648438 -4.101562 11.828125 -3.746094 L 12.183594 -2.851562 C 12.542969 -1.78125 13.136719 -1.070312 13.96875 -0.714844 C 14.679688 -0.238281 15.574219 -0.0585938 16.640625 -0.179688 Z M 16.640625 -0.179688 "/></g></g></g><g fill="#fe8d41" fill-opacity="1"><g transform="translate(234.664102, 288.226738)"><g><path d="M 10.105469 -3.921875 L 10.34375 -4.042969 C 10.460938 -4.042969 10.640625 -4.160156 10.878906 -4.398438 C 10.996094 -4.515625 11.175781 -4.636719 11.410156 -4.8125 C 11.113281 -5.230469 10.757812 -5.527344 10.34375 -5.765625 C 9.867188 -5.945312 9.449219 -6.0625 9.035156 -6.121094 C 8.796875 -6.121094 8.558594 -6.179688 8.320312 -6.179688 L 7.609375 -6.179688 C 7.132812 -6.179688 6.65625 -6.242188 6.179688 -6.480469 L 6.121094 -19.851562 C 6.777344 -19.910156 7.371094 -19.972656 7.90625 -20.03125 C 8.378906 -20.03125 8.855469 -20.089844 9.332031 -20.148438 C 9.746094 -20.148438 10.105469 -20.207031 10.460938 -20.269531 C 10.757812 -20.269531 11.054688 -20.328125 11.292969 -20.445312 C 11.710938 -20.566406 12.007812 -20.683594 12.242188 -20.921875 C 12.363281 -21.039062 12.480469 -21.277344 12.480469 -21.636719 C 12.242188 -21.871094 11.945312 -22.109375 11.589844 -22.230469 C 11.292969 -22.289062 10.878906 -22.347656 10.34375 -22.46875 C 10.105469 -22.46875 9.808594 -22.527344 9.511719 -22.527344 L 8.617188 -22.527344 C 8.261719 -22.527344 7.90625 -22.527344 7.488281 -22.585938 C 7.074219 -22.585938 6.65625 -22.644531 6.179688 -22.765625 C 6.0625 -23.238281 6.003906 -23.773438 6.003906 -24.371094 C 5.945312 -24.90625 5.882812 -25.5 5.882812 -26.09375 C 5.824219 -26.6875 5.765625 -27.222656 5.765625 -27.816406 C 5.765625 -28.410156 5.765625 -28.945312 5.765625 -29.539062 L 5.765625 -32.570312 C 5.765625 -32.988281 5.765625 -33.402344 5.765625 -33.761719 C 5.765625 -34.117188 5.824219 -34.414062 5.882812 -34.652344 L 7.429688 -34.652344 C 7.546875 -34.652344 7.726562 -34.652344 7.964844 -34.710938 C 9.035156 -34.832031 9.808594 -35.007812 10.164062 -35.246094 C 10.519531 -35.484375 10.640625 -35.722656 10.519531 -35.960938 C 10.402344 -36.199219 10.105469 -36.433594 9.6875 -36.671875 C 9.332031 -36.851562 8.914062 -36.96875 8.441406 -37.089844 C 7.371094 -37.207031 6.480469 -37.328125 5.648438 -37.386719 C 4.8125 -37.445312 4.160156 -37.503906 3.625 -37.503906 C 2.496094 -37.503906 1.664062 -37.328125 1.128906 -37.03125 C 0.535156 -36.671875 0.238281 -36.136719 0.117188 -35.425781 C 0 -34.59375 -0.0585938 -33.582031 -0.0585938 -32.394531 C -0.179688 -27.875 -0.117188 -23.476562 0.117188 -19.199219 C 0.238281 -14.800781 0.535156 -10.402344 1.011719 -6.003906 C 1.128906 -4.8125 1.664062 -4.160156 2.617188 -4.042969 C 3.210938 -3.921875 3.863281 -3.863281 4.457031 -3.804688 C 5.050781 -3.683594 5.707031 -3.625 6.359375 -3.566406 C 7.546875 -3.449219 8.796875 -3.566406 10.105469 -3.921875 Z M 10.105469 -3.921875 "/></g></g></g><g fill="#fe8d41" fill-opacity="1"><g transform="translate(258.379497, 288.226738)"><g><path d="M 10.105469 -3.921875 L 10.34375 -4.042969 C 10.460938 -4.042969 10.640625 -4.160156 10.878906 -4.398438 C 10.996094 -4.515625 11.175781 -4.636719 11.410156 -4.8125 C 11.113281 -5.230469 10.757812 -5.527344 10.34375 -5.765625 C 9.867188 -5.945312 9.449219 -6.0625 9.035156 -6.121094 C 8.796875 -6.121094 8.558594 -6.179688 8.320312 -6.179688 L 7.609375 -6.179688 C 7.132812 -6.179688 6.65625 -6.242188 6.179688 -6.480469 L 6.121094 -19.851562 C 6.777344 -19.910156 7.371094 -19.972656 7.90625 -20.03125 C 8.378906 -20.03125 8.855469 -20.089844 9.332031 -20.148438 C 9.746094 -20.148438 10.105469 -20.207031 10.460938 -20.269531 C 10.757812 -20.269531 11.054688 -20.328125 11.292969 -20.445312 C 11.710938 -20.566406 12.007812 -20.683594 12.242188 -20.921875 C 12.363281 -21.039062 12.480469 -21.277344 12.480469 -21.636719 C 12.242188 -21.871094 11.945312 -22.109375 11.589844 -22.230469 C 11.292969 -22.289062 10.878906 -22.347656 10.34375 -22.46875 C 10.105469 -22.46875 9.808594 -22.527344 9.511719 -22.527344 L 8.617188 -22.527344 C 8.261719 -22.527344 7.90625 -22.527344 7.488281 -22.585938 C 7.074219 -22.585938 6.65625 -22.644531 6.179688 -22.765625 C 6.0625 -23.238281 6.003906 -23.773438 6.003906 -24.371094 C 5.945312 -24.90625 5.882812 -25.5 5.882812 -26.09375 C 5.824219 -26.6875 5.765625 -27.222656 5.765625 -27.816406 C 5.765625 -28.410156 5.765625 -28.945312 5.765625 -29.539062 L 5.765625 -32.570312 C 5.765625 -32.988281 5.765625 -33.402344 5.765625 -33.761719 C 5.765625 -34.117188 5.824219 -34.414062 5.882812 -34.652344 L 7.429688 -34.652344 C 7.546875 -34.652344 7.726562 -34.652344 7.964844 -34.710938 C 9.035156 -34.832031 9.808594 -35.007812 10.164062 -35.246094 C 10.519531 -35.484375 10.640625 -35.722656 10.519531 -35.960938 C 10.402344 -36.199219 10.105469 -36.433594 9.6875 -36.671875 C 9.332031 -36.851562 8.914062 -36.96875 8.441406 -37.089844 C 7.371094 -37.207031 6.480469 -37.328125 5.648438 -37.386719 C 4.8125 -37.445312 4.160156 -37.503906 3.625 -37.503906 C 2.496094 -37.503906 1.664062 -37.328125 1.128906 -37.03125 C 0.535156 -36.671875 0.238281 -36.136719 0.117188 -35.425781 C 0 -34.59375 -0.0585938 -33.582031 -0.0585938 -32.394531 C -0.179688 -27.875 -0.117188 -23.476562 0.117188 -19.199219 C 0.238281 -14.800781 0.535156 -10.402344 1.011719 -6.003906 C 1.128906 -4.8125 1.664062 -4.160156 2.617188 -4.042969 C 3.210938 -3.921875 3.863281 -3.863281 4.457031 -3.804688 C 5.050781 -3.683594 5.707031 -3.625 6.359375 -3.566406 C 7.546875 -3.449219 8.796875 -3.566406 10.105469 -3.921875 Z M 10.105469 -3.921875 "/></g></g></g><g fill="#fe8d41" fill-opacity="1"><g transform="translate(282.094881, 288.226738)"><g><path d="M 10.402344 -3.804688 L 10.578125 -3.863281 C 11.175781 -3.980469 11.53125 -4.398438 11.53125 -5.113281 L 11.53125 -6.003906 C 11.53125 -6.300781 11.472656 -6.597656 11.472656 -6.953125 C 11.351562 -8.320312 11.292969 -9.570312 11.292969 -10.757812 C 11.234375 -11.945312 11.175781 -13.015625 11.175781 -14.085938 C 11.113281 -15.988281 11.054688 -17.773438 10.996094 -19.316406 C 10.878906 -20.742188 10.816406 -22.050781 10.816406 -23.238281 C 10.699219 -24.308594 10.640625 -25.378906 10.640625 -26.449219 C 10.578125 -26.925781 10.519531 -27.460938 10.519531 -27.9375 C 10.460938 -28.410156 10.402344 -28.945312 10.34375 -29.539062 C 10.222656 -30.074219 10.164062 -30.609375 10.105469 -31.203125 C 10.046875 -31.800781 9.984375 -32.394531 9.925781 -33.105469 L 9.746094 -34 C 9.628906 -34.296875 9.808594 -34.652344 10.164062 -35.007812 C 12.421875 -35.007812 13.910156 -35.1875 14.679688 -35.601562 C 15.453125 -36.019531 15.453125 -36.433594 14.679688 -36.792969 C 13.910156 -37.148438 12.363281 -37.386719 10.105469 -37.503906 C 7.90625 -37.625 4.875 -37.386719 1.070312 -36.851562 C 0.832031 -36.851562 0.714844 -36.792969 0.59375 -36.671875 C 0.417969 -36.496094 0.238281 -36.375 0.117188 -36.375 C -0.117188 -36.257812 -0.179688 -36.019531 -0.179688 -35.78125 C -0.179688 -35.484375 -0.117188 -35.304688 0.117188 -35.246094 C 0.535156 -35.007812 0.832031 -34.890625 1.070312 -34.890625 C 1.367188 -34.769531 1.605469 -34.769531 1.84375 -34.769531 L 4.695312 -34.769531 C 4.695312 -34.058594 4.753906 -33.402344 4.753906 -32.808594 C 4.753906 -32.214844 4.8125 -31.621094 4.933594 -31.085938 C 4.992188 -30.492188 5.050781 -29.957031 5.050781 -29.363281 C 5.050781 -28.769531 5.113281 -28.234375 5.171875 -27.699219 C 5.230469 -27.101562 5.289062 -26.332031 5.347656 -25.320312 C 5.347656 -24.726562 5.410156 -24.191406 5.410156 -23.597656 C 5.410156 -23.003906 5.46875 -22.40625 5.585938 -21.753906 C 5.648438 -21.039062 5.707031 -20.386719 5.765625 -19.671875 C 5.765625 -18.960938 5.824219 -18.246094 5.945312 -17.535156 C 6.003906 -16.761719 6.0625 -15.988281 6.121094 -15.277344 C 6.121094 -14.5625 6.179688 -13.847656 6.300781 -13.136719 C 6.359375 -12.421875 6.417969 -11.710938 6.417969 -11.054688 C 6.417969 -10.402344 6.480469 -9.808594 6.539062 -9.210938 C 6.597656 -7.964844 6.65625 -7.011719 6.714844 -6.417969 C 6.777344 -5.707031 6.894531 -5.171875 7.132812 -4.8125 C 7.371094 -4.339844 7.667969 -4.042969 8.023438 -3.921875 C 8.378906 -3.683594 8.796875 -3.625 9.152344 -3.625 C 9.511719 -3.625 9.925781 -3.683594 10.402344 -3.804688 Z M 10.402344 -3.804688 "/></g></g></g><g fill="#fe8d41" fill-opacity="1"><g transform="translate(308.663277, 288.226738)"><g><path d="M 5.289062 -3.980469 L 5.410156 -3.921875 C 5.882812 -3.921875 6.300781 -4.101562 6.539062 -4.339844 C 6.777344 -4.578125 6.953125 -4.933594 7.074219 -5.410156 C 7.191406 -5.882812 7.25 -6.480469 7.25 -7.25 L 7.25 -10.105469 L 7.191406 -10.105469 L 6.65625 -19.910156 L 6.121094 -29.71875 C 6.0625 -30.195312 6.003906 -30.730469 6.003906 -31.203125 C 5.945312 -31.679688 5.882812 -32.214844 5.824219 -32.691406 L 5.585938 -34.117188 C 5.46875 -34.59375 5.410156 -35.066406 5.347656 -35.601562 C 5.289062 -35.78125 5.171875 -36.078125 5.050781 -36.496094 C 4.933594 -36.730469 4.753906 -36.96875 4.515625 -37.207031 C 4.28125 -37.328125 3.921875 -37.445312 3.449219 -37.566406 C 3.03125 -37.566406 2.4375 -37.566406 1.664062 -37.445312 C 1.308594 -37.328125 1.011719 -37.207031 0.773438 -37.089844 C 0.535156 -36.910156 0.355469 -36.613281 0.238281 -36.257812 C 0.117188 -35.960938 0.0585938 -35.425781 0 -34.710938 C -0.117188 -34 -0.117188 -33.167969 0 -32.214844 C 0 -31.203125 0.0585938 -29.898438 0.179688 -28.351562 C 0.179688 -27.519531 0.238281 -26.746094 0.238281 -25.914062 C 0.238281 -25.082031 0.296875 -24.25 0.355469 -23.417969 C 0.355469 -22.527344 0.417969 -21.636719 0.417969 -20.804688 C 0.417969 -19.910156 0.476562 -19.019531 0.535156 -18.128906 C 0.535156 -16.34375 0.59375 -14.679688 0.714844 -13.136719 C 0.714844 -11.589844 0.773438 -10.222656 0.890625 -9.035156 C 0.890625 -7.847656 0.949219 -7.011719 1.070312 -6.539062 C 1.128906 -5.945312 1.1875 -5.527344 1.308594 -5.289062 C 1.425781 -4.933594 1.605469 -4.636719 1.960938 -4.398438 C 2.257812 -4.101562 2.675781 -3.921875 3.210938 -3.921875 C 3.804688 -3.804688 4.515625 -3.863281 5.289062 -3.980469 Z M 5.289062 -3.980469 "/></g></g></g></svg>