<svg xmlns="http://www.w3.org/2000/svg" xmlns:xlink="http://www.w3.org/1999/xlink" width="500" zoomAndPan="magnify" viewBox="0 0 375 374.999991" height="500" preserveAspectRatio="xMidYMid meet" version="1.0"><defs><g/><clipPath id="ac693daa87"><path d="M 178 242 L 195 242 L 195 250.519531 L 178 250.519531 Z M 178 242 " clip-rule="nonzero"/></clipPath><clipPath id="bc01630de2"><path d="M 244 176 L 266.375 176 L 266.375 183 L 244 183 Z M 244 176 " clip-rule="nonzero"/></clipPath><clipPath id="4f9a89a62e"><path d="M 168 100.519531 L 177 100.519531 L 177 120 L 168 120 Z M 168 100.519531 " clip-rule="nonzero"/></clipPath><clipPath id="1996359839"><path d="M 229 72 L 283 72 L 283 121 L 229 121 Z M 229 72 " clip-rule="nonzero"/></clipPath><clipPath id="3ed6786e22"><path d="M 220.964844 82.441406 L 255.652344 52.609375 L 312.378906 118.574219 L 277.691406 148.402344 Z M 220.964844 82.441406 " clip-rule="nonzero"/></clipPath><clipPath id="b3dabceaa9"><path d="M 220.964844 82.441406 L 255.652344 52.609375 L 312.378906 118.574219 L 277.691406 148.402344 Z M 220.964844 82.441406 " clip-rule="nonzero"/></clipPath><clipPath id="992c7e4ecc"><path d="M 270 106 L 286 106 L 286 123 L 270 123 Z M 270 106 " clip-rule="nonzero"/></clipPath><clipPath id="630d9b41b4"><path d="M 220.964844 82.441406 L 255.652344 52.609375 L 312.378906 118.574219 L 277.691406 148.402344 Z M 220.964844 82.441406 " clip-rule="nonzero"/></clipPath><clipPath id="3a56de3f98"><path d="M 220.964844 82.441406 L 255.652344 52.609375 L 312.378906 118.574219 L 277.691406 148.402344 Z M 220.964844 82.441406 " clip-rule="nonzero"/></clipPath><clipPath id="654578282a"><path d="M 276 111 L 299 111 L 299 131 L 276 131 Z M 276 111 " clip-rule="nonzero"/></clipPath><clipPath id="2d26d1860c"><path d="M 220.964844 82.441406 L 255.652344 52.609375 L 312.378906 118.574219 L 277.691406 148.402344 Z M 220.964844 82.441406 " clip-rule="nonzero"/></clipPath><clipPath id="130f1604a0"><path d="M 220.964844 82.441406 L 255.652344 52.609375 L 312.378906 118.574219 L 277.691406 148.402344 Z M 220.964844 82.441406 " clip-rule="nonzero"/></clipPath><clipPath id="722424181f"><path d="M 276 93 L 296 93 L 296 103 L 276 103 Z M 276 93 " clip-rule="nonzero"/></clipPath><clipPath id="454aced990"><path d="M 220.964844 82.441406 L 255.652344 52.609375 L 312.378906 118.574219 L 277.691406 148.402344 Z M 220.964844 82.441406 " clip-rule="nonzero"/></clipPath><clipPath id="3312a74283"><path d="M 220.964844 82.441406 L 255.652344 52.609375 L 312.378906 118.574219 L 277.691406 148.402344 Z M 220.964844 82.441406 " clip-rule="nonzero"/></clipPath><clipPath id="0a045ce20c"><path d="M 258 116 L 269 116 L 269 134 L 258 134 Z M 258 116 " clip-rule="nonzero"/></clipPath><clipPath id="c61800810e"><path d="M 220.964844 82.441406 L 255.652344 52.609375 L 312.378906 118.574219 L 277.691406 148.402344 Z M 220.964844 82.441406 " clip-rule="nonzero"/></clipPath><clipPath id="7dd59f584c"><path d="M 220.964844 82.441406 L 255.652344 52.609375 L 312.378906 118.574219 L 277.691406 148.402344 Z M 220.964844 82.441406 " clip-rule="nonzero"/></clipPath><clipPath id="fbcdaf4dee"><path d="M 241 81 L 256 81 L 256 98 L 241 98 Z M 241 81 " clip-rule="nonzero"/></clipPath><clipPath id="58ffbe074b"><path d="M 220.964844 82.441406 L 255.652344 52.609375 L 312.378906 118.574219 L 277.691406 148.402344 Z M 220.964844 82.441406 " clip-rule="nonzero"/></clipPath><clipPath id="8ae55c595d"><path d="M 220.964844 82.441406 L 255.652344 52.609375 L 312.378906 118.574219 L 277.691406 148.402344 Z M 220.964844 82.441406 " clip-rule="nonzero"/></clipPath><clipPath id="64ecc06e38"><path d="M 280 123 L 293 123 L 293 129 L 280 129 Z M 280 123 " clip-rule="nonzero"/></clipPath><clipPath id="77107d0476"><path d="M 220.964844 82.441406 L 255.652344 52.609375 L 312.378906 118.574219 L 277.691406 148.402344 Z M 220.964844 82.441406 " clip-rule="nonzero"/></clipPath><clipPath id="68681e0c2c"><path d="M 220.964844 82.441406 L 255.652344 52.609375 L 312.378906 118.574219 L 277.691406 148.402344 Z M 220.964844 82.441406 " clip-rule="nonzero"/></clipPath><clipPath id="ccbc47440e"><path d="M 257 110 L 274 110 L 274 119 L 257 119 Z M 257 110 " clip-rule="nonzero"/></clipPath><clipPath id="fee470d544"><path d="M 220.964844 82.441406 L 255.652344 52.609375 L 312.378906 118.574219 L 277.691406 148.402344 Z M 220.964844 82.441406 " clip-rule="nonzero"/></clipPath><clipPath id="7c948342c4"><path d="M 220.964844 82.441406 L 255.652344 52.609375 L 312.378906 118.574219 L 277.691406 148.402344 Z M 220.964844 82.441406 " clip-rule="nonzero"/></clipPath><clipPath id="f3a1be4dd5"><path d="M 251 89 L 268 89 L 268 106 L 251 106 Z M 251 89 " clip-rule="nonzero"/></clipPath><clipPath id="cb00807631"><path d="M 220.964844 82.441406 L 255.652344 52.609375 L 312.378906 118.574219 L 277.691406 148.402344 Z M 220.964844 82.441406 " clip-rule="nonzero"/></clipPath><clipPath id="9bd7bd0d9c"><path d="M 220.964844 82.441406 L 255.652344 52.609375 L 312.378906 118.574219 L 277.691406 148.402344 Z M 220.964844 82.441406 " clip-rule="nonzero"/></clipPath><clipPath id="05e30d8d79"><path d="M 255 98 L 263 98 L 263 103 L 255 103 Z M 255 98 " clip-rule="nonzero"/></clipPath><clipPath id="1780da6717"><path d="M 220.964844 82.441406 L 255.652344 52.609375 L 312.378906 118.574219 L 277.691406 148.402344 Z M 220.964844 82.441406 " clip-rule="nonzero"/></clipPath><clipPath id="bed0ce6ca1"><path d="M 220.964844 82.441406 L 255.652344 52.609375 L 312.378906 118.574219 L 277.691406 148.402344 Z M 220.964844 82.441406 " clip-rule="nonzero"/></clipPath><clipPath id="c9bea22c34"><path d="M 278 103 L 281 103 L 281 108 L 278 108 Z M 278 103 " clip-rule="nonzero"/></clipPath><clipPath id="647624f0be"><path d="M 220.964844 82.441406 L 255.652344 52.609375 L 312.378906 118.574219 L 277.691406 148.402344 Z M 220.964844 82.441406 " clip-rule="nonzero"/></clipPath><clipPath id="dfd3ac23e5"><path d="M 220.964844 82.441406 L 255.652344 52.609375 L 312.378906 118.574219 L 277.691406 148.402344 Z M 220.964844 82.441406 " clip-rule="nonzero"/></clipPath><clipPath id="5dd708a939"><path d="M 76 66 L 145 66 L 145 131 L 76 131 Z M 76 66 " clip-rule="nonzero"/></clipPath><clipPath id="17bcda07b4"><path d="M 62.835938 128.777344 L 91.335938 52.957031 L 160.839844 79.082031 L 132.339844 154.902344 Z M 62.835938 128.777344 " clip-rule="nonzero"/></clipPath><clipPath id="c89549bd56"><path d="M 62.835938 128.777344 L 91.335938 52.957031 L 160.839844 79.082031 L 132.339844 154.902344 Z M 62.835938 128.777344 " clip-rule="nonzero"/></clipPath><clipPath id="b1abe5d2d2"><path d="M 105 93 L 122 93 L 122 124 L 105 124 Z M 105 93 " clip-rule="nonzero"/></clipPath><clipPath id="487a8acd85"><path d="M 62.835938 128.777344 L 91.335938 52.957031 L 160.839844 79.082031 L 132.339844 154.902344 Z M 62.835938 128.777344 " clip-rule="nonzero"/></clipPath><clipPath id="c99e1abb47"><path d="M 62.835938 128.777344 L 91.335938 52.957031 L 160.839844 79.082031 L 132.339844 154.902344 Z M 62.835938 128.777344 " clip-rule="nonzero"/></clipPath><clipPath id="240e7a5d7b"><path d="M 85 96 L 104 96 L 104 99 L 85 99 Z M 85 96 " clip-rule="nonzero"/></clipPath><clipPath id="4917f74855"><path d="M 62.835938 128.777344 L 91.335938 52.957031 L 160.839844 79.082031 L 132.339844 154.902344 Z M 62.835938 128.777344 " clip-rule="nonzero"/></clipPath><clipPath id="64ec390296"><path d="M 62.835938 128.777344 L 91.335938 52.957031 L 160.839844 79.082031 L 132.339844 154.902344 Z M 62.835938 128.777344 " clip-rule="nonzero"/></clipPath><clipPath id="9c689b9e2d"><path d="M 87 101 L 106 101 L 106 105 L 87 105 Z M 87 101 " clip-rule="nonzero"/></clipPath><clipPath id="4541339f20"><path d="M 62.835938 128.777344 L 91.335938 52.957031 L 160.839844 79.082031 L 132.339844 154.902344 Z M 62.835938 128.777344 " clip-rule="nonzero"/></clipPath><clipPath id="5aee0dc9f4"><path d="M 62.835938 128.777344 L 91.335938 52.957031 L 160.839844 79.082031 L 132.339844 154.902344 Z M 62.835938 128.777344 " clip-rule="nonzero"/></clipPath><clipPath id="e5dc79c5e0"><path d="M 89 106 L 113 106 L 113 123 L 89 123 Z M 89 106 " clip-rule="nonzero"/></clipPath><clipPath id="8bcbfa4263"><path d="M 62.835938 128.777344 L 91.335938 52.957031 L 160.839844 79.082031 L 132.339844 154.902344 Z M 62.835938 128.777344 " clip-rule="nonzero"/></clipPath><clipPath id="9d84c46c6e"><path d="M 62.835938 128.777344 L 91.335938 52.957031 L 160.839844 79.082031 L 132.339844 154.902344 Z M 62.835938 128.777344 " clip-rule="nonzero"/></clipPath><clipPath id="5ff71f906b"><path d="M 112 78 L 124 78 L 124 94 L 112 94 Z M 112 78 " clip-rule="nonzero"/></clipPath><clipPath id="273626070f"><path d="M 62.835938 128.777344 L 91.335938 52.957031 L 160.839844 79.082031 L 132.339844 154.902344 Z M 62.835938 128.777344 " clip-rule="nonzero"/></clipPath><clipPath id="46abf99469"><path d="M 62.835938 128.777344 L 91.335938 52.957031 L 160.839844 79.082031 L 132.339844 154.902344 Z M 62.835938 128.777344 " clip-rule="nonzero"/></clipPath><clipPath id="d6221d7b1a"><path d="M 116 86 L 128 86 L 128 99 L 116 99 Z M 116 86 " clip-rule="nonzero"/></clipPath><clipPath id="99789aea42"><path d="M 62.835938 128.777344 L 91.335938 52.957031 L 160.839844 79.082031 L 132.339844 154.902344 Z M 62.835938 128.777344 " clip-rule="nonzero"/></clipPath><clipPath id="c450d36b26"><path d="M 62.835938 128.777344 L 91.335938 52.957031 L 160.839844 79.082031 L 132.339844 154.902344 Z M 62.835938 128.777344 " clip-rule="nonzero"/></clipPath><clipPath id="109f86a95b"><path d="M 118 91 L 131 91 L 131 105 L 118 105 Z M 118 91 " clip-rule="nonzero"/></clipPath><clipPath id="55f28f5995"><path d="M 62.835938 128.777344 L 91.335938 52.957031 L 160.839844 79.082031 L 132.339844 154.902344 Z M 62.835938 128.777344 " clip-rule="nonzero"/></clipPath><clipPath id="da4dff5ae9"><path d="M 62.835938 128.777344 L 91.335938 52.957031 L 160.839844 79.082031 L 132.339844 154.902344 Z M 62.835938 128.777344 " clip-rule="nonzero"/></clipPath><clipPath id="9a79e11c56"><path d="M 122 95 L 136 95 L 136 110 L 122 110 Z M 122 95 " clip-rule="nonzero"/></clipPath><clipPath id="43db7d8ff2"><path d="M 62.835938 128.777344 L 91.335938 52.957031 L 160.839844 79.082031 L 132.339844 154.902344 Z M 62.835938 128.777344 " clip-rule="nonzero"/></clipPath><clipPath id="fe95d07e53"><path d="M 62.835938 128.777344 L 91.335938 52.957031 L 160.839844 79.082031 L 132.339844 154.902344 Z M 62.835938 128.777344 " clip-rule="nonzero"/></clipPath><clipPath id="27e4877491"><path d="M 74 69 L 153 69 L 153 139 L 74 139 Z M 74 69 " clip-rule="nonzero"/></clipPath><clipPath id="fcba1cf8b2"><path d="M 62.835938 128.777344 L 91.335938 52.957031 L 160.839844 79.082031 L 132.339844 154.902344 Z M 62.835938 128.777344 " clip-rule="nonzero"/></clipPath><clipPath id="185bb5b40a"><path d="M 62.835938 128.777344 L 91.335938 52.957031 L 160.839844 79.082031 L 132.339844 154.902344 Z M 62.835938 128.777344 " clip-rule="nonzero"/></clipPath><clipPath id="c233a2368c"><path d="M 132 102 L 144 102 L 144 112 L 132 112 Z M 132 102 " clip-rule="nonzero"/></clipPath><clipPath id="19de57d48c"><path d="M 62.835938 128.777344 L 91.335938 52.957031 L 160.839844 79.082031 L 132.339844 154.902344 Z M 62.835938 128.777344 " clip-rule="nonzero"/></clipPath><clipPath id="4d6910ea51"><path d="M 62.835938 128.777344 L 91.335938 52.957031 L 160.839844 79.082031 L 132.339844 154.902344 Z M 62.835938 128.777344 " clip-rule="nonzero"/></clipPath><clipPath id="d7a1562356"><path d="M 93 127 L 107 127 L 107 132 L 93 132 Z M 93 127 " clip-rule="nonzero"/></clipPath><clipPath id="2a289fbe71"><path d="M 62.835938 128.777344 L 91.335938 52.957031 L 160.839844 79.082031 L 132.339844 154.902344 Z M 62.835938 128.777344 " clip-rule="nonzero"/></clipPath><clipPath id="e99d59d3c2"><path d="M 62.835938 128.777344 L 91.335938 52.957031 L 160.839844 79.082031 L 132.339844 154.902344 Z M 62.835938 128.777344 " clip-rule="nonzero"/></clipPath><clipPath id="1632393188"><path d="M 121 122 L 126 122 L 126 127 L 121 127 Z M 121 122 " clip-rule="nonzero"/></clipPath><clipPath id="4f6c6cc427"><path d="M 62.835938 128.777344 L 91.335938 52.957031 L 160.839844 79.082031 L 132.339844 154.902344 Z M 62.835938 128.777344 " clip-rule="nonzero"/></clipPath><clipPath id="f773a5b66a"><path d="M 62.835938 128.777344 L 91.335938 52.957031 L 160.839844 79.082031 L 132.339844 154.902344 Z M 62.835938 128.777344 " clip-rule="nonzero"/></clipPath></defs><rect x="-37.5" width="450" fill="#ffffff" y="-37.499999" height="449.999989" fill-opacity="1"/><rect x="-37.5" width="450" fill="#000000" y="-37.499999" height="449.999989" fill-opacity="1"/><path fill="#ffffff" d="M 173.390625 219.292969 C 173.46875 216.679688 172.675781 213.773438 171.335938 210.324219 C 170.378906 207.878906 167.199219 202.625 162.019531 194.089844 L 160.75 192 C 159.167969 189.390625 158.363281 186.753906 157.675781 184.511719 C 157.523438 184.015625 157.378906 183.542969 157.230469 183.089844 C 155.28125 177.082031 154.65625 169.980469 156.578125 161.929688 C 161.199219 142.5625 174.515625 133.066406 195.179688 134.355469 C 217.378906 135.742188 230.941406 145.769531 233.410156 163.878906 C 234.371094 170.917969 232.371094 177.125 229.507812 182.328125 C 228.046875 184.976562 226.765625 187.101562 225.460938 188.320312 C 216.394531 196.753906 211.886719 201.34375 211.457031 202.558594 C 211.429688 202.640625 211.390625 202.71875 211.339844 202.789062 C 208.550781 206.742188 205.285156 214.046875 203.179688 222.027344 C 203.046875 222.53125 202.53125 222.832031 202.027344 222.699219 C 201.523438 222.566406 201.222656 222.050781 201.355469 221.546875 C 203.5 213.429688 206.84375 205.898438 209.800781 201.703125 L 209.679688 201.933594 C 210.3125 200.144531 215.402344 195.105469 224.175781 186.941406 C 225.222656 185.964844 226.367188 184.121094 227.855469 181.417969 C 230.59375 176.441406 232.433594 170.648438 231.542969 164.136719 C 229.238281 147.203125 216.695312 137.585938 195.0625 136.238281 C 175.257812 135.003906 162.808594 143.945312 158.410156 162.367188 C 156.574219 170.066406 157.179688 176.816406 159.023438 182.507812 C 159.175781 182.976562 159.324219 183.46875 159.476562 183.960938 C 160.171875 186.214844 160.917969 188.640625 162.363281 191.023438 L 163.632812 193.113281 C 168.742188 201.539062 172.058594 206.996094 173.089844 209.640625 C 174.457031 213.144531 175.363281 216.34375 175.273438 219.351562 C 175.257812 219.871094 174.824219 220.28125 174.304688 220.265625 C 173.78125 220.25 173.375 219.8125 173.390625 219.292969 Z M 173.390625 219.292969 " fill-opacity="1" fill-rule="nonzero"/><path fill="#ffffff" d="M 204.230469 225.058594 C 202.125 222.738281 195.453125 220.050781 182.441406 219.453125 C 179.144531 219.300781 176.707031 219.707031 175.15625 220.316406 C 172.238281 221.457031 170.726562 222.617188 170.238281 223.550781 C 170.046875 223.917969 170.09375 224.730469 171.296875 226.375 C 172.011719 227.347656 172.964844 228.019531 174.238281 228.421875 C 175.675781 228.878906 178.953125 229.375 184.207031 229.898438 C 187.769531 230.25 191.265625 230.457031 194.71875 230.355469 C 196.625 230.300781 198.25 230.097656 199.585938 229.699219 C 202.554688 228.816406 203.992188 228.074219 204.324219 227.75 C 205.339844 226.75 205.5625 226.3125 204.355469 225.085938 C 204.207031 224.933594 204.03125 224.769531 203.832031 224.597656 C 203.4375 224.253906 203.398438 223.660156 203.738281 223.265625 C 204.078125 222.875 204.675781 222.832031 205.066406 223.171875 C 205.300781 223.375 205.511719 223.570312 205.699219 223.765625 C 207.855469 225.953125 207.160156 227.601562 205.648438 229.089844 C 204.925781 229.800781 203.015625 230.644531 200.125 231.507812 C 198.566406 231.96875 196.765625 232.179688 194.773438 232.238281 C 191.210938 232.34375 187.628906 232.132812 184.023438 231.773438 C 178.8125 231.257812 175.328125 230.746094 173.667969 230.21875 C 172.046875 229.707031 170.746094 228.8125 169.777344 227.488281 C 168.605469 225.886719 167.792969 224.15625 168.566406 222.675781 C 169.402344 221.082031 171.511719 219.71875 174.46875 218.558594 C 176.339844 217.824219 179.0625 217.410156 182.527344 217.570312 C 195.539062 218.167969 202.953125 220.847656 205.625 223.792969 C 205.976562 224.179688 205.945312 224.777344 205.558594 225.125 C 205.175781 225.476562 204.578125 225.445312 204.230469 225.058594 Z M 204.230469 225.058594 " fill-opacity="1" fill-rule="nonzero"/><path fill="#ffffff" d="M 171.40625 227.21875 C 171.257812 227.21875 171.105469 227.257812 170.960938 227.332031 C 168.335938 228.75 166.722656 230.097656 166.128906 231.371094 C 166.101562 231.425781 166.082031 231.484375 166.066406 231.546875 C 165.550781 233.648438 166.328125 235.15625 168.394531 236.070312 C 169.855469 236.75 171.636719 237.246094 173.734375 237.558594 L 173.75 237.5625 C 184.554688 238.972656 191.300781 239.800781 193.988281 240.039062 C 195.035156 240.128906 196.007812 240.175781 196.910156 240.175781 C 200.945312 240.175781 203.574219 239.265625 204.800781 237.445312 C 205.917969 236.03125 206.277344 234.695312 205.878906 233.429688 C 205.84375 233.324219 205.792969 233.226562 205.722656 233.136719 C 203.929688 230.820312 202.507812 229.578125 201.457031 229.402344 C 201.40625 229.394531 201.355469 229.390625 201.300781 229.390625 C 200.851562 229.390625 200.449219 229.71875 200.375 230.179688 C 200.289062 230.691406 200.636719 231.175781 201.148438 231.261719 C 201.699219 231.351562 202.6875 232.316406 204.121094 234.144531 L 204.117188 234.144531 C 204.238281 234.746094 203.96875 235.460938 203.3125 236.285156 C 203.292969 236.308594 203.277344 236.332031 203.257812 236.359375 C 202.417969 237.652344 200.351562 238.300781 197.054688 238.300781 C 196.175781 238.300781 195.210938 238.253906 194.15625 238.160156 C 191.496094 237.925781 184.78125 237.101562 174.011719 235.695312 C 172.085938 235.410156 170.472656 234.960938 169.175781 234.355469 L 169.160156 234.347656 C 168.085938 233.875 167.660156 233.121094 167.875 232.09375 C 168.332031 231.210938 169.65625 230.175781 171.855469 228.992188 C 172.3125 228.746094 172.484375 228.171875 172.238281 227.714844 C 172.066406 227.398438 171.742188 227.21875 171.40625 227.21875 Z M 171.40625 227.21875 " fill-opacity="1" fill-rule="nonzero"/><path fill="#ffffff" d="M 201.570312 239.136719 C 201.460938 241.734375 199.503906 243.460938 196.355469 244.183594 C 193.359375 244.875 188.074219 244.566406 180.761719 243.832031 C 176.472656 243.402344 175.203125 242.875 173.179688 241.429688 C 171.746094 240.40625 170.183594 239.246094 170.015625 236.648438 C 169.984375 236.128906 170.378906 235.679688 170.898438 235.644531 C 171.414062 235.613281 171.863281 236.007812 171.898438 236.527344 C 172.003906 238.183594 172.867188 238.890625 174.277344 239.894531 C 175.949219 241.09375 176.875 241.546875 180.953125 241.957031 C 188.367188 242.703125 193.304688 242.953125 195.929688 242.347656 C 198.640625 241.726562 199.628906 240.464844 199.6875 239.054688 C 199.710938 238.535156 200.148438 238.132812 200.671875 238.15625 C 201.191406 238.175781 201.59375 238.617188 201.570312 239.136719 Z M 201.570312 239.136719 " fill-opacity="1" fill-rule="nonzero"/><g clip-path="url(#ac693daa87)"><path fill="#ffffff" d="M 179.398438 242.753906 C 179.253906 242.753906 179.105469 242.785156 178.96875 242.855469 C 178.503906 243.09375 178.320312 243.664062 178.558594 244.125 C 180.667969 248.242188 183.164062 250.375 186.046875 250.519531 L 186.070312 250.523438 C 186.125 250.523438 186.183594 250.523438 186.238281 250.523438 C 187.609375 250.523438 188.792969 250.097656 189.800781 249.25 L 189.796875 249.25 C 190.472656 248.742188 191.027344 248.246094 191.46875 247.757812 C 191.945312 247.242188 192.523438 246.519531 193.199219 245.597656 C 193.382812 245.375 193.578125 245.183594 193.777344 245.019531 L 193.804688 244.996094 C 194.210938 244.667969 194.273438 244.074219 193.945312 243.671875 C 193.753906 243.4375 193.476562 243.316406 193.203125 243.316406 C 193.003906 243.316406 192.804688 243.382812 192.648438 243.511719 L 192.617188 243.53125 C 192.3125 243.777344 192.023438 244.0625 191.753906 244.386719 C 191.738281 244.40625 191.726562 244.421875 191.710938 244.4375 C 191.0625 245.328125 190.519531 246.007812 190.082031 246.480469 L 190.074219 246.488281 C 189.714844 246.890625 189.242188 247.308594 188.660156 247.75 C 188.640625 247.761719 188.625 247.773438 188.613281 247.789062 C 187.949219 248.355469 187.160156 248.640625 186.234375 248.640625 C 186.199219 248.640625 186.167969 248.636719 186.132812 248.636719 L 186.128906 248.636719 C 183.976562 248.523438 182.011719 246.734375 180.238281 243.265625 C 180.070312 242.941406 179.738281 242.753906 179.398438 242.753906 Z M 179.398438 242.753906 " fill-opacity="1" fill-rule="nonzero"/></g><path fill="#ffffff" d="M 181.273438 218.019531 C 182.910156 209.5 183.191406 203.863281 182.511719 200.910156 C 182.082031 199.046875 181.351562 196.324219 180.058594 192.792969 L 180.082031 192.855469 L 172.984375 177.15625 C 172.964844 177.117188 172.949219 177.078125 172.9375 177.035156 C 172.21875 174.59375 172.136719 171.980469 172.921875 169.273438 C 174.625 163.433594 178.308594 160.652344 183.566406 162.183594 C 183.875 162.273438 184.183594 162.375 184.496094 162.492188 C 187.628906 163.664062 189.949219 165.824219 191.023438 168.695312 C 192.339844 172.210938 191.757812 175.121094 189.265625 176.675781 C 189.148438 176.746094 189.019531 176.792969 188.886719 176.8125 C 186.574219 177.109375 185.113281 175.742188 184.675781 173.347656 C 184.191406 170.738281 184.46875 168.070312 185.640625 165.5 C 187.46875 161.472656 191.480469 159.953125 196.765625 161.089844 C 201.273438 162.058594 203.863281 164.800781 204.734375 168.578125 C 205.195312 170.574219 204.703125 172.800781 203.238281 175.226562 C 202.320312 176.746094 200.832031 178.414062 199.167969 177.40625 C 198.980469 177.292969 198.8125 177.152344 198.664062 176.996094 C 196.898438 175.136719 197.472656 172.378906 199.253906 169.5625 C 200.585938 167.449219 203.195312 165.859375 206.824219 165.898438 C 212.421875 165.960938 215.554688 169.984375 215.488281 176.023438 C 215.484375 176.101562 215.484375 176.171875 215.484375 176.25 C 215.414062 179.210938 214.269531 182.046875 212.289062 184.222656 C 204.441406 192.835938 200.136719 197.898438 199.132812 199.875 C 195.996094 206.054688 193.511719 211.851562 191.976562 219.082031 C 191.871094 219.59375 191.367188 219.917969 190.859375 219.808594 C 190.351562 219.699219 190.027344 219.199219 190.132812 218.691406 C 191.714844 211.238281 194.277344 205.277344 197.453125 199.023438 C 198.601562 196.753906 203.152344 191.449219 210.894531 182.953125 C 212.570312 181.113281 213.539062 178.710938 213.597656 176.203125 C 213.601562 176.136719 213.601562 176.070312 213.601562 176.003906 C 213.660156 170.71875 211.097656 167.832031 206.804688 167.785156 C 203.765625 167.75 201.796875 169.0625 200.847656 170.566406 C 199.128906 173.285156 199.25 174.878906 200.03125 175.699219 C 200.082031 175.75 200.117188 175.777344 200.140625 175.792969 C 200.058594 175.742188 200.503906 176.105469 201.625 174.25 C 202.929688 172.089844 203.210938 170.371094 202.898438 169.003906 C 202.195312 165.957031 200.183594 163.75 196.371094 162.933594 C 191.648438 161.917969 188.703125 163.3125 187.355469 166.277344 C 186.351562 168.488281 186.113281 170.761719 186.527344 173.007812 C 186.832031 174.664062 187.558594 175.082031 188.644531 174.941406 L 188.265625 175.078125 C 189.710938 174.175781 190.394531 172.398438 189.257812 169.355469 C 188.402344 167.066406 186.53125 165.269531 183.832031 164.257812 C 183.5625 164.15625 183.296875 164.066406 183.039062 163.992188 C 179.101562 162.84375 176.246094 164.609375 174.734375 169.800781 C 174.050781 172.140625 174.121094 174.386719 174.746094 176.503906 L 174.699219 176.382812 L 181.800781 192.078125 C 181.808594 192.101562 181.820312 192.121094 181.828125 192.144531 C 183.152344 195.757812 183.902344 198.554688 184.347656 200.484375 C 185.125 203.863281 184.761719 209.851562 183.125 218.375 C 183.027344 218.886719 182.53125 219.222656 182.019531 219.125 C 181.507812 219.027344 181.175781 218.53125 181.273438 218.019531 Z M 181.273438 218.019531 " fill-opacity="1" fill-rule="nonzero"/><path fill="#ffffff" d="M 220.429688 107.488281 C 220.125 107.488281 219.828125 107.636719 219.644531 107.90625 C 215.984375 113.394531 214.015625 116.300781 213.742188 116.632812 L 213.738281 116.632812 C 213.710938 116.664062 213.683594 116.695312 213.660156 116.730469 C 213.027344 117.636719 211.582031 119.445312 209.324219 122.160156 L 209.304688 122.183594 C 208.871094 122.738281 208.449219 123.328125 208.039062 123.953125 L 208.035156 123.957031 C 207.753906 124.390625 207.875 124.972656 208.308594 125.257812 C 208.46875 125.363281 208.644531 125.414062 208.824219 125.414062 C 209.128906 125.414062 209.433594 125.261719 209.613281 124.984375 C 209.992188 124.414062 210.375 123.875 210.773438 123.367188 C 213.011719 120.675781 214.472656 118.847656 215.15625 117.878906 C 215.167969 117.863281 215.179688 117.851562 215.191406 117.835938 C 215.507812 117.453125 217.515625 114.492188 221.210938 108.953125 C 221.5 108.519531 221.382812 107.933594 220.953125 107.644531 C 220.789062 107.539062 220.609375 107.488281 220.429688 107.488281 Z M 220.429688 107.488281 " fill-opacity="1" fill-rule="nonzero"/><path fill="#ffffff" d="M 255.066406 132.699219 C 254.917969 132.699219 254.769531 132.734375 254.628906 132.804688 C 250.214844 135.125 245.488281 137.703125 240.445312 140.539062 C 238.105469 141.71875 236.367188 142.46875 235.21875 142.789062 C 234.71875 142.929688 234.425781 143.449219 234.566406 143.953125 C 234.679688 144.367188 235.058594 144.640625 235.472656 144.640625 C 235.554688 144.640625 235.640625 144.628906 235.726562 144.605469 C 236.996094 144.25 238.867188 143.449219 241.332031 142.199219 C 241.34375 142.195312 241.355469 142.1875 241.371094 142.179688 C 246.394531 139.355469 251.105469 136.785156 255.503906 134.472656 C 255.964844 134.230469 256.144531 133.664062 255.902344 133.203125 C 255.730469 132.882812 255.40625 132.699219 255.066406 132.699219 Z M 255.066406 132.699219 " fill-opacity="1" fill-rule="nonzero"/><g clip-path="url(#bc01630de2)"><path fill="#ffffff" d="M 247.875 176.8125 C 247.074219 176.8125 246.292969 176.859375 245.527344 176.949219 C 245.011719 177.011719 244.644531 177.480469 244.703125 177.996094 C 244.761719 178.476562 245.167969 178.828125 245.640625 178.828125 C 245.675781 178.828125 245.714844 178.828125 245.75 178.820312 C 246.441406 178.738281 247.148438 178.699219 247.875 178.699219 C 249.308594 178.699219 250.808594 178.859375 252.371094 179.179688 C 252.394531 179.183594 252.417969 179.1875 252.441406 179.191406 C 253.527344 179.328125 257.75 180.488281 265.113281 182.664062 C 265.199219 182.691406 265.289062 182.703125 265.378906 182.703125 C 265.785156 182.703125 266.160156 182.4375 266.28125 182.027344 C 266.429688 181.53125 266.144531 181.003906 265.644531 180.859375 C 258.28125 178.679688 253.976562 177.503906 252.726562 177.328125 L 252.722656 177.328125 C 251.042969 176.984375 249.425781 176.8125 247.875 176.8125 Z M 247.875 176.8125 " fill-opacity="1" fill-rule="nonzero"/></g><path fill="#ffffff" d="M 230.777344 206.386719 C 230.613281 206.65625 230.398438 206.789062 230.121094 206.789062 C 230 206.789062 229.871094 206.761719 229.726562 206.710938 L 229.730469 206.710938 C 229.828125 206.742188 229.925781 206.757812 230.023438 206.757812 C 230.316406 206.757812 230.59375 206.621094 230.773438 206.386719 Z M 229.90625 204.839844 C 229.558594 204.839844 229.300781 205.050781 229.132812 205.46875 C 228.996094 205.8125 229.054688 206.144531 229.304688 206.460938 C 229.652344 206.898438 232.015625 209.214844 236.402344 213.40625 L 242.460938 219.652344 C 242.648438 219.84375 242.894531 219.941406 243.140625 219.941406 C 243.375 219.941406 243.613281 219.851562 243.792969 219.675781 C 244.167969 219.3125 244.175781 218.714844 243.816406 218.339844 L 237.730469 212.066406 L 237.703125 212.042969 C 233.652344 208.167969 231.371094 205.949219 230.863281 205.386719 L 230.859375 205.386719 C 230.761719 205.191406 230.589844 205.027344 230.371094 204.941406 C 230.199219 204.875 230.046875 204.839844 229.90625 204.839844 Z M 229.90625 204.839844 " fill-opacity="1" fill-rule="nonzero"/><path fill="#ffffff" d="M 142.769531 189.4375 C 142.636719 189.4375 142.5 189.46875 142.371094 189.527344 C 137.367188 191.886719 132.957031 194.214844 129.140625 196.507812 C 128.695312 196.773438 128.550781 197.355469 128.816406 197.800781 C 128.996094 198.09375 129.308594 198.257812 129.625 198.257812 C 129.792969 198.257812 129.960938 198.214844 130.113281 198.121094 C 133.871094 195.859375 138.226562 193.566406 143.171875 191.234375 C 143.644531 191.011719 143.847656 190.449219 143.625 189.980469 C 143.464844 189.636719 143.125 189.4375 142.769531 189.4375 Z M 142.769531 189.4375 " fill-opacity="1" fill-rule="nonzero"/><path fill="#ffffff" d="M 128.042969 145.277344 C 127.742188 145.277344 127.445312 145.417969 127.261719 145.6875 C 126.96875 146.117188 127.078125 146.703125 127.507812 146.996094 C 128.558594 147.710938 131.160156 149.300781 135.320312 151.765625 C 135.335938 151.773438 135.347656 151.78125 135.363281 151.789062 C 140.339844 154.414062 143.015625 155.863281 143.386719 156.132812 C 143.429688 156.164062 143.472656 156.195312 143.519531 156.21875 C 144.089844 156.53125 144.65625 157 145.214844 157.625 C 145.402344 157.832031 145.660156 157.9375 145.917969 157.9375 C 146.140625 157.9375 146.367188 157.859375 146.546875 157.695312 C 146.933594 157.347656 146.964844 156.753906 146.617188 156.367188 C 145.9375 155.605469 145.226562 155.019531 144.492188 154.605469 L 144.488281 154.605469 C 144.027344 154.269531 141.289062 152.785156 136.277344 150.140625 L 136.273438 150.140625 C 132.152344 147.699219 129.585938 146.132812 128.574219 145.441406 C 128.410156 145.328125 128.226562 145.277344 128.042969 145.277344 Z M 128.042969 145.277344 " fill-opacity="1" fill-rule="nonzero"/><g clip-path="url(#4f9a89a62e)"><path fill="#ffffff" d="M 169.703125 100.515625 C 169.597656 100.515625 169.488281 100.535156 169.382812 100.574219 C 168.890625 100.75 168.640625 101.289062 168.816406 101.78125 C 170.121094 105.375 170.875 107.523438 171.082031 108.230469 C 171.085938 108.246094 171.089844 108.261719 171.09375 108.277344 C 171.410156 109.183594 172.09375 111.597656 173.144531 115.519531 L 173.15625 115.554688 C 173.476562 116.601562 173.886719 117.769531 174.375 119.0625 C 174.519531 119.441406 174.875 119.671875 175.257812 119.671875 C 175.367188 119.671875 175.480469 119.652344 175.589844 119.609375 C 176.078125 119.425781 176.324219 118.882812 176.136719 118.394531 C 175.667969 117.152344 175.277344 116.03125 174.964844 115.03125 C 173.917969 111.125 173.226562 108.683594 172.890625 107.703125 C 172.671875 106.957031 171.90625 104.769531 170.589844 101.136719 C 170.449219 100.753906 170.089844 100.515625 169.703125 100.515625 Z M 169.703125 100.515625 " fill-opacity="1" fill-rule="nonzero"/></g><path fill="#ffffff" d="M 219.492188 151.402344 C 219.214844 151.402344 218.9375 151.523438 218.75 151.761719 C 218.429688 152.171875 218.5 152.761719 218.910156 153.085938 C 221.085938 154.796875 222.660156 156.761719 223.628906 158.980469 C 224.441406 161.027344 224.914062 164.261719 225.050781 168.675781 C 225.066406 169.1875 225.484375 169.589844 225.992188 169.589844 C 226 169.589844 226.011719 169.589844 226.019531 169.589844 C 226.539062 169.574219 226.949219 169.136719 226.933594 168.617188 C 226.792969 163.960938 226.269531 160.507812 225.367188 158.25 L 225.355469 158.222656 C 224.261719 155.714844 222.5 153.507812 220.074219 151.601562 C 219.902344 151.46875 219.695312 151.402344 219.492188 151.402344 Z M 219.492188 151.402344 " fill-opacity="1" fill-rule="nonzero"/><path fill="#ffffff" d="M 224.378906 177.589844 C 223.976562 177.589844 223.601562 177.851562 223.46875 178.28125 L 223.464844 178.28125 C 223.375 178.574219 223.269531 178.863281 223.152344 179.148438 L 223.121094 179.246094 L 223.128906 179.21875 L 223.125 179.21875 C 223.042969 179.433594 222.875 179.785156 222.625 180.269531 C 222.386719 180.734375 222.570312 181.300781 223.035156 181.539062 C 223.171875 181.609375 223.320312 181.640625 223.464844 181.640625 C 223.804688 181.640625 224.136719 181.457031 224.304688 181.128906 C 224.59375 180.5625 224.792969 180.140625 224.898438 179.859375 C 225.039062 179.511719 225.164062 179.164062 225.277344 178.8125 L 225.285156 178.777344 C 225.417969 178.292969 225.140625 177.78125 224.65625 177.628906 C 224.5625 177.601562 224.46875 177.589844 224.378906 177.589844 Z M 224.378906 177.589844 " fill-opacity="1" fill-rule="nonzero"/><g clip-path="url(#1996359839)"><g clip-path="url(#3ed6786e22)"><g clip-path="url(#b3dabceaa9)"><path fill="#ffffff" d="M 230.703125 74.195312 C 237.941406 72.203125 245.355469 70.160156 255.3125 75.863281 C 265.152344 81.5 277.507812 94.734375 281.394531 101.714844 C 284.195312 106.742188 282.71875 108.785156 280.523438 110.671875 C 280.328125 110.839844 280.125 111.007812 279.921875 111.175781 C 279.714844 111.351562 279.507812 111.523438 279.300781 111.703125 C 278.773438 112.15625 278.265625 112.628906 277.8125 113.171875 C 277.222656 113.882812 276.710938 114.734375 276.167969 115.636719 C 275.625 116.550781 275.046875 117.515625 274.347656 118.359375 C 274.050781 118.71875 273.726562 119.058594 273.367188 119.367188 C 271.683594 120.8125 269.375 121.4375 265.773438 120.34375 C 257.871094 117.945312 243.179688 107.125 236.144531 98.148438 C 229.023438 89.0625 229.675781 81.789062 230.308594 74.667969 C 230.328125 74.441406 230.484375 74.253906 230.703125 74.195312 M 230.988281 75.234375 L 231.382812 74.761719 C 230.753906 81.824219 230.140625 88.734375 236.992188 97.480469 C 243.929688 106.335938 258.449219 116.996094 266.085938 119.308594 C 269.414062 120.320312 271.316406 119.707031 272.664062 118.546875 C 272.96875 118.285156 273.25 117.992188 273.519531 117.667969 C 274.15625 116.902344 274.691406 116.011719 275.242188 115.085938 C 275.777344 114.195312 276.328125 113.269531 276.984375 112.480469 C 277.492188 111.871094 278.050781 111.351562 278.59375 110.886719 C 278.808594 110.699219 279.023438 110.523438 279.230469 110.347656 C 279.433594 110.179688 279.628906 110.015625 279.820312 109.851562 C 281.675781 108.257812 282.976562 106.765625 280.453125 102.238281 C 276.660156 95.429688 264.441406 82.339844 254.777344 76.800781 C 245.222656 71.328125 238.191406 73.253906 230.988281 75.234375 Z M 230.988281 75.234375 " fill-opacity="1" fill-rule="nonzero"/></g></g></g><g clip-path="url(#992c7e4ecc)"><g clip-path="url(#630d9b41b4)"><g clip-path="url(#3a56de3f98)"><path fill="#ffffff" d="M 271.140625 120.0625 C 272.875 121.0625 274.363281 121.917969 276.757812 120.34375 C 277.125 120.101562 277.515625 119.800781 277.921875 119.453125 C 280.324219 117.386719 283.027344 113.808594 283.945312 111.566406 C 284.914062 109.203125 283.867188 108.484375 282.554688 107.558594 C 282.3125 107.386719 282.253906 107.046875 282.425781 106.804688 C 282.601562 106.5625 282.9375 106.503906 283.179688 106.675781 C 284.570312 107.660156 286.222656 108.855469 284.945312 111.972656 C 283.949219 114.410156 281.125 118.121094 278.625 120.269531 C 278.191406 120.640625 277.761719 120.972656 277.347656 121.246094 C 274.390625 123.1875 272.371094 122.019531 270.601562 121 C 270.34375 120.847656 270.253906 120.519531 270.402344 120.261719 C 270.550781 120.003906 270.882812 119.914062 271.140625 120.0625 Z M 271.140625 120.0625 " fill-opacity="1" fill-rule="nonzero"/></g></g></g><g clip-path="url(#654578282a)"><g clip-path="url(#2d26d1860c)"><g clip-path="url(#130f1604a0)"><path fill="#ffffff" d="M 277.640625 121.148438 C 278.738281 124.128906 279.765625 126.847656 283.050781 128.144531 C 286.460938 129.488281 292.3125 129.332031 298.355469 129.164062 L 297.953125 130.042969 C 295.902344 127.539062 293.777344 124.949219 292.691406 122.179688 C 292.242188 121.035156 291.972656 119.871094 291.730469 118.8125 C 291.507812 117.851562 291.304688 116.992188 291.015625 116.25 C 290.839844 115.808594 290.640625 115.421875 290.394531 115.09375 C 289.257812 113.578125 286.972656 113.023438 284.382812 112.425781 C 284.09375 112.359375 283.910156 112.070312 283.980469 111.78125 C 284.046875 111.488281 284.335938 111.308594 284.625 111.375 C 287.074219 111.941406 289.832031 112.546875 291.253906 114.445312 C 291.578125 114.871094 291.820312 115.351562 292.019531 115.855469 C 292.34375 116.6875 292.5625 117.628906 292.78125 118.570312 C 293.027344 119.636719 293.28125 120.726562 293.695312 121.785156 C 294.710938 124.367188 296.710938 126.820312 298.785156 129.359375 C 298.917969 129.519531 298.945312 129.738281 298.859375 129.925781 C 298.773438 130.113281 298.589844 130.234375 298.382812 130.242188 C 292.453125 130.410156 286.324219 130.59375 282.65625 129.148438 C 278.863281 127.652344 277.710938 124.457031 276.628906 121.519531 C 276.523438 121.242188 276.667969 120.929688 276.949219 120.828125 C 277.226562 120.726562 277.539062 120.867188 277.640625 121.148438 Z M 277.640625 121.148438 " fill-opacity="1" fill-rule="nonzero"/></g></g></g><g clip-path="url(#722424181f)"><g clip-path="url(#454aced990)"><g clip-path="url(#3312a74283)"><path fill="#ffffff" d="M 281.472656 101.824219 L 295.367188 99.53125 L 295.132812 100.496094 C 291.722656 97.964844 288.453125 95.546875 285.492188 94.875 C 282.585938 94.214844 279.929688 95.238281 277.089844 96.351562 C 276.8125 96.460938 276.5 96.324219 276.390625 96.046875 C 276.28125 95.769531 276.417969 95.453125 276.695312 95.347656 C 279.484375 94.253906 282.453125 93.078125 285.734375 93.820312 C 288.960938 94.554688 292.4375 97.152344 295.777344 99.628906 C 295.949219 99.761719 296.03125 99.980469 295.980469 100.191406 C 295.929688 100.402344 295.757812 100.5625 295.542969 100.597656 L 281.648438 102.890625 C 281.355469 102.9375 281.078125 102.738281 281.03125 102.445312 C 280.980469 102.152344 281.179688 101.875 281.472656 101.824219 Z M 281.472656 101.824219 " fill-opacity="1" fill-rule="nonzero"/></g></g></g><g clip-path="url(#0a045ce20c)"><g clip-path="url(#c61800810e)"><g clip-path="url(#7dd59f584c)"><path fill="#ffffff" d="M 259.511719 117.132812 C 259.570312 120.542969 259.636719 123.773438 261.011719 126.328125 C 262.386719 128.890625 265.109375 130.828125 267.980469 132.863281 L 267.128906 133.316406 L 266.816406 120.78125 C 266.808594 120.480469 267.046875 120.234375 267.34375 120.226562 C 267.640625 120.21875 267.886719 120.453125 267.894531 120.753906 L 268.207031 133.289062 C 268.210938 133.496094 268.101562 133.683594 267.921875 133.78125 C 267.742188 133.875 267.523438 133.863281 267.355469 133.742188 C 264.542969 131.753906 261.582031 129.667969 260.0625 126.839844 C 258.539062 124.007812 258.492188 120.488281 258.433594 117.148438 C 258.429688 116.851562 258.667969 116.605469 258.964844 116.601562 C 259.261719 116.597656 259.507812 116.832031 259.511719 117.132812 Z M 259.511719 117.132812 " fill-opacity="1" fill-rule="nonzero"/></g></g></g><g clip-path="url(#fbcdaf4dee)"><g clip-path="url(#58ffbe074b)"><g clip-path="url(#8ae55c595d)"><path fill="#ffffff" d="M 242.011719 96.65625 C 243.234375 95.699219 244.441406 94.753906 245.601562 93.757812 C 246.917969 92.625 248.164062 91.433594 249.273438 90.101562 C 251.371094 87.589844 253.007812 84.5625 254.679688 81.476562 C 254.820312 81.210938 255.148438 81.113281 255.410156 81.257812 C 255.671875 81.398438 255.769531 81.726562 255.628906 81.988281 C 253.96875 85.054688 252.28125 88.183594 250.105469 90.792969 C 248.941406 92.183594 247.648438 93.417969 246.304688 94.574219 C 245.121094 95.59375 243.894531 96.554688 242.675781 97.503906 L 242.675781 97.507812 C 242.441406 97.691406 242.101562 97.648438 241.917969 97.414062 C 241.734375 97.179688 241.777344 96.839844 242.011719 96.65625 Z M 242.011719 96.65625 " fill-opacity="1" fill-rule="nonzero"/></g></g></g><g clip-path="url(#64ecc06e38)"><g clip-path="url(#77107d0476)"><g clip-path="url(#68681e0c2c)"><path fill="#ffffff" d="M 281.628906 123.578125 C 283.128906 124.96875 284.523438 126.246094 286.121094 126.777344 C 287.71875 127.304688 289.582031 127.109375 291.597656 126.882812 C 291.894531 126.851562 292.160156 127.0625 292.191406 127.359375 C 292.226562 127.65625 292.011719 127.921875 291.714844 127.957031 C 289.761719 128.171875 287.648438 128.417969 285.78125 127.800781 C 283.917969 127.183594 282.351562 125.71875 280.898438 124.371094 C 280.679688 124.167969 280.664062 123.828125 280.867188 123.609375 C 281.070312 123.390625 281.410156 123.375 281.628906 123.578125 Z M 281.628906 123.578125 " fill-opacity="1" fill-rule="nonzero"/></g></g></g><g clip-path="url(#ccbc47440e)"><g clip-path="url(#fee470d544)"><g clip-path="url(#7c948342c4)"><path fill="#ffffff" d="M 258.238281 110.796875 C 262.5625 113.9375 266.707031 116.929688 269.050781 117.449219 C 269.941406 117.644531 270.484375 117.453125 270.878906 117.113281 C 271.515625 116.566406 271.886719 115.558594 272.3125 114.339844 C 272.410156 114.058594 272.71875 113.910156 273 114.007812 C 273.28125 114.109375 273.429688 114.414062 273.332031 114.695312 C 272.9375 115.820312 272.484375 117.15625 271.585938 117.929688 C 270.894531 118.523438 269.988281 118.757812 268.820312 118.5 C 266.195312 117.921875 261.808594 114.722656 257.605469 111.671875 C 257.363281 111.496094 257.308594 111.160156 257.484375 110.917969 C 257.660156 110.675781 257.996094 110.625 258.238281 110.796875 Z M 258.238281 110.796875 " fill-opacity="1" fill-rule="nonzero"/></g></g></g><g clip-path="url(#f3a1be4dd5)"><g clip-path="url(#cb00807631)"><g clip-path="url(#9bd7bd0d9c)"><path fill="#ffffff" d="M 265.621094 92.539062 C 268.519531 95.910156 268.136719 100.992188 264.765625 103.894531 C 261.394531 106.792969 256.3125 106.410156 253.414062 103.039062 C 250.515625 99.667969 250.898438 94.585938 254.269531 91.6875 C 257.640625 88.785156 262.722656 89.167969 265.621094 92.539062 M 264.804688 93.242188 C 262.292969 90.324219 257.890625 89.992188 254.972656 92.503906 C 252.054688 95.015625 251.722656 99.414062 254.234375 102.335938 C 256.742188 105.253906 261.144531 105.585938 264.0625 103.074219 C 266.984375 100.5625 267.3125 96.164062 264.804688 93.242188 Z M 264.804688 93.242188 " fill-opacity="1" fill-rule="nonzero"/></g></g></g><g clip-path="url(#05e30d8d79)"><g clip-path="url(#1780da6717)"><g clip-path="url(#bed0ce6ca1)"><path fill="#ffffff" d="M 256.558594 98.933594 L 256.5625 99.199219 L 256.5625 99.15625 L 256.585938 99.425781 L 256.582031 99.382812 L 256.628906 99.648438 L 256.617188 99.605469 L 256.6875 99.867188 L 256.675781 99.824219 L 256.761719 100.078125 L 256.746094 100.039062 L 256.855469 100.285156 L 256.835938 100.246094 L 256.964844 100.480469 L 256.941406 100.445312 L 257.089844 100.671875 L 257.066406 100.636719 L 257.226562 100.847656 L 257.199219 100.816406 L 257.382812 101.015625 L 257.351562 100.984375 L 257.546875 101.167969 L 257.515625 101.140625 L 257.722656 101.308594 L 257.6875 101.285156 L 257.910156 101.4375 L 257.875 101.414062 L 258.109375 101.546875 L 258.070312 101.527344 L 258.3125 101.640625 L 258.273438 101.625 L 258.527344 101.71875 L 258.484375 101.703125 L 258.742188 101.777344 L 258.703125 101.769531 L 258.960938 101.820312 L 258.917969 101.8125 L 259.179688 101.847656 L 259.140625 101.84375 L 259.402344 101.855469 L 259.359375 101.855469 L 259.625 101.84375 L 259.582031 101.847656 L 259.84375 101.820312 L 259.800781 101.824219 L 260.0625 101.777344 L 260.019531 101.785156 L 260.273438 101.714844 L 260.234375 101.726562 L 260.480469 101.636719 L 260.441406 101.652344 L 260.683594 101.546875 L 260.644531 101.566406 L 260.875 101.4375 L 260.839844 101.460938 L 261.0625 101.316406 L 261.027344 101.339844 L 261.234375 101.179688 L 261.203125 101.203125 L 261.398438 101.027344 L 261.367188 101.058594 L 261.546875 100.867188 L 261.519531 100.898438 L 261.6875 100.691406 L 261.660156 100.726562 L 261.808594 100.507812 L 261.789062 100.542969 L 261.917969 100.316406 C 262.066406 100.058594 262.398438 99.96875 262.65625 100.117188 C 262.914062 100.265625 263.003906 100.59375 262.855469 100.855469 L 262.722656 101.082031 L 262.699219 101.117188 L 262.550781 101.335938 L 262.527344 101.367188 L 262.363281 101.574219 L 262.332031 101.605469 L 262.152344 101.796875 L 262.121094 101.828125 L 261.925781 102.003906 L 261.894531 102.03125 L 261.6875 102.191406 L 261.652344 102.21875 L 261.433594 102.363281 L 261.394531 102.382812 L 261.164062 102.511719 L 261.128906 102.527344 L 260.886719 102.636719 L 260.847656 102.652344 L 260.601562 102.742188 L 260.558594 102.753906 L 260.304688 102.824219 L 260.265625 102.835938 L 260.007812 102.886719 L 259.964844 102.890625 L 259.703125 102.921875 L 259.660156 102.921875 L 259.398438 102.933594 L 259.355469 102.933594 L 259.089844 102.921875 L 259.050781 102.917969 L 258.789062 102.886719 L 258.746094 102.878906 L 258.488281 102.824219 L 258.445312 102.816406 L 258.1875 102.742188 L 258.148438 102.726562 L 257.894531 102.632812 L 257.855469 102.617188 L 257.613281 102.503906 L 257.574219 102.484375 L 257.339844 102.351562 L 257.304688 102.328125 L 257.082031 102.175781 L 257.046875 102.152344 L 256.839844 101.980469 L 256.804688 101.953125 L 256.609375 101.769531 L 256.582031 101.738281 L 256.398438 101.539062 L 256.371094 101.507812 L 256.207031 101.292969 L 256.183594 101.257812 L 256.039062 101.03125 L 256.015625 100.996094 L 255.886719 100.757812 L 255.871094 100.71875 L 255.761719 100.472656 L 255.746094 100.433594 L 255.65625 100.179688 L 255.644531 100.140625 L 255.574219 99.878906 L 255.566406 99.835938 L 255.519531 99.574219 L 255.511719 99.53125 L 255.488281 99.261719 L 255.484375 99.21875 L 255.480469 98.949219 C 255.472656 98.652344 255.710938 98.40625 256.007812 98.402344 C 256.308594 98.398438 256.554688 98.632812 256.558594 98.933594 Z M 256.558594 98.933594 " fill-opacity="1" fill-rule="nonzero"/></g></g></g><g clip-path="url(#c9bea22c34)"><g clip-path="url(#647624f0be)"><g clip-path="url(#dfd3ac23e5)"><path fill="#ffffff" d="M 278.347656 106.582031 L 278.484375 106.449219 L 278.464844 106.46875 L 278.59375 106.332031 L 278.574219 106.351562 L 278.699219 106.207031 L 278.679688 106.230469 L 278.792969 106.078125 L 278.773438 106.101562 L 278.878906 105.941406 L 278.863281 105.96875 L 278.960938 105.800781 L 278.945312 105.828125 L 279.03125 105.65625 L 279.019531 105.683594 L 279.097656 105.507812 L 279.085938 105.539062 L 279.152344 105.359375 L 279.140625 105.386719 L 279.195312 105.207031 L 279.1875 105.238281 L 279.234375 105.054688 L 279.226562 105.085938 L 279.261719 104.902344 L 279.257812 104.933594 L 279.28125 104.746094 L 279.277344 104.777344 L 279.292969 104.589844 L 279.289062 104.621094 L 279.292969 104.433594 L 279.292969 104.464844 L 279.289062 104.277344 L 279.289062 104.308594 L 279.273438 104.121094 L 279.277344 104.152344 L 279.25 103.96875 C 279.203125 103.671875 279.410156 103.398438 279.703125 103.355469 C 280 103.3125 280.273438 103.515625 280.316406 103.808594 L 280.34375 103.996094 L 280.347656 104.023438 L 280.363281 104.210938 L 280.367188 104.238281 L 280.371094 104.425781 L 280.371094 104.457031 L 280.367188 104.640625 L 280.367188 104.671875 L 280.351562 104.859375 L 280.351562 104.886719 L 280.324219 105.074219 L 280.320312 105.101562 L 280.285156 105.285156 L 280.28125 105.3125 L 280.234375 105.496094 L 280.226562 105.523438 L 280.171875 105.703125 L 280.164062 105.730469 L 280.097656 105.910156 L 280.085938 105.941406 L 280.007812 106.117188 L 279.996094 106.144531 L 279.910156 106.316406 L 279.894531 106.34375 L 279.796875 106.507812 L 279.78125 106.535156 L 279.675781 106.695312 L 279.660156 106.71875 L 279.542969 106.875 L 279.523438 106.898438 L 279.402344 107.046875 L 279.382812 107.070312 L 279.25 107.207031 L 279.226562 107.230469 L 279.089844 107.363281 C 278.871094 107.566406 278.53125 107.558594 278.328125 107.34375 C 278.121094 107.128906 278.128906 106.785156 278.347656 106.582031 Z M 278.347656 106.582031 " fill-opacity="1" fill-rule="nonzero"/></g></g></g><g clip-path="url(#5dd708a939)"><g clip-path="url(#17bcda07b4)"><g clip-path="url(#c89549bd56)"><path fill="#ffffff" d="M 121.089844 124.328125 C 117.917969 123.144531 113.085938 123.527344 106.285156 124.824219 C 103.742188 125.308594 99.058594 126.777344 92.289062 129.933594 C 91.667969 130.222656 91.082031 130.1875 90.648438 129.855469 C 90.023438 129.375 89.40625 128.402344 89.0625 126.902344 C 86.453125 115.542969 85.0625 109.703125 84.667969 109.101562 C 84.59375 108.988281 84.75 109.328125 85.105469 109.246094 C 85.257812 109.210938 85.34375 109.113281 85.375 109.066406 C 85.269531 109.214844 85.09375 109.296875 84.910156 109.273438 C 84.730469 109.25 84.574219 109.128906 84.507812 108.960938 C 82.558594 103.917969 81.515625 101.316406 81.347656 101.035156 C 81.160156 100.71875 81.425781 101.402344 81.921875 101.207031 C 82.109375 101.136719 82.179688 100.984375 82.203125 100.925781 C 82.132812 101.113281 81.957031 101.238281 81.757812 101.246094 C 81.558594 101.25 81.371094 101.136719 81.289062 100.953125 C 80.601562 99.433594 79.082031 96.976562 76.769531 93.5 C 76.460938 93.03125 76.464844 92.523438 76.695312 92.101562 C 76.738281 92.023438 76.796875 91.960938 76.871094 91.914062 C 82.632812 88.375 92.394531 88.816406 105.960938 92.96875 L 105.6875 92.964844 C 105.886719 92.910156 106.480469 92.484375 106.972656 91.230469 C 110.191406 83.027344 112.761719 77.960938 114.464844 75.71875 C 116.765625 72.683594 120.238281 69.359375 125.554688 66.222656 C 125.679688 66.148438 125.832031 66.132812 125.972656 66.183594 C 126.109375 66.234375 126.21875 66.339844 126.269531 66.480469 C 128.617188 72.820312 132.175781 79.53125 136.539062 86.867188 C 137.3125 88.167969 139.804688 91.507812 144.46875 96.671875 C 144.511719 96.71875 144.546875 96.777344 144.566406 96.835938 C 144.628906 97.007812 144.613281 97.175781 144.578125 97.304688 C 144.46875 97.699219 144.097656 98.101562 143.546875 98.441406 C 139.214844 101.09375 136.449219 102.964844 135.144531 104.082031 L 134.808594 104.371094 L 134.480469 104.652344 C 132.957031 105.957031 131.5625 107.179688 130.414062 108.511719 C 126.460938 113.117188 122.925781 119.554688 121.679688 124.195312 C 121.605469 124.457031 121.335938 124.613281 121.070312 124.542969 C 120.808594 124.472656 120.652344 124.199219 120.722656 123.9375 C 122.015625 119.128906 125.632812 112.5625 129.664062 107.867188 C 130.867188 106.46875 132.316406 105.203125 133.835938 103.902344 L 134.164062 103.617188 L 134.5 103.332031 C 135.875 102.152344 138.707031 100.242188 143.03125 97.597656 C 143.492188 97.3125 143.609375 97.082031 143.621094 97.042969 C 143.621094 97.035156 143.605469 97.089844 143.636719 97.167969 L 143.734375 97.335938 C 139.0625 92.160156 136.515625 88.761719 135.6875 87.375 C 131.3125 80.019531 127.71875 73.25 125.339844 66.824219 L 126.054688 67.078125 C 120.84375 70.152344 117.472656 73.390625 115.253906 76.316406 C 113.640625 78.441406 111.113281 83.386719 107.894531 91.59375 C 107.363281 92.941406 106.605469 93.742188 105.945312 93.921875 C 105.855469 93.945312 105.761719 93.941406 105.671875 93.914062 C 92.105469 89.765625 82.746094 89.46875 77.390625 92.757812 L 77.566406 92.574219 C 77.507812 92.683594 77.496094 92.800781 77.597656 92.953125 C 79.898438 96.414062 81.464844 98.941406 82.191406 100.546875 L 81.277344 100.574219 C 81.300781 100.511719 81.375 100.355469 81.566406 100.285156 L 81.5625 100.285156 C 82.074219 100.085938 82.355469 100.792969 82.199219 100.527344 C 82.421875 100.90625 83.511719 103.636719 85.433594 108.601562 L 84.566406 108.496094 C 84.613281 108.425781 84.714844 108.316406 84.886719 108.28125 C 85.289062 108.1875 85.503906 108.570312 85.496094 108.558594 C 86.019531 109.355469 87.460938 115.515625 90.027344 126.679688 C 90.339844 128.042969 90.871094 128.773438 91.253906 129.070312 C 91.328125 129.125 91.5 129.207031 91.871094 129.035156 C 98.679688 125.859375 103.445312 124.355469 106.101562 123.851562 C 112.863281 122.5625 117.96875 122.105469 121.433594 123.402344 C 121.691406 123.496094 121.820312 123.78125 121.726562 124.039062 C 121.628906 124.296875 121.34375 124.425781 121.089844 124.328125 Z M 121.089844 124.328125 " fill-opacity="1" fill-rule="nonzero"/></g></g></g><g clip-path="url(#b1abe5d2d2)"><g clip-path="url(#487a8acd85)"><g clip-path="url(#c99e1abb47)"><path fill="#ffffff" d="M 120.609375 122.824219 C 120.765625 122.652344 120.957031 122.636719 121.1875 122.777344 C 121 122.664062 120.765625 122.691406 120.609375 122.828125 Z M 105.75 93.347656 C 105.703125 93.472656 105.707031 93.617188 105.773438 93.746094 C 111.410156 104.855469 114.75 111.777344 115.789062 114.503906 C 115.796875 114.523438 115.804688 114.542969 115.816406 114.5625 L 119.707031 121.691406 C 120.113281 122.5 120.355469 123.011719 120.4375 123.21875 C 120.441406 123.382812 120.527344 123.535156 120.671875 123.625 C 120.960938 123.800781 121.191406 123.746094 121.367188 123.460938 C 121.382812 123.433594 121.398438 123.402344 121.410156 123.375 C 121.449219 123.265625 121.453125 123.144531 121.414062 123.011719 C 121.355469 122.8125 121.078125 122.21875 120.585938 121.230469 L 120.574219 121.214844 L 116.703125 114.125 C 115.640625 111.347656 112.292969 104.40625 106.65625 93.296875 C 106.53125 93.050781 106.234375 92.957031 105.988281 93.078125 C 105.875 93.136719 105.792969 93.234375 105.75 93.347656 Z M 105.75 93.347656 " fill-opacity="1" fill-rule="nonzero"/></g></g></g><g clip-path="url(#240e7a5d7b)"><g clip-path="url(#4917f74855)"><g clip-path="url(#64ec390296)"><path fill="#ffffff" d="M 85.351562 97.804688 C 85.324219 97.882812 85.3125 97.96875 85.328125 98.058594 C 85.371094 98.328125 85.628906 98.511719 85.898438 98.464844 C 89.550781 97.855469 92.410156 97.511719 94.480469 97.441406 L 94.492188 97.4375 C 96.605469 97.308594 99.472656 97.507812 103.089844 98.035156 C 103.324219 98.070312 103.546875 97.933594 103.625 97.722656 C 103.636719 97.6875 103.648438 97.652344 103.652344 97.617188 C 103.691406 97.347656 103.503906 97.09375 103.234375 97.054688 C 99.554688 96.519531 96.625 96.316406 94.445312 96.449219 C 92.332031 96.523438 89.429688 96.871094 85.734375 97.488281 C 85.554688 97.519531 85.414062 97.644531 85.351562 97.804688 Z M 85.351562 97.804688 " fill-opacity="1" fill-rule="nonzero"/></g></g></g><g clip-path="url(#9c689b9e2d)"><g clip-path="url(#4541339f20)"><g clip-path="url(#5aee0dc9f4)"><path fill="#ffffff" d="M 87.386719 103.511719 C 87.359375 103.589844 87.347656 103.679688 87.363281 103.773438 C 87.414062 104.042969 87.671875 104.21875 87.941406 104.171875 C 91.195312 103.582031 94.054688 103.210938 96.515625 103.058594 C 98.789062 102.914062 101.742188 102.953125 105.378906 103.171875 C 105.601562 103.1875 105.796875 103.050781 105.871094 102.855469 C 105.890625 102.808594 105.898438 102.761719 105.902344 102.710938 C 105.917969 102.4375 105.710938 102.203125 105.4375 102.183594 C 101.761719 101.960938 98.765625 101.921875 96.453125 102.070312 C 93.953125 102.226562 91.058594 102.601562 87.765625 103.195312 C 87.585938 103.230469 87.449219 103.351562 87.386719 103.511719 Z M 87.386719 103.511719 " fill-opacity="1" fill-rule="nonzero"/></g></g></g><g clip-path="url(#e5dc79c5e0)"><g clip-path="url(#8bcbfa4263)"><g clip-path="url(#9d84c46c6e)"><path fill="#ffffff" d="M 90.011719 111.179688 C 90.109375 110.917969 90.769531 110.582031 91.992188 110.179688 C 92.210938 110.105469 92.449219 110.03125 92.703125 109.957031 L 92.699219 109.960938 C 101.726562 108.039062 106.617188 107.148438 107.371094 107.285156 L 107.371094 107.289062 C 107.410156 107.304688 107.453125 107.316406 107.492188 107.320312 L 107.492188 107.324219 C 107.652344 107.488281 107.890625 107.957031 108.203125 108.726562 L 111.207031 117.429688 L 111.203125 117.429688 C 111.203125 117.441406 111.199219 117.449219 111.195312 117.460938 C 111.152344 117.570312 111.066406 117.660156 110.933594 117.734375 L 110.933594 117.738281 C 110.066406 118.046875 109.195312 118.324219 108.320312 118.5625 C 106.492188 118.960938 104.488281 119.328125 102.308594 119.660156 C 102.292969 119.664062 102.277344 119.667969 102.261719 119.671875 L 96.140625 121.242188 C 95.539062 121.382812 94.480469 121.53125 92.964844 121.691406 L 92.964844 121.695312 L 90.011719 111.191406 C 90.011719 111.1875 90.007812 111.1875 90.007812 111.183594 C 90.007812 111.183594 90.011719 111.179688 90.011719 111.179688 Z M 89.074219 110.855469 C 89.066406 110.878906 89.058594 110.902344 89.054688 110.921875 C 89 111.109375 89.003906 111.296875 89.0625 111.480469 L 92.191406 122.601562 C 92.265625 122.867188 92.539062 123.019531 92.800781 122.945312 C 92.949219 122.90625 93.0625 122.800781 93.121094 122.671875 C 94.660156 122.507812 95.746094 122.351562 96.375 122.207031 L 96.386719 122.203125 L 102.492188 120.632812 L 102.492188 120.636719 C 104.679688 120.300781 106.691406 119.933594 108.53125 119.53125 C 108.539062 119.53125 108.546875 119.527344 108.554688 119.527344 C 109.472656 119.277344 110.386719 118.988281 111.296875 118.65625 C 111.316406 118.652344 111.335938 118.640625 111.355469 118.632812 C 111.738281 118.4375 111.992188 118.171875 112.117188 117.832031 C 112.167969 117.707031 112.195312 117.570312 112.207031 117.421875 C 112.214844 117.355469 112.203125 117.289062 112.183594 117.222656 L 109.132812 108.378906 C 109.128906 108.371094 109.125 108.359375 109.121094 108.351562 C 108.710938 107.34375 108.351562 106.722656 108.046875 106.496094 C 107.917969 106.398438 107.789062 106.34375 107.652344 106.335938 C 107.632812 106.328125 107.613281 106.324219 107.59375 106.320312 C 106.746094 106.136719 101.703125 107.03125 92.464844 108.996094 C 92.453125 109 92.441406 109.003906 92.429688 109.003906 C 92.164062 109.082031 91.914062 109.160156 91.683594 109.238281 C 90.160156 109.742188 89.292969 110.28125 89.074219 110.855469 Z M 89.074219 110.855469 " fill-opacity="1" fill-rule="nonzero"/></g></g></g><g clip-path="url(#5ff71f906b)"><g clip-path="url(#273626070f)"><g clip-path="url(#46abf99469)"><path fill="#ffffff" d="M 112.445312 92.796875 C 112.351562 93.039062 112.464844 93.316406 112.707031 93.421875 C 112.953125 93.535156 113.246094 93.421875 113.359375 93.171875 C 114.324219 91.019531 115.070312 89.464844 115.605469 88.507812 L 115.605469 88.503906 C 116.054688 87.679688 116.675781 86.675781 117.46875 85.496094 C 117.476562 85.488281 117.480469 85.480469 117.484375 85.476562 C 118.105469 84.445312 119.976562 82.261719 123.105469 78.925781 C 123.152344 78.875 123.1875 78.820312 123.207031 78.761719 C 123.277344 78.578125 123.234375 78.363281 123.082031 78.222656 C 122.882812 78.035156 122.570312 78.046875 122.382812 78.246094 C 119.222656 81.621094 117.3125 83.851562 116.644531 84.945312 L 116.644531 84.949219 C 115.835938 86.148438 115.203125 87.175781 114.738281 88.027344 C 114.191406 89.007812 113.429688 90.585938 112.457031 92.769531 C 112.449219 92.777344 112.445312 92.785156 112.445312 92.796875 Z M 112.445312 92.796875 " fill-opacity="1" fill-rule="nonzero"/></g></g></g><g clip-path="url(#d6221d7b1a)"><g clip-path="url(#99789aea42)"><g clip-path="url(#c450d36b26)"><path fill="#ffffff" d="M 118.207031 96.035156 C 118.199219 96.070312 118.191406 96.105469 118.179688 96.136719 C 118.171875 96.15625 118.164062 96.175781 118.152344 96.195312 C 118.164062 96.175781 118.171875 96.15625 118.179688 96.136719 C 118.191406 96.101562 118.199219 96.070312 118.207031 96.035156 Z M 116.121094 97.527344 C 116.027344 97.773438 116.144531 98.050781 116.386719 98.15625 C 116.636719 98.261719 116.929688 98.148438 117.039062 97.898438 C 117.210938 97.496094 117.566406 96.953125 118.105469 96.265625 C 118.121094 96.25 118.132812 96.230469 118.144531 96.210938 C 118.324219 95.972656 119.574219 94.554688 121.890625 91.960938 C 123.441406 90.226562 125.09375 88.566406 126.84375 86.972656 C 126.90625 86.917969 126.949219 86.851562 126.976562 86.78125 C 127.039062 86.613281 127.007812 86.417969 126.878906 86.273438 C 126.695312 86.070312 126.382812 86.058594 126.179688 86.242188 C 124.402344 87.855469 122.726562 89.542969 121.152344 91.300781 C 118.757812 93.984375 117.484375 95.433594 117.328125 95.648438 C 117.320312 95.660156 117.3125 95.667969 117.308594 95.679688 L 117.304688 95.679688 C 116.726562 96.421875 116.332031 97.03125 116.128906 97.503906 C 116.125 97.511719 116.121094 97.519531 116.121094 97.527344 Z M 116.121094 97.527344 " fill-opacity="1" fill-rule="nonzero"/></g></g></g><g clip-path="url(#109f86a95b)"><g clip-path="url(#55f28f5995)"><g clip-path="url(#da4dff5ae9)"><path fill="#ffffff" d="M 118.382812 103.601562 C 118.289062 103.855469 118.414062 104.140625 118.667969 104.238281 C 118.925781 104.335938 119.210938 104.210938 119.308594 103.957031 C 119.636719 103.109375 121.296875 101.140625 124.289062 98.046875 L 124.296875 98.039062 C 125.925781 96.292969 128.070312 94.273438 130.742188 91.988281 C 130.804688 91.929688 130.855469 91.863281 130.882812 91.785156 C 130.945312 91.621094 130.917969 91.429688 130.796875 91.289062 C 130.617188 91.082031 130.304688 91.058594 130.097656 91.234375 C 127.402344 93.542969 125.230469 95.582031 123.578125 97.359375 C 120.492188 100.546875 118.761719 102.628906 118.386719 103.597656 C 118.386719 103.601562 118.382812 103.601562 118.382812 103.601562 Z M 118.382812 103.601562 " fill-opacity="1" fill-rule="nonzero"/></g></g></g><g clip-path="url(#9a79e11c56)"><g clip-path="url(#43db7d8ff2)"><g clip-path="url(#fe95d07e53)"><path fill="#ffffff" d="M 122.085938 109.144531 C 121.996094 109.386719 122.109375 109.664062 122.351562 109.769531 C 122.601562 109.878906 122.894531 109.765625 123.003906 109.515625 C 123.140625 109.210938 123.542969 108.65625 124.222656 107.851562 L 129.953125 101.332031 C 131.417969 99.789062 133.195312 98.246094 135.292969 96.707031 C 135.371094 96.648438 135.429688 96.570312 135.460938 96.484375 C 135.519531 96.332031 135.5 96.15625 135.398438 96.015625 C 135.238281 95.796875 134.925781 95.75 134.707031 95.910156 C 132.554688 97.488281 130.726562 99.074219 129.222656 100.664062 L 129.210938 100.679688 L 123.46875 107.207031 L 123.460938 107.214844 C 122.726562 108.09375 122.269531 108.726562 122.097656 109.117188 C 122.09375 109.125 122.089844 109.132812 122.085938 109.144531 Z M 122.085938 109.144531 " fill-opacity="1" fill-rule="nonzero"/></g></g></g><g clip-path="url(#27e4877491)"><g clip-path="url(#fcba1cf8b2)"><g clip-path="url(#185bb5b40a)"><path fill="#ffffff" d="M 74.265625 102.621094 C 74.191406 102.816406 74.160156 103.019531 74.167969 103.226562 C 74.171875 103.304688 74.191406 103.382812 74.230469 103.453125 C 75.871094 106.355469 77.96875 110.90625 80.519531 117.105469 C 84.851562 130.503906 87.578125 137.558594 88.699219 138.273438 C 88.789062 138.332031 88.882812 138.371094 88.980469 138.390625 L 88.976562 138.390625 C 89.558594 138.707031 90.304688 138.640625 91.214844 138.1875 C 99.800781 134.132812 105.835938 131.4375 109.328125 130.101562 L 114.066406 128.652344 C 114.492188 128.53125 114.875 128.523438 115.214844 128.621094 C 117.285156 129.828125 118.695312 130.402344 119.4375 130.339844 C 120.449219 130.335938 121.679688 129.925781 123.125 129.105469 C 125.011719 128.023438 126.765625 126.433594 128.394531 124.332031 C 128.441406 124.304688 128.488281 124.269531 128.535156 124.230469 C 128.75 124.046875 128.984375 123.617188 129.238281 122.9375 C 129.585938 122.015625 129.96875 120.636719 130.390625 118.804688 C 131.230469 117.527344 132.175781 116.398438 133.230469 115.417969 L 133.230469 115.421875 C 138.414062 111 144.597656 106.53125 151.78125 102.015625 C 151.875 101.957031 151.945312 101.871094 151.980469 101.773438 C 151.992188 101.746094 152 101.71875 152.003906 101.691406 C 152.03125 101.558594 152 101.421875 151.921875 101.308594 C 143.0625 88.953125 137.316406 78.402344 134.683594 69.660156 C 134.664062 69.59375 134.628906 69.53125 134.585938 69.480469 C 134.179688 69.011719 133.710938 68.90625 133.175781 69.171875 L 133.167969 69.175781 L 128.308594 71.671875 C 128.195312 71.730469 128.113281 71.828125 128.074219 71.9375 C 128.023438 72.0625 128.027344 72.210938 128.09375 72.339844 C 128.21875 72.582031 128.519531 72.679688 128.761719 72.554688 L 133.617188 70.058594 C 133.671875 70.035156 133.722656 70.039062 133.773438 70.070312 L 133.773438 70.074219 C 136.425781 78.792969 142.105469 89.253906 150.808594 101.457031 C 143.765625 105.90625 137.6875 110.3125 132.574219 114.679688 L 132.558594 114.691406 C 131.425781 115.746094 130.410156 116.960938 129.515625 118.335938 C 129.492188 118.367188 129.476562 118.398438 129.464844 118.433594 C 129.457031 118.453125 129.449219 118.476562 129.445312 118.496094 C 128.992188 120.480469 128.609375 121.878906 128.304688 122.691406 C 128.15625 123.089844 128.023438 123.34375 127.910156 123.457031 L 127.910156 123.460938 C 127.824219 123.492188 127.746094 123.546875 127.6875 123.625 C 126.117188 125.671875 124.433594 127.214844 122.636719 128.246094 C 121.328125 128.988281 120.253906 129.355469 119.410156 129.347656 C 119.394531 129.347656 119.375 129.351562 119.359375 129.351562 C 118.824219 129.40625 117.59375 128.867188 115.660156 127.738281 C 115.632812 127.71875 115.597656 127.703125 115.566406 127.695312 C 115.019531 127.515625 114.425781 127.519531 113.789062 127.699219 L 113.777344 127.703125 L 109.011719 129.160156 C 109 129.164062 108.992188 129.167969 108.980469 129.171875 C 105.464844 130.519531 99.402344 133.226562 90.785156 137.296875 L 90.777344 137.300781 C 90.144531 137.617188 89.6875 137.679688 89.40625 137.492188 C 89.34375 137.453125 89.269531 137.425781 89.199219 137.414062 L 89.195312 137.414062 C 88.246094 136.683594 85.667969 129.804688 81.457031 116.777344 C 81.453125 116.765625 81.445312 116.753906 81.441406 116.742188 C 78.90625 110.582031 76.8125 106.027344 75.160156 103.085938 C 75.167969 103.019531 75.183594 102.949219 75.207031 102.882812 C 75.554688 101.964844 77.617188 101.085938 81.402344 100.246094 C 81.574219 100.210938 81.703125 100.089844 81.757812 99.9375 C 81.792969 99.851562 81.800781 99.753906 81.777344 99.65625 C 81.71875 99.390625 81.457031 99.222656 81.1875 99.28125 C 77.066406 100.191406 74.761719 101.304688 74.265625 102.621094 Z M 74.265625 102.621094 " fill-opacity="1" fill-rule="nonzero"/></g></g></g><g clip-path="url(#c233a2368c)"><g clip-path="url(#19de57d48c)"><g clip-path="url(#4d6910ea51)"><path fill="#ffffff" d="M 132.449219 110.558594 C 132.382812 110.734375 132.421875 110.941406 132.566406 111.085938 C 132.761719 111.277344 133.074219 111.273438 133.265625 111.082031 C 136.386719 107.921875 139.652344 105.324219 143.054688 103.285156 C 143.152344 103.226562 143.226562 103.136719 143.261719 103.035156 C 143.3125 102.898438 143.304688 102.742188 143.222656 102.605469 C 143.082031 102.371094 142.777344 102.292969 142.542969 102.433594 C 139.070312 104.515625 135.742188 107.167969 132.5625 110.382812 C 132.511719 110.4375 132.472656 110.496094 132.449219 110.558594 Z M 132.449219 110.558594 " fill-opacity="1" fill-rule="nonzero"/></g></g></g><g clip-path="url(#d7a1562356)"><g clip-path="url(#2a289fbe71)"><g clip-path="url(#e99d59d3c2)"><path fill="#ffffff" d="M 93.371094 131.085938 C 93.328125 131.203125 93.328125 131.335938 93.382812 131.460938 C 93.492188 131.710938 93.785156 131.824219 94.035156 131.710938 C 96.121094 130.789062 97.472656 130.28125 98.09375 130.191406 C 98.105469 130.1875 98.117188 130.1875 98.128906 130.183594 L 103.527344 128.984375 L 103.527344 128.988281 C 104.339844 128.847656 105.300781 128.804688 106.40625 128.851562 C 106.625 128.859375 106.816406 128.726562 106.890625 128.53125 C 106.910156 128.480469 106.921875 128.429688 106.921875 128.375 C 106.933594 128.101562 106.722656 127.871094 106.449219 127.859375 C 105.261719 127.8125 104.222656 127.863281 103.335938 128.015625 C 103.328125 128.015625 103.320312 128.015625 103.3125 128.019531 L 97.941406 129.210938 C 97.226562 129.320312 95.792969 129.851562 93.632812 130.808594 C 93.507812 130.863281 93.414062 130.964844 93.371094 131.085938 Z M 93.371094 131.085938 " fill-opacity="1" fill-rule="nonzero"/></g></g></g><g clip-path="url(#1632393188)"><g clip-path="url(#4f6c6cc427)"><g clip-path="url(#f773a5b66a)"><path fill="#ffffff" d="M 121.226562 126.128906 C 121.1875 126.234375 121.183594 126.351562 121.222656 126.464844 C 121.308594 126.722656 121.59375 126.863281 121.851562 126.773438 C 122.515625 126.542969 123.070312 126.234375 123.515625 125.847656 L 123.519531 125.84375 C 124.457031 125.015625 125.175781 124.253906 125.667969 123.5625 C 125.695312 123.527344 125.714844 123.488281 125.730469 123.449219 C 125.804688 123.246094 125.742188 123.007812 125.554688 122.875 C 125.332031 122.714844 125.023438 122.765625 124.863281 122.988281 C 124.414062 123.617188 123.746094 124.320312 122.867188 125.101562 C 122.515625 125.402344 122.070312 125.648438 121.527344 125.835938 C 121.382812 125.886719 121.277344 125.996094 121.226562 126.128906 Z M 121.226562 126.128906 " fill-opacity="1" fill-rule="nonzero"/></g></g></g><g fill="#fe8d41" fill-opacity="1"><g transform="translate(130.818065, 307.234317)"><g><path d="M 4.394531 -1.28125 L 4.675781 -1.335938 C 5.285156 -0.890625 6.011719 -0.554688 6.902344 -0.332031 C 7.679688 -0.0546875 8.625 0.0546875 9.628906 0.0546875 C 10.519531 0.0546875 11.410156 -0.109375 12.296875 -0.445312 C 13.078125 -0.777344 13.746094 -1.335938 14.300781 -2.113281 L 14.691406 -2.226562 C 14.859375 -2.113281 15.027344 -2.058594 15.25 -1.949219 C 15.46875 -1.835938 15.691406 -1.726562 15.914062 -1.613281 C 16.359375 -1.390625 16.804688 -1.222656 17.363281 -1.113281 C 17.863281 -1 18.363281 -1 18.808594 -1.113281 C 19.199219 -1.222656 19.589844 -1.503906 20.035156 -1.949219 C 19.699219 -2.949219 19.199219 -3.839844 18.53125 -4.5625 C 17.808594 -5.285156 17.140625 -6.066406 16.582031 -6.84375 L 17.195312 -9.628906 C 17.585938 -11.296875 17.917969 -12.800781 18.199219 -14.246094 C 18.421875 -15.691406 18.644531 -16.972656 18.808594 -18.199219 C 18.921875 -19.367188 19.03125 -20.480469 19.089844 -21.535156 C 19.144531 -22.539062 19.199219 -23.484375 19.199219 -24.375 C 19.199219 -25.988281 19.03125 -27.492188 18.753906 -28.9375 C 18.421875 -30.273438 18.085938 -31.554688 17.753906 -32.777344 C 17.363281 -34.058594 16.75 -35.171875 15.972656 -36.117188 C 15.191406 -37.007812 14.246094 -37.730469 13.1875 -38.289062 C 12.132812 -38.84375 10.964844 -39.175781 9.738281 -39.289062 C 8.515625 -39.398438 7.289062 -39.289062 5.953125 -39.011719 C 5.621094 -38.898438 5.285156 -38.675781 4.953125 -38.34375 C 4.507812 -37.898438 4.117188 -37.453125 3.839844 -37.007812 C 3.617188 -36.730469 3.449219 -36.449219 3.339844 -36.226562 L 2.949219 -35.394531 C 2.617188 -34.835938 2.449219 -34.335938 2.449219 -33.890625 C 2.394531 -33.667969 2.226562 -33.222656 2.003906 -32.609375 C 1.890625 -32.277344 1.726562 -31.941406 1.613281 -31.609375 C 1.503906 -31.21875 1.335938 -30.773438 1.222656 -30.328125 C 0.890625 -29.328125 0.613281 -28.160156 0.390625 -26.933594 C 0.222656 -26.265625 0.109375 -25.542969 0.0546875 -24.765625 C -0.0546875 -23.984375 -0.109375 -23.09375 -0.167969 -22.203125 C -0.222656 -21.425781 -0.277344 -20.644531 -0.277344 -19.753906 C -0.277344 -18.867188 -0.277344 -17.863281 -0.277344 -16.863281 C -0.277344 -15.804688 -0.277344 -14.746094 -0.222656 -13.746094 C -0.167969 -12.742188 -0.0546875 -11.742188 0.109375 -10.742188 C 0.222656 -9.738281 0.445312 -8.738281 0.667969 -7.789062 C 0.890625 -6.84375 1.167969 -5.953125 1.503906 -5.121094 C 2.171875 -3.339844 3.117188 -2.058594 4.394531 -1.28125 Z M 9.40625 -1.558594 L 9.347656 -1.78125 C 9.183594 -1.835938 9.015625 -1.890625 8.902344 -2.003906 C 8.792969 -2.058594 8.625 -2.113281 8.515625 -2.226562 C 8.179688 -2.335938 8.011719 -2.503906 7.902344 -2.726562 C 6.902344 -4.285156 6.175781 -6.175781 5.730469 -8.402344 C 5.175781 -10.628906 4.839844 -12.910156 4.730469 -15.304688 C 4.617188 -16.472656 4.5625 -17.640625 4.5625 -18.867188 C 4.5625 -20.089844 4.5625 -21.257812 4.675781 -22.484375 C 4.785156 -24.875 5.007812 -27.101562 5.34375 -29.105469 C 5.675781 -31.050781 6.066406 -32.722656 6.511719 -34.167969 C 6.957031 -35.503906 7.402344 -36.394531 7.847656 -36.730469 C 8.847656 -36.671875 9.792969 -36.171875 10.574219 -35.171875 C 11.296875 -34.226562 11.910156 -33 12.464844 -31.554688 C 12.910156 -30.105469 13.300781 -28.660156 13.632812 -27.210938 C 13.855469 -25.765625 14.023438 -24.542969 14.023438 -23.484375 L 14.023438 -20.035156 C 14.023438 -19.03125 13.96875 -18.199219 13.96875 -17.53125 C 13.914062 -16.195312 13.855469 -15.027344 13.800781 -14.136719 C 13.746094 -13.691406 13.691406 -13.246094 13.691406 -12.855469 C 13.632812 -12.464844 13.578125 -12.132812 13.523438 -11.851562 C 13.410156 -11.519531 13.355469 -11.1875 13.300781 -10.796875 C 13.1875 -10.351562 13.132812 -9.90625 13.078125 -9.40625 C 12.6875 -9.292969 12.355469 -9.238281 12.074219 -9.292969 C 11.851562 -9.292969 11.6875 -9.347656 11.574219 -9.347656 L 11.074219 -9.347656 C 10.742188 -9.347656 10.40625 -9.292969 10.074219 -9.183594 C 9.738281 -9.070312 9.40625 -8.792969 9.183594 -8.457031 C 9.347656 -7.679688 9.683594 -7.066406 10.238281 -6.621094 C 10.683594 -6.175781 11.1875 -5.566406 11.628906 -4.839844 C 11.296875 -4.171875 10.964844 -3.617188 10.628906 -3.171875 C 10.40625 -2.894531 10.238281 -2.617188 10.015625 -2.394531 C 9.792969 -2.113281 9.628906 -1.835938 9.40625 -1.558594 Z M 9.40625 -1.558594 "/></g></g></g><g fill="#fe8d41" fill-opacity="1"><g transform="translate(164.92577, 307.234317)"><g><path d="M 7.734375 -3.617188 L 7.902344 -3.839844 C 9.570312 -3.507812 10.90625 -3.507812 11.910156 -3.839844 C 12.910156 -4.171875 13.691406 -4.785156 14.300781 -5.730469 C 14.859375 -6.621094 15.304688 -7.847656 15.527344 -9.40625 C 15.75 -10.90625 15.914062 -12.632812 16.027344 -14.636719 C 16.027344 -16.195312 16.027344 -18.085938 16.027344 -20.3125 C 15.914062 -22.484375 15.804688 -24.597656 15.691406 -26.601562 C 15.527344 -28.492188 15.359375 -30.273438 15.191406 -31.832031 C 15.027344 -33.277344 14.859375 -34.113281 14.746094 -34.335938 C 13.855469 -34.890625 12.910156 -35.058594 11.910156 -34.835938 C 11.296875 -34.613281 10.90625 -34.390625 10.796875 -34.167969 C 10.628906 -33.890625 10.574219 -33.5 10.628906 -32.945312 C 10.628906 -32.164062 10.742188 -31.050781 10.964844 -29.605469 C 11.019531 -28.828125 11.074219 -28.046875 11.128906 -27.210938 C 11.1875 -26.324219 11.242188 -25.433594 11.351562 -24.484375 C 11.410156 -23.484375 11.464844 -22.539062 11.519531 -21.535156 C 11.519531 -20.535156 11.574219 -19.53125 11.628906 -18.53125 C 11.628906 -17.472656 11.6875 -16.472656 11.6875 -15.527344 C 11.6875 -14.523438 11.628906 -13.632812 11.574219 -12.742188 C 11.464844 -11.851562 11.410156 -11.019531 11.296875 -10.238281 C 11.1875 -9.460938 11.074219 -8.738281 10.964844 -8.125 C 10.628906 -6.789062 10.183594 -5.953125 9.628906 -5.621094 C 8.902344 -6.289062 8.347656 -6.957031 7.957031 -7.734375 C 7.511719 -8.515625 7.179688 -9.347656 7.011719 -10.296875 C 6.789062 -11.296875 6.621094 -12.464844 6.511719 -13.800781 C 6.398438 -14.46875 6.34375 -15.191406 6.289062 -15.972656 C 6.175781 -16.75 6.121094 -17.640625 6.066406 -18.585938 C 5.84375 -20.480469 5.621094 -22.648438 5.398438 -25.042969 C 5.0625 -27.546875 4.675781 -30.386719 4.230469 -33.5 C 4.171875 -33.945312 3.894531 -34.335938 3.449219 -34.671875 C 3.003906 -34.890625 2.558594 -35.058594 2.113281 -35.058594 C 1.613281 -35.058594 1.167969 -34.890625 0.777344 -34.671875 C 0.277344 -34.335938 0 -33.945312 0 -33.5 C -0.109375 -33.113281 -0.167969 -32.832031 -0.167969 -32.722656 C -0.222656 -32.554688 -0.222656 -32.222656 -0.222656 -31.777344 L -0.222656 -31.050781 C -0.222656 -30.71875 -0.222656 -30.386719 -0.167969 -29.996094 C -0.167969 -29.550781 -0.109375 -29.105469 -0.109375 -28.546875 C -0.109375 -27.992188 -0.0546875 -27.378906 0.0546875 -26.710938 C 0.109375 -25.988281 0.167969 -25.152344 0.277344 -24.261719 C 0.332031 -23.371094 0.390625 -22.371094 0.5 -21.257812 C 0.554688 -20.144531 0.667969 -18.867188 0.777344 -17.53125 C 0.890625 -16.195312 1 -14.691406 1.167969 -13.023438 C 1.222656 -11.964844 1.390625 -10.964844 1.726562 -9.960938 C 2.058594 -8.960938 2.503906 -7.957031 3.0625 -7.066406 C 3.617188 -6.121094 4.285156 -5.34375 5.0625 -4.785156 C 5.84375 -4.117188 6.734375 -3.730469 7.734375 -3.617188 Z M 7.734375 -3.617188 "/></g></g></g><g fill="#fe8d41" fill-opacity="1"><g transform="translate(194.916075, 307.234317)"><g><path d="M 4.953125 -3.730469 L 5.0625 -3.671875 C 5.507812 -3.671875 5.898438 -3.839844 6.121094 -4.0625 C 6.34375 -4.285156 6.511719 -4.617188 6.621094 -5.0625 C 6.734375 -5.507812 6.789062 -6.066406 6.789062 -6.789062 L 6.789062 -9.460938 L 6.734375 -9.460938 L 6.234375 -18.644531 L 5.730469 -27.824219 C 5.675781 -28.269531 5.621094 -28.769531 5.621094 -29.214844 C 5.566406 -29.660156 5.507812 -30.164062 5.453125 -30.609375 L 5.230469 -31.941406 C 5.121094 -32.386719 5.0625 -32.832031 5.007812 -33.335938 C 4.953125 -33.5 4.839844 -33.78125 4.730469 -34.167969 C 4.617188 -34.390625 4.453125 -34.613281 4.230469 -34.835938 C 4.007812 -34.949219 3.671875 -35.058594 3.226562 -35.171875 C 2.839844 -35.171875 2.28125 -35.171875 1.558594 -35.058594 C 1.222656 -34.949219 0.945312 -34.835938 0.722656 -34.726562 C 0.5 -34.558594 0.332031 -34.28125 0.222656 -33.945312 C 0.109375 -33.667969 0.0546875 -33.167969 0 -32.5 C -0.109375 -31.832031 -0.109375 -31.050781 0 -30.164062 C 0 -29.214844 0.0546875 -27.992188 0.167969 -26.546875 C 0.167969 -25.765625 0.222656 -25.042969 0.222656 -24.261719 C 0.222656 -23.484375 0.277344 -22.707031 0.332031 -21.925781 C 0.332031 -21.089844 0.390625 -20.257812 0.390625 -19.476562 C 0.390625 -18.644531 0.445312 -17.808594 0.5 -16.972656 C 0.5 -15.304688 0.554688 -13.746094 0.667969 -12.296875 C 0.667969 -10.851562 0.722656 -9.570312 0.835938 -8.457031 C 0.835938 -7.347656 0.890625 -6.566406 1 -6.121094 C 1.058594 -5.566406 1.113281 -5.175781 1.222656 -4.953125 C 1.335938 -4.617188 1.503906 -4.339844 1.835938 -4.117188 C 2.113281 -3.839844 2.503906 -3.671875 3.003906 -3.671875 C 3.5625 -3.5625 4.230469 -3.617188 4.953125 -3.730469 Z M 4.953125 -3.730469 "/></g></g></g><g fill="#fe8d41" fill-opacity="1"><g transform="translate(215.558755, 307.234317)"><g><path d="M 2.394531 -3.730469 L 2.503906 -3.839844 C 2.726562 -3.730469 3.171875 -3.671875 3.839844 -3.671875 C 4.507812 -3.5625 5.285156 -3.507812 6.175781 -3.507812 C 7.066406 -3.449219 7.957031 -3.449219 8.902344 -3.507812 C 9.792969 -3.507812 10.628906 -3.617188 11.410156 -3.839844 C 12.074219 -3.949219 12.632812 -4.230469 13.078125 -4.617188 C 13.410156 -4.953125 13.523438 -5.398438 13.300781 -5.953125 C 13.1875 -6.289062 12.800781 -6.566406 12.132812 -6.789062 C 11.464844 -6.902344 10.683594 -7.011719 9.851562 -7.125 C 9.40625 -7.125 9.015625 -7.179688 8.625 -7.179688 C 8.179688 -7.179688 7.789062 -7.234375 7.402344 -7.234375 L 5.566406 -7.234375 L 6.011719 -8.570312 C 6.175781 -9.015625 6.34375 -9.515625 6.566406 -10.074219 C 6.734375 -10.628906 6.957031 -11.296875 7.179688 -12.019531 C 7.402344 -12.6875 7.625 -13.410156 7.902344 -14.191406 C 8.125 -14.96875 8.402344 -15.75 8.738281 -16.640625 C 9.015625 -17.472656 9.292969 -18.308594 9.570312 -19.089844 C 9.851562 -19.867188 10.128906 -20.703125 10.460938 -21.480469 C 10.742188 -22.261719 11.019531 -22.984375 11.242188 -23.707031 C 11.464844 -24.375 11.742188 -25.042969 12.019531 -25.710938 C 12.464844 -26.933594 12.855469 -27.824219 13.1875 -28.382812 C 13.355469 -28.714844 13.523438 -29.050781 13.691406 -29.382812 C 13.855469 -29.660156 14.023438 -29.941406 14.136719 -30.21875 C 14.359375 -30.773438 14.523438 -31.21875 14.582031 -31.554688 C 14.582031 -31.886719 14.582031 -32.222656 14.582031 -32.554688 C 14.46875 -32.777344 14.359375 -33.054688 14.246094 -33.390625 C 13.746094 -34.28125 12.910156 -34.835938 11.742188 -34.949219 C 11.410156 -34.949219 11.074219 -35.003906 10.683594 -35.003906 L 8.125 -35.003906 C 7.679688 -35.003906 7.179688 -34.949219 6.734375 -34.949219 C 6.234375 -34.890625 5.730469 -34.835938 5.285156 -34.835938 C 4.839844 -34.835938 4.394531 -34.78125 3.949219 -34.726562 C 3.0625 -34.613281 2.335938 -34.449219 1.726562 -34.226562 C 1.390625 -33.113281 1.28125 -32.277344 1.390625 -31.777344 C 1.445312 -31.21875 1.726562 -30.886719 2.28125 -30.773438 C 2.839844 -30.609375 3.617188 -30.550781 4.675781 -30.609375 C 5.175781 -30.609375 5.789062 -30.664062 6.511719 -30.664062 L 8.847656 -30.664062 C 8.515625 -29.660156 8.234375 -28.882812 8.011719 -28.324219 C 7.902344 -27.992188 7.789062 -27.714844 7.679688 -27.492188 C 7.570312 -27.269531 7.457031 -27.046875 7.402344 -26.824219 C 7.289062 -26.601562 7.234375 -26.324219 7.125 -26.101562 C 7.011719 -25.878906 6.902344 -25.597656 6.789062 -25.320312 C 6.679688 -24.988281 6.511719 -24.652344 6.34375 -24.320312 C 6.175781 -23.929688 6.011719 -23.484375 5.84375 -22.984375 C 5.675781 -22.59375 5.507812 -22.203125 5.398438 -21.871094 C 5.285156 -21.480469 5.175781 -21.089844 5.0625 -20.703125 C 4.953125 -20.257812 4.785156 -19.867188 4.675781 -19.53125 C 4.5625 -19.144531 4.394531 -18.753906 4.285156 -18.421875 C 3.0625 -15.304688 2.113281 -12.855469 1.445312 -11.074219 C 0.667969 -9.125 0.222656 -7.679688 0 -6.789062 C -0.222656 -5.730469 -0.167969 -5.007812 0.222656 -4.675781 C 0.613281 -4.230469 1.335938 -3.949219 2.394531 -3.730469 Z M 2.394531 -3.730469 "/></g></g></g></svg>