<svg xmlns="http://www.w3.org/2000/svg" xmlns:xlink="http://www.w3.org/1999/xlink" width="500" zoomAndPan="magnify" viewBox="0 0 375 374.999991" height="500" preserveAspectRatio="xMidYMid meet" version="1.0"><defs><g/><clipPath id="e974533e8d"><path d="M 130.660156 128.925781 L 244.660156 128.925781 L 244.660156 293.175781 L 130.660156 293.175781 Z M 130.660156 128.925781 " clip-rule="nonzero"/></clipPath></defs><rect x="-37.5" width="450" fill="#ffffff" y="-37.499999" height="449.999989" fill-opacity="1"/><rect x="-37.5" width="450" fill="#000000" y="-37.499999" height="449.999989" fill-opacity="1"/><g clip-path="url(#e974533e8d)"><path fill="#ffffff" d="M 230.980469 293.070312 L 144.003906 293.070312 C 136.660156 293.070312 130.683594 287.097656 130.683594 279.75 L 130.683594 142.246094 C 130.683594 134.898438 136.65625 128.925781 144.003906 128.925781 L 230.980469 128.925781 C 238.324219 128.925781 244.300781 134.898438 244.300781 142.246094 L 244.300781 279.753906 C 244.300781 287.097656 238.328125 293.074219 230.980469 293.074219 Z M 144.003906 131.660156 C 138.167969 131.660156 133.414062 136.40625 133.414062 142.246094 L 133.414062 279.753906 C 133.414062 285.589844 138.164062 290.34375 144.003906 290.34375 L 230.980469 290.34375 C 236.816406 290.34375 241.566406 285.59375 241.566406 279.753906 L 241.566406 142.246094 C 241.566406 136.410156 236.820312 131.660156 230.980469 131.660156 Z M 229.445312 286.308594 L 145.539062 286.308594 C 140.488281 286.308594 136.382812 282.203125 136.382812 277.15625 L 136.382812 144.84375 C 136.382812 139.792969 140.488281 135.6875 145.539062 135.6875 L 229.445312 135.6875 C 234.492188 135.6875 238.601562 139.792969 238.601562 144.84375 L 238.601562 277.15625 C 238.601562 282.203125 234.492188 286.308594 229.445312 286.308594 Z M 145.539062 138.417969 C 141.996094 138.417969 139.113281 141.300781 139.113281 144.84375 L 139.113281 277.15625 C 139.113281 280.695312 141.996094 283.578125 145.539062 283.578125 L 229.445312 283.578125 C 232.988281 283.578125 235.867188 280.695312 235.867188 277.15625 L 235.867188 144.84375 C 235.867188 141.300781 232.988281 138.417969 229.445312 138.417969 Z M 161.816406 271.9375 C 156.605469 271.9375 151.9375 270.589844 148.035156 267.882812 C 139.566406 262.003906 135.828125 250.511719 137.507812 235.515625 C 139.15625 220.820312 145.820312 204.421875 156.277344 189.34375 C 166.734375 174.269531 179.757812 162.277344 192.945312 155.585938 C 206.402344 148.757812 218.480469 148.234375 226.949219 154.105469 C 235.421875 159.980469 239.160156 171.476562 237.480469 186.472656 C 235.832031 201.167969 229.167969 217.566406 218.710938 232.644531 C 208.253906 247.71875 195.230469 259.710938 182.042969 266.398438 C 174.78125 270.082031 167.925781 271.929688 161.820312 271.929688 Z M 213.152344 152.789062 C 207.484375 152.789062 201.046875 154.542969 194.179688 158.027344 C 181.386719 164.515625 168.722656 176.195312 158.519531 190.902344 C 137.621094 221.035156 133.613281 254.5625 149.589844 265.640625 C 157.195312 270.917969 168.28125 270.328125 180.800781 263.972656 C 193.589844 257.480469 206.257812 245.804688 216.457031 231.09375 C 226.664062 216.382812 233.160156 200.429688 234.757812 186.175781 C 236.320312 172.222656 232.992188 161.636719 225.382812 156.359375 C 221.953125 153.980469 217.808594 152.789062 213.148438 152.789062 Z M 177.359375 220.304688 L 176.394531 219.339844 C 174.117188 217.066406 171.5 213.921875 171.472656 209.804688 C 171.433594 205.964844 172.898438 202.371094 175.589844 199.675781 L 186.28125 188.984375 C 186.394531 188.871094 186.511719 188.753906 186.636719 188.644531 L 183.597656 185.609375 C 182.902344 184.917969 182.636719 183.933594 182.894531 182.984375 C 183.144531 182.039062 183.863281 181.316406 184.816406 181.058594 L 208.394531 174.742188 C 209.351562 174.488281 210.332031 174.753906 211.027344 175.453125 C 211.71875 176.148438 211.984375 177.128906 211.726562 178.074219 L 205.414062 201.652344 C 205.152344 202.601562 204.433594 203.320312 203.484375 203.578125 C 202.535156 203.832031 201.554688 203.566406 200.863281 202.871094 L 197.835938 199.84375 L 177.363281 220.308594 Z M 209.085938 177.359375 L 185.523438 183.695312 L 190.746094 188.890625 L 189.472656 189.832031 C 189.035156 190.15625 188.617188 190.519531 188.214844 190.917969 L 177.527344 201.605469 C 175.355469 203.777344 174.175781 206.679688 174.207031 209.78125 C 174.222656 211.964844 175.1875 213.996094 177.386719 216.417969 L 197.835938 195.96875 L 202.796875 200.929688 L 209.09375 177.355469 Z M 165.882812 247.347656 C 165.171875 247.347656 164.484375 247.070312 163.964844 246.546875 C 163.273438 245.847656 163.007812 244.871094 163.265625 243.921875 L 169.578125 220.347656 C 169.835938 219.394531 170.558594 218.675781 171.507812 218.421875 C 172.453125 218.167969 173.4375 218.429688 174.128906 219.125 L 177.15625 222.152344 L 197.625 201.683594 L 198.589844 202.648438 C 200.867188 204.921875 203.484375 208.066406 203.511719 212.183594 C 203.546875 216.023438 202.085938 219.617188 199.390625 222.3125 L 188.703125 233.003906 C 188.589844 233.117188 188.46875 233.234375 188.347656 233.34375 L 191.382812 236.378906 C 192.078125 237.078125 192.339844 238.054688 192.089844 239.003906 C 191.839844 239.949219 191.121094 240.671875 190.167969 240.929688 L 166.585938 247.246094 C 166.351562 247.308594 166.109375 247.34375 165.871094 247.34375 Z M 172.199219 221.0625 L 165.898438 244.636719 L 189.460938 238.300781 L 184.242188 233.105469 L 185.515625 232.164062 C 185.953125 231.839844 186.375 231.476562 186.773438 231.082031 L 197.460938 220.390625 C 199.632812 218.222656 200.8125 215.316406 200.78125 212.214844 C 200.765625 210.03125 199.800781 208 197.601562 205.578125 L 177.152344 226.027344 L 172.191406 221.066406 Z M 172.199219 221.0625 " fill-opacity="1" fill-rule="nonzero"/></g><g fill="#fe8d41" fill-opacity="1"><g transform="translate(23.924761, 103.38925)"><g><path d="M 12.285156 -0.0429688 L 12.328125 -0.257812 C 12.414062 -0.257812 12.542969 -0.34375 12.710938 -0.511719 L 13.140625 -0.941406 C 12.113281 -2.566406 11.128906 -4.152344 10.1875 -5.691406 C 9.671875 -6.464844 9.160156 -7.191406 8.644531 -7.960938 C 8.089844 -8.730469 7.535156 -9.460938 6.976562 -10.230469 C 7.0625 -10.316406 7.191406 -10.445312 7.277344 -10.53125 C 7.363281 -10.613281 7.449219 -10.742188 7.535156 -10.871094 C 7.617188 -10.957031 7.703125 -11.085938 7.789062 -11.171875 L 8.046875 -11.429688 L 9.203125 -12.582031 L 10.359375 -13.738281 C 11.386719 -14.765625 12.15625 -15.921875 12.667969 -17.207031 C 13.183594 -18.40625 13.484375 -19.644531 13.570312 -20.929688 C 13.652344 -22.128906 13.527344 -23.328125 13.226562 -24.527344 C 12.925781 -25.640625 12.457031 -26.664062 11.8125 -27.523438 C 11.128906 -28.378906 10.359375 -29.0625 9.503906 -29.578125 C 8.558594 -30.089844 7.535156 -30.347656 6.421875 -30.347656 C 4.453125 -30.347656 3.039062 -30.261719 2.183594 -30.089844 C 1.242188 -29.917969 0.640625 -29.535156 0.386719 -28.933594 C 0.0429688 -28.292969 -0.0429688 -27.394531 0.0429688 -26.238281 C 0.128906 -25.039062 0.171875 -23.414062 0.171875 -21.445312 C 0.171875 -19.730469 0.171875 -18.019531 0.171875 -16.308594 C 0.0859375 -14.59375 0.0859375 -12.882812 0.171875 -11.171875 C 0.171875 -8.347656 0.257812 -6.207031 0.429688 -4.75 C 0.511719 -3.253906 0.683594 -2.183594 0.941406 -1.5 C 1.15625 -0.8125 1.371094 -0.429688 1.625 -0.34375 C 1.753906 -0.257812 1.882812 -0.214844 2.011719 -0.214844 C 2.140625 -0.171875 2.269531 -0.128906 2.441406 -0.128906 C 3.253906 -0.0429688 3.808594 -0.128906 4.152344 -0.300781 C 4.496094 -0.472656 4.707031 -0.769531 4.792969 -1.242188 C 4.878906 -1.667969 4.878906 -2.3125 4.792969 -3.082031 C 4.707031 -3.46875 4.664062 -3.894531 4.664062 -4.367188 C 4.621094 -4.835938 4.578125 -5.351562 4.578125 -5.949219 C 4.578125 -5.949219 4.621094 -5.992188 4.707031 -6.078125 C 4.792969 -6.078125 4.835938 -6.164062 4.878906 -6.25 L 5.523438 -5.605469 C 5.605469 -5.480469 5.734375 -5.351562 5.820312 -5.222656 C 5.90625 -5.050781 6.035156 -4.921875 6.207031 -4.75 C 6.335938 -4.578125 6.464844 -4.367188 6.589844 -4.152344 C 6.71875 -3.9375 6.847656 -3.722656 7.019531 -3.46875 C 7.148438 -3.210938 7.320312 -2.910156 7.492188 -2.609375 C 7.660156 -2.269531 7.832031 -1.925781 8.046875 -1.582031 C 8.519531 -0.726562 9.117188 -0.214844 9.84375 0.0429688 C 10.53125 0.300781 11.34375 0.300781 12.285156 -0.0429688 Z M 4.453125 -12.199219 L 4.410156 -12.15625 C 4.195312 -12.753906 4.066406 -13.652344 4.066406 -14.851562 C 4.023438 -15.453125 3.980469 -16.136719 3.980469 -16.820312 C 3.980469 -17.507812 3.980469 -18.234375 3.980469 -19.003906 C 3.980469 -19.773438 3.9375 -20.546875 3.9375 -21.359375 C 3.9375 -22.171875 3.894531 -22.984375 3.894531 -23.839844 C 3.808594 -25.511719 3.722656 -27.09375 3.636719 -28.550781 C 4.664062 -28.71875 5.5625 -28.636719 6.335938 -28.335938 C 7.019531 -28.035156 7.660156 -27.480469 8.175781 -26.664062 C 8.773438 -25.722656 9.203125 -24.695312 9.375 -23.585938 C 9.546875 -22.558594 9.546875 -21.488281 9.417969 -20.460938 C 9.246094 -19.390625 8.988281 -18.40625 8.644531 -17.550781 C 8.21875 -16.605469 7.789062 -15.792969 7.363281 -15.109375 C 6.847656 -14.339844 6.378906 -13.738281 5.863281 -13.226562 C 5.351562 -12.710938 4.878906 -12.371094 4.453125 -12.199219 Z M 4.453125 -12.199219 "/></g></g></g><g fill="#fe8d41" fill-opacity="1"><g transform="translate(45.022945, 103.38925)"><g><path d="M 7.277344 -2.824219 L 7.449219 -2.910156 C 7.535156 -2.910156 7.660156 -2.996094 7.832031 -3.167969 C 7.917969 -3.253906 8.046875 -3.339844 8.21875 -3.46875 C 8.003906 -3.765625 7.746094 -3.980469 7.449219 -4.152344 C 7.105469 -4.28125 6.804688 -4.367188 6.507812 -4.410156 C 6.335938 -4.410156 6.164062 -4.453125 5.992188 -4.453125 L 5.480469 -4.453125 C 5.136719 -4.453125 4.792969 -4.496094 4.453125 -4.664062 L 4.410156 -14.296875 C 4.878906 -14.339844 5.308594 -14.382812 5.691406 -14.425781 C 6.035156 -14.425781 6.378906 -14.46875 6.71875 -14.511719 C 7.019531 -14.511719 7.277344 -14.554688 7.535156 -14.59375 C 7.746094 -14.59375 7.960938 -14.636719 8.132812 -14.722656 C 8.433594 -14.808594 8.644531 -14.894531 8.816406 -15.066406 C 8.902344 -15.152344 8.988281 -15.324219 8.988281 -15.582031 C 8.816406 -15.75 8.601562 -15.921875 8.347656 -16.007812 C 8.132812 -16.050781 7.832031 -16.09375 7.449219 -16.179688 C 7.277344 -16.179688 7.0625 -16.222656 6.847656 -16.222656 L 6.207031 -16.222656 C 5.949219 -16.222656 5.691406 -16.222656 5.394531 -16.265625 C 5.09375 -16.265625 4.792969 -16.308594 4.453125 -16.394531 C 4.367188 -16.734375 4.324219 -17.121094 4.324219 -17.550781 C 4.28125 -17.933594 4.238281 -18.363281 4.238281 -18.789062 C 4.195312 -19.21875 4.152344 -19.605469 4.152344 -20.03125 C 4.152344 -20.460938 4.152344 -20.84375 4.152344 -21.273438 L 4.152344 -23.457031 C 4.152344 -23.753906 4.152344 -24.054688 4.152344 -24.3125 C 4.152344 -24.570312 4.195312 -24.78125 4.238281 -24.953125 L 5.351562 -24.953125 C 5.4375 -24.953125 5.5625 -24.953125 5.734375 -24.996094 C 6.507812 -25.082031 7.0625 -25.210938 7.320312 -25.382812 C 7.574219 -25.554688 7.660156 -25.722656 7.574219 -25.894531 C 7.492188 -26.066406 7.277344 -26.238281 6.976562 -26.410156 C 6.71875 -26.539062 6.421875 -26.625 6.078125 -26.707031 C 5.308594 -26.792969 4.664062 -26.878906 4.066406 -26.921875 C 3.46875 -26.964844 2.996094 -27.007812 2.609375 -27.007812 C 1.796875 -27.007812 1.199219 -26.878906 0.8125 -26.664062 C 0.386719 -26.410156 0.171875 -26.023438 0.0859375 -25.511719 C 0 -24.910156 -0.0429688 -24.183594 -0.0429688 -23.328125 C -0.128906 -20.074219 -0.0859375 -16.90625 0.0859375 -13.824219 C 0.171875 -10.65625 0.386719 -7.492188 0.726562 -4.324219 C 0.8125 -3.46875 1.199219 -2.996094 1.882812 -2.910156 C 2.3125 -2.824219 2.78125 -2.78125 3.210938 -2.738281 C 3.636719 -2.652344 4.109375 -2.609375 4.578125 -2.566406 C 5.4375 -2.484375 6.335938 -2.566406 7.277344 -2.824219 Z M 7.277344 -2.824219 "/></g></g></g><g fill="#fe8d41" fill-opacity="1"><g transform="translate(61.499066, 103.38925)"><g><path d="M 4.921875 -3.46875 L 5.179688 -3.636719 C 5.4375 -3.210938 5.863281 -2.910156 6.464844 -2.695312 C 6.976562 -2.441406 7.535156 -2.355469 8.132812 -2.441406 C 8.644531 -2.441406 9.160156 -2.652344 9.671875 -3.039062 C 10.101562 -3.382812 10.402344 -3.851562 10.570312 -4.453125 C 10.742188 -5.265625 10.871094 -6.121094 11.042969 -7.019531 C 11.171875 -7.875 11.300781 -8.816406 11.429688 -9.84375 C 11.640625 -11.8125 11.8125 -13.824219 11.941406 -15.792969 C 11.984375 -16.777344 12.027344 -17.761719 12.070312 -18.746094 C 12.113281 -19.6875 12.15625 -20.671875 12.242188 -21.617188 C 12.285156 -22.558594 12.328125 -23.414062 12.328125 -24.269531 C 12.328125 -25.082031 12.371094 -25.851562 12.414062 -26.625 C 12.113281 -26.835938 11.8125 -27.007812 11.515625 -27.09375 C 11.128906 -27.179688 10.785156 -27.179688 10.488281 -27.179688 C 10.144531 -27.136719 9.84375 -27.007812 9.585938 -26.835938 C 9.332031 -26.664062 9.203125 -26.410156 9.160156 -26.109375 C 9.074219 -25.722656 9.03125 -25.296875 8.988281 -24.867188 C 8.945312 -24.441406 8.902344 -23.925781 8.859375 -23.371094 C 8.773438 -22.257812 8.6875 -21.058594 8.601562 -19.773438 C 8.519531 -18.492188 8.433594 -17.164062 8.347656 -15.792969 C 8.261719 -15.109375 8.21875 -14.425781 8.21875 -13.78125 C 8.175781 -13.140625 8.132812 -12.542969 8.132812 -11.941406 C 8.046875 -10.742188 8.003906 -9.671875 8.003906 -8.730469 C 7.917969 -7.746094 7.875 -7.0625 7.875 -6.71875 C 7.617188 -6.71875 7.492188 -6.675781 7.449219 -6.675781 C 7.277344 -7.191406 7.148438 -7.703125 7.0625 -8.21875 C 6.933594 -8.6875 6.804688 -9.160156 6.675781 -9.671875 C 6.507812 -10.144531 6.378906 -10.613281 6.292969 -11.042969 C 6.207031 -11.472656 6.078125 -11.941406 5.992188 -12.371094 C 5.863281 -12.796875 5.734375 -13.226562 5.648438 -13.652344 C 5.5625 -14.082031 5.480469 -14.46875 5.394531 -14.894531 C 5.222656 -15.664062 5.09375 -16.523438 5.007812 -17.464844 C 4.921875 -18.234375 4.792969 -18.917969 4.707031 -19.605469 C 4.621094 -20.289062 4.496094 -20.886719 4.410156 -21.488281 C 4.152344 -22.601562 3.894531 -23.542969 3.636719 -24.3125 C 3.339844 -24.996094 2.953125 -25.511719 2.523438 -25.851562 C 2.097656 -26.152344 1.539062 -26.238281 0.898438 -26.109375 C 0.472656 -26.023438 0.171875 -25.851562 0 -25.640625 C -0.171875 -25.382812 -0.257812 -24.996094 -0.214844 -24.484375 C -0.214844 -23.882812 -0.0859375 -23.113281 0.171875 -22.171875 C 0.257812 -21.65625 0.386719 -21.101562 0.511719 -20.460938 C 0.640625 -19.816406 0.769531 -19.089844 0.941406 -18.277344 C 1.199219 -16.992188 1.414062 -15.835938 1.625 -14.808594 C 1.796875 -13.78125 1.96875 -12.882812 2.140625 -12.113281 C 2.269531 -11.300781 2.398438 -10.570312 2.523438 -9.929688 C 2.652344 -9.246094 2.78125 -8.644531 2.953125 -8.132812 C 3.210938 -7.019531 3.46875 -6.121094 3.765625 -5.523438 C 4.023438 -4.835938 4.410156 -4.152344 4.921875 -3.46875 Z M 4.921875 -3.46875 "/></g></g></g><g fill="#fe8d41" fill-opacity="1"><g transform="translate(81.441728, 103.38925)"><g><path d="M 7.277344 -2.824219 L 7.449219 -2.910156 C 7.535156 -2.910156 7.660156 -2.996094 7.832031 -3.167969 C 7.917969 -3.253906 8.046875 -3.339844 8.21875 -3.46875 C 8.003906 -3.765625 7.746094 -3.980469 7.449219 -4.152344 C 7.105469 -4.28125 6.804688 -4.367188 6.507812 -4.410156 C 6.335938 -4.410156 6.164062 -4.453125 5.992188 -4.453125 L 5.480469 -4.453125 C 5.136719 -4.453125 4.792969 -4.496094 4.453125 -4.664062 L 4.410156 -14.296875 C 4.878906 -14.339844 5.308594 -14.382812 5.691406 -14.425781 C 6.035156 -14.425781 6.378906 -14.46875 6.71875 -14.511719 C 7.019531 -14.511719 7.277344 -14.554688 7.535156 -14.59375 C 7.746094 -14.59375 7.960938 -14.636719 8.132812 -14.722656 C 8.433594 -14.808594 8.644531 -14.894531 8.816406 -15.066406 C 8.902344 -15.152344 8.988281 -15.324219 8.988281 -15.582031 C 8.816406 -15.75 8.601562 -15.921875 8.347656 -16.007812 C 8.132812 -16.050781 7.832031 -16.09375 7.449219 -16.179688 C 7.277344 -16.179688 7.0625 -16.222656 6.847656 -16.222656 L 6.207031 -16.222656 C 5.949219 -16.222656 5.691406 -16.222656 5.394531 -16.265625 C 5.09375 -16.265625 4.792969 -16.308594 4.453125 -16.394531 C 4.367188 -16.734375 4.324219 -17.121094 4.324219 -17.550781 C 4.28125 -17.933594 4.238281 -18.363281 4.238281 -18.789062 C 4.195312 -19.21875 4.152344 -19.605469 4.152344 -20.03125 C 4.152344 -20.460938 4.152344 -20.84375 4.152344 -21.273438 L 4.152344 -23.457031 C 4.152344 -23.753906 4.152344 -24.054688 4.152344 -24.3125 C 4.152344 -24.570312 4.195312 -24.78125 4.238281 -24.953125 L 5.351562 -24.953125 C 5.4375 -24.953125 5.5625 -24.953125 5.734375 -24.996094 C 6.507812 -25.082031 7.0625 -25.210938 7.320312 -25.382812 C 7.574219 -25.554688 7.660156 -25.722656 7.574219 -25.894531 C 7.492188 -26.066406 7.277344 -26.238281 6.976562 -26.410156 C 6.71875 -26.539062 6.421875 -26.625 6.078125 -26.707031 C 5.308594 -26.792969 4.664062 -26.878906 4.066406 -26.921875 C 3.46875 -26.964844 2.996094 -27.007812 2.609375 -27.007812 C 1.796875 -27.007812 1.199219 -26.878906 0.8125 -26.664062 C 0.386719 -26.410156 0.171875 -26.023438 0.0859375 -25.511719 C 0 -24.910156 -0.0429688 -24.183594 -0.0429688 -23.328125 C -0.128906 -20.074219 -0.0859375 -16.90625 0.0859375 -13.824219 C 0.171875 -10.65625 0.386719 -7.492188 0.726562 -4.324219 C 0.8125 -3.46875 1.199219 -2.996094 1.882812 -2.910156 C 2.3125 -2.824219 2.78125 -2.78125 3.210938 -2.738281 C 3.636719 -2.652344 4.109375 -2.609375 4.578125 -2.566406 C 5.4375 -2.484375 6.335938 -2.566406 7.277344 -2.824219 Z M 7.277344 -2.824219 "/></g></g></g><g fill="#fe8d41" fill-opacity="1"><g transform="translate(97.917849, 103.38925)"><g><path d="M 3.980469 -2.609375 L 4.152344 -2.566406 C 4.621094 -2.609375 4.964844 -2.695312 5.179688 -2.867188 C 5.394531 -3.039062 5.523438 -3.296875 5.5625 -3.679688 C 5.5625 -4.023438 5.5625 -4.535156 5.5625 -5.222656 C 5.523438 -5.820312 5.480469 -6.675781 5.4375 -7.746094 L 5.4375 -8.175781 C 5.4375 -8.304688 5.5625 -8.433594 5.820312 -8.601562 L 6.078125 -8.347656 L 6.207031 -8.21875 C 6.25 -8.132812 6.335938 -8.046875 6.421875 -7.960938 C 6.507812 -7.832031 6.632812 -7.660156 6.804688 -7.492188 C 6.976562 -7.320312 7.148438 -7.0625 7.40625 -6.804688 C 7.617188 -6.507812 7.917969 -6.121094 8.261719 -5.691406 C 8.601562 -5.265625 8.988281 -4.75 9.503906 -4.152344 C 9.84375 -3.636719 10.316406 -3.296875 10.914062 -3.125 C 11.515625 -2.953125 11.984375 -2.867188 12.371094 -2.910156 C 12.796875 -2.953125 13.097656 -3.125 13.355469 -3.382812 C 13.527344 -3.636719 13.527344 -3.9375 13.355469 -4.324219 C 13.269531 -4.453125 13.183594 -4.578125 13.097656 -4.707031 C 13.011719 -4.835938 12.925781 -4.964844 12.882812 -5.09375 C 12.753906 -5.265625 12.457031 -5.605469 12.027344 -6.121094 C 11.597656 -6.546875 11 -7.234375 10.1875 -8.21875 C 9.332031 -9.160156 8.175781 -10.488281 6.71875 -12.199219 C 7.660156 -13.398438 8.476562 -14.46875 9.160156 -15.410156 C 9.800781 -16.351562 10.316406 -17.164062 10.65625 -17.933594 C 11 -18.703125 11.214844 -19.476562 11.300781 -20.246094 C 11.386719 -21.015625 11.386719 -21.871094 11.300781 -22.8125 C 11.128906 -24.695312 10.144531 -25.9375 8.347656 -26.539062 C 8.003906 -26.625 7.660156 -26.75 7.320312 -26.835938 C 6.933594 -26.921875 6.507812 -27.007812 6.078125 -27.09375 C 5.136719 -27.265625 4.28125 -27.351562 3.46875 -27.351562 C 2.609375 -27.351562 1.839844 -27.222656 1.242188 -26.964844 C 0.597656 -26.707031 0.257812 -26.238281 0.171875 -25.640625 C 0.0429688 -24.824219 -0.0429688 -24.183594 -0.0859375 -23.753906 C -0.128906 -23.5 -0.171875 -23.285156 -0.171875 -23.070312 C -0.171875 -22.8125 -0.171875 -22.601562 -0.171875 -22.34375 C -0.171875 -22.085938 -0.171875 -21.785156 -0.171875 -21.488281 C -0.171875 -21.144531 -0.128906 -20.800781 -0.0859375 -20.460938 C -0.0859375 -19.6875 0 -18.617188 0.171875 -17.25 C 0.257812 -16.050781 0.300781 -14.980469 0.386719 -14.039062 C 0.472656 -13.097656 0.511719 -12.242188 0.597656 -11.515625 C 0.640625 -10.742188 0.683594 -10.101562 0.726562 -9.503906 C 0.769531 -8.902344 0.8125 -8.347656 0.898438 -7.875 C 0.941406 -7.363281 0.984375 -6.976562 0.984375 -6.632812 C 0.984375 -6.292969 1.027344 -5.992188 1.070312 -5.777344 C 1.070312 -5.265625 1.113281 -4.921875 1.199219 -4.75 C 1.199219 -4.621094 1.242188 -4.535156 1.242188 -4.453125 L 1.242188 -4.28125 L 1.285156 -3.894531 C 1.414062 -3.210938 1.710938 -2.824219 2.226562 -2.738281 C 2.738281 -2.566406 3.296875 -2.523438 3.980469 -2.609375 Z M 4.792969 -14.722656 L 4.792969 -14.636719 C 4.664062 -15.621094 4.578125 -16.523438 4.496094 -17.292969 C 4.410156 -18.0625 4.324219 -18.789062 4.28125 -19.433594 C 4.195312 -20.03125 4.152344 -20.589844 4.109375 -21.101562 C 4.023438 -21.574219 3.980469 -22 3.9375 -22.386719 C 3.851562 -22.726562 3.808594 -23.070312 3.808594 -23.328125 C 3.808594 -23.585938 3.765625 -23.796875 3.765625 -23.96875 C 3.722656 -24.140625 3.679688 -24.269531 3.679688 -24.398438 C 3.679688 -24.527344 3.679688 -24.652344 3.679688 -24.738281 L 3.679688 -25.425781 C 3.679688 -25.511719 3.679688 -25.640625 3.722656 -25.808594 C 3.980469 -25.722656 4.195312 -25.679688 4.453125 -25.640625 C 4.664062 -25.597656 4.878906 -25.554688 5.09375 -25.511719 C 5.265625 -25.425781 5.480469 -25.382812 5.648438 -25.339844 C 5.820312 -25.253906 5.949219 -25.210938 6.121094 -25.167969 C 6.378906 -24.996094 6.632812 -24.78125 6.890625 -24.527344 C 7.105469 -24.183594 7.277344 -23.796875 7.40625 -23.328125 C 7.574219 -22.558594 7.617188 -21.785156 7.535156 -21.015625 C 7.449219 -20.203125 7.277344 -19.433594 7.019531 -18.660156 C 6.761719 -17.933594 6.464844 -17.207031 6.035156 -16.480469 C 5.648438 -15.792969 5.222656 -15.195312 4.792969 -14.722656 Z M 4.792969 -14.722656 "/></g></g></g><g fill="#fe8d41" fill-opacity="1"><g transform="translate(118.887641, 103.38925)"><g><path d="M 3.425781 -2.566406 L 3.679688 -2.652344 C 4.109375 -2.566406 4.707031 -2.523438 5.480469 -2.523438 C 6.164062 -2.523438 6.890625 -2.609375 7.660156 -2.867188 C 8.390625 -3.082031 9.03125 -3.425781 9.585938 -3.9375 C 10.101562 -4.453125 10.445312 -5.136719 10.613281 -5.992188 C 10.699219 -6.675781 10.742188 -7.320312 10.65625 -7.917969 C 10.570312 -8.433594 10.359375 -8.988281 10.058594 -9.585938 C 9.714844 -10.101562 9.332031 -10.699219 8.902344 -11.386719 C 8.644531 -11.683594 8.390625 -12.027344 8.089844 -12.414062 C 7.789062 -12.796875 7.492188 -13.226562 7.148438 -13.738281 C 6.464844 -14.679688 5.863281 -15.496094 5.351562 -16.179688 C 4.75 -16.863281 4.324219 -17.59375 4.066406 -18.277344 C 3.722656 -19.046875 3.550781 -19.816406 3.46875 -20.628906 C 3.382812 -21.488281 3.46875 -22.558594 3.765625 -23.839844 C 3.894531 -24.398438 4.066406 -24.738281 4.324219 -24.867188 C 4.578125 -24.996094 4.835938 -25.039062 5.09375 -24.953125 C 5.351562 -24.867188 5.5625 -24.695312 5.820312 -24.484375 C 5.992188 -24.226562 6.121094 -24.011719 6.207031 -23.839844 C 6.25 -23.667969 6.292969 -23.5 6.292969 -23.328125 L 6.292969 -22.8125 C 6.292969 -22.601562 6.292969 -22.34375 6.335938 -22.042969 C 6.933594 -21.65625 7.449219 -21.53125 7.917969 -21.65625 C 8.347656 -21.742188 8.730469 -22 8.988281 -22.429688 C 9.246094 -22.769531 9.375 -23.242188 9.375 -23.796875 C 9.375 -24.3125 9.203125 -24.738281 8.859375 -25.167969 C 8.089844 -25.9375 7.191406 -26.496094 6.164062 -26.835938 C 5.136719 -27.09375 4.066406 -27.222656 2.953125 -27.136719 C 2.183594 -27.050781 1.625 -26.835938 1.199219 -26.410156 C 0.726562 -25.9375 0.386719 -25.382812 0.214844 -24.78125 C -0.0429688 -24.097656 -0.171875 -23.414062 -0.171875 -22.683594 C -0.257812 -21.914062 -0.257812 -21.1875 -0.171875 -20.503906 C -0.171875 -19.816406 -0.0859375 -19.21875 0.0859375 -18.703125 C 0.214844 -18.148438 0.34375 -17.761719 0.472656 -17.59375 C 0.769531 -17.121094 1.070312 -16.648438 1.328125 -16.222656 C 1.582031 -15.75 1.882812 -15.28125 2.140625 -14.808594 C 2.652344 -13.867188 3.253906 -12.96875 4.023438 -12.15625 C 4.964844 -11.128906 5.691406 -10.101562 6.25 -9.074219 C 6.761719 -8.089844 6.976562 -7.105469 6.890625 -6.078125 C 6.804688 -5.394531 6.632812 -4.964844 6.378906 -4.707031 C 6.078125 -4.453125 5.523438 -4.324219 4.707031 -4.28125 C 4.367188 -4.453125 4.152344 -4.707031 4.066406 -5.050781 L 3.679688 -5.949219 C 3.253906 -6.675781 2.695312 -7.0625 2.011719 -7.148438 C 1.328125 -7.148438 0.726562 -6.976562 0.257812 -6.546875 C 0.300781 -6.292969 0.34375 -6.078125 0.386719 -5.863281 C 0.386719 -5.648438 0.429688 -5.4375 0.511719 -5.222656 C 0.597656 -4.75 0.726562 -4.367188 0.941406 -4.066406 C 1.113281 -3.722656 1.414062 -3.425781 1.839844 -3.167969 C 2.269531 -2.867188 2.78125 -2.652344 3.425781 -2.566406 Z M 3.425781 -2.566406 "/></g></g></g><g fill="#fe8d41" fill-opacity="1"><g transform="translate(137.075638, 103.38925)"><g><path d="M 7.277344 -2.824219 L 7.449219 -2.910156 C 7.535156 -2.910156 7.660156 -2.996094 7.832031 -3.167969 C 7.917969 -3.253906 8.046875 -3.339844 8.21875 -3.46875 C 8.003906 -3.765625 7.746094 -3.980469 7.449219 -4.152344 C 7.105469 -4.28125 6.804688 -4.367188 6.507812 -4.410156 C 6.335938 -4.410156 6.164062 -4.453125 5.992188 -4.453125 L 5.480469 -4.453125 C 5.136719 -4.453125 4.792969 -4.496094 4.453125 -4.664062 L 4.410156 -14.296875 C 4.878906 -14.339844 5.308594 -14.382812 5.691406 -14.425781 C 6.035156 -14.425781 6.378906 -14.46875 6.71875 -14.511719 C 7.019531 -14.511719 7.277344 -14.554688 7.535156 -14.59375 C 7.746094 -14.59375 7.960938 -14.636719 8.132812 -14.722656 C 8.433594 -14.808594 8.644531 -14.894531 8.816406 -15.066406 C 8.902344 -15.152344 8.988281 -15.324219 8.988281 -15.582031 C 8.816406 -15.75 8.601562 -15.921875 8.347656 -16.007812 C 8.132812 -16.050781 7.832031 -16.09375 7.449219 -16.179688 C 7.277344 -16.179688 7.0625 -16.222656 6.847656 -16.222656 L 6.207031 -16.222656 C 5.949219 -16.222656 5.691406 -16.222656 5.394531 -16.265625 C 5.09375 -16.265625 4.792969 -16.308594 4.453125 -16.394531 C 4.367188 -16.734375 4.324219 -17.121094 4.324219 -17.550781 C 4.28125 -17.933594 4.238281 -18.363281 4.238281 -18.789062 C 4.195312 -19.21875 4.152344 -19.605469 4.152344 -20.03125 C 4.152344 -20.460938 4.152344 -20.84375 4.152344 -21.273438 L 4.152344 -23.457031 C 4.152344 -23.753906 4.152344 -24.054688 4.152344 -24.3125 C 4.152344 -24.570312 4.195312 -24.78125 4.238281 -24.953125 L 5.351562 -24.953125 C 5.4375 -24.953125 5.5625 -24.953125 5.734375 -24.996094 C 6.507812 -25.082031 7.0625 -25.210938 7.320312 -25.382812 C 7.574219 -25.554688 7.660156 -25.722656 7.574219 -25.894531 C 7.492188 -26.066406 7.277344 -26.238281 6.976562 -26.410156 C 6.71875 -26.539062 6.421875 -26.625 6.078125 -26.707031 C 5.308594 -26.792969 4.664062 -26.878906 4.066406 -26.921875 C 3.46875 -26.964844 2.996094 -27.007812 2.609375 -27.007812 C 1.796875 -27.007812 1.199219 -26.878906 0.8125 -26.664062 C 0.386719 -26.410156 0.171875 -26.023438 0.0859375 -25.511719 C 0 -24.910156 -0.0429688 -24.183594 -0.0429688 -23.328125 C -0.128906 -20.074219 -0.0859375 -16.90625 0.0859375 -13.824219 C 0.171875 -10.65625 0.386719 -7.492188 0.726562 -4.324219 C 0.8125 -3.46875 1.199219 -2.996094 1.882812 -2.910156 C 2.3125 -2.824219 2.78125 -2.78125 3.210938 -2.738281 C 3.636719 -2.652344 4.109375 -2.609375 4.578125 -2.566406 C 5.4375 -2.484375 6.335938 -2.566406 7.277344 -2.824219 Z M 7.277344 -2.824219 "/></g></g></g><g fill="#fe8d41" fill-opacity="1"><g transform="translate(153.551753, 103.38925)"><g/></g></g><g fill="#fe8d41" fill-opacity="1"><g transform="translate(160.997759, 103.38925)"><g><path d="M 3.296875 0.128906 L 3.765625 -0.0429688 C 4.535156 -0.0859375 5.222656 -0.128906 5.820312 -0.171875 C 6.421875 -0.214844 6.933594 -0.257812 7.40625 -0.34375 C 8.261719 -0.429688 8.945312 -0.511719 9.460938 -0.597656 C 9.972656 -0.683594 10.273438 -0.769531 10.445312 -0.898438 C 10.613281 -1.027344 10.785156 -1.199219 10.914062 -1.414062 C 10.65625 -1.796875 10.273438 -2.054688 9.84375 -2.183594 C 9.417969 -2.269531 8.902344 -2.355469 8.304688 -2.355469 C 8.003906 -2.355469 7.703125 -2.3125 7.449219 -2.3125 C 7.191406 -2.3125 6.890625 -2.269531 6.589844 -2.269531 C 5.992188 -2.183594 5.4375 -2.183594 4.964844 -2.269531 C 4.878906 -2.441406 4.835938 -2.523438 4.835938 -2.609375 C 4.75 -2.695312 4.75 -2.78125 4.75 -2.867188 L 4.75 -13.695312 C 4.75 -13.867188 4.75 -13.996094 4.792969 -14.039062 C 4.792969 -14.039062 4.835938 -14.167969 4.921875 -14.425781 C 5.265625 -14.511719 5.691406 -14.59375 6.207031 -14.59375 L 7.492188 -14.59375 C 7.832031 -14.59375 8.261719 -14.636719 8.773438 -14.808594 C 9.160156 -14.894531 9.546875 -15.152344 9.972656 -15.582031 C 9.628906 -15.878906 9.203125 -16.09375 8.730469 -16.265625 C 8.21875 -16.394531 7.789062 -16.480469 7.449219 -16.480469 L 6.164062 -16.480469 C 5.691406 -16.480469 5.265625 -16.523438 4.921875 -16.605469 C 4.835938 -16.820312 4.75 -17.207031 4.664062 -17.804688 C 4.578125 -18.40625 4.496094 -19.089844 4.410156 -19.859375 C 4.324219 -20.246094 4.28125 -20.628906 4.28125 -21.058594 C 4.28125 -21.488281 4.238281 -21.914062 4.238281 -22.386719 C 4.152344 -23.242188 4.109375 -24.097656 4.109375 -24.953125 C 4.066406 -25.339844 4.023438 -25.722656 4.023438 -26.066406 C 4.023438 -26.410156 4.023438 -26.707031 4.023438 -27.050781 L 4.023438 -27.820312 C 4.023438 -27.992188 4.023438 -28.164062 4.066406 -28.292969 C 4.921875 -28.464844 5.605469 -28.550781 6.164062 -28.550781 C 6.632812 -28.507812 7.105469 -28.464844 7.617188 -28.421875 C 8.046875 -28.335938 8.476562 -28.378906 8.816406 -28.464844 C 9.160156 -28.550781 9.628906 -28.804688 10.230469 -29.320312 C 10.015625 -29.621094 9.757812 -29.832031 9.460938 -30.003906 C 9.117188 -30.132812 8.816406 -30.21875 8.519531 -30.261719 C 8.304688 -30.261719 8.089844 -30.304688 7.832031 -30.304688 C 7.574219 -30.304688 7.277344 -30.347656 6.976562 -30.433594 C 6.632812 -30.476562 6.335938 -30.519531 5.992188 -30.519531 C 5.648438 -30.519531 5.265625 -30.5625 4.878906 -30.605469 C 4.453125 -30.605469 4.066406 -30.605469 3.679688 -30.605469 C 3.253906 -30.605469 2.867188 -30.5625 2.441406 -30.519531 C 1.582031 -30.433594 0.726562 -30.261719 -0.128906 -30.003906 C -0.214844 -29.535156 -0.257812 -29.105469 -0.300781 -28.675781 C -0.34375 -28.25 -0.34375 -27.863281 -0.34375 -27.480469 L -0.34375 -26.238281 C -0.34375 -25.808594 -0.34375 -25.382812 -0.300781 -24.910156 C -0.300781 -24.398438 -0.257812 -23.882812 -0.257812 -23.371094 C -0.257812 -22.855469 -0.214844 -22.257812 -0.128906 -21.65625 C -0.0429688 -20.375 0.0429688 -18.832031 0.128906 -17.121094 C 0.214844 -15.324219 0.300781 -13.183594 0.386719 -10.699219 C 0.429688 -9.417969 0.472656 -8.046875 0.511719 -6.589844 C 0.511719 -5.136719 0.554688 -3.550781 0.597656 -1.839844 C 0.597656 -1.625 0.597656 -1.457031 0.597656 -1.285156 C 0.597656 -1.113281 0.640625 -0.984375 0.683594 -0.855469 C 0.683594 -0.597656 0.8125 -0.386719 1.070312 -0.214844 C 1.285156 0 1.539062 0.128906 1.882812 0.128906 C 2.226562 0.214844 2.695312 0.214844 3.296875 0.128906 Z M 3.296875 0.128906 "/></g></g></g><g fill="#fe8d41" fill-opacity="1"><g transform="translate(179.399743, 103.38925)"><g><path d="M 10.445312 -2.523438 L 10.488281 -2.523438 C 11 -2.652344 11.386719 -2.867188 11.640625 -3.210938 C 11.898438 -3.550781 12.070312 -3.980469 12.113281 -4.453125 C 12.242188 -5.648438 12.371094 -6.761719 12.457031 -7.832031 C 12.542969 -8.859375 12.582031 -9.886719 12.667969 -10.828125 C 12.710938 -11.769531 12.753906 -12.667969 12.753906 -13.570312 C 12.753906 -14.46875 12.710938 -15.324219 12.710938 -16.179688 C 12.625 -17.804688 12.542969 -19.433594 12.457031 -21.058594 C 12.371094 -21.828125 12.328125 -22.640625 12.285156 -23.457031 C 12.242188 -24.269531 12.199219 -25.125 12.15625 -25.980469 C 12.113281 -26.410156 12.027344 -26.75 11.898438 -26.921875 C 11.769531 -27.050781 11.472656 -27.136719 11.042969 -27.222656 C 10.699219 -27.222656 10.402344 -27.222656 10.144531 -27.222656 C 9.84375 -27.179688 9.546875 -27.007812 9.246094 -26.75 C 9.160156 -26.453125 9.160156 -26.238281 9.160156 -26.109375 L 9.160156 -25.46875 C 9.203125 -23.925781 9.246094 -22.515625 9.289062 -21.273438 C 9.289062 -19.988281 9.332031 -18.875 9.375 -17.890625 C 9.375 -15.835938 9.417969 -14.210938 9.503906 -13.011719 C 9.503906 -12.371094 9.546875 -11.8125 9.546875 -11.34375 L 9.546875 -10.1875 C 9.546875 -9.84375 9.503906 -9.585938 9.503906 -9.375 C 9.503906 -9.117188 9.460938 -8.945312 9.460938 -8.816406 C 9.375 -8.519531 9.332031 -8.347656 9.289062 -8.347656 C 9.160156 -8.261719 9.074219 -8.21875 8.988281 -8.21875 C 8.476562 -9.757812 8.046875 -11.386719 7.703125 -13.097656 C 7.492188 -13.910156 7.277344 -14.722656 7.105469 -15.539062 C 6.933594 -16.308594 6.761719 -17.121094 6.589844 -17.890625 C 6.25 -19.433594 5.90625 -20.84375 5.5625 -22.128906 C 5.222656 -23.414062 4.835938 -24.484375 4.410156 -25.296875 C 3.980469 -26.066406 3.511719 -26.625 2.910156 -26.878906 C 2.3125 -27.136719 1.667969 -26.964844 0.898438 -26.367188 L 0.769531 -25.722656 C 0.726562 -25.597656 0.683594 -25.46875 0.683594 -25.339844 C 0.683594 -25.167969 0.640625 -24.996094 0.597656 -24.78125 C 0.511719 -24.527344 0.472656 -24.269531 0.472656 -24.011719 C 0.429688 -23.753906 0.386719 -23.414062 0.386719 -23.070312 C 0.300781 -22.300781 0.257812 -21.316406 0.257812 -20.117188 C 0.214844 -19.433594 0.171875 -18.789062 0.171875 -18.191406 C 0.171875 -17.59375 0.128906 -16.992188 0.128906 -16.4375 C 0.0859375 -15.835938 0.0429688 -15.28125 0.0429688 -14.679688 C 0.0429688 -14.082031 0.0429688 -13.441406 0.0429688 -12.839844 L 0.0429688 -8.902344 C 0.0429688 -8.21875 0.0429688 -7.492188 0.0429688 -6.71875 C 0.0429688 -5.949219 0.0859375 -5.136719 0.128906 -4.28125 C 0.128906 -3.679688 0.300781 -3.296875 0.640625 -3.125 C 0.941406 -2.867188 1.242188 -2.78125 1.582031 -2.78125 C 1.925781 -2.78125 2.226562 -2.867188 2.523438 -3.082031 C 2.78125 -3.253906 2.953125 -3.511719 3.039062 -3.851562 C 3.039062 -4.410156 3.082031 -5.007812 3.082031 -5.605469 C 3.082031 -6.207031 3.125 -6.804688 3.125 -7.449219 L 3.125 -9.246094 C 3.125 -9.800781 3.125 -10.359375 3.167969 -10.914062 C 3.167969 -11.429688 3.210938 -11.941406 3.210938 -12.414062 C 3.210938 -12.839844 3.253906 -13.269531 3.339844 -13.695312 C 3.425781 -14.425781 3.550781 -14.9375 3.722656 -15.28125 C 3.722656 -15.109375 3.765625 -14.9375 3.851562 -14.722656 C 3.894531 -14.46875 3.9375 -14.339844 3.980469 -14.253906 C 4.238281 -13.226562 4.453125 -12.285156 4.664062 -11.429688 C 4.878906 -10.570312 5.09375 -9.757812 5.308594 -8.988281 C 5.480469 -8.21875 5.691406 -7.492188 5.90625 -6.847656 C 6.078125 -6.207031 6.292969 -5.648438 6.546875 -5.136719 C 6.976562 -4.109375 7.492188 -3.382812 8.089844 -2.910156 C 8.6875 -2.441406 9.460938 -2.3125 10.445312 -2.523438 Z M 10.445312 -2.523438 "/></g></g></g><g fill="#fe8d41" fill-opacity="1"><g transform="translate(199.599182, 103.38925)"><g><path d="M 8.304688 -2.3125 L 8.558594 -2.609375 C 9.332031 -2.695312 9.929688 -2.867188 10.402344 -3.167969 C 10.828125 -3.425781 11.214844 -3.808594 11.472656 -4.324219 C 11.683594 -4.75 11.855469 -5.265625 12.027344 -5.949219 C 12.113281 -6.546875 12.199219 -7.191406 12.285156 -7.875 C 12.328125 -8.644531 12.328125 -9.375 12.242188 -10.058594 C 12.15625 -10.742188 12.027344 -11.472656 11.855469 -12.242188 C 11 -12.457031 10.1875 -12.542969 9.460938 -12.457031 C 8.6875 -12.371094 7.960938 -12.15625 7.191406 -11.855469 C 7.019531 -11.769531 6.976562 -11.683594 6.976562 -11.515625 C 6.976562 -11.300781 7.019531 -11.171875 7.148438 -11.171875 C 7.320312 -11.042969 7.617188 -10.957031 7.960938 -10.871094 C 8.089844 -10.785156 8.21875 -10.742188 8.390625 -10.699219 C 8.558594 -10.65625 8.6875 -10.613281 8.859375 -10.570312 C 8.859375 -10.230469 8.902344 -9.757812 8.988281 -9.203125 C 8.988281 -8.6875 8.988281 -8.175781 8.988281 -7.660156 L 8.902344 -6.890625 C 8.859375 -6.632812 8.816406 -6.378906 8.773438 -6.121094 C 8.6875 -5.605469 8.558594 -5.179688 8.390625 -4.835938 C 8.046875 -4.238281 7.660156 -4.023438 7.234375 -4.195312 C 6.71875 -4.324219 6.25 -4.664062 5.820312 -5.265625 C 5.351562 -5.863281 4.921875 -6.632812 4.535156 -7.660156 C 4.109375 -8.601562 3.894531 -9.714844 3.894531 -11 C 3.808594 -11.855469 3.808594 -12.925781 3.894531 -14.210938 C 3.894531 -14.851562 3.9375 -15.496094 3.980469 -16.179688 C 4.023438 -16.820312 4.109375 -17.507812 4.195312 -18.191406 C 4.367188 -19.5625 4.621094 -20.84375 4.964844 -22.042969 C 5.308594 -23.242188 5.734375 -24.183594 6.292969 -24.867188 C 6.804688 -24.527344 7.234375 -24.140625 7.574219 -23.753906 C 7.832031 -23.371094 8.003906 -22.855469 8.089844 -22.257812 C 8.132812 -21.699219 8.261719 -21.316406 8.519531 -21.101562 C 8.773438 -20.84375 9.03125 -20.671875 9.375 -20.589844 C 9.628906 -20.503906 9.929688 -20.503906 10.273438 -20.589844 C 10.53125 -20.671875 10.742188 -20.800781 10.914062 -21.058594 C 11.597656 -22.171875 11.640625 -23.285156 11.042969 -24.398438 C 10.613281 -25.039062 10.015625 -25.597656 9.203125 -26.066406 C 8.347656 -26.539062 7.40625 -26.792969 6.464844 -26.835938 C 5.4375 -26.878906 4.496094 -26.664062 3.636719 -26.152344 C 2.695312 -25.640625 2.011719 -24.695312 1.582031 -23.414062 C 1.328125 -22.640625 1.027344 -21.574219 0.683594 -20.289062 C 0.34375 -18.917969 0.0859375 -17.421875 -0.0859375 -15.792969 C -0.257812 -14.167969 -0.300781 -12.5 -0.214844 -10.828125 C -0.128906 -9.117188 0.214844 -7.617188 0.8125 -6.335938 C 1.414062 -4.964844 2.3125 -3.9375 3.511719 -3.167969 C 4.707031 -2.398438 6.335938 -2.097656 8.304688 -2.3125 Z M 8.304688 -2.3125 "/></g></g></g><g fill="#fe8d41" fill-opacity="1"><g transform="translate(219.370657, 103.38925)"><g><path d="M 3.808594 -2.867188 L 3.894531 -2.824219 C 4.238281 -2.824219 4.535156 -2.953125 4.707031 -3.125 C 4.878906 -3.296875 5.007812 -3.550781 5.09375 -3.894531 C 5.179688 -4.238281 5.222656 -4.664062 5.222656 -5.222656 L 5.222656 -7.277344 L 5.179688 -7.277344 L 4.792969 -14.339844 L 4.410156 -21.402344 C 4.367188 -21.742188 4.324219 -22.128906 4.324219 -22.472656 C 4.28125 -22.8125 4.238281 -23.199219 4.195312 -23.542969 L 4.023438 -24.570312 C 3.9375 -24.910156 3.894531 -25.253906 3.851562 -25.640625 C 3.808594 -25.765625 3.722656 -25.980469 3.636719 -26.28125 C 3.550781 -26.453125 3.425781 -26.625 3.253906 -26.792969 C 3.082031 -26.878906 2.824219 -26.964844 2.484375 -27.050781 C 2.183594 -27.050781 1.753906 -27.050781 1.199219 -26.964844 C 0.941406 -26.878906 0.726562 -26.792969 0.554688 -26.707031 C 0.386719 -26.582031 0.257812 -26.367188 0.171875 -26.109375 C 0.0859375 -25.894531 0.0429688 -25.511719 0 -24.996094 C -0.0859375 -24.484375 -0.0859375 -23.882812 0 -23.199219 C 0 -22.472656 0.0429688 -21.53125 0.128906 -20.417969 C 0.128906 -19.816406 0.171875 -19.261719 0.171875 -18.660156 C 0.171875 -18.0625 0.214844 -17.464844 0.257812 -16.863281 C 0.257812 -16.222656 0.300781 -15.582031 0.300781 -14.980469 C 0.300781 -14.339844 0.34375 -13.695312 0.386719 -13.054688 C 0.386719 -11.769531 0.429688 -10.570312 0.511719 -9.460938 C 0.511719 -8.347656 0.554688 -7.363281 0.640625 -6.507812 C 0.640625 -5.648438 0.683594 -5.050781 0.769531 -4.707031 C 0.8125 -4.28125 0.855469 -3.980469 0.941406 -3.808594 C 1.027344 -3.550781 1.15625 -3.339844 1.414062 -3.167969 C 1.625 -2.953125 1.925781 -2.824219 2.3125 -2.824219 C 2.738281 -2.738281 3.253906 -2.78125 3.808594 -2.867188 Z M 3.808594 -2.867188 "/></g></g></g><g fill="#fe8d41" fill-opacity="1"><g transform="translate(231.995069, 103.38925)"><g><path d="M 10.445312 -2.523438 L 10.488281 -2.523438 C 11 -2.652344 11.386719 -2.867188 11.640625 -3.210938 C 11.898438 -3.550781 12.070312 -3.980469 12.113281 -4.453125 C 12.242188 -5.648438 12.371094 -6.761719 12.457031 -7.832031 C 12.542969 -8.859375 12.582031 -9.886719 12.667969 -10.828125 C 12.710938 -11.769531 12.753906 -12.667969 12.753906 -13.570312 C 12.753906 -14.46875 12.710938 -15.324219 12.710938 -16.179688 C 12.625 -17.804688 12.542969 -19.433594 12.457031 -21.058594 C 12.371094 -21.828125 12.328125 -22.640625 12.285156 -23.457031 C 12.242188 -24.269531 12.199219 -25.125 12.15625 -25.980469 C 12.113281 -26.410156 12.027344 -26.75 11.898438 -26.921875 C 11.769531 -27.050781 11.472656 -27.136719 11.042969 -27.222656 C 10.699219 -27.222656 10.402344 -27.222656 10.144531 -27.222656 C 9.84375 -27.179688 9.546875 -27.007812 9.246094 -26.75 C 9.160156 -26.453125 9.160156 -26.238281 9.160156 -26.109375 L 9.160156 -25.46875 C 9.203125 -23.925781 9.246094 -22.515625 9.289062 -21.273438 C 9.289062 -19.988281 9.332031 -18.875 9.375 -17.890625 C 9.375 -15.835938 9.417969 -14.210938 9.503906 -13.011719 C 9.503906 -12.371094 9.546875 -11.8125 9.546875 -11.34375 L 9.546875 -10.1875 C 9.546875 -9.84375 9.503906 -9.585938 9.503906 -9.375 C 9.503906 -9.117188 9.460938 -8.945312 9.460938 -8.816406 C 9.375 -8.519531 9.332031 -8.347656 9.289062 -8.347656 C 9.160156 -8.261719 9.074219 -8.21875 8.988281 -8.21875 C 8.476562 -9.757812 8.046875 -11.386719 7.703125 -13.097656 C 7.492188 -13.910156 7.277344 -14.722656 7.105469 -15.539062 C 6.933594 -16.308594 6.761719 -17.121094 6.589844 -17.890625 C 6.25 -19.433594 5.90625 -20.84375 5.5625 -22.128906 C 5.222656 -23.414062 4.835938 -24.484375 4.410156 -25.296875 C 3.980469 -26.066406 3.511719 -26.625 2.910156 -26.878906 C 2.3125 -27.136719 1.667969 -26.964844 0.898438 -26.367188 L 0.769531 -25.722656 C 0.726562 -25.597656 0.683594 -25.46875 0.683594 -25.339844 C 0.683594 -25.167969 0.640625 -24.996094 0.597656 -24.78125 C 0.511719 -24.527344 0.472656 -24.269531 0.472656 -24.011719 C 0.429688 -23.753906 0.386719 -23.414062 0.386719 -23.070312 C 0.300781 -22.300781 0.257812 -21.316406 0.257812 -20.117188 C 0.214844 -19.433594 0.171875 -18.789062 0.171875 -18.191406 C 0.171875 -17.59375 0.128906 -16.992188 0.128906 -16.4375 C 0.0859375 -15.835938 0.0429688 -15.28125 0.0429688 -14.679688 C 0.0429688 -14.082031 0.0429688 -13.441406 0.0429688 -12.839844 L 0.0429688 -8.902344 C 0.0429688 -8.21875 0.0429688 -7.492188 0.0429688 -6.71875 C 0.0429688 -5.949219 0.0859375 -5.136719 0.128906 -4.28125 C 0.128906 -3.679688 0.300781 -3.296875 0.640625 -3.125 C 0.941406 -2.867188 1.242188 -2.78125 1.582031 -2.78125 C 1.925781 -2.78125 2.226562 -2.867188 2.523438 -3.082031 C 2.78125 -3.253906 2.953125 -3.511719 3.039062 -3.851562 C 3.039062 -4.410156 3.082031 -5.007812 3.082031 -5.605469 C 3.082031 -6.207031 3.125 -6.804688 3.125 -7.449219 L 3.125 -9.246094 C 3.125 -9.800781 3.125 -10.359375 3.167969 -10.914062 C 3.167969 -11.429688 3.210938 -11.941406 3.210938 -12.414062 C 3.210938 -12.839844 3.253906 -13.269531 3.339844 -13.695312 C 3.425781 -14.425781 3.550781 -14.9375 3.722656 -15.28125 C 3.722656 -15.109375 3.765625 -14.9375 3.851562 -14.722656 C 3.894531 -14.46875 3.9375 -14.339844 3.980469 -14.253906 C 4.238281 -13.226562 4.453125 -12.285156 4.664062 -11.429688 C 4.878906 -10.570312 5.09375 -9.757812 5.308594 -8.988281 C 5.480469 -8.21875 5.691406 -7.492188 5.90625 -6.847656 C 6.078125 -6.207031 6.292969 -5.648438 6.546875 -5.136719 C 6.976562 -4.109375 7.492188 -3.382812 8.089844 -2.910156 C 8.6875 -2.441406 9.460938 -2.3125 10.445312 -2.523438 Z M 10.445312 -2.523438 "/></g></g></g><g fill="#fe8d41" fill-opacity="1"><g transform="translate(252.194508, 103.38925)"><g><path d="M 7.277344 -2.824219 L 7.449219 -2.910156 C 7.535156 -2.910156 7.660156 -2.996094 7.832031 -3.167969 C 7.917969 -3.253906 8.046875 -3.339844 8.21875 -3.46875 C 8.003906 -3.765625 7.746094 -3.980469 7.449219 -4.152344 C 7.105469 -4.28125 6.804688 -4.367188 6.507812 -4.410156 C 6.335938 -4.410156 6.164062 -4.453125 5.992188 -4.453125 L 5.480469 -4.453125 C 5.136719 -4.453125 4.792969 -4.496094 4.453125 -4.664062 L 4.410156 -14.296875 C 4.878906 -14.339844 5.308594 -14.382812 5.691406 -14.425781 C 6.035156 -14.425781 6.378906 -14.46875 6.71875 -14.511719 C 7.019531 -14.511719 7.277344 -14.554688 7.535156 -14.59375 C 7.746094 -14.59375 7.960938 -14.636719 8.132812 -14.722656 C 8.433594 -14.808594 8.644531 -14.894531 8.816406 -15.066406 C 8.902344 -15.152344 8.988281 -15.324219 8.988281 -15.582031 C 8.816406 -15.75 8.601562 -15.921875 8.347656 -16.007812 C 8.132812 -16.050781 7.832031 -16.09375 7.449219 -16.179688 C 7.277344 -16.179688 7.0625 -16.222656 6.847656 -16.222656 L 6.207031 -16.222656 C 5.949219 -16.222656 5.691406 -16.222656 5.394531 -16.265625 C 5.09375 -16.265625 4.792969 -16.308594 4.453125 -16.394531 C 4.367188 -16.734375 4.324219 -17.121094 4.324219 -17.550781 C 4.28125 -17.933594 4.238281 -18.363281 4.238281 -18.789062 C 4.195312 -19.21875 4.152344 -19.605469 4.152344 -20.03125 C 4.152344 -20.460938 4.152344 -20.84375 4.152344 -21.273438 L 4.152344 -23.457031 C 4.152344 -23.753906 4.152344 -24.054688 4.152344 -24.3125 C 4.152344 -24.570312 4.195312 -24.78125 4.238281 -24.953125 L 5.351562 -24.953125 C 5.4375 -24.953125 5.5625 -24.953125 5.734375 -24.996094 C 6.507812 -25.082031 7.0625 -25.210938 7.320312 -25.382812 C 7.574219 -25.554688 7.660156 -25.722656 7.574219 -25.894531 C 7.492188 -26.066406 7.277344 -26.238281 6.976562 -26.410156 C 6.71875 -26.539062 6.421875 -26.625 6.078125 -26.707031 C 5.308594 -26.792969 4.664062 -26.878906 4.066406 -26.921875 C 3.46875 -26.964844 2.996094 -27.007812 2.609375 -27.007812 C 1.796875 -27.007812 1.199219 -26.878906 0.8125 -26.664062 C 0.386719 -26.410156 0.171875 -26.023438 0.0859375 -25.511719 C 0 -24.910156 -0.0429688 -24.183594 -0.0429688 -23.328125 C -0.128906 -20.074219 -0.0859375 -16.90625 0.0859375 -13.824219 C 0.171875 -10.65625 0.386719 -7.492188 0.726562 -4.324219 C 0.8125 -3.46875 1.199219 -2.996094 1.882812 -2.910156 C 2.3125 -2.824219 2.78125 -2.78125 3.210938 -2.738281 C 3.636719 -2.652344 4.109375 -2.609375 4.578125 -2.566406 C 5.4375 -2.484375 6.335938 -2.566406 7.277344 -2.824219 Z M 7.277344 -2.824219 "/></g></g></g><g fill="#fe8d41" fill-opacity="1"><g transform="translate(268.670634, 103.38925)"><g><path d="M 7.277344 -2.824219 L 7.449219 -2.910156 C 7.535156 -2.910156 7.660156 -2.996094 7.832031 -3.167969 C 7.917969 -3.253906 8.046875 -3.339844 8.21875 -3.46875 C 8.003906 -3.765625 7.746094 -3.980469 7.449219 -4.152344 C 7.105469 -4.28125 6.804688 -4.367188 6.507812 -4.410156 C 6.335938 -4.410156 6.164062 -4.453125 5.992188 -4.453125 L 5.480469 -4.453125 C 5.136719 -4.453125 4.792969 -4.496094 4.453125 -4.664062 L 4.410156 -14.296875 C 4.878906 -14.339844 5.308594 -14.382812 5.691406 -14.425781 C 6.035156 -14.425781 6.378906 -14.46875 6.71875 -14.511719 C 7.019531 -14.511719 7.277344 -14.554688 7.535156 -14.59375 C 7.746094 -14.59375 7.960938 -14.636719 8.132812 -14.722656 C 8.433594 -14.808594 8.644531 -14.894531 8.816406 -15.066406 C 8.902344 -15.152344 8.988281 -15.324219 8.988281 -15.582031 C 8.816406 -15.75 8.601562 -15.921875 8.347656 -16.007812 C 8.132812 -16.050781 7.832031 -16.09375 7.449219 -16.179688 C 7.277344 -16.179688 7.0625 -16.222656 6.847656 -16.222656 L 6.207031 -16.222656 C 5.949219 -16.222656 5.691406 -16.222656 5.394531 -16.265625 C 5.09375 -16.265625 4.792969 -16.308594 4.453125 -16.394531 C 4.367188 -16.734375 4.324219 -17.121094 4.324219 -17.550781 C 4.28125 -17.933594 4.238281 -18.363281 4.238281 -18.789062 C 4.195312 -19.21875 4.152344 -19.605469 4.152344 -20.03125 C 4.152344 -20.460938 4.152344 -20.84375 4.152344 -21.273438 L 4.152344 -23.457031 C 4.152344 -23.753906 4.152344 -24.054688 4.152344 -24.3125 C 4.152344 -24.570312 4.195312 -24.78125 4.238281 -24.953125 L 5.351562 -24.953125 C 5.4375 -24.953125 5.5625 -24.953125 5.734375 -24.996094 C 6.507812 -25.082031 7.0625 -25.210938 7.320312 -25.382812 C 7.574219 -25.554688 7.660156 -25.722656 7.574219 -25.894531 C 7.492188 -26.066406 7.277344 -26.238281 6.976562 -26.410156 C 6.71875 -26.539062 6.421875 -26.625 6.078125 -26.707031 C 5.308594 -26.792969 4.664062 -26.878906 4.066406 -26.921875 C 3.46875 -26.964844 2.996094 -27.007812 2.609375 -27.007812 C 1.796875 -27.007812 1.199219 -26.878906 0.8125 -26.664062 C 0.386719 -26.410156 0.171875 -26.023438 0.0859375 -25.511719 C 0 -24.910156 -0.0429688 -24.183594 -0.0429688 -23.328125 C -0.128906 -20.074219 -0.0859375 -16.90625 0.0859375 -13.824219 C 0.171875 -10.65625 0.386719 -7.492188 0.726562 -4.324219 C 0.8125 -3.46875 1.199219 -2.996094 1.882812 -2.910156 C 2.3125 -2.824219 2.78125 -2.78125 3.210938 -2.738281 C 3.636719 -2.652344 4.109375 -2.609375 4.578125 -2.566406 C 5.4375 -2.484375 6.335938 -2.566406 7.277344 -2.824219 Z M 7.277344 -2.824219 "/></g></g></g><g fill="#fe8d41" fill-opacity="1"><g transform="translate(285.146761, 103.38925)"><g><path d="M 3.980469 -2.609375 L 4.152344 -2.566406 C 4.621094 -2.609375 4.964844 -2.695312 5.179688 -2.867188 C 5.394531 -3.039062 5.523438 -3.296875 5.5625 -3.679688 C 5.5625 -4.023438 5.5625 -4.535156 5.5625 -5.222656 C 5.523438 -5.820312 5.480469 -6.675781 5.4375 -7.746094 L 5.4375 -8.175781 C 5.4375 -8.304688 5.5625 -8.433594 5.820312 -8.601562 L 6.078125 -8.347656 L 6.207031 -8.21875 C 6.25 -8.132812 6.335938 -8.046875 6.421875 -7.960938 C 6.507812 -7.832031 6.632812 -7.660156 6.804688 -7.492188 C 6.976562 -7.320312 7.148438 -7.0625 7.40625 -6.804688 C 7.617188 -6.507812 7.917969 -6.121094 8.261719 -5.691406 C 8.601562 -5.265625 8.988281 -4.75 9.503906 -4.152344 C 9.84375 -3.636719 10.316406 -3.296875 10.914062 -3.125 C 11.515625 -2.953125 11.984375 -2.867188 12.371094 -2.910156 C 12.796875 -2.953125 13.097656 -3.125 13.355469 -3.382812 C 13.527344 -3.636719 13.527344 -3.9375 13.355469 -4.324219 C 13.269531 -4.453125 13.183594 -4.578125 13.097656 -4.707031 C 13.011719 -4.835938 12.925781 -4.964844 12.882812 -5.09375 C 12.753906 -5.265625 12.457031 -5.605469 12.027344 -6.121094 C 11.597656 -6.546875 11 -7.234375 10.1875 -8.21875 C 9.332031 -9.160156 8.175781 -10.488281 6.71875 -12.199219 C 7.660156 -13.398438 8.476562 -14.46875 9.160156 -15.410156 C 9.800781 -16.351562 10.316406 -17.164062 10.65625 -17.933594 C 11 -18.703125 11.214844 -19.476562 11.300781 -20.246094 C 11.386719 -21.015625 11.386719 -21.871094 11.300781 -22.8125 C 11.128906 -24.695312 10.144531 -25.9375 8.347656 -26.539062 C 8.003906 -26.625 7.660156 -26.75 7.320312 -26.835938 C 6.933594 -26.921875 6.507812 -27.007812 6.078125 -27.09375 C 5.136719 -27.265625 4.28125 -27.351562 3.46875 -27.351562 C 2.609375 -27.351562 1.839844 -27.222656 1.242188 -26.964844 C 0.597656 -26.707031 0.257812 -26.238281 0.171875 -25.640625 C 0.0429688 -24.824219 -0.0429688 -24.183594 -0.0859375 -23.753906 C -0.128906 -23.5 -0.171875 -23.285156 -0.171875 -23.070312 C -0.171875 -22.8125 -0.171875 -22.601562 -0.171875 -22.34375 C -0.171875 -22.085938 -0.171875 -21.785156 -0.171875 -21.488281 C -0.171875 -21.144531 -0.128906 -20.800781 -0.0859375 -20.460938 C -0.0859375 -19.6875 0 -18.617188 0.171875 -17.25 C 0.257812 -16.050781 0.300781 -14.980469 0.386719 -14.039062 C 0.472656 -13.097656 0.511719 -12.242188 0.597656 -11.515625 C 0.640625 -10.742188 0.683594 -10.101562 0.726562 -9.503906 C 0.769531 -8.902344 0.8125 -8.347656 0.898438 -7.875 C 0.941406 -7.363281 0.984375 -6.976562 0.984375 -6.632812 C 0.984375 -6.292969 1.027344 -5.992188 1.070312 -5.777344 C 1.070312 -5.265625 1.113281 -4.921875 1.199219 -4.75 C 1.199219 -4.621094 1.242188 -4.535156 1.242188 -4.453125 L 1.242188 -4.28125 L 1.285156 -3.894531 C 1.414062 -3.210938 1.710938 -2.824219 2.226562 -2.738281 C 2.738281 -2.566406 3.296875 -2.523438 3.980469 -2.609375 Z M 4.792969 -14.722656 L 4.792969 -14.636719 C 4.664062 -15.621094 4.578125 -16.523438 4.496094 -17.292969 C 4.410156 -18.0625 4.324219 -18.789062 4.28125 -19.433594 C 4.195312 -20.03125 4.152344 -20.589844 4.109375 -21.101562 C 4.023438 -21.574219 3.980469 -22 3.9375 -22.386719 C 3.851562 -22.726562 3.808594 -23.070312 3.808594 -23.328125 C 3.808594 -23.585938 3.765625 -23.796875 3.765625 -23.96875 C 3.722656 -24.140625 3.679688 -24.269531 3.679688 -24.398438 C 3.679688 -24.527344 3.679688 -24.652344 3.679688 -24.738281 L 3.679688 -25.425781 C 3.679688 -25.511719 3.679688 -25.640625 3.722656 -25.808594 C 3.980469 -25.722656 4.195312 -25.679688 4.453125 -25.640625 C 4.664062 -25.597656 4.878906 -25.554688 5.09375 -25.511719 C 5.265625 -25.425781 5.480469 -25.382812 5.648438 -25.339844 C 5.820312 -25.253906 5.949219 -25.210938 6.121094 -25.167969 C 6.378906 -24.996094 6.632812 -24.78125 6.890625 -24.527344 C 7.105469 -24.183594 7.277344 -23.796875 7.40625 -23.328125 C 7.574219 -22.558594 7.617188 -21.785156 7.535156 -21.015625 C 7.449219 -20.203125 7.277344 -19.433594 7.019531 -18.660156 C 6.761719 -17.933594 6.464844 -17.207031 6.035156 -16.480469 C 5.648438 -15.792969 5.222656 -15.195312 4.792969 -14.722656 Z M 4.792969 -14.722656 "/></g></g></g><g fill="#fe8d41" fill-opacity="1"><g transform="translate(306.116547, 103.38925)"><g><path d="M 3.808594 -2.867188 L 3.894531 -2.824219 C 4.238281 -2.824219 4.535156 -2.953125 4.707031 -3.125 C 4.878906 -3.296875 5.007812 -3.550781 5.09375 -3.894531 C 5.179688 -4.238281 5.222656 -4.664062 5.222656 -5.222656 L 5.222656 -7.277344 L 5.179688 -7.277344 L 4.792969 -14.339844 L 4.410156 -21.402344 C 4.367188 -21.742188 4.324219 -22.128906 4.324219 -22.472656 C 4.28125 -22.8125 4.238281 -23.199219 4.195312 -23.542969 L 4.023438 -24.570312 C 3.9375 -24.910156 3.894531 -25.253906 3.851562 -25.640625 C 3.808594 -25.765625 3.722656 -25.980469 3.636719 -26.28125 C 3.550781 -26.453125 3.425781 -26.625 3.253906 -26.792969 C 3.082031 -26.878906 2.824219 -26.964844 2.484375 -27.050781 C 2.183594 -27.050781 1.753906 -27.050781 1.199219 -26.964844 C 0.941406 -26.878906 0.726562 -26.792969 0.554688 -26.707031 C 0.386719 -26.582031 0.257812 -26.367188 0.171875 -26.109375 C 0.0859375 -25.894531 0.0429688 -25.511719 0 -24.996094 C -0.0859375 -24.484375 -0.0859375 -23.882812 0 -23.199219 C 0 -22.472656 0.0429688 -21.53125 0.128906 -20.417969 C 0.128906 -19.816406 0.171875 -19.261719 0.171875 -18.660156 C 0.171875 -18.0625 0.214844 -17.464844 0.257812 -16.863281 C 0.257812 -16.222656 0.300781 -15.582031 0.300781 -14.980469 C 0.300781 -14.339844 0.34375 -13.695312 0.386719 -13.054688 C 0.386719 -11.769531 0.429688 -10.570312 0.511719 -9.460938 C 0.511719 -8.347656 0.554688 -7.363281 0.640625 -6.507812 C 0.640625 -5.648438 0.683594 -5.050781 0.769531 -4.707031 C 0.8125 -4.28125 0.855469 -3.980469 0.941406 -3.808594 C 1.027344 -3.550781 1.15625 -3.339844 1.414062 -3.167969 C 1.625 -2.953125 1.925781 -2.824219 2.3125 -2.824219 C 2.738281 -2.738281 3.253906 -2.78125 3.808594 -2.867188 Z M 3.808594 -2.867188 "/></g></g></g><g fill="#fe8d41" fill-opacity="1"><g transform="translate(318.740959, 103.38925)"><g><path d="M 10.445312 -2.523438 L 10.488281 -2.523438 C 11 -2.652344 11.386719 -2.867188 11.640625 -3.210938 C 11.898438 -3.550781 12.070312 -3.980469 12.113281 -4.453125 C 12.242188 -5.648438 12.371094 -6.761719 12.457031 -7.832031 C 12.542969 -8.859375 12.582031 -9.886719 12.667969 -10.828125 C 12.710938 -11.769531 12.753906 -12.667969 12.753906 -13.570312 C 12.753906 -14.46875 12.710938 -15.324219 12.710938 -16.179688 C 12.625 -17.804688 12.542969 -19.433594 12.457031 -21.058594 C 12.371094 -21.828125 12.328125 -22.640625 12.285156 -23.457031 C 12.242188 -24.269531 12.199219 -25.125 12.15625 -25.980469 C 12.113281 -26.410156 12.027344 -26.75 11.898438 -26.921875 C 11.769531 -27.050781 11.472656 -27.136719 11.042969 -27.222656 C 10.699219 -27.222656 10.402344 -27.222656 10.144531 -27.222656 C 9.84375 -27.179688 9.546875 -27.007812 9.246094 -26.75 C 9.160156 -26.453125 9.160156 -26.238281 9.160156 -26.109375 L 9.160156 -25.46875 C 9.203125 -23.925781 9.246094 -22.515625 9.289062 -21.273438 C 9.289062 -19.988281 9.332031 -18.875 9.375 -17.890625 C 9.375 -15.835938 9.417969 -14.210938 9.503906 -13.011719 C 9.503906 -12.371094 9.546875 -11.8125 9.546875 -11.34375 L 9.546875 -10.1875 C 9.546875 -9.84375 9.503906 -9.585938 9.503906 -9.375 C 9.503906 -9.117188 9.460938 -8.945312 9.460938 -8.816406 C 9.375 -8.519531 9.332031 -8.347656 9.289062 -8.347656 C 9.160156 -8.261719 9.074219 -8.21875 8.988281 -8.21875 C 8.476562 -9.757812 8.046875 -11.386719 7.703125 -13.097656 C 7.492188 -13.910156 7.277344 -14.722656 7.105469 -15.539062 C 6.933594 -16.308594 6.761719 -17.121094 6.589844 -17.890625 C 6.25 -19.433594 5.90625 -20.84375 5.5625 -22.128906 C 5.222656 -23.414062 4.835938 -24.484375 4.410156 -25.296875 C 3.980469 -26.066406 3.511719 -26.625 2.910156 -26.878906 C 2.3125 -27.136719 1.667969 -26.964844 0.898438 -26.367188 L 0.769531 -25.722656 C 0.726562 -25.597656 0.683594 -25.46875 0.683594 -25.339844 C 0.683594 -25.167969 0.640625 -24.996094 0.597656 -24.78125 C 0.511719 -24.527344 0.472656 -24.269531 0.472656 -24.011719 C 0.429688 -23.753906 0.386719 -23.414062 0.386719 -23.070312 C 0.300781 -22.300781 0.257812 -21.316406 0.257812 -20.117188 C 0.214844 -19.433594 0.171875 -18.789062 0.171875 -18.191406 C 0.171875 -17.59375 0.128906 -16.992188 0.128906 -16.4375 C 0.0859375 -15.835938 0.0429688 -15.28125 0.0429688 -14.679688 C 0.0429688 -14.082031 0.0429688 -13.441406 0.0429688 -12.839844 L 0.0429688 -8.902344 C 0.0429688 -8.21875 0.0429688 -7.492188 0.0429688 -6.71875 C 0.0429688 -5.949219 0.0859375 -5.136719 0.128906 -4.28125 C 0.128906 -3.679688 0.300781 -3.296875 0.640625 -3.125 C 0.941406 -2.867188 1.242188 -2.78125 1.582031 -2.78125 C 1.925781 -2.78125 2.226562 -2.867188 2.523438 -3.082031 C 2.78125 -3.253906 2.953125 -3.511719 3.039062 -3.851562 C 3.039062 -4.410156 3.082031 -5.007812 3.082031 -5.605469 C 3.082031 -6.207031 3.125 -6.804688 3.125 -7.449219 L 3.125 -9.246094 C 3.125 -9.800781 3.125 -10.359375 3.167969 -10.914062 C 3.167969 -11.429688 3.210938 -11.941406 3.210938 -12.414062 C 3.210938 -12.839844 3.253906 -13.269531 3.339844 -13.695312 C 3.425781 -14.425781 3.550781 -14.9375 3.722656 -15.28125 C 3.722656 -15.109375 3.765625 -14.9375 3.851562 -14.722656 C 3.894531 -14.46875 3.9375 -14.339844 3.980469 -14.253906 C 4.238281 -13.226562 4.453125 -12.285156 4.664062 -11.429688 C 4.878906 -10.570312 5.09375 -9.757812 5.308594 -8.988281 C 5.480469 -8.21875 5.691406 -7.492188 5.90625 -6.847656 C 6.078125 -6.207031 6.292969 -5.648438 6.546875 -5.136719 C 6.976562 -4.109375 7.492188 -3.382812 8.089844 -2.910156 C 8.6875 -2.441406 9.460938 -2.3125 10.445312 -2.523438 Z M 10.445312 -2.523438 "/></g></g></g><g fill="#fe8d41" fill-opacity="1"><g transform="translate(338.940398, 103.38925)"><g><path d="M 8.304688 -2.3125 L 8.558594 -2.609375 C 9.332031 -2.695312 9.929688 -2.867188 10.402344 -3.167969 C 10.828125 -3.425781 11.214844 -3.808594 11.472656 -4.324219 C 11.683594 -4.75 11.855469 -5.265625 12.027344 -5.949219 C 12.113281 -6.546875 12.199219 -7.191406 12.285156 -7.875 C 12.328125 -8.644531 12.328125 -9.375 12.242188 -10.058594 C 12.15625 -10.742188 12.027344 -11.472656 11.855469 -12.242188 C 11 -12.457031 10.1875 -12.542969 9.460938 -12.457031 C 8.6875 -12.371094 7.960938 -12.15625 7.191406 -11.855469 C 7.019531 -11.769531 6.976562 -11.683594 6.976562 -11.515625 C 6.976562 -11.300781 7.019531 -11.171875 7.148438 -11.171875 C 7.320312 -11.042969 7.617188 -10.957031 7.960938 -10.871094 C 8.089844 -10.785156 8.21875 -10.742188 8.390625 -10.699219 C 8.558594 -10.65625 8.6875 -10.613281 8.859375 -10.570312 C 8.859375 -10.230469 8.902344 -9.757812 8.988281 -9.203125 C 8.988281 -8.6875 8.988281 -8.175781 8.988281 -7.660156 L 8.902344 -6.890625 C 8.859375 -6.632812 8.816406 -6.378906 8.773438 -6.121094 C 8.6875 -5.605469 8.558594 -5.179688 8.390625 -4.835938 C 8.046875 -4.238281 7.660156 -4.023438 7.234375 -4.195312 C 6.71875 -4.324219 6.25 -4.664062 5.820312 -5.265625 C 5.351562 -5.863281 4.921875 -6.632812 4.535156 -7.660156 C 4.109375 -8.601562 3.894531 -9.714844 3.894531 -11 C 3.808594 -11.855469 3.808594 -12.925781 3.894531 -14.210938 C 3.894531 -14.851562 3.9375 -15.496094 3.980469 -16.179688 C 4.023438 -16.820312 4.109375 -17.507812 4.195312 -18.191406 C 4.367188 -19.5625 4.621094 -20.84375 4.964844 -22.042969 C 5.308594 -23.242188 5.734375 -24.183594 6.292969 -24.867188 C 6.804688 -24.527344 7.234375 -24.140625 7.574219 -23.753906 C 7.832031 -23.371094 8.003906 -22.855469 8.089844 -22.257812 C 8.132812 -21.699219 8.261719 -21.316406 8.519531 -21.101562 C 8.773438 -20.84375 9.03125 -20.671875 9.375 -20.589844 C 9.628906 -20.503906 9.929688 -20.503906 10.273438 -20.589844 C 10.53125 -20.671875 10.742188 -20.800781 10.914062 -21.058594 C 11.597656 -22.171875 11.640625 -23.285156 11.042969 -24.398438 C 10.613281 -25.039062 10.015625 -25.597656 9.203125 -26.066406 C 8.347656 -26.539062 7.40625 -26.792969 6.464844 -26.835938 C 5.4375 -26.878906 4.496094 -26.664062 3.636719 -26.152344 C 2.695312 -25.640625 2.011719 -24.695312 1.582031 -23.414062 C 1.328125 -22.640625 1.027344 -21.574219 0.683594 -20.289062 C 0.34375 -18.917969 0.0859375 -17.421875 -0.0859375 -15.792969 C -0.257812 -14.167969 -0.300781 -12.5 -0.214844 -10.828125 C -0.128906 -9.117188 0.214844 -7.617188 0.8125 -6.335938 C 1.414062 -4.964844 2.3125 -3.9375 3.511719 -3.167969 C 4.707031 -2.398438 6.335938 -2.097656 8.304688 -2.3125 Z M 8.304688 -2.3125 "/></g></g></g></svg>