<svg xmlns="http://www.w3.org/2000/svg" xmlns:xlink="http://www.w3.org/1999/xlink" width="500" zoomAndPan="magnify" viewBox="0 0 375 374.999991" height="500" preserveAspectRatio="xMidYMid meet" version="1.0"><defs><g/></defs><rect x="-37.5" width="450" fill="#ffffff" y="-37.499999" height="449.999989" fill-opacity="1"/><rect x="-37.5" width="450" fill="#000000" y="-37.499999" height="449.999989" fill-opacity="1"/><g fill="#fe8d41" fill-opacity="1"><g transform="translate(95.48933, 166.704168)"><g><path d="M 5.367188 -2.734375 L 5.574219 -2.890625 C 5.003906 -3.714844 4.695312 -4.488281 4.644531 -5.160156 C 4.539062 -5.777344 4.488281 -6.191406 4.488281 -6.347656 C 4.386719 -6.863281 4.179688 -7.277344 3.921875 -7.585938 C 3.613281 -7.792969 3.199219 -7.945312 2.683594 -8.050781 C 2.269531 -8.050781 1.804688 -8.050781 1.289062 -7.945312 C 0.824219 -7.84375 0.414062 -7.535156 0.0507812 -7.070312 C -0.0507812 -5.417969 0.257812 -4.078125 0.878906 -3.097656 C 1.496094 -2.0625 2.320312 -1.289062 3.355469 -0.773438 C 4.386719 -0.207031 5.519531 0.101562 6.757812 0.101562 C 8 0.15625 9.183594 -0.0507812 10.371094 -0.515625 C 11.507812 -0.929688 12.589844 -1.601562 13.519531 -2.527344 C 14.449219 -3.40625 15.066406 -4.539062 15.480469 -5.882812 C 15.789062 -7.222656 15.789062 -8.773438 15.480469 -10.527344 C 15.066406 -12.28125 14.191406 -14.242188 12.847656 -16.410156 C 12.382812 -17.078125 11.917969 -17.75 11.507812 -18.421875 C 11.09375 -19.09375 10.628906 -19.761719 10.21875 -20.484375 L 7.585938 -24.511719 C 7.070312 -25.285156 6.65625 -26.109375 6.398438 -27.039062 C 6.089844 -28.019531 5.882812 -29 5.777344 -30.03125 C 5.675781 -31.0625 5.726562 -31.992188 5.933594 -32.871094 C 6.140625 -33.695312 6.554688 -34.367188 7.171875 -34.882812 C 8.050781 -34.675781 8.71875 -34.367188 9.183594 -33.902344 C 9.597656 -33.386719 9.90625 -32.714844 10.113281 -31.941406 C 10.21875 -31.320312 10.269531 -30.804688 10.269531 -30.289062 L 10.269531 -28.894531 C 10.269531 -28.484375 10.371094 -28.175781 10.578125 -27.96875 C 10.785156 -27.761719 11.144531 -27.65625 11.660156 -27.65625 C 12.382812 -27.554688 13.003906 -27.761719 13.417969 -28.175781 C 13.828125 -28.585938 14.085938 -29.101562 14.191406 -29.722656 C 14.292969 -30.339844 14.292969 -31.011719 14.191406 -31.835938 C 14.085938 -32.199219 14.035156 -32.558594 13.933594 -32.921875 C 13.828125 -33.28125 13.726562 -33.644531 13.621094 -34.054688 C 13.519531 -34.316406 13.210938 -34.625 12.796875 -34.984375 C 12.28125 -35.398438 11.714844 -35.707031 11.09375 -36.015625 C 10.421875 -36.328125 9.648438 -36.585938 8.824219 -36.792969 C 7.894531 -36.996094 7.070312 -37.050781 6.296875 -37.050781 C 4.851562 -36.945312 3.765625 -36.480469 2.941406 -35.65625 C 2.117188 -34.726562 1.546875 -33.695312 1.238281 -32.507812 C 0.929688 -31.269531 0.878906 -29.929688 1.082031 -28.535156 C 1.289062 -27.140625 1.703125 -25.851562 2.425781 -24.714844 C 3.355469 -22.960938 4.230469 -21.515625 5.058594 -20.382812 C 5.777344 -19.144531 6.449219 -18.113281 7.070312 -17.285156 C 7.328125 -16.820312 7.585938 -16.410156 7.84375 -16.046875 C 8.050781 -15.636719 8.308594 -15.273438 8.515625 -14.964844 C 8.875 -14.34375 9.238281 -13.621094 9.597656 -12.847656 C 9.90625 -12.074219 10.164062 -11.300781 10.371094 -10.476562 C 10.578125 -9.546875 10.785156 -8.515625 10.992188 -7.378906 C 11.144531 -6.191406 11.042969 -5.210938 10.628906 -4.4375 C 10.21875 -3.613281 9.648438 -2.992188 9.03125 -2.578125 C 8.308594 -2.167969 7.636719 -1.960938 6.964844 -1.960938 C 6.242188 -1.960938 5.675781 -2.21875 5.367188 -2.734375 Z M 5.367188 -2.734375 "/></g></g></g><g fill="#fe8d41" fill-opacity="1"><g transform="translate(123.040247, 166.704168)"><g><path d="M 2.0625 -3.558594 L 2.269531 -3.664062 C 2.890625 -3.558594 3.507812 -3.558594 4.128906 -3.664062 C 4.539062 -3.664062 4.902344 -3.820312 5.160156 -4.078125 C 5.316406 -4.230469 5.417969 -4.644531 5.519531 -5.261719 C 5.519531 -5.777344 5.519531 -6.65625 5.519531 -7.792969 C 5.46875 -8.359375 5.417969 -9.03125 5.417969 -9.753906 C 5.417969 -10.476562 5.417969 -11.351562 5.417969 -12.332031 C 5.519531 -12.332031 5.625 -12.382812 5.777344 -12.488281 C 5.882812 -12.539062 6.039062 -12.589844 6.140625 -12.640625 C 8 -13.46875 9.597656 -14.601562 10.835938 -16.046875 C 12.074219 -17.441406 12.953125 -18.886719 13.46875 -20.433594 C 13.984375 -21.980469 14.136719 -23.476562 13.933594 -25.027344 C 13.726562 -26.523438 13.210938 -27.863281 12.382812 -29 C 11.558594 -30.082031 10.421875 -30.910156 8.980469 -31.527344 C 7.535156 -32.09375 5.777344 -32.199219 3.765625 -31.835938 C 3.300781 -31.734375 2.890625 -31.683594 2.578125 -31.632812 C 2.269531 -31.527344 1.960938 -31.476562 1.703125 -31.425781 C 1.1875 -31.320312 0.824219 -31.167969 0.566406 -30.960938 C 0.257812 -30.753906 0.101562 -30.445312 0.101562 -30.03125 C 0.0507812 -29.824219 0 -29.566406 0 -29.257812 C 0 -28.949219 0 -28.585938 0 -28.226562 L 0 -25.335938 C 0 -24.714844 -0.0507812 -24.097656 -0.0507812 -23.375 C -0.0507812 -22.652344 -0.101562 -21.878906 -0.101562 -21.054688 C -0.308594 -15.789062 -0.15625 -10.628906 0.359375 -5.46875 C 0.414062 -4.800781 0.566406 -4.335938 0.824219 -4.128906 C 1.082031 -3.820312 1.496094 -3.664062 2.0625 -3.558594 Z M 5.210938 -15.582031 L 5.316406 -15.789062 C 5.109375 -15.894531 5.003906 -16.046875 5.003906 -16.253906 C 4.902344 -16.460938 4.902344 -16.667969 4.902344 -16.925781 L 4.902344 -20.433594 C 4.902344 -20.898438 4.851562 -21.414062 4.851562 -22.035156 C 4.851562 -22.601562 4.800781 -23.273438 4.800781 -23.996094 C 4.695312 -25.4375 4.59375 -27.246094 4.488281 -29.359375 C 4.4375 -29.773438 4.539062 -30.03125 4.851562 -30.1875 C 5.160156 -30.289062 5.519531 -30.289062 5.933594 -30.1875 C 6.296875 -30.03125 6.707031 -29.722656 7.171875 -29.308594 C 7.535156 -28.894531 7.84375 -28.328125 8.152344 -27.503906 C 8.824219 -25.179688 8.980469 -23.015625 8.566406 -21 C 8.152344 -18.9375 7.019531 -17.132812 5.210938 -15.582031 Z M 5.210938 -15.582031 "/></g></g></g><g fill="#fe8d41" fill-opacity="1"><g transform="translate(148.991752, 166.704168)"><g><path d="M 8.773438 -3.40625 L 8.980469 -3.507812 C 9.082031 -3.507812 9.238281 -3.613281 9.441406 -3.820312 C 9.546875 -3.921875 9.699219 -4.023438 9.90625 -4.179688 C 9.648438 -4.539062 9.339844 -4.800781 8.980469 -5.003906 C 8.566406 -5.160156 8.203125 -5.261719 7.84375 -5.316406 C 7.636719 -5.316406 7.429688 -5.367188 7.222656 -5.367188 L 6.605469 -5.367188 C 6.191406 -5.367188 5.777344 -5.417969 5.367188 -5.625 L 5.316406 -17.234375 C 5.882812 -17.285156 6.398438 -17.335938 6.863281 -17.390625 C 7.277344 -17.390625 7.6875 -17.441406 8.101562 -17.492188 C 8.460938 -17.492188 8.773438 -17.542969 9.082031 -17.597656 C 9.339844 -17.597656 9.597656 -17.648438 9.804688 -17.75 C 10.164062 -17.855469 10.421875 -17.957031 10.628906 -18.164062 C 10.734375 -18.265625 10.835938 -18.472656 10.835938 -18.78125 C 10.628906 -18.988281 10.371094 -19.195312 10.0625 -19.296875 C 9.804688 -19.351562 9.441406 -19.402344 8.980469 -19.503906 C 8.773438 -19.503906 8.515625 -19.558594 8.257812 -19.558594 L 7.480469 -19.558594 C 7.171875 -19.558594 6.863281 -19.558594 6.5 -19.609375 C 6.140625 -19.609375 5.777344 -19.660156 5.367188 -19.761719 C 5.261719 -20.175781 5.210938 -20.640625 5.210938 -21.15625 C 5.160156 -21.621094 5.109375 -22.136719 5.109375 -22.652344 C 5.058594 -23.167969 5.003906 -23.632812 5.003906 -24.148438 C 5.003906 -24.664062 5.003906 -25.128906 5.003906 -25.644531 L 5.003906 -28.277344 C 5.003906 -28.636719 5.003906 -29 5.003906 -29.308594 C 5.003906 -29.617188 5.058594 -29.875 5.109375 -30.082031 L 6.449219 -30.082031 C 6.554688 -30.082031 6.707031 -30.082031 6.914062 -30.136719 C 7.84375 -30.238281 8.515625 -30.394531 8.824219 -30.597656 C 9.132812 -30.804688 9.238281 -31.011719 9.132812 -31.21875 C 9.03125 -31.425781 8.773438 -31.632812 8.410156 -31.835938 C 8.101562 -31.992188 7.738281 -32.09375 7.328125 -32.199219 C 6.398438 -32.300781 5.625 -32.40625 4.902344 -32.457031 C 4.179688 -32.507812 3.613281 -32.558594 3.148438 -32.558594 C 2.167969 -32.558594 1.445312 -32.40625 0.980469 -32.148438 C 0.464844 -31.835938 0.207031 -31.375 0.101562 -30.753906 C 0 -30.03125 -0.0507812 -29.15625 -0.0507812 -28.121094 C -0.15625 -24.199219 -0.101562 -20.382812 0.101562 -16.667969 C 0.207031 -12.847656 0.464844 -9.03125 0.878906 -5.210938 C 0.980469 -4.179688 1.445312 -3.613281 2.269531 -3.507812 C 2.785156 -3.40625 3.355469 -3.355469 3.871094 -3.300781 C 4.386719 -3.199219 4.953125 -3.148438 5.519531 -3.097656 C 6.554688 -2.992188 7.636719 -3.097656 8.773438 -3.40625 Z M 8.773438 -3.40625 "/></g></g></g><g fill="#fe8d41" fill-opacity="1"><g transform="translate(171.692837, 166.704168)"><g><path d="M 1.339844 -3.40625 L 1.703125 -3.507812 C 2.527344 -3.40625 3.148438 -3.457031 3.558594 -3.664062 C 3.972656 -3.765625 4.28125 -4.078125 4.488281 -4.59375 C 4.695312 -5.109375 4.851562 -5.726562 4.902344 -6.554688 C 4.902344 -7.378906 5.003906 -8.460938 5.210938 -9.804688 L 9.339844 -9.804688 C 9.546875 -9.03125 9.699219 -8.257812 9.804688 -7.535156 C 9.804688 -7.121094 9.855469 -6.757812 9.855469 -6.449219 C 9.855469 -6.140625 9.90625 -5.777344 10.011719 -5.46875 C 10.113281 -4.746094 10.320312 -4.230469 10.734375 -3.871094 C 11.042969 -3.457031 11.457031 -3.25 11.972656 -3.25 C 12.382812 -3.148438 12.847656 -3.199219 13.363281 -3.40625 C 13.777344 -3.507812 14.136719 -3.714844 14.449219 -4.023438 C 14.449219 -4.128906 14.398438 -4.4375 14.34375 -4.851562 C 14.292969 -5.261719 14.242188 -5.777344 14.191406 -6.5 C 13.984375 -7.84375 13.777344 -9.546875 13.570312 -11.609375 C 13.261719 -13.570312 12.953125 -15.6875 12.640625 -17.957031 C 12.4375 -19.039062 12.28125 -20.125 12.074219 -21.15625 C 11.867188 -22.1875 11.660156 -23.21875 11.457031 -24.253906 C 11.042969 -26.214844 10.628906 -27.863281 10.21875 -29.207031 C 9.804688 -30.546875 9.390625 -31.320312 9.082031 -31.476562 C 7.738281 -32.09375 6.65625 -32.457031 5.882812 -32.558594 C 5.058594 -32.613281 4.488281 -32.457031 4.078125 -32.09375 C 3.664062 -31.683594 3.355469 -31.21875 3.199219 -30.597656 C 3.097656 -30.289062 3.042969 -29.929688 2.992188 -29.617188 C 2.890625 -29.308594 2.839844 -28.949219 2.785156 -28.636719 C 2.578125 -27.296875 2.425781 -26.109375 2.269531 -24.976562 C 2.117188 -23.839844 2.011719 -22.808594 1.910156 -21.878906 C 1.804688 -20.949219 1.703125 -20.074219 1.601562 -19.296875 C 1.496094 -18.472656 1.394531 -17.75 1.339844 -17.132812 C 1.238281 -16.460938 1.1875 -15.839844 1.136719 -15.324219 C 1.082031 -14.757812 1.03125 -14.242188 0.980469 -13.777344 C 0.878906 -12.847656 0.773438 -11.972656 0.671875 -11.144531 L 0.359375 -8.667969 L 0.101562 -7.277344 C 0 -6.757812 -0.101562 -6.191406 -0.207031 -5.625 C -0.414062 -4.800781 -0.359375 -4.28125 -0.15625 -3.972656 C 0.0507812 -3.664062 0.515625 -3.457031 1.339844 -3.40625 Z M 5.574219 -13.003906 L 5.675781 -13.054688 C 5.625 -13.210938 5.625 -13.417969 5.625 -13.726562 L 5.625 -14.757812 C 5.625 -15.53125 5.675781 -16.410156 5.777344 -17.335938 C 5.832031 -17.800781 5.882812 -18.265625 5.984375 -18.730469 C 6.039062 -19.144531 6.089844 -19.609375 6.191406 -20.125 C 6.296875 -20.949219 6.554688 -21.722656 6.914062 -22.34375 C 6.964844 -22.035156 7.019531 -21.722656 7.070312 -21.515625 C 7.070312 -21.3125 7.121094 -21.105469 7.171875 -20.949219 C 7.171875 -20.640625 7.222656 -20.382812 7.328125 -20.175781 C 7.328125 -20.019531 7.378906 -19.761719 7.480469 -19.453125 C 7.480469 -19.296875 7.535156 -19.144531 7.535156 -18.988281 C 7.535156 -18.78125 7.585938 -18.578125 7.6875 -18.371094 C 7.738281 -18.113281 7.792969 -17.855469 7.84375 -17.542969 L 8.050781 -16.460938 C 8.152344 -15.636719 8.359375 -14.550781 8.667969 -13.210938 C 8.050781 -13.003906 7.535156 -12.898438 7.070312 -12.898438 C 6.757812 -12.898438 6.5 -12.898438 6.296875 -12.898438 C 6.039062 -12.898438 5.777344 -12.953125 5.574219 -13.003906 Z M 5.574219 -13.003906 "/></g></g></g><g fill="#fe8d41" fill-opacity="1"><g transform="translate(199.088969, 166.704168)"><g><path d="M 3.199219 -2.992188 L 3.300781 -3.558594 C 4.179688 -3.457031 4.800781 -3.558594 5.160156 -3.765625 C 5.519531 -3.972656 5.726562 -4.386719 5.777344 -5.058594 C 5.777344 -5.675781 5.726562 -6.65625 5.625 -8 C 5.46875 -9.238281 5.316406 -10.992188 5.160156 -13.210938 C 5.160156 -13.46875 5.109375 -13.675781 5.109375 -13.878906 C 5.003906 -14.085938 5.160156 -14.292969 5.574219 -14.5 C 6.398438 -13.15625 7.171875 -11.972656 7.894531 -10.9375 C 8.566406 -9.90625 9.183594 -8.980469 9.699219 -8.203125 C 10.734375 -6.65625 11.609375 -5.519531 12.332031 -4.800781 C 13.054688 -4.078125 13.726562 -3.714844 14.34375 -3.714844 C 14.914062 -3.714844 15.636719 -3.921875 16.5625 -4.4375 C 16.5625 -4.539062 16.617188 -4.746094 16.617188 -5.058594 C 16.617188 -5.261719 16.511719 -5.574219 16.304688 -5.984375 C 16.097656 -6.398438 15.789062 -6.964844 15.378906 -7.6875 C 15.171875 -8.050781 14.914062 -8.460938 14.601562 -8.980469 C 14.292969 -9.496094 13.933594 -10.0625 13.519531 -10.734375 C 12.589844 -12.179688 11.816406 -13.363281 11.199219 -14.292969 C 10.886719 -14.707031 10.578125 -15.117188 10.320312 -15.480469 C 10.011719 -15.839844 9.753906 -16.152344 9.546875 -16.460938 C 9.289062 -16.71875 9.03125 -16.976562 8.824219 -17.234375 C 8.617188 -17.441406 8.410156 -17.699219 8.203125 -17.90625 L 6.8125 -19.296875 C 7.171875 -19.816406 7.535156 -20.382812 7.84375 -20.898438 C 8.152344 -21.414062 8.515625 -21.929688 8.875 -22.445312 C 9.183594 -22.960938 9.546875 -23.476562 9.855469 -23.996094 C 10.164062 -24.511719 10.527344 -24.976562 10.886719 -25.492188 C 11.609375 -26.523438 12.382812 -27.503906 13.210938 -28.433594 C 14.035156 -29.359375 14.808594 -30.394531 15.53125 -31.527344 C 14.707031 -31.835938 14.191406 -32.042969 13.984375 -32.148438 C 13.675781 -32.148438 13.3125 -32.148438 12.898438 -32.148438 C 12.4375 -32.09375 11.867188 -31.734375 11.199219 -31.117188 C 10.476562 -30.496094 9.804688 -29.773438 9.183594 -28.949219 C 8.824219 -28.535156 8.515625 -28.121094 8.203125 -27.710938 C 7.894531 -27.296875 7.585938 -26.882812 7.328125 -26.523438 C 7.019531 -26.109375 6.8125 -25.800781 6.605469 -25.492188 L 6.089844 -24.714844 C 5.984375 -24.5625 5.933594 -24.40625 5.882812 -24.304688 C 5.777344 -24.199219 5.726562 -24.046875 5.675781 -23.890625 C 5.574219 -23.582031 5.316406 -23.375 4.953125 -23.324219 C 4.746094 -23.476562 4.644531 -23.941406 4.644531 -24.769531 C 4.59375 -25.179688 4.539062 -25.59375 4.539062 -26.058594 C 4.488281 -26.472656 4.4375 -26.9375 4.386719 -27.453125 C 4.28125 -27.914062 4.230469 -28.378906 4.179688 -28.84375 C 4.078125 -29.257812 4.023438 -29.722656 3.972656 -30.136719 C 3.765625 -30.960938 3.507812 -31.476562 3.199219 -31.632812 C 2.320312 -32.042969 1.445312 -32.09375 0.515625 -31.683594 C 0.101562 -31.476562 -0.0507812 -31.167969 -0.0507812 -30.753906 L -0.0507812 -29.980469 C -0.0507812 -29.722656 -0.0507812 -29.464844 0 -29.207031 C 0.0507812 -28.226562 0.101562 -27.347656 0.15625 -26.574219 C 0.15625 -25.75 0.207031 -25.027344 0.257812 -24.40625 C 0.257812 -23.738281 0.308594 -23.117188 0.308594 -22.496094 C 0.308594 -21.878906 0.359375 -21.3125 0.414062 -20.742188 C 0.414062 -19.609375 0.464844 -18.371094 0.566406 -17.027344 C 0.566406 -15.6875 0.621094 -13.984375 0.722656 -11.917969 C 0.722656 -11.351562 0.773438 -10.785156 0.773438 -10.269531 C 0.773438 -9.753906 0.824219 -9.238281 0.878906 -8.71875 C 0.929688 -7.6875 0.929688 -6.605469 0.878906 -5.519531 L 0.878906 -4.902344 C 0.878906 -4.695312 0.878906 -4.539062 0.929688 -4.386719 C 0.929688 -4.078125 1.03125 -3.820312 1.238281 -3.613281 C 1.394531 -3.40625 1.601562 -3.25 1.910156 -3.148438 C 2.21875 -3.042969 2.632812 -2.992188 3.199219 -2.992188 Z M 3.199219 -2.992188 "/></g></g></g><g fill="#fe8d41" fill-opacity="1"><g transform="translate(227.568573, 166.704168)"><g><path d="M 8.773438 -3.40625 L 8.980469 -3.507812 C 9.082031 -3.507812 9.238281 -3.613281 9.441406 -3.820312 C 9.546875 -3.921875 9.699219 -4.023438 9.90625 -4.179688 C 9.648438 -4.539062 9.339844 -4.800781 8.980469 -5.003906 C 8.566406 -5.160156 8.203125 -5.261719 7.84375 -5.316406 C 7.636719 -5.316406 7.429688 -5.367188 7.222656 -5.367188 L 6.605469 -5.367188 C 6.191406 -5.367188 5.777344 -5.417969 5.367188 -5.625 L 5.316406 -17.234375 C 5.882812 -17.285156 6.398438 -17.335938 6.863281 -17.390625 C 7.277344 -17.390625 7.6875 -17.441406 8.101562 -17.492188 C 8.460938 -17.492188 8.773438 -17.542969 9.082031 -17.597656 C 9.339844 -17.597656 9.597656 -17.648438 9.804688 -17.75 C 10.164062 -17.855469 10.421875 -17.957031 10.628906 -18.164062 C 10.734375 -18.265625 10.835938 -18.472656 10.835938 -18.78125 C 10.628906 -18.988281 10.371094 -19.195312 10.0625 -19.296875 C 9.804688 -19.351562 9.441406 -19.402344 8.980469 -19.503906 C 8.773438 -19.503906 8.515625 -19.558594 8.257812 -19.558594 L 7.480469 -19.558594 C 7.171875 -19.558594 6.863281 -19.558594 6.5 -19.609375 C 6.140625 -19.609375 5.777344 -19.660156 5.367188 -19.761719 C 5.261719 -20.175781 5.210938 -20.640625 5.210938 -21.15625 C 5.160156 -21.621094 5.109375 -22.136719 5.109375 -22.652344 C 5.058594 -23.167969 5.003906 -23.632812 5.003906 -24.148438 C 5.003906 -24.664062 5.003906 -25.128906 5.003906 -25.644531 L 5.003906 -28.277344 C 5.003906 -28.636719 5.003906 -29 5.003906 -29.308594 C 5.003906 -29.617188 5.058594 -29.875 5.109375 -30.082031 L 6.449219 -30.082031 C 6.554688 -30.082031 6.707031 -30.082031 6.914062 -30.136719 C 7.84375 -30.238281 8.515625 -30.394531 8.824219 -30.597656 C 9.132812 -30.804688 9.238281 -31.011719 9.132812 -31.21875 C 9.03125 -31.425781 8.773438 -31.632812 8.410156 -31.835938 C 8.101562 -31.992188 7.738281 -32.09375 7.328125 -32.199219 C 6.398438 -32.300781 5.625 -32.40625 4.902344 -32.457031 C 4.179688 -32.507812 3.613281 -32.558594 3.148438 -32.558594 C 2.167969 -32.558594 1.445312 -32.40625 0.980469 -32.148438 C 0.464844 -31.835938 0.207031 -31.375 0.101562 -30.753906 C 0 -30.03125 -0.0507812 -29.15625 -0.0507812 -28.121094 C -0.15625 -24.199219 -0.101562 -20.382812 0.101562 -16.667969 C 0.207031 -12.847656 0.464844 -9.03125 0.878906 -5.210938 C 0.980469 -4.179688 1.445312 -3.613281 2.269531 -3.507812 C 2.785156 -3.40625 3.355469 -3.355469 3.871094 -3.300781 C 4.386719 -3.199219 4.953125 -3.148438 5.519531 -3.097656 C 6.554688 -2.992188 7.636719 -3.097656 8.773438 -3.40625 Z M 8.773438 -3.40625 "/></g></g></g><g fill="#fe8d41" fill-opacity="1"><g transform="translate(250.269654, 166.704168)"><g><path d="M 4.800781 -3.148438 L 5.003906 -3.097656 C 5.574219 -3.148438 5.984375 -3.25 6.242188 -3.457031 C 6.5 -3.664062 6.65625 -3.972656 6.707031 -4.4375 C 6.707031 -4.851562 6.707031 -5.46875 6.707031 -6.296875 C 6.65625 -7.019531 6.605469 -8.050781 6.554688 -9.339844 L 6.554688 -9.855469 C 6.554688 -10.011719 6.707031 -10.164062 7.019531 -10.371094 L 7.328125 -10.0625 L 7.480469 -9.90625 C 7.535156 -9.804688 7.636719 -9.699219 7.738281 -9.597656 C 7.84375 -9.441406 8 -9.238281 8.203125 -9.03125 C 8.410156 -8.824219 8.617188 -8.515625 8.925781 -8.203125 C 9.183594 -7.84375 9.546875 -7.378906 9.957031 -6.863281 C 10.371094 -6.347656 10.835938 -5.726562 11.457031 -5.003906 C 11.867188 -4.386719 12.4375 -3.972656 13.15625 -3.765625 C 13.878906 -3.558594 14.449219 -3.457031 14.914062 -3.507812 C 15.429688 -3.558594 15.789062 -3.765625 16.097656 -4.078125 C 16.304688 -4.386719 16.304688 -4.746094 16.097656 -5.210938 C 15.996094 -5.367188 15.894531 -5.519531 15.789062 -5.675781 C 15.6875 -5.832031 15.582031 -5.984375 15.53125 -6.140625 C 15.378906 -6.347656 15.015625 -6.757812 14.5 -7.378906 C 13.984375 -7.894531 13.261719 -8.71875 12.28125 -9.90625 C 11.25 -11.042969 9.855469 -12.640625 8.101562 -14.707031 C 9.238281 -16.152344 10.21875 -17.441406 11.042969 -18.578125 C 11.816406 -19.710938 12.4375 -20.691406 12.847656 -21.621094 C 13.261719 -22.550781 13.519531 -23.476562 13.621094 -24.40625 C 13.726562 -25.335938 13.726562 -26.367188 13.621094 -27.503906 C 13.417969 -29.773438 12.230469 -31.269531 10.0625 -31.992188 C 9.648438 -32.09375 9.238281 -32.25 8.824219 -32.355469 C 8.359375 -32.457031 7.84375 -32.558594 7.328125 -32.664062 C 6.191406 -32.871094 5.160156 -32.972656 4.179688 -32.972656 C 3.148438 -32.972656 2.21875 -32.816406 1.496094 -32.507812 C 0.722656 -32.199219 0.308594 -31.632812 0.207031 -30.910156 C 0.0507812 -29.929688 -0.0507812 -29.15625 -0.101562 -28.636719 C -0.15625 -28.328125 -0.207031 -28.070312 -0.207031 -27.8125 C -0.207031 -27.503906 -0.207031 -27.246094 -0.207031 -26.9375 C -0.207031 -26.625 -0.207031 -26.265625 -0.207031 -25.902344 C -0.207031 -25.492188 -0.15625 -25.078125 -0.101562 -24.664062 C -0.101562 -23.738281 0 -22.445312 0.207031 -20.796875 C 0.308594 -19.351562 0.359375 -18.058594 0.464844 -16.925781 C 0.566406 -15.789062 0.621094 -14.757812 0.722656 -13.878906 C 0.773438 -12.953125 0.824219 -12.179688 0.878906 -11.457031 C 0.929688 -10.734375 0.980469 -10.0625 1.082031 -9.496094 C 1.136719 -8.875 1.1875 -8.410156 1.1875 -8 C 1.1875 -7.585938 1.238281 -7.222656 1.289062 -6.964844 C 1.289062 -6.347656 1.339844 -5.933594 1.445312 -5.726562 C 1.445312 -5.574219 1.496094 -5.46875 1.496094 -5.367188 L 1.496094 -5.160156 L 1.546875 -4.695312 C 1.703125 -3.871094 2.0625 -3.40625 2.683594 -3.300781 C 3.300781 -3.097656 3.972656 -3.042969 4.800781 -3.148438 Z M 5.777344 -17.75 L 5.777344 -17.648438 C 5.625 -18.835938 5.519531 -19.917969 5.417969 -20.847656 C 5.316406 -21.777344 5.210938 -22.652344 5.160156 -23.425781 C 5.058594 -24.148438 5.003906 -24.820312 4.953125 -25.4375 C 4.851562 -26.007812 4.800781 -26.523438 4.746094 -26.988281 C 4.644531 -27.398438 4.59375 -27.8125 4.59375 -28.121094 C 4.59375 -28.433594 4.539062 -28.691406 4.539062 -28.894531 C 4.488281 -29.101562 4.4375 -29.257812 4.4375 -29.414062 C 4.4375 -29.566406 4.4375 -29.722656 4.4375 -29.824219 L 4.4375 -30.652344 C 4.4375 -30.753906 4.4375 -30.910156 4.488281 -31.117188 C 4.800781 -31.011719 5.058594 -30.960938 5.367188 -30.910156 C 5.625 -30.855469 5.882812 -30.804688 6.140625 -30.753906 C 6.347656 -30.652344 6.605469 -30.597656 6.8125 -30.546875 C 7.019531 -30.445312 7.171875 -30.394531 7.378906 -30.339844 C 7.6875 -30.136719 8 -29.875 8.308594 -29.566406 C 8.566406 -29.15625 8.773438 -28.691406 8.925781 -28.121094 C 9.132812 -27.195312 9.183594 -26.265625 9.082031 -25.335938 C 8.980469 -24.355469 8.773438 -23.425781 8.460938 -22.496094 C 8.152344 -21.621094 7.792969 -20.742188 7.277344 -19.867188 C 6.8125 -19.039062 6.296875 -18.316406 5.777344 -17.75 Z M 5.777344 -17.75 "/></g></g></g><g fill="#fe8d41" fill-opacity="1"><g transform="translate(123.391324, 238.133272)"><g><path d="M 9.03125 -3.300781 L 9.183594 -3.355469 C 9.699219 -3.457031 10.011719 -3.820312 10.011719 -4.4375 L 10.011719 -5.210938 C 10.011719 -5.46875 9.957031 -5.726562 9.957031 -6.039062 C 9.855469 -7.222656 9.804688 -8.308594 9.804688 -9.339844 C 9.753906 -10.371094 9.699219 -11.300781 9.699219 -12.230469 C 9.648438 -13.878906 9.597656 -15.429688 9.546875 -16.769531 C 9.441406 -18.007812 9.390625 -19.144531 9.390625 -20.175781 C 9.289062 -21.105469 9.238281 -22.035156 9.238281 -22.960938 C 9.183594 -23.375 9.132812 -23.839844 9.132812 -24.253906 C 9.082031 -24.664062 9.03125 -25.128906 8.980469 -25.644531 C 8.875 -26.109375 8.824219 -26.574219 8.773438 -27.089844 C 8.71875 -27.605469 8.667969 -28.121094 8.617188 -28.742188 L 8.460938 -29.515625 C 8.359375 -29.773438 8.515625 -30.082031 8.824219 -30.394531 C 10.785156 -30.394531 12.074219 -30.546875 12.746094 -30.910156 C 13.417969 -31.269531 13.417969 -31.632812 12.746094 -31.941406 C 12.074219 -32.25 10.734375 -32.457031 8.773438 -32.558594 C 6.863281 -32.664062 4.230469 -32.457031 0.929688 -31.992188 C 0.722656 -31.992188 0.621094 -31.941406 0.515625 -31.835938 C 0.359375 -31.683594 0.207031 -31.578125 0.101562 -31.578125 C -0.101562 -31.476562 -0.15625 -31.269531 -0.15625 -31.0625 C -0.15625 -30.804688 -0.101562 -30.652344 0.101562 -30.597656 C 0.464844 -30.394531 0.722656 -30.289062 0.929688 -30.289062 C 1.1875 -30.1875 1.394531 -30.1875 1.601562 -30.1875 L 4.078125 -30.1875 C 4.078125 -29.566406 4.128906 -29 4.128906 -28.484375 C 4.128906 -27.96875 4.179688 -27.453125 4.28125 -26.988281 C 4.335938 -26.472656 4.386719 -26.007812 4.386719 -25.492188 C 4.386719 -24.976562 4.4375 -24.511719 4.488281 -24.046875 C 4.539062 -23.53125 4.59375 -22.859375 4.644531 -21.980469 C 4.644531 -21.464844 4.695312 -21 4.695312 -20.484375 C 4.695312 -19.96875 4.746094 -19.453125 4.851562 -18.886719 C 4.902344 -18.265625 4.953125 -17.699219 5.003906 -17.078125 C 5.003906 -16.460938 5.058594 -15.839844 5.160156 -15.222656 C 5.210938 -14.550781 5.261719 -13.878906 5.316406 -13.261719 C 5.316406 -12.640625 5.367188 -12.023438 5.46875 -11.402344 C 5.519531 -10.785156 5.574219 -10.164062 5.574219 -9.597656 C 5.574219 -9.03125 5.625 -8.515625 5.675781 -8 C 5.726562 -6.914062 5.777344 -6.089844 5.832031 -5.574219 C 5.882812 -4.953125 5.984375 -4.488281 6.191406 -4.179688 C 6.398438 -3.765625 6.65625 -3.507812 6.964844 -3.40625 C 7.277344 -3.199219 7.636719 -3.148438 7.945312 -3.148438 C 8.257812 -3.148438 8.617188 -3.199219 9.03125 -3.300781 Z M 9.03125 -3.300781 "/></g></g></g><g fill="#fe8d41" fill-opacity="1"><g transform="translate(144.853428, 238.133272)"><g><path d="M 3.300781 0.0507812 L 3.300781 0 C 4.179688 0 4.800781 -0.15625 5.160156 -0.515625 C 5.46875 -0.824219 5.726562 -1.445312 5.832031 -2.375 C 5.933594 -3.507812 5.832031 -4.335938 5.519531 -4.851562 C 5.210938 -5.261719 4.488281 -5.519531 3.40625 -5.625 C 2.632812 -5.625 1.910156 -5.574219 1.1875 -5.367188 C 0.515625 -5.160156 0.15625 -4.644531 0.101562 -3.871094 C 0 -3.042969 0 -2.320312 0.101562 -1.703125 C 0.207031 -1.082031 0.621094 -0.621094 1.445312 -0.308594 C 2.0625 -0.0507812 2.683594 0.0507812 3.300781 0.0507812 Z M 3.300781 0.0507812 "/></g></g></g><g fill="#fe8d41" fill-opacity="1"><g transform="translate(158.83442, 238.133272)"><g/></g></g><g fill="#fe8d41" fill-opacity="1"><g transform="translate(166.933714, 238.133272)"><g><path d="M 1.601562 -2.992188 L 2.117188 -3.097656 C 2.269531 -3.042969 2.476562 -2.992188 2.734375 -2.992188 C 2.941406 -2.992188 3.25 -2.992188 3.664062 -2.992188 C 4.023438 -2.992188 4.4375 -2.992188 4.851562 -3.042969 C 5.261719 -3.042969 5.726562 -3.097656 6.242188 -3.199219 C 7.121094 -3.300781 8.203125 -3.613281 9.496094 -4.078125 C 10.628906 -4.4375 11.816406 -5.058594 13.054688 -5.882812 C 14.085938 -6.554688 14.859375 -7.480469 15.429688 -8.617188 C 15.945312 -9.648438 16.152344 -10.785156 16.097656 -11.972656 C 15.996094 -13.105469 15.6875 -14.191406 15.171875 -15.222656 C 14.601562 -16.203125 13.777344 -16.976562 12.746094 -17.597656 C 12.488281 -17.699219 12.230469 -17.855469 12.023438 -17.957031 C 11.816406 -18.058594 11.558594 -18.164062 11.351562 -18.265625 C 11.09375 -18.371094 10.835938 -18.472656 10.578125 -18.578125 C 10.320312 -18.679688 10.0625 -18.78125 9.804688 -18.9375 C 10.011719 -19.246094 10.320312 -19.609375 10.628906 -19.917969 C 10.886719 -20.175781 11.144531 -20.484375 11.457031 -20.898438 C 12.640625 -22.394531 13.417969 -23.789062 13.726562 -25.078125 C 14.035156 -26.417969 13.933594 -27.554688 13.519531 -28.585938 C 13.003906 -29.617188 12.179688 -30.496094 11.042969 -31.21875 C 9.90625 -31.890625 8.410156 -32.355469 6.554688 -32.664062 C 5.625 -32.765625 4.695312 -32.816406 3.765625 -32.816406 C 3.25 -32.765625 2.785156 -32.714844 2.320312 -32.714844 C 1.859375 -32.714844 1.394531 -32.664062 0.929688 -32.664062 C 0.359375 -32.664062 0 -32.457031 -0.101562 -32.042969 C -0.257812 -31.632812 -0.308594 -31.011719 -0.308594 -30.1875 C -0.308594 -29.359375 -0.257812 -28.328125 -0.15625 -27.089844 C -0.101562 -26.472656 -0.0507812 -25.800781 -0.0507812 -25.078125 C -0.0507812 -24.355469 0 -23.582031 0.0507812 -22.757812 C 0.0507812 -18.316406 0.0507812 -14.808594 0.0507812 -12.230469 C -0.0507812 -9.648438 -0.0507812 -7.6875 0.0507812 -6.398438 C 0.0507812 -5.109375 0.207031 -4.230469 0.464844 -3.820312 C 0.671875 -3.40625 1.03125 -3.097656 1.601562 -2.992188 Z M 4.851562 -19.144531 L 4.902344 -19.246094 L 4.746094 -19.558594 C 4.644531 -19.558594 4.59375 -19.660156 4.59375 -19.867188 C 4.488281 -20.074219 4.488281 -20.332031 4.488281 -20.640625 C 4.488281 -20.796875 4.4375 -21 4.4375 -21.3125 C 4.4375 -21.621094 4.386719 -21.929688 4.386719 -22.34375 C 4.335938 -22.703125 4.28125 -23.167969 4.28125 -23.683594 C 4.28125 -24.199219 4.230469 -24.769531 4.179688 -25.4375 C 4.078125 -26.675781 3.972656 -28.328125 3.871094 -30.394531 C 4.953125 -30.394531 5.882812 -30.238281 6.65625 -29.824219 C 7.378906 -29.414062 7.894531 -28.84375 8.308594 -28.175781 C 8.667969 -27.453125 8.875 -26.730469 8.875 -26.007812 C 8.875 -25.179688 8.667969 -24.40625 8.359375 -23.738281 C 7.945312 -22.808594 7.429688 -22.035156 6.8125 -21.414062 C 6.140625 -20.691406 5.46875 -19.96875 4.851562 -19.144531 Z M 5.160156 -5.519531 L 5.261719 -5.675781 C 5.160156 -5.882812 5.109375 -6.191406 5.058594 -6.5 C 4.953125 -6.8125 4.902344 -7.171875 4.851562 -7.585938 C 4.746094 -8 4.695312 -8.410156 4.695312 -8.875 C 4.695312 -9.339844 4.644531 -9.804688 4.644531 -10.320312 C 4.59375 -10.785156 4.59375 -11.300781 4.59375 -11.816406 L 4.59375 -13.417969 C 4.59375 -14.449219 4.644531 -15.480469 4.746094 -16.511719 L 6.347656 -16.511719 C 6.964844 -16.511719 7.535156 -16.410156 8.152344 -16.203125 C 8.667969 -15.996094 9.183594 -15.636719 9.699219 -15.117188 C 10.164062 -14.601562 10.476562 -13.828125 10.628906 -12.898438 C 10.785156 -11.351562 10.734375 -10.113281 10.476562 -9.082031 C 10.164062 -8 9.441406 -7.121094 8.308594 -6.5 C 7.792969 -6.191406 7.277344 -5.933594 6.8125 -5.777344 C 6.242188 -5.574219 5.675781 -5.46875 5.160156 -5.519531 Z M 5.160156 -5.519531 "/></g></g></g><g fill="#fe8d41" fill-opacity="1"><g transform="translate(191.233476, 238.133272)"><g><path d="M 3.300781 0.0507812 L 3.300781 0 C 4.179688 0 4.800781 -0.15625 5.160156 -0.515625 C 5.46875 -0.824219 5.726562 -1.445312 5.832031 -2.375 C 5.933594 -3.507812 5.832031 -4.335938 5.519531 -4.851562 C 5.210938 -5.261719 4.488281 -5.519531 3.40625 -5.625 C 2.632812 -5.625 1.910156 -5.574219 1.1875 -5.367188 C 0.515625 -5.160156 0.15625 -4.644531 0.101562 -3.871094 C 0 -3.042969 0 -2.320312 0.101562 -1.703125 C 0.207031 -1.082031 0.621094 -0.621094 1.445312 -0.308594 C 2.0625 -0.0507812 2.683594 0.0507812 3.300781 0.0507812 Z M 3.300781 0.0507812 "/></g></g></g><g fill="#fe8d41" fill-opacity="1"><g transform="translate(205.214467, 238.133272)"><g/></g></g><g fill="#fe8d41" fill-opacity="1"><g transform="translate(213.313757, 238.133272)"><g><path d="M 5.882812 -3.199219 L 5.933594 -3.355469 C 7.277344 -3.25 8.515625 -3.613281 9.648438 -4.4375 C 10.734375 -5.210938 11.660156 -6.140625 12.4375 -7.277344 C 13.261719 -8.460938 13.828125 -9.648438 14.242188 -10.886719 C 14.65625 -12.230469 14.914062 -13.363281 14.964844 -14.292969 C 14.964844 -14.5 15.015625 -14.757812 15.015625 -15.066406 L 15.015625 -17.234375 C 15.015625 -17.597656 14.964844 -17.957031 14.964844 -18.371094 C 14.914062 -18.730469 14.859375 -19.09375 14.859375 -19.503906 C 14.859375 -19.867188 14.808594 -20.226562 14.808594 -20.640625 C 14.707031 -21.363281 14.65625 -21.980469 14.65625 -22.445312 C 14.449219 -24.613281 13.933594 -26.367188 13.210938 -27.710938 C 12.382812 -29.050781 11.402344 -30.136719 10.269531 -30.960938 C 9.03125 -31.734375 7.6875 -32.199219 6.191406 -32.355469 C 4.539062 -32.507812 2.941406 -32.40625 1.289062 -31.992188 C 0.929688 -31.890625 0.621094 -31.734375 0.414062 -31.578125 C 0.207031 -31.375 0.0507812 -31.117188 -0.0507812 -30.804688 C -0.15625 -30.394531 -0.207031 -29.929688 -0.207031 -29.414062 L -0.207031 -28.433594 C -0.207031 -28.019531 -0.207031 -27.605469 -0.15625 -27.140625 C -0.101562 -25.695312 -0.0507812 -24.40625 0 -23.273438 C 0.0507812 -22.085938 0.101562 -21 0.207031 -20.019531 C 0.359375 -17.957031 0.515625 -16.304688 0.671875 -14.964844 C 0.722656 -14.242188 0.773438 -13.621094 0.824219 -13.003906 C 0.878906 -12.382812 0.929688 -11.765625 1.03125 -11.25 C 1.082031 -10.679688 1.136719 -10.113281 1.136719 -9.597656 C 1.136719 -9.082031 1.082031 -8.515625 1.082031 -8 C 1.082031 -7.480469 1.136719 -6.964844 1.238281 -6.449219 C 1.289062 -6.140625 1.339844 -5.882812 1.339844 -5.675781 C 1.339844 -5.417969 1.394531 -5.160156 1.445312 -4.953125 C 1.601562 -4.179688 1.859375 -3.664062 2.21875 -3.457031 C 2.578125 -3.148438 2.941406 -2.992188 3.355469 -2.992188 C 3.765625 -2.890625 4.230469 -2.941406 4.644531 -3.042969 C 5.058594 -3.148438 5.46875 -3.199219 5.882812 -3.199219 Z M 6.5 -6.296875 L 6.5 -6.449219 C 6.296875 -6.554688 6.191406 -6.65625 6.191406 -6.757812 C 6.089844 -6.863281 6.039062 -7.121094 6.039062 -7.535156 C 5.933594 -7.945312 5.882812 -8.566406 5.882812 -9.390625 C 5.832031 -9.804688 5.777344 -10.320312 5.777344 -10.9375 C 5.777344 -11.558594 5.726562 -12.28125 5.675781 -13.105469 C 5.574219 -13.933594 5.519531 -14.859375 5.46875 -15.894531 C 5.417969 -16.925781 5.367188 -18.113281 5.316406 -19.453125 C 5.210938 -20.742188 5.160156 -22.1875 5.058594 -23.789062 C 4.953125 -25.386719 4.800781 -27.195312 4.695312 -29.15625 C 4.644531 -29.308594 4.644531 -29.566406 4.644531 -29.929688 L 4.644531 -30.855469 C 5.160156 -30.753906 5.726562 -30.597656 6.296875 -30.394531 C 6.863281 -30.1875 7.429688 -29.773438 8 -29.257812 C 8.515625 -28.636719 9.03125 -27.863281 9.546875 -26.9375 C 9.957031 -25.902344 10.320312 -24.5625 10.628906 -22.910156 C 10.9375 -20.484375 10.9375 -18.214844 10.679688 -16.152344 C 10.421875 -14.191406 10.011719 -12.488281 9.496094 -10.992188 C 8.980469 -9.597656 8.460938 -8.460938 7.84375 -7.585938 C 7.277344 -6.757812 6.8125 -6.347656 6.5 -6.296875 Z M 6.5 -6.296875 "/></g></g></g><g fill="#fe8d41" fill-opacity="1"><g transform="translate(236.530054, 238.133272)"><g><path d="M 3.300781 0.0507812 L 3.300781 0 C 4.179688 0 4.800781 -0.15625 5.160156 -0.515625 C 5.46875 -0.824219 5.726562 -1.445312 5.832031 -2.375 C 5.933594 -3.507812 5.832031 -4.335938 5.519531 -4.851562 C 5.210938 -5.261719 4.488281 -5.519531 3.40625 -5.625 C 2.632812 -5.625 1.910156 -5.574219 1.1875 -5.367188 C 0.515625 -5.160156 0.15625 -4.644531 0.101562 -3.871094 C 0 -3.042969 0 -2.320312 0.101562 -1.703125 C 0.207031 -1.082031 0.621094 -0.621094 1.445312 -0.308594 C 2.0625 -0.0507812 2.683594 0.0507812 3.300781 0.0507812 Z M 3.300781 0.0507812 "/></g></g></g></svg>